<?xml version="1.0" encoding="utf-8"?>
<!-- Generator: Adobe Illustrator 24.1.2, SVG Export Plug-In . SVG Version: 6.00 Build 0)  -->
<svg version="1.1" id="Layer_1" xmlns="http://www.w3.org/2000/svg" xmlns:xlink="http://www.w3.org/1999/xlink" x="0px" y="0px"
	 width="182" height="44" viewBox="0 0 182 44" style="enable-background:new 0 0 182 44;" xml:space="preserve">
<style type="text/css">
	.st0{font-family:'Helvetica';}
	.st1{font-size:16.376px;}
	.st2{font-family:'Helvetica-Bold';}
	.st3{font-size:15.3521px;}
	.st4{fill:#3C3B6E;}
	.st5{fill:#B22234;}
</style>
<text transform="matrix(1.0107 0 0 1 63.667 21.043)" class="st0 st1">Houston</text>
<text transform="matrix(1.0107 0 0 1 63.667 34.7603)" class="st2 st3">Minority Owned</text>
<rect x="5.9" y="3.5" class="st4" width="10.9" height="37.1"/>
<polygon class="st4" points="42.1,3.5 30.1,22.4 24.3,31.6 23.7,32 17,22.8 23.3,12.9 29.3,3.5 "/>
<polygon class="st4" points="30.1,22.4 24.3,31.6 23.7,32 17,22.8 16.8,22.4 5.9,7.3 5.9,3.5 16.5,3.5 16.8,3.8 23.3,12.9 "/>
<path class="st5" d="M46.4,3.5l-6.2,9.6c3.9,0.5,7.1,3.8,7.2,7.9c0.2,4.6-3.4,8.5-8,8.7c-3.1,0.1-5.8-1.4-7.4-3.9l-6,9.6
	c3.6,3.4,8.6,5.4,14,5.2c10.6-0.4,18.9-9.4,18.5-20C58.1,12.8,53.2,6.2,46.4,3.5z"/>
</svg>
