<svg id="Layer_1" data-name="Layer 1" xmlns="http://www.w3.org/2000/svg" width="64" height="64" viewBox="0 0 162 162"><path d="M80,0h9l12.89,13c1.86,4.79,4.23,9.44,5.48,14.38q6.28,24.86,11.81,49.89c.8,3.64,2,5,5.77,4.79,6.47-.38,13-.25,19.45-.37,5.74-.11,8.74,2,8.87,6.37s-2.77,6.7-8.54,6.79c-7.3.11-14.6,0-22.27,0,1.59,11,3.34,21.53,4.56,32.07,1.11,9.54,1.64,19.15,2.42,28.72L124,162H113c-1.92-.86-3.85-1.69-5.76-2.57-11.15-5.16-19.79-13.39-27.3-22.84-7.27-9.16-13.68-18.9-15.84-30.7C62,94.54,66.24,88.08,77.3,85.23a55.82,55.82,0,0,1,7.31-1.52c7.22-.86,14.47-1.56,22-2.34-.64-3.54-1.18-7-1.89-10.37-3.55-17.06-6.73-34.25-14.14-50.21-4.5-9.68-7.71-10.12-13-.82A278.3,278.3,0,0,0,60.48,54.79c-10.24,25.9-19.61,52.15-29.33,78.26-.39.91-.82,1.81-1.17,2.74-2.12,5.74-4.1,11.52-6.36,17.19-1.71,4.28-5.28,6.14-8.61,4.58-4-1.87-4.92-5.09-3.37-9.12.35-.92.72-1.85,1-2.78q4.8-13.78,9.58-27.57c.82-2,1.69-4,2.45-6C34.05,87.6,43,63,52.79,38.61c5-12.45,10.49-24.87,20.64-34.34Zm35.65,149c.25-2.22.56-3.23.43-4.17-2.18-15.64-4.33-31.28-6.79-46.87-.18-1.17-2.68-2.89-4-2.81A190.49,190.49,0,0,0,84.5,97.24c-8.71,1.48-9.38,2.88-6,11.21C84,122,92.89,133.08,104.35,142,107.64,144.62,111.51,146.45,115.65,149Z" fill="#46382a"/><path d="M31.15,133.05c9.72-26.11,19.09-52.36,29.33-78.26A278.3,278.3,0,0,1,77.53,20c5.29-9.3,8.5-8.86,13,.82,7.41,16,10.59,33.15,14.14,50.21.71,3.4,1.25,6.83,1.89,10.37-7.48.78-14.73,1.48-22,2.34a55.82,55.82,0,0,0-7.31,1.52C66.24,88.08,62,94.54,64.1,105.89c2.16,11.8,8.57,21.54,15.84,30.7,7.51,9.45,16.15,17.68,27.3,22.84,1.91.88,3.84,1.71,5.76,2.57H79c-5.91-1.35-11.79-2.83-17.73-4-10.2-2.06-18.58-6.68-24-16C35.47,138.88,33.21,136,31.15,133.05Z" fill="#d9d8d8"/><path d="M73.43,4.27C63.28,13.74,57.78,26.16,52.79,38.61,43,63,34.05,87.6,24.72,112.12c-.76,2-1.63,4-2.45,6-1.16-1.15-2.42-2.21-3.46-3.45Q9.38,103.35,0,92V64a23.32,23.32,0,0,0,2.23-4C5.29,50.3,7.75,40.43,11.35,31,16,18.8,21.65,7,35,1.61c.48-.19.68-1.06,1-1.61H61Z" fill="#dadada"/><path d="M129.44,155.7c-.78-9.57-1.31-19.18-2.42-28.72-1.22-10.54-3-21-4.56-32.07,7.67,0,15,.08,22.27,0,5.77-.09,8.66-2.5,8.54-6.79s-3.13-6.48-8.87-6.37c-6.48.12-13,0-19.45.37-3.78.22-5-1.15-5.77-4.79q-5.52-25-11.81-49.89c-1.25-4.94-3.62-9.59-5.48-14.38,4.4,3.4,9.33,6.3,13.11,10.29C125.1,34,134.79,45.06,144.46,56.14a44.51,44.51,0,0,1,6.91,10.2c2.94,6.3,5.11,12.94,7.77,19.37A25.22,25.22,0,0,0,162,90v31c-1,1.94-2.46,3.76-3,5.82C154.64,142.15,143.68,150.58,129.44,155.7Z" fill="#dadada"/><path d="M73.43,4.27,61,0H80Z" fill="#fafafb"/><path d="M57,0h0Z" fill="#fafafb"/><path d="M0,88v0Z" fill="#fdfdfd"/><path d="M115.65,149c-4.14-2.5-8-4.33-11.3-6.91-11.46-9-20.37-20-25.86-33.59-3.37-8.33-2.7-9.73,6-11.21a190.49,190.49,0,0,1,20.78-2.14c1.33-.08,3.83,1.64,4,2.81,2.46,15.59,4.61,31.23,6.79,46.87C116.21,145.72,115.9,146.73,115.65,149Z" fill="#d7d7d7"/></svg>