<svg id="Layer_1" data-name="Layer 1" xmlns="http://www.w3.org/2000/svg" width="80" height="80" viewBox="0 0 192.64 293.29"><path d="M185.3,263.92c1.13,4.15,1.86,8.45,3.49,12.39,1.39,3.34,1.36,5.17-2.49,6.1-11.58,2.82-23.14,5.75-34.71,8.59-2.12.52-2.14.42-2.1,2.29h-2c-.29-.59-.59-1.71-.89-1.71q-15.6-.13-31.22,0c-.3,0-.59,1.12-.89,1.71h-2c2-2.62-.68-2-1.63-2.17-6.52-1.34-13.16-2.22-19.59-3.91-37-9.71-66.76-30.15-89.56-60.86-2.4-3.23-2-5.63-.54-9.28,4.17-10.55,7.45-21.45,11.08-32.21l2.52.92,1.52-3.49Q18.13,175.63,20,169c.66-2.68,1.72-5.33,1.9-8.05.33-4.93-.09-9.91.21-14.85.89-14.79,1.8-29.57,3-44.33,2.07-25.37,10.62-48.42,27-67.9C57.78,27.14,65.94,22.51,73,16.94c1.73-1.38,3.51-2.7,5.26-4l3.24.46,2.27,2.39V12.44l.57-3.28q4.38-1.81,8.75-3.65c.44-.19,1-.74,1.27-.64,5.09,1.65,9.81-1.32,15.34-1.72.84-2.55,2-4.87,6-1.38,1.61,1.39,5.42.25,8.23.26-.59,2.9-.95,5.62,3.56,4.47l2.34.32,6.69-2L137,6.3c0,1.12.11,2.24.17,3.36l0,.14c-.75,3.46,2.26,7.23,7.16,9l-.15.15c3.14,1.24,6.29,2.5,9.48,3.62.05,0,.71-1.71,1.08-2.62l-.82-1.6L151.8,16.8,151,15.32c-1.08-1.79-2.17-3.58-3.25-5.38l1-4q6.06,9,12.1,18.1c.38.84.77,1.68,1.15,2.51,1.91,2.56,3.78,5.14,5.74,7.66,3,3.9,6.22,7.68,9.11,11.67A43.16,43.16,0,0,1,180,52c.33.85.67,1.7,1,2.54,1,3.33,2,6.64,2.91,10,.42,1.49.73,3,1.09,4.53-5.41,2.86-5.41,2.86-1,11.59l2.77-3.71c.5,2.89.55,5.94,1.58,8.63,3.26,8.51,2.53,17.3,2.47,26.07l-2.52,1.07-.24-7.12V104c-1.26-2.78-.36-7-4.5-7.92a10.21,10.21,0,0,0,.41,3.49c.74,5.62,1.46,11.24,2,16.88.19,1.9-.11,3.79,2.73,3.37q0,5.75,0,11.51c0,.64,0,1.28,0,1.92q0,11.52,0,23.05c-.06.11-.19.23-.17.33a3.16,3.16,0,0,0,.18.65c.44,8.59,1.8,17.25,1.11,25.74-1,12.69,1.6,24.89,2.88,37.28-.06.11-.19.23-.17.33a3.16,3.16,0,0,0,.18.65q0,6,0,12.05c0,.64,0,1.28,0,1.92q-2,8-4,16l-2.18-.9,0,0-1.14-2,.94-10.35-1.73-.28c-.63,2.93-1.43,5.83-1.87,8.79-.67,4.53-1.27,9.08-1.51,13.65,0,.93,1.58,2,2.43,2.95Zm-85.22-119.4c-3.58,1.76-6.34,2.67-8.53,4.33-1.6,1.21-3.24,3.33-3.41,5.19-.22,2.21.84,4.7,1.83,6.84,3.07,6.67,5.13,14.41,11.86,18.23,5.52,3.14,12,4.64,18.08,6.73,6.36,2.18,13.2,2.59,19.09,6.59,6.62,4.49,15.89,3.67,21.13-2.28,4.36-5,7.65-11,10.88-16.77,6.69-12,7.57-25.84,10.93-38.88,2.31-9,.81-17.8-2.62-26.41-2.69-6.77-5.13-13.68-7.13-20.68-2.38-8.31-3.24-9-11.61-7.1-3.58.8-7.3,1-11,1.4l-.28-2c6.29-1.75,12.13-6.21,19.82-1.37a37,37,0,0,0-.54-3.69c-2.53-9.62-8.49-17.13-14.52-24.78-5.34-6.76-12.46-10.64-19.85-14a13.83,13.83,0,0,0-12.61,0c-4.42,2.15-10.24,1.64-15.46,1.85A19.26,19.26,0,0,0,89.64,49c-1.4,3.13-3.65,5.86-5.29,8.89a9,9,0,0,0-1.3,4.65c.41,5,1.15,10.05,1.86,15.05C86,85.3,88.09,86.06,95.22,84A127.81,127.81,0,0,1,116.62,80c2.64-.31,5.5,1.25,8.26,2l-.17,1.59a9.81,9.81,0,0,1-2.94.89c-3.78-.13-7.58-.87-11.32-.64C103.9,84.22,96.2,85,93,90.71c-3.34,6-7.93,5.92-13,7.16-3.42.84-6.48,2.83-7.16,7.14-.83,5.32,2.65,8.28,5.34,12,3.45,4.73,5.8,10.3,9.37,14.92C90.86,136.15,95.15,139.62,100.08,144.52Zm-3.45,63.61a24.67,24.67,0,0,0,1,4.28c3.73,8.12,7.55,16.2,11.34,24.28.9,1.91,1.7,3.87,2.75,5.69q5.48,9.41,11.12,18.72a10.08,10.08,0,0,0,1.74,1.78c.51-.65,1.44-1.29,1.46-1.95.14-4.51-.41-9.1.19-13.53,1-7.71,2.15-15.52,4.36-22.94s1.79-15.63,7.3-21.9a2.25,2.25,0,0,0-.42-2.17,3,3,0,0,0-2.59-.2c-2.18,1.31-4,3.82-6.3,4.24-7.26,1.33-15,3.69-21.89,2.23-5.24-1.11-4.52,1-5.24,3.74Zm69.71,36.6,2.52.59c.57-2.49,1.15-5,1.72-7.49l-2.49-.58C167.51,239.74,166.92,242.24,166.34,244.73Z" fill="#433526"/><path d="M114.49,293.29c.3-.59.59-1.71.89-1.71q15.62-.13,31.22,0c.3,0,.6,1.12.89,1.71Z" fill="#fefefe"/><path d="M188.64,119.82c-2.84.42-2.54-1.47-2.73-3.37-.54-5.64-1.26-11.26-2-16.88a10.21,10.21,0,0,1-.41-3.49c4.14,1,3.24,5.14,4.5,7.92l-1.1,1,1.1.61.24,7.12c.25,2.21.5,4.43.74,6.64A1.17,1.17,0,0,0,188.64,119.82Z" fill="#fdfdfd"/><path d="M186.71,76.93l-2.77,3.71c-4.39-8.73-4.39-8.73,1-11.59C185.54,71.68,186.13,74.3,186.71,76.93Z" fill="#a39c94"/><path d="M137,6.3l-.55-1.45c4.54-4,8.86-3.61,12.24,1.08-.33,1.33-.67,2.67-1,4-.91-1.22-1.83-2.45-2.7-3.64Z" fill="#a39c94"/><path d="M84.31,9.16l-.57,3.28-2.27.92-3.24-.46C78.86,9.37,81.66,9.38,84.31,9.16Z" fill="#a8a19a"/><path d="M186.45,250.38l2.18.9-1.35,6.53-1.69-.17C185.88,255.22,186.16,252.8,186.45,250.38Z" fill="#fdfdfd"/><path d="M189,119.34c-.24-2.21-.49-4.43-.74-6.64l2.52-1.07a19.67,19.67,0,0,1,.16,4.71C190.72,117.42,189.66,118.35,189,119.34Z" fill="#a39c94"/><path d="M127.44,6.5c-4.51,1.15-4.15-1.57-3.56-4.47l3.59,2.33Z" fill="#a8a19a"/><path d="M14.77,185.78l-2.52-.92c.19-1.09.39-2.18.58-3.27l1.06-.12Z" fill="#a8a19a"/><path d="M181,54.54c-.33-.84-.67-1.69-1-2.54l2.47.41Z" fill="#a39c94"/><path d="M127.44,6.5l0-2.14,2.31,2.46Z" fill="#a39c94"/><path d="M185.27,248.36l1.14,2-1.73.11C184.88,249.75,185.08,249.05,185.27,248.36Z" fill="#fdfdfd"/><path d="M162,26.54c-.38-.83-.77-1.67-1.15-2.51l2.44,1Z" fill="#a39c94"/><path d="M188.64,133.25c0-.64,0-1.28,0-1.92C188.64,132,188.64,132.61,188.64,133.25Z" fill="#fdfdfd"/><path d="M192.64,235.25c0-.64,0-1.28,0-1.92C192.64,234,192.64,234.61,192.64,235.25Z" fill="#fdfdfd"/><path d="M185.3,263.92l-1.77-.8Z" fill="#fdfdfd"/><path d="M192.19,243.05v1.5h-.39v-1.49Z" fill="#fdfdfd"/><path d="M188.61,157.28a3.16,3.16,0,0,1-.18-.65c0-.1.11-.22.17-.33C188.6,156.63,188.61,157,188.61,157.28Z" fill="#fdfdfd"/><path d="M192.61,221.28a3.16,3.16,0,0,1-.18-.65c0-.1.11-.22.17-.33C192.6,220.63,192.61,221,192.61,221.28Z" fill="#fdfdfd"/><path d="M179.23,45.94l-.28.25c-.07-.1-.19-.22-.18-.31s.17-.17.26-.26Z" fill="#a39c94"/><path d="M81.47,13.36l2.27-.92v3.31Z" fill="#958d84"/><path d="M154.78,19.92l-3.24.43-.29-.7L154,18.32Z" fill="#a39c94"/><path d="M151.8,16.8l-4.17.66L151,15.32Z" fill="#a39c94"/><path d="M144.37,18.77l2.07-1.71.59,1.27-2.81.59Z" fill="#a39c94"/><path d="M137.19,9.66l.73,0-.71.17Z" fill="#a39c94"/><path d="M113.74,101.45c-.15.28-.3.81-.45.82-7.32,0-14.63,0-22.66,0,.92-1.54,1.25-2.88,2.05-3.28C101,94.84,109.4,90.87,119,94c1.12.36,1.8,2.11,2.69,3.22l-9.65-2.32C112.83,97.83,113.28,99.64,113.74,101.45Z" fill="#433526"/><path d="M126.35,146.83c2.15-.84,4.26-2.29,6.45-2.4,8-.39,16-.49,23.95-.36,2.48,0,4.94,1.18,7.66,1.88L160,153.13c-4.86-8.09-7.85-8.77-19.6-5.88-4.05,1-8.38.83-12.58,1.19Z" fill="#a19a93"/><path d="M158.87,94.39c.37,1.7.74,3.41,1.09,5-3.39,3.23-6.9,2-10.62.71-1-4.65.63-7.69,5.32-9.46,5.55-2.09,11-.21,15.91,6-3.13,2.88-3.38,2.67-5.79-.52-1.08-1.43-3.2-2.07-4.86-3.07Z" fill="#433526"/><path d="M126.92,124.24c1.5,4,4.19,5.16,8.4,4.13,4.5-1.1,9.39-2.5,12.76,4.44-2.63.27-6,1.55-7,.53-2.84-3-4.51.58-6.65.37-2.57-.26-5.12-.63-7.68-1l-1.5-.13c-2.39-2.9-2.37-5.79,0-8.68Z" fill="#433526"/><path d="M167.07,145.36c-1.29-4.13-2.6-8.25-3.86-12.39-.46-1.53-.77-3.1-1.16-4.66l1.67-.36c2.06,3.85,4.46,7.57,6,11.62.63,1.65-.61,4-1,6.06Z" fill="#433526"/><path d="M126.35,146.83l1.51,1.61-1.11,1.17-2.5,1.15-5,3.22-3.78-3,.44-1.77Z" fill="#433526"/><path d="M126.94,160.32l11.75,5.05C132,167.66,129.91,166.86,126.94,160.32Z" fill="#433526"/><path d="M127.13,135.07l5.12.23,0,1.39H127.3Z" fill="#a19a93"/><path d="M163.72,128l-1.67.36c-.38-1.09-.76-2.18-1.15-3.27l1.18-.28Z" fill="#a19a93"/><path d="M126.92,124.24l-1.66-.29c.68-.93,1.36-1.87,2-2.8l1,.73Z" fill="#a19a93"/><path d="M167.07,145.36l1.66.27L167.3,148l-.6-.18Z" fill="#a19a93"/><path d="M124.25,150.76l2.5-1.15c-.32.81-.65,1.61-1,2.42Z" fill="#a19a93"/><path d="M123.9,99.14l1.43,1.37-1.84.25C123.63,100.22,123.76,99.68,123.9,99.14Z" fill="#a7a19a"/><path d="M123.9,99.14c-.14.54-.27,1.08-.41,1.62l-2.09-.4.18-3.15Z" fill="#433526"/><path d="M125.25,132.63l1.5.13-.65,1.06Z" fill="#a19a93"/><polygon points="148.89 130.57 149.06 130.89 148.69 130.87 148.89 130.57" fill="#a19a93"/></svg>