<?xml version="1.0" encoding="utf-8"?>
<!-- Generator: Adobe Illustrator 24.1.2, SVG Export Plug-In . SVG Version: 6.00 Build 0)  -->
<svg version="1.1" id="Layer_1" xmlns="http://www.w3.org/2000/svg" xmlns:xlink="http://www.w3.org/1999/xlink" x="0px" y="0px"
	 width="64" height="64" viewBox="0 0 64 64" style="enable-background:new 0 0 64 64;" xml:space="preserve">
<style type="text/css">
	.st0{fill:#97694A;}
	.st1{fill:#FFEFD5;}
</style>
<path class="st0" d="M22.3,57.8h12.2c7.5-2.5,12.9-9.6,12.9-18H9.4C9.4,48.2,14.8,55.3,22.3,57.8z"/>
<path class="st1" d="M47.2,39.8c0.1-0.5,0.2-0.9,0.2-1.4c0-2.3-1.5-4.2-3.5-4.9c0.1-0.3,0.1-0.7,0.1-1.1c0-2.6-2-4.8-4.6-5.1
	c-0.2-2.6-2.4-4.7-5.1-4.7c-1.1,0-2.1,0.4-3,1c-1.2-0.6-2.5-1-3.9-1c-1.5,0-2.9,0.4-4.1,1.1c-0.7-0.7-1.7-1.1-2.8-1.1
	c-2.3,0-4.1,1.8-4.2,4c-2,0.3-3.5,2.1-3.5,4.1c0,0.7,0.2,1.4,0.5,2c-2,0.7-3.4,2.6-3.4,4.8c0,0.8,0.2,1.6,0.5,2.2L47.2,39.8
	L47.2,39.8z"/>
<path d="M28.5,54.7C28.5,54.7,28.5,54.7,28.5,54.7L28.5,54.7c0.6,0,1.1-0.5,1.1-1s-0.5-1-1-1l0,0c-0.6,0-1,0.5-1,1
	C27.5,54.2,27.9,54.7,28.5,54.7z"/>
<path d="M33.3,53.8c0.1,0,0.2,0,0.4-0.1c3.9-1.5,7-4.5,8.5-8.4c0.2-0.5,0-1.1-0.6-1.3c-0.5-0.2-1.1,0-1.3,0.6
	c-1.3,3.3-4,5.9-7.3,7.2c-0.5,0.2-0.8,0.8-0.6,1.3C32.5,53.5,32.9,53.8,33.3,53.8z"/>
<path d="M45,32.9c0-0.1,0-0.3,0-0.4c0-2.9-2-5.3-4.7-6c-0.3-1.2-0.9-2.3-1.8-3.2c-1.1-1.1-2.6-1.6-4.2-1.6c-0.6,0-1,0.5-1,1
	s0.5,1,1,1c2.1,0,3.9,1.6,4.1,3.7c0,0.5,0.4,0.9,0.9,0.9c2.1,0.2,3.7,2,3.7,4.1c0,0.3,0,0.6-0.1,0.9c-0.1,0.5,0.2,1,0.7,1.2
	c1.7,0.6,2.8,2.1,2.8,3.9c0,0.1,0,0.3,0,0.4H11.1c-0.1-0.4-0.2-0.8-0.2-1.2c0-1.7,1.1-3.3,2.7-3.9c0.3-0.1,0.5-0.3,0.6-0.6
	c0.1-0.3,0.1-0.6-0.1-0.8c-0.2-0.5-0.4-1-0.4-1.5c0-1.6,1.1-2.9,2.7-3.1c0.6-0.1,0.9-0.6,0.9-1.2c-0.1-0.6-0.6-0.9-1.2-0.9
	c-2.5,0.4-4.4,2.6-4.4,5.2c0,0.5,0.1,1,0.2,1.4c-1.9,1.1-3.1,3.1-3.1,5.3c0,0.4,0,0.9,0.1,1.3c-0.3,0.2-0.6,0.5-0.6,0.9
	c0,8.6,5.4,16.2,13.6,18.9c0.1,0,0.2,0.1,0.3,0.1h12.2c0.1,0,0.2,0,0.3-0.1c8.1-2.8,13.6-10.4,13.6-18.9c0-0.1,0-0.3-0.1-0.4
	c0.1-0.3,0.1-0.7,0.1-1C48.4,36,47,33.9,45,32.9z M34.3,56.8H22.5c-6.9-2.4-11.6-8.7-12-15.9h35.8C45.9,48.1,41.2,54.4,34.3,56.8z"
	/>
<path d="M19.4,26.3c-0.2,0.2-0.3,0.5-0.3,0.7c0,0.3,0.1,0.5,0.3,0.7c0.2,0.2,0.5,0.3,0.7,0.3c0.3,0,0.5-0.1,0.7-0.3
	c0.2-0.2,0.3-0.5,0.3-0.7c0-0.3-0.1-0.5-0.3-0.7c-0.2-0.2-0.5-0.3-0.7-0.3C19.8,26,19.5,26.1,19.4,26.3z"/>
<path d="M27.3,28.3c0.2-0.2,0.3-0.5,0.3-0.7c0-0.3-0.1-0.5-0.3-0.7c-0.2-0.2-0.5-0.3-0.7-0.3s-0.5,0.1-0.7,0.3s-0.3,0.5-0.3,0.7
	c0,0.3,0.1,0.5,0.3,0.7c0.2,0.2,0.5,0.3,0.7,0.3C26.8,28.6,27.1,28.5,27.3,28.3z"/>
<path d="M21.5,31.7c-0.2,0.2-0.3,0.5-0.3,0.7s0.1,0.5,0.3,0.7c0.2,0.2,0.5,0.3,0.7,0.3c0.3,0,0.5-0.1,0.7-0.3
	c0.2-0.2,0.3-0.5,0.3-0.7s-0.1-0.5-0.3-0.7c-0.2-0.2-0.5-0.3-0.7-0.3C21.9,31.4,21.7,31.5,21.5,31.7z"/>
<path d="M17.2,34.3c-0.2,0.2-0.3,0.5-0.3,0.7c0,0.3,0.1,0.5,0.3,0.7c0.2,0.2,0.5,0.3,0.7,0.3s0.5-0.1,0.7-0.3
	c0.2-0.2,0.3-0.5,0.3-0.7s-0.1-0.5-0.3-0.7c-0.2-0.2-0.5-0.3-0.7-0.3S17.3,34.1,17.2,34.3z"/>
<path d="M17.8,24.9c0.2,0,0.4-0.1,0.6-0.2L44.7,8c0.5-0.3,0.6-0.9,0.3-1.4c-0.3-0.5-0.9-0.6-1.4-0.3L17.2,23
	c-0.5,0.3-0.6,0.9-0.3,1.4C17.1,24.7,17.4,24.9,17.8,24.9z"/>
<path d="M55.5,12.3c-0.2-0.5-0.8-0.8-1.3-0.6L25,21.7c-0.5,0.2-0.8,0.8-0.6,1.3c0.1,0.4,0.5,0.7,1,0.7c0.1,0,0.2,0,0.3-0.1l29.3-10
	C55.4,13.4,55.7,12.9,55.5,12.3z"/>
</svg>
