<?xml version="1.0" encoding="utf-8"?>
<!-- Generator: Adobe Illustrator 24.1.2, SVG Export Plug-In . SVG Version: 6.00 Build 0)  -->
<svg version="1.1" id="Layer_1" xmlns="http://www.w3.org/2000/svg" xmlns:xlink="http://www.w3.org/1999/xlink" x="0px" y="0px"
	 width="64" height="64" viewBox="0 0 64 64" style="enable-background:new 0 0 64 64;" xml:space="preserve">
<style type="text/css">
	.st0{fill:#0F0E0C;}
	.st1{fill:#FDC546;}
	.st2{fill:#E9ECF4;}
	.st3{fill:#070603;}
</style>
<path class="st0" d="M28.5,8.9c2.9-1.1,5.4-0.5,7.4,1.6c1.3-0.4,2.4-1.1,3.5-1c1.1,0,2.5,0.5,3.3,1.3c1.1,1.1,2.2,2.2,3.4,3.3
	c1.7,1.6,1.9,4.3,0.6,6.3c-0.4,0.5-1,0.9-1.1,1.5c-0.2,0.8-0.1,1.8-0.1,2.8c1.4,0,2.8,0,4.2,0c2.5,0,4,1.5,4,4c0,5.6,0,11.1,0,16.7
	c0,2.3-1.5,3.8-3.8,3.9c-1.4,0-2.8,0-4.4,0c0,1.1,0,2.2,0,3.2c0,2.9-2,4.9-4.8,4.9c-7,0-13.9,0-20.9,0c-2.9,0-4.9-2-4.9-4.9
	c0-8.4,0-16.8,0-25.1c0-0.7-0.1-1.2-0.7-1.7c-0.9-0.7-1.3-1.8-1.3-3c0-1.7,0.1-3.3,0-5c-0.3-3.5,1.9-6.6,6.1-6.6
	c0.4-2.4,1.7-4.1,4.1-4.6C25.3,5.9,27.2,6.9,28.5,8.9z M16.9,26.8c0,8.5,0,16.8,0,25.2c0,2.4,0.9,3.3,3.3,3.3c6.6,0,13.2,0,19.7,0
	c2.6,0,3.4-0.9,3.4-3.4c0-9.3,0-18.6,0-27.9c0-0.4,0-0.8,0-1.3c-2.5,0.2-4.4-0.6-5.6-2.9c-0.6-1.2-1.2-1.5-2.5-1
	c-1.3,0.5-2.1,1.5-2.1,3c0,1.7,0,3.3,0,5c0,2.3-1.8,4-4,4.1c-2.3,0-4.1-1.7-4.1-4.1c0-1.5,0-3.1,0-4.6c0-1.5-0.7-2.4-2-2.4
	c-1.3,0-2,0.8-2.1,2.3C20.9,25,19.8,26.3,16.9,26.8z M26.8,10.2c-1-1.5-2.2-2-3.5-1.7c-1.7,0.4-2.6,2-2.2,3.9c0.1,0.5-0.2,1-0.3,1.5
	c-0.5-0.1-1-0.2-1.4-0.3c-0.3-0.1-0.6-0.3-0.9-0.3c-2-0.1-3.6,1.4-3.6,3.4c0,2,0,3.9,0,5.9c0,1.3,0.8,2.2,2,2.2c1.2,0,2-0.8,2.1-2.1
	c0-0.3,0-0.6,0-0.9c0.1-2.3,1.8-4,4.1-4.1c2.3,0,4.1,1.8,4.1,4.1c0,1.4,0,2.8,0,4.2c0,1.9,0.6,2.8,2,2.8c1.4,0,2.1-0.9,2.1-2.7
	c0-1.4,0-2.9,0-4.3c0-2.6,1.7-4.6,4.1-5.1c0.7-0.1,1.6,0.2,2.3,0c1.4-0.3,1.7,0.2,1.8,1.4c0.2,1.4,1.4,2.4,2.7,2.5
	c1.3,0.1,2.6-0.6,3.1-1.9c0.5-1.3,0.2-2.5-0.8-3.2c-0.6,0.4-1.2,1-1.7,0.9c-1-0.1-0.8-1-0.7-1.7c0.2-1.5-0.5-2.6-1.9-3
	c-1.3-0.4-2.4,0.2-3.2,1.4c-0.3,0.4-0.7,0.8-1.2,0.9c-0.3,0-0.6-0.6-0.9-1c-0.8-0.8-1.5-1.8-2.4-2.2c-1.7-0.8-3.2-0.2-4.4,1.2
	c-0.5,0.5-1,0.9-1.6,0.3c-0.6-0.5-0.4-1.1,0.1-1.7C26.6,10.5,26.7,10.3,26.8,10.2z M45.5,47.2c1.5,0,2.9,0,4.3,0
	c1.1,0,1.7-0.6,1.8-1.7c0-5.6,0-11.3,0-16.9c0-0.9-0.5-1.6-1.4-1.7c-1.5-0.1-3.1,0-4.7,0C45.5,33.6,45.5,40.3,45.5,47.2z"/>
<path class="st1" d="M16.9,26.8c2.9-0.6,4-1.9,4.1-4.7c0-1.5,0.8-2.4,2.1-2.3c1.3,0,2,0.9,2,2.4c0,1.5,0,3.1,0,4.6
	c0,2.3,1.8,4.1,4.1,4.1c2.2,0,4-1.8,4-4.1c0-1.7,0-3.3,0-5c0-1.5,0.8-2.6,2.1-3c1.3-0.5,1.9-0.2,2.5,1c1.2,2.2,3.1,3,5.6,2.9
	c0,0.5,0,0.9,0,1.3c0,9.3,0,18.6,0,27.9c0,2.6-0.9,3.4-3.4,3.4c-6.6,0-13.2,0-19.7,0c-2.4,0-3.3-0.9-3.3-3.3
	C16.9,43.7,16.9,35.3,16.9,26.8z M21,41.7c0,2.9,0,5.9,0,8.8c0,0.7,0.2,1.3,1,1.4c0.9,0,1.1-0.6,1.1-1.4c0-5.8,0-11.6,0-17.5
	c0-0.8-0.1-1.4-1-1.4c-0.9,0-1,0.7-1,1.4C21,35.9,21,38.8,21,41.7z M29.1,41.6c0,2.9,0,5.9,0,8.8c0,0.7,0.1,1.5,1,1.5
	c1,0,1.1-0.7,1.1-1.5c0-5.7,0-11.5,0-17.2c0-0.8,0-1.6-1-1.6c-1,0-1,0.8-1,1.6C29.1,36,29.1,38.8,29.1,41.6z M37.3,41.7
	c0,2.9,0,5.9,0,8.8c0,0.7,0.2,1.3,1,1.3c0.9,0,1.1-0.6,1.1-1.4c0-5.8,0-11.6,0-17.5c0-0.8-0.1-1.4-1-1.4c-0.9,0-1,0.7-1,1.4
	C37.3,35.9,37.3,38.8,37.3,41.7z"/>
<path class="st2" d="M26.8,10.2c-0.1,0.2-0.2,0.3-0.3,0.4c-0.5,0.5-0.7,1.1-0.1,1.7c0.6,0.5,1.1,0.2,1.6-0.3c1.2-1.4,2.8-2,4.4-1.2
	c1,0.4,1.6,1.5,2.4,2.2c0.3,0.3,0.7,1,0.9,1c0.4-0.1,0.9-0.5,1.2-0.9c0.8-1.3,1.9-1.8,3.2-1.4c1.4,0.4,2.1,1.5,1.9,3
	c-0.1,0.7-0.3,1.6,0.7,1.7c0.5,0.1,1-0.5,1.7-0.9c1,0.7,1.3,1.9,0.8,3.2c-0.5,1.3-1.8,2.1-3.1,1.9c-1.3-0.1-2.5-1.1-2.7-2.5
	c-0.1-1.2-0.5-1.8-1.8-1.4c-0.7,0.2-1.5-0.2-2.3,0c-2.5,0.5-4.1,2.5-4.1,5.1c0,1.4,0,2.9,0,4.3c0,1.8-0.7,2.8-2.1,2.7
	c-1.4,0-2-0.9-2-2.8c0-1.4,0-2.8,0-4.2c0-2.4-1.8-4.1-4.1-4.1c-2.2,0-4,1.8-4.1,4.1c0,0.3,0,0.6,0,0.9c-0.1,1.3-0.9,2.1-2.1,2.1
	c-1.2,0-2-0.9-2-2.2c0-2,0-3.9,0-5.9c0-2,1.7-3.6,3.6-3.4c0.3,0,0.6,0.2,0.9,0.3c0.5,0.1,1,0.2,1.4,0.3c0.1-0.5,0.4-1,0.3-1.5
	c-0.4-1.8,0.5-3.4,2.2-3.9C24.6,8.1,25.8,8.7,26.8,10.2z"/>
<path class="st3" d="M21,41.7c0-2.9,0-5.8,0-8.7c0-0.7,0.1-1.4,1-1.4c0.9,0,1,0.7,1,1.4c0,5.8,0,11.6,0,17.5c0,0.8-0.2,1.4-1.1,1.4
	c-0.8,0-1-0.6-1-1.4C21,47.6,21,44.6,21,41.7z"/>
<path class="st3" d="M29.1,41.6c0-2.8,0-5.6,0-8.4c0-0.8,0-1.6,1-1.6c1,0,1,0.8,1,1.6c0,5.7,0,11.5,0,17.2c0,0.8-0.1,1.5-1.1,1.5
	c-0.9,0-1-0.8-1-1.5C29.1,47.4,29.1,44.5,29.1,41.6z"/>
<path class="st3" d="M37.3,41.7c0-2.9,0-5.8,0-8.7c0-0.7,0.1-1.4,1-1.4c0.9,0,1,0.7,1,1.4c0,5.8,0,11.6,0,17.5
	c0,0.8-0.2,1.4-1.1,1.4c-0.8,0-1-0.6-1-1.3C37.3,47.6,37.3,44.6,37.3,41.7z"/>
</svg>
