<?xml version="1.0" encoding="utf-8"?>
<!-- Generator: Adobe Illustrator 24.2.0, SVG Export Plug-In . SVG Version: 6.00 Build 0)  -->
<svg version="1.1" id="Layer_1" xmlns="http://www.w3.org/2000/svg" xmlns:xlink="http://www.w3.org/1999/xlink" x="0px" y="0px"
	 width="60" height="60" viewBox="0 0 60 60" style="enable-background:new 0 0 60 60;" xml:space="preserve">
<style type="text/css">
	.st0{fill:#433526;}
</style>
<path class="st0" d="M52.6,58.1h-35c-5.7,0-11.4,0-17.1-0.1H0v-0.9c0-15.4,0-30.7,0-45.9c0-0.6,0.1-1,0.5-1.3
	C5,6.7,9.3,3.5,13.7,0.3C14,0,14.4-0.1,14.8,0.2c9.6,3.3,19,6.7,28.3,10.1c0.1,0,0.3,0.1,0.4,0.3l-29.1-8v52.6l14.9,0.6V39.2l14,1.1
	v16.6l9.4,0.7L52.6,58.1L52.6,58.1z"/>
<path class="st0" d="M56.9,37.2L18,32.8V16.5l1.5,0.3l28.7,7c0.3,0,0.5,0.3,0.7,0.6c2.6,4.1,5.2,8.3,7.7,12.4
	C60.6,43,56.8,36.9,56.9,37.2z M22.3,19.7c1.8,3.4,3.7,6.5,5.3,9.8c0.8,1.7,1.8,2.8,3.8,2.7c0.3,0,0.5,0,0.7,0.1l17.5,2.6l5,0.7
	c-0.1-0.1-0.3-0.4-0.3-0.6c-1.9-3-3.8-6.1-5.7-9.1c-0.3-0.4-0.7-0.7-1.1-0.9c-5.4-1.1-10.8-2.2-16.2-3.3L22.3,19.7z"/>
<path class="st0" d="M25.7,50.4L18,50.1V38.3l7.7,0.6V50.4z"/>
<path class="st0" d="M51.1,51.4h-4.7V40.6l4.7,0.4V51.4z"/>
<path class="st0" d="M52.6,58.1v-0.3l2.4,0.1V58C55,58.1,52.6,58.1,52.6,58.1z"/>
</svg>
