<?xml version="1.0" encoding="utf-8"?>
<!-- Generator: Adobe Illustrator 24.1.2, SVG Export Plug-In . SVG Version: 6.00 Build 0)  -->
<svg version="1.1" id="Layer_1" xmlns="http://www.w3.org/2000/svg" xmlns:xlink="http://www.w3.org/1999/xlink" x="0px" y="0px"
	 height="64" width="64" viewBox="0 0 64 64" style="enable-background:new 0 0 64 64;" xml:space="preserve">
<style type="text/css">
	.st0{fill:#AB856B;}
	.st1{fill:#FFB655;}
	.st2{fill:#97694A;}
	.st3{fill:#FFFFFF;}
	.st4{fill:#D5F6EA;}
	.st5{fill:#00C403;}
	.st6{fill:#069306;}
</style>
<path id="XMLID_675_" class="st0" d="M18.7,7.3h27.6v4.3H18.7V7.3z"/>
<path id="XMLID_674_" class="st1" d="M15.2,11.6h34.6v5.7H15.2V11.6z"/>
<path id="XMLID_913_" class="st2" d="M47.8,11.6v3.8H15.2v2h34.6v-5.7H47.8z"/>
<path id="XMLID_550_" class="st3" d="M44.3,53.7H20.7l-4.1-36.4h31.7L44.3,53.7z"/>
<path id="XMLID_875_" class="st4" d="M46.2,17.3l-3.9,34.4H20.5l0.2,2h23.5l4.1-36.4H46.2z"/>
<path id="XMLID_589_" class="st5" d="M45.3,44.1l2-18.1H17.6l2,18.1H45.3z"/>
<path id="XMLID_943_" class="st6" d="M45.2,26l-1.8,16.1h-24l0.2,2h25.7l2-18.1L45.2,26z"/>
<path id="XMLID_868_" class="st4" d="M22.6,53.7h20.1v2.9H22.6V53.7z"/>
<ellipse transform="matrix(0.5 -0.866 0.866 0.5 -13.8789 45.6757)" class="st2" cx="32.6" cy="34.9" rx="5.3" ry="3.9"/>
<path d="M50.5,18.1v-7.2H47V6.6H17.9v4.3h-3.5v7.2H16l3.2,28.2l1.5-0.2l-0.2-1.3h24L43.6,53H21.4l-0.3-2.4l-1.5,0.2l0.4,3.7h1.8v2.9
	h21.6v-2.9h1.5L49,18.1L50.5,18.1z M41.9,55.9H23.3v-1.5h18.6V55.9z M15.9,12.4h24v-1.5H19.4V8.1h26.1v2.8h-4.1v1.5H49v4.2H15.9
	V12.4z M20.3,43.3L19.7,38l-1.3-11.3h28.1l-1.9,16.6H20.3z M46.7,25.2H18.3l-0.8-7.2h30.1L46.7,25.2z"/>
<path d="M19.3,47.8l1.5-0.2l0.2,1.5l-1.5,0.2L19.3,47.8z"/>
<g>
	<path class="st3" d="M17.7,13.9h1.5v1.5h-1.5V13.9z"/>
	<path class="st3" d="M20.7,13.9h1.5v1.5h-1.5V13.9z"/>
	<path class="st3" d="M23.6,13.9h1.5v1.5h-1.5V13.9z"/>
</g>
<path d="M35.6,29.6c-1.1-0.6-2.5-0.7-3.9-0.1c-1.3,0.6-2.4,1.6-3.2,3c-1.7,2.9-1.2,6.3,1,7.6c0.6,0.3,1.2,0.5,1.9,0.5
	c0.6,0,1.3-0.1,1.9-0.4c1.3-0.6,2.4-1.6,3.2-3C38.3,34.3,37.9,30.9,35.6,29.6L35.6,29.6z M29.9,33.2c0.6-1.1,1.5-1.9,2.5-2.4
	c0.5-0.2,0.9-0.3,1.3-0.3c0.2,0,0.3,0,0.5,0l-4.5,7.7C28.8,37.2,28.8,35.1,29.9,33.2L29.9,33.2z M35.4,36.4
	c-0.6,1.1-1.5,1.9-2.5,2.4c-0.6,0.3-1.3,0.4-1.8,0.3l4.5-7.7C36.5,32.5,36.5,34.6,35.4,36.4L35.4,36.4z"/>
</svg>
