<?xml version="1.0" encoding="utf-8"?>
<!-- Generator: Adobe Illustrator 24.2.0, SVG Export Plug-In . SVG Version: 6.00 Build 0)  -->
<svg version="1.1" id="Layer_1" xmlns="http://www.w3.org/2000/svg" xmlns:xlink="http://www.w3.org/1999/xlink" x="0px" y="0px"
	 width="64" height="64" viewBox="0 0 64 64" style="enable-background:new 0 0 64 64;" xml:space="preserve">
<style type="text/css">
	.st0{fill:#433526;}
</style>
<g>
	<path class="st0" d="M51.2,46.6c-1.2,0-2.5,0-3.7,0c-1.8,0-2.1,0.5-1.2,2.2c2.1,3.9,4.2,7.8,6.3,11.7c1.2,2.3,1,2.5-1.4,2.7
		c-2.8,0.3-4.3-0.8-5.6-3.4c-1.8-3.9-4-7.5-6-11.2c-1-1.8-1.6-1.8-2.5,0c-1.3,2.4-2.6,4.9-4,7.3c-0.9,1.5-1.5,1.5-2.4,0
		c-1.4-2.5-2.7-5-4-7.5c-0.9-1.5-1.5-1.5-2.4,0c-2.4,4.3-4.7,8.7-7,13c-0.7,1.3-1.4,1.8-2.9,1.8c-4.7,0-4.7,0-2.3-4.4
		c1.9-3.3,3.7-6.7,5.5-10.1c0.9-1.7,0.6-2.2-1.2-2.2c-2.5,0-5,0-7.6,0c-2,0-2.3-0.6-1.3-2.3C15.2,30,23,15.7,30.7,1.4
		c1-1.8,1.5-1.8,2.5,0c5.7,10.5,11.4,21,17,31.6c0.9,1.6,0.5,1.9-1.1,2.2c-3,0.5-4.8-0.7-6.3-3.7c-2.9-6.1-6.3-11.9-9.5-17.8
		c-1.1-2.1-1.6-2.1-2.7-0.1c-4.5,8.2-8.9,16.5-13.4,24.7c-1,1.8-0.7,2.2,1.3,2.4c2.5,0.3,4.1-0.7,5.3-3.2c2.1-4.3,4.5-8.5,6.8-12.7
		c1-1.9,1.6-1.9,2.6,0c2.4,4.4,4.9,8.9,7.2,13.4c0.9,1.7,2,2.6,3.9,2.5c2.9-0.1,5.8,0,8.6-0.1c1.1,0,1.7,0.3,2.2,1.4
		c0.4,0.9,1,1.7,1.4,2.6c0.7,1.4,0.4,1.9-1.1,2C54,46.7,52.6,46.6,51.2,46.6C51.2,46.6,51.2,46.6,51.2,46.6z M35.1,40.4
		c-0.3-0.7-0.5-1.2-0.8-1.7c-0.8-1.1-1.6-2.2-2.4-3.3c-0.7,1.1-1.6,2.1-2.2,3.3c-0.3,0.7-0.6,1.7-0.4,2.3c0.4,1.2,1,2.2,1.7,3.2
		c0.3,0.4,1.3,0.7,1.4,0.5C33.4,43.4,34.3,41.9,35.1,40.4z"/>
</g>
</svg>
