<?xml version="1.0" encoding="utf-8"?>
<!-- Generator: Adobe Illustrator 24.1.2, SVG Export Plug-In . SVG Version: 6.00 Build 0)  -->
<svg version="1.1" id="Layer_1" xmlns="http://www.w3.org/2000/svg" xmlns:xlink="http://www.w3.org/1999/xlink" x="0px" y="0px"
	 width="64" height="64" viewBox="0 0 64 64" style="enable-background:new 0 0 64 64;" xml:space="preserve">
<style type="text/css">
	.st0{fill:#D1AA8F;}
	.st1{fill:#97694A;}
	.st2{fill:#A8503C;}
	.st3{fill:#993E29;}
</style>
<path class="st0" d="M51.4,23.9L51.4,23.9c-1.2-1.1-2-2.5-2.4-4.1l0,0c-0.9-3.6-4-6.2-7.6-6.4l0,0c-1.6-0.1-3.1-0.7-4.4-1.6l0,0
	c-3-2.2-7-2.2-10,0l0,0c-1.3,0.9-2.8,1.5-4.4,1.6l0,0c-3.7,0.2-6.8,2.8-7.6,6.4l0,0c-0.4,1.6-1.2,3-2.4,4.1l0,0
	c-2.7,2.5-3.4,6.5-1.7,9.8l0,0c0.7,1.4,1,3,0.8,4.6l0,0c-0.4,3.7,1.6,7.1,5,8.6l0,0c1.5,0.6,2.7,1.7,3.6,3l0,0
	c2,3.1,5.8,4.4,9.4,3.4l0,0c1.5-0.4,3.2-0.4,4.7,0l0,0c3.5,1,7.3-0.4,9.4-3.4l0,0c0.9-1.3,2.1-2.4,3.6-3l0,0c3.4-1.5,5.4-5,5-8.6
	l0,0c-0.2-1.6,0.1-3.2,0.8-4.6l0,0C54.8,30.5,54.1,26.5,51.4,23.9z"/>
<path class="st1" d="M23.8,50L23.8,50c-0.9-1.3-2.1-2.4-3.6-3l0,0c-3.4-1.5-5.4-5-5-8.6l0,0c0.2-1.6-0.1-3.2-0.8-4.6l0,0
	c-1.6-3.3-0.9-7.3,1.7-9.8l0,0c1.2-1.1,2-2.5,2.4-4.1l0,0c0.9-3.6,4-6.2,7.6-6.4l0,0c1.6-0.1,3.1-0.7,4.4-1.6l0,0
	c1-0.7,2.1-1.2,3.2-1.4c-2.3-0.5-4.8,0-6.8,1.4l0,0c-1.3,0.9-2.8,1.5-4.4,1.6l0,0c-3.7,0.2-6.8,2.8-7.6,6.4l0,0
	c-0.4,1.6-1.2,3-2.4,4.1l0,0c-2.7,2.5-3.4,6.5-1.7,9.8l0,0c0.7,1.4,1,3,0.8,4.6l0,0c-0.4,3.7,1.6,7.1,5,8.6l0,0
	c1.5,0.6,2.7,1.7,3.6,3l0,0c1.9,2.9,5.4,4.3,8.8,3.6C27,53.2,25.1,51.9,23.8,50z"/>
<path class="st2" d="M41.7,19l-0.5-0.2c-0.9-0.4-2-0.4-2.9,0.2l-0.9,0.6c-1.1,0.7-1.7,2-1.4,3.2l0,0c0.3,1.5,1.6,2.5,3.1,2.5h1.4
	c1.7,0,3.1-1.4,3.1-3.1v-0.3C43.5,20.6,42.8,19.5,41.7,19z"/>
<path class="st3" d="M23.7,19.7l-0.3-0.1c-0.7-0.4-1.5-0.3-2.1,0.1L20.8,20c-1.1,0.7-1.3,2.1-0.5,3.1l0.4,0.5c1,1.2,2.9,1,3.6-0.4
	l0.3-0.7C25.1,21.5,24.7,20.3,23.7,19.7z"/>
<path class="st2" d="M31.8,44.8L31.7,45c-0.4,0.7-0.3,1.5,0.1,2.1l0.3,0.5c0.7,1.1,2.1,1.3,3.1,0.5l0.5-0.4c1.2-1,1-2.9-0.4-3.6
	l-0.7-0.3C33.5,43.4,32.3,43.8,31.8,44.8z"/>
<g>
	<path class="st3" d="M42.4,41.9l0.1,0.2c0.2,0.7,0.7,1.2,1.4,1.3l0.5,0.1c1.1,0.2,2.2-0.5,2.3-1.6l0.1-0.6c0.2-1.4-1.2-2.5-2.5-2
		l-0.7,0.2C42.6,39.9,42.1,41,42.4,41.9z"/>
	<path class="st3" d="M23.7,40.7l-0.5-1.3c-0.4-1-1.3-1.7-2.4-1.8l-1.1-0.1c-0.9-0.1-1.7,0.3-2.3,0.9l-0.2,0.2
		c-0.7,0.7-0.9,1.8-0.6,2.7l0.3,1.1c0.3,1.1,1.3,1.9,2.5,2l1.5,0.1c1.2,0.1,2.3-0.6,2.8-1.6C24,42.2,24,41.4,23.7,40.7z"/>
</g>
<path d="M11,38.3c-0.4,4,1.7,7.7,5.4,9.3c1.4,0.6,2.5,1.6,3.3,2.8c1.7,2.6,4.6,4,7.5,4c0.9,0,1.7-0.1,2.6-0.4c1.4-0.4,2.9-0.4,4.3,0
	c0.8,0.2,1.7,0.4,2.5,0.4c2.1,0,4.1-0.7,5.8-2.1c0.3-0.2,0.3-0.7,0.1-0.9c-0.2-0.3-0.7-0.3-0.9-0.1c-2,1.6-4.6,2.2-7.1,1.4
	c-1.7-0.5-3.4-0.5-5.1,0c-0.7,0.2-1.5,0.3-2.2,0.3c-2.5,0-5-1.3-6.4-3.5c-1-1.4-2.3-2.6-3.9-3.3c-3.1-1.4-5-4.6-4.6-7.9
	c0.2-1.7-0.1-3.5-0.9-5c-1.5-3.1-0.9-6.7,1.6-9c1.3-1.2,2.1-2.7,2.5-4.4c0.2-0.7,0.5-1.4,0.9-2.1c0.2-0.3,0.1-0.7-0.2-0.9
	c-0.3-0.2-0.7-0.1-0.9,0.2c-0.5,0.8-0.8,1.6-1,2.5c-0.4,1.4-1.1,2.7-2.2,3.8c-2.9,2.8-3.6,7-1.9,10.6C10.9,35.4,11.2,36.8,11,38.3z"
	/>
<path d="M36.6,12.4c1.4,1,3.1,1.6,4.8,1.7c3.4,0.2,6.2,2.6,7,5.9c0.4,1.7,1.3,3.2,2.5,4.4c2.5,2.4,3.1,6,1.6,9
	c-0.8,1.6-1.1,3.3-0.9,5c0.4,3.4-1.5,6.6-4.6,7.9c-1.5,0.7-2.8,1.8-3.8,3.1c-0.2,0.3-0.1,0.7,0.2,0.9c0.1,0.1,0.2,0.1,0.4,0.1
	c0.2,0,0.4-0.1,0.5-0.3c0.8-1.2,1.9-2.1,3.2-2.7c3.6-1.6,5.8-5.3,5.4-9.3c-0.2-1.5,0.1-3,0.8-4.3c1.8-3.6,1-7.8-1.9-10.6
	c-1.1-1-1.8-2.3-2.2-3.8c-0.9-3.9-4.3-6.6-8.2-6.9c-1.5-0.1-2.9-0.6-4.1-1.5c-3.2-2.4-7.5-2.4-10.7,0c-1.2,0.9-2.6,1.4-4.1,1.5
	c-2,0.1-3.9,0.9-5.4,2.2c-0.3,0.2-0.3,0.7-0.1,0.9c0.2,0.3,0.7,0.3,0.9,0.1c1.3-1.1,2.9-1.8,4.6-1.9c1.7-0.1,3.4-0.7,4.8-1.7
	C30.2,10.4,33.8,10.4,36.6,12.4z"/>
<path d="M23.1,32.4v-1.7c0-0.4-0.3-0.7-0.7-0.7s-0.7,0.3-0.7,0.7v1.7c0,0.4,0.3,0.7,0.7,0.7S23.1,32.8,23.1,32.4z"/>
<path d="M41.6,33.1c0.4,0,0.7-0.3,0.7-0.7v-1.7c0-0.4-0.3-0.7-0.7-0.7s-0.7,0.3-0.7,0.7v1.7C40.9,32.8,41.2,33.1,41.6,33.1z"/>
<path d="M32,34c1.1,0,2.2-0.5,2.9-1.3c0.2-0.3,0.2-0.7-0.1-0.9c-0.3-0.2-0.7-0.2-0.9,0.1c-0.5,0.5-1.1,0.8-1.9,0.8
	c-0.7,0-1.4-0.3-1.9-0.8c-0.2-0.3-0.7-0.3-0.9-0.1c-0.3,0.2-0.3,0.7-0.1,0.9C29.8,33.5,30.9,34,32,34z"/>
<path d="M40.4,25.9c2.1,0,3.8-1.7,3.8-3.8v-0.3c0-1.5-0.9-2.8-2.2-3.4l-0.5-0.2c-0.5-0.2-1-0.3-1.6-0.3c-0.7,0-1.4,0.2-1.9,0.5
	L37,18.9c-1.3,0.8-2,2.4-1.8,3.9c0.3,1.8,1.9,3.1,3.7,3.1H40.4z M36.6,22.6c-0.2-1,0.3-2,1.1-2.5c0,0,0.9-0.6,0.9-0.6
	c0.7-0.4,1.5-0.5,2.3-0.1l0.5,0.2c0.9,0.4,1.4,1.3,1.4,2.2v0.3c0,1.3-1.1,2.4-2.4,2.4H39C37.8,24.5,36.8,23.7,36.6,22.6z"/>
<path d="M25.2,22.8c0.6-1.3,0.1-2.9-1.2-3.6c-0.5-0.3-1-0.5-1.6-0.5c-0.5,0-1,0.1-1.5,0.4l-0.5,0.3c-0.7,0.4-1.1,1.1-1.3,1.9
	c-0.1,0.8,0.1,1.6,0.5,2.2l0.4,0.5c0.5,0.7,1.3,1.1,2.2,1.1c1.1,0,2.1-0.6,2.5-1.6L25.2,22.8z M24,22.2L23.7,23
	c-0.2,0.5-0.7,0.8-1.3,0.8c-0.5,0-0.9-0.2-1.1-0.6l-0.4-0.5c-0.3-0.3-0.4-0.7-0.3-1.1c0.1-0.4,0.3-0.8,0.7-1l0.5-0.3
	c0.2-0.1,0.5-0.2,0.8-0.2c0.3,0,0.6,0.1,0.9,0.3C24.1,20.7,24.4,21.5,24,22.2z"/>
<path d="M31.5,48c0.5,0.8,1.4,1.3,2.3,1.3h0c0.6,0,1.2-0.2,1.7-0.6l0.5-0.4c0.8-0.6,1.2-1.5,1-2.5c-0.1-1-0.7-1.8-1.6-2.2l-0.7-0.3
	c-0.4-0.2-0.8-0.3-1.2-0.3c-1,0-2,0.6-2.4,1.5l-0.1,0.3c-0.5,0.9-0.4,1.9,0.1,2.8L31.5,48z M32.2,45.4l0.1-0.3
	c0.3-0.5,0.7-0.8,1.3-0.8c0.2,0,0.4,0,0.6,0.1l0.7,0.3c0.5,0.2,0.8,0.6,0.8,1.1c0.1,0.5-0.1,1-0.5,1.3l-0.5,0.4
	c-0.3,0.2-0.6,0.3-0.9,0.3c-0.5,0-1-0.3-1.2-0.7l-0.3-0.5C32,46.4,32,45.8,32.2,45.4z"/>
<path d="M41.8,42.4c0.3,0.9,1,1.6,1.9,1.8l0.5,0.1c0.2,0,0.4,0.1,0.6,0.1c1.3,0,2.4-1,2.5-2.3l0.1-0.6c0.1-0.7-0.1-1.5-0.6-2
	c-0.5-0.6-1.2-0.9-1.9-0.9c-0.3,0-0.6,0.1-0.9,0.2L43.3,39c-1.3,0.5-2,1.9-1.6,3.2L41.8,42.4z M43.8,40.2l0.7-0.2
	c0.1-0.1,0.3-0.1,0.4-0.1c0.4,0,0.7,0.2,0.9,0.4c0.2,0.3,0.3,0.6,0.3,1l-0.1,0.6C46,42.5,45.4,43,44.8,43c-0.1,0-0.2,0-0.3,0
	L44,42.8c-0.4-0.1-0.8-0.4-0.9-0.8L43,41.7C42.8,41.1,43.2,40.4,43.8,40.2z"/>
<path d="M19.7,36.9c-0.1,0-0.2,0-0.3,0c-1,0-1.9,0.4-2.6,1.2l-0.2,0.2c-0.8,0.9-1.1,2.2-0.7,3.3l0.3,1.1c0.4,1.4,1.7,2.4,3.1,2.5
	l1.5,0.1c0.1,0,0.2,0,0.3,0c0,0,0,0,0,0c1.4,0,2.6-0.8,3.2-2c0.4-0.9,0.4-1.8,0.1-2.7l-0.5-1.3c-0.5-1.2-1.7-2.1-3-2.2L19.7,36.9z
	 M22.6,39.6l0.5,1.3c0.2,0.5,0.2,1.2,0,1.7c-0.3,0.8-1.1,1.3-2,1.3c-0.1,0-0.1,0-0.2,0l-1.5-0.1c-0.9-0.1-1.6-0.7-1.9-1.5l-0.3-1.1
	c-0.2-0.7,0-1.5,0.5-2.1l0.2-0.2c0.4-0.5,1-0.7,1.6-0.7c0.1,0,0.1,0,0.2,0l1.1,0.1C21.5,38.3,22.2,38.9,22.6,39.6z"/>
</svg>
