<?xml version="1.0" encoding="utf-8"?>
<!-- Generator: Adobe Illustrator 24.1.2, SVG Export Plug-In . SVG Version: 6.00 Build 0)  -->
<svg version="1.1" id="Layer_1" xmlns="http://www.w3.org/2000/svg" xmlns:xlink="http://www.w3.org/1999/xlink" x="0px" y="0px"
	 width="64" height="64" viewBox="0 0 64 64" style="enable-background:new 0 0 64 64;" xml:space="preserve">
<style type="text/css">
	.st0{fill:#F9E109;}
	.st1{fill:#FCBC04;}
	.st2{fill:#F8664F;}
	.st3{fill:#84D2F4;}
	.st4{fill:#CC5144;}
	.st5{fill:#57B7EB;}
	.st6{fill:#E59730;}
	.st7{fill:#F89C8D;}
	.st8{fill:#F7F754;}
	.st9{fill:#C4F236;}
	.st10{fill:#A1D51C;}
</style>
<g>
	<path class="st0" d="M27,21h-3.3v-6.6c0-0.6,0.3-1.1,0.7-1.4l7.4-5l1.8,2.8L27,15.2V21z"/>
	<path class="st1" d="M33.7,10.8L27,15.2V21h-3.3v-6.6c0-0.6,0.3-1.1,0.7-1.4l0.8-0.6c1.4,0.4,2.8,0.2,4-0.6l3.5-2.5L33.7,10.8z"/>
	<path class="st2" d="M34.5,56H16.3L13,27h24.8L34.5,56z"/>
	<path class="st3" d="M14.6,23.7h21.5c0.9,0,1.7,0.7,1.7,1.7V27l0,0H13l0,0v-1.7C13,24.5,13.7,23.7,14.6,23.7z"/>
	<path class="st3" d="M18.8,20.4H32c0.9,0,1.7,0.7,1.7,1.7v1.7l0,0H17.1l0,0v-1.7C17.1,21.2,17.8,20.4,18.8,20.4z"/>
	<path class="st4" d="M37.5,29.5H18.8c4.8,4.8,11.1,7.7,17.8,8.2L34.5,56H16.3L13,27h24.8L37.5,29.5z"/>
	<g>
		<path class="st5" d="M37.8,25.4V27H13v-1.7c0-0.9,0.7-1.7,1.7-1.7c0,0.9,0.7,1.7,1.7,1.7H37.8z"/>
		<path class="st5" d="M33.7,22.1v1.7H17.1v-1.7c0-0.9,0.7-1.7,1.7-1.7c0,0.9,0.7,1.7,1.7,1.7H33.7z"/>
	</g>
</g>
<g>
	<path class="st6" d="M42.8,24.6l-1.7,20.7l-0.8,9.1l4.1,0.8l2.5-29.8l-2.5-1.3L42.8,24.6z"/>
	<path class="st1" d="M37.8,28.7l1.7,19.9h5l-1.7-20.7l-2.5-2.5L37.8,28.7z"/>
	<path class="st6" d="M44.4,48.6h-5l-1.7-19.9l1-1.3l1.5,12.1h0.8l0.9-5.3l0.8-0.5l0.5,0.5L44.4,48.6z"/>
	<path class="st0" d="M36.1,31.2l-2.5-0.8l-0.9,2.5L37,46.1l3.9-1.7L36.1,31.2z"/>
	<path class="st1" d="M40.8,44.4L37,46.1l-4.1-13.2l0.8-2.4l1.5,4.6c0.9,2.7,2.5,5,4.7,6.8L40.8,44.4z"/>
	<path class="st0" d="M51,25.4l-3.4,15.7H51l2.5-11.6L51,25.4z"/>
	<path class="st1" d="M50.9,33.1l1.3-5.7l-1.2-2l-3.4,15.7H51l1.1-5.3C51.2,35.3,50.7,34.2,50.9,33.1L50.9,33.1z"/>
	<path class="st0" d="M27.9,30.3l5.8,15.7l3.3-0.8l-5.8-14.9H27.9z"/>
	<path class="st1" d="M27.9,30.3l5.8,15.7l1.7-0.4l-5.9-15.3H27.9z"/>
	<path class="st0" d="M46.1,27.9l-2.5,19.9l3.3-0.8l3.3-17.4L46.1,27.9z"/>
	<path class="st1" d="M48.3,39.4l-1.4,7.5l-3.3,0.8l2.5-19.9l1.6,0.6L47,37.8C47,38.6,47.5,39.3,48.3,39.4z"/>
	<path class="st0" d="M45.2,48.6h-3.3l0.8-14.9l3.3,0.8L45.2,48.6z"/>
	<path class="st1" d="M44.2,40.7l0.2-6.7l-1.6-0.4l-0.8,14.9h3.3l0.3-5.5C44.7,42.6,44.2,41.7,44.2,40.7L44.2,40.7z"/>
	<path class="st3" d="M49.4,37.8c0,3.2-3.3,5.8-7.4,5.8s-7.4-2.6-7.4-5.8h-4.1L32.8,56H51l2.5-18.2H49.4z"/>
	<path class="st5" d="M51.5,52.7L51,56H32.8l-2.5-18.2h4.1c0,1.4,0.7,2.8,1.7,3.7c1,6.5,6.6,11.2,13.1,11.2H51.5z"/>
	<circle class="st0" cx="41.9" cy="50.2" r="2.5"/>
	<path class="st1" d="M44,51.6c-0.8,1.1-2.3,1.4-3.4,0.7c-0.7-0.5-1.1-1.2-1.1-2.1c0-0.5,0.2-1,0.4-1.4C41.1,50,42.5,50.9,44,51.6
		L44,51.6z"/>
</g>
<path class="st7" d="M30.3,47.7H15.4c-1.8,0-3.3-1.5-3.3-3.3s1.5-3.3,3.3-3.3h14.9c1.8,0,3.3,1.5,3.3,3.3S32.2,47.7,30.3,47.7z"/>
<path class="st2" d="M32,46.1c0.5,0,0.9-0.1,1.4-0.3c-0.2,0.4-0.4,0.7-0.7,1c-0.6,0.6-1.5,1-2.3,1H15.4c-1.8,0-3.3-1.5-3.3-3.3
	c0-0.9,0.3-1.7,1-2.3c0.3-0.3,0.6-0.5,1-0.7c0.4-0.2,0.9-0.3,1.4-0.3h14.9c0.8,0,1.6,0.3,2.2,0.8c0.4,0.4,0.7,0.8,0.9,1.3
	c-0.3,0.6-0.9,0.9-1.5,0.9c-0.3,0-0.5-0.1-0.8-0.2c-0.5-0.2-1.1-0.2-1.6,0l-1.8,0.9c-0.5,0.2-1.1,0.2-1.6,0L24.5,44
	c-0.5-0.2-1.1-0.2-1.6,0l-1.8,0.9c-0.5,0.2-1.1,0.2-1.6,0L17.9,44c-0.5-0.2-1.1-0.2-1.6,0L15,44.6c-0.2,0.1-0.3,0.1-0.5,0.2
	c0.6,0.8,1.6,1.3,2.6,1.2L32,46.1z"/>
<path class="st1" d="M10.5,51h24.8l0,0v1.7c0,1.8-1.5,3.3-3.3,3.3H13.8c-1.8,0-3.3-1.5-3.3-3.3V51L10.5,51z"/>
<path class="st6" d="M25.2,51l-0.7,0.8L23.9,51H25.2z"/>
<path class="st6" d="M25.2,51l-0.7,0.8L23.9,51H25.2z"/>
<path class="st4" d="M32,51H13.8c-0.9,0-1.7-0.7-1.7-1.7c0-0.9,0.7-1.7,1.7-1.7H32c0.9,0,1.7,0.7,1.7,1.7C33.7,50.3,32.9,51,32,51z"
	/>
<path class="st8" d="M25.4,51.9l-3.3-4.1h6.6L25.4,51.9z"/>
<path class="st0" d="M25.1,48.6l-0.7-0.9h-2.3l3.3,4.1l1.9-2.3C26.4,49.6,25.6,49.3,25.1,48.6z"/>
<path class="st9" d="M11.3,41.1c0,1,0.6,1.9,1.5,2.4l0.6,0.3c0.8,0.4,1.6,0.4,2.4,0l1.3-0.7c0.5-0.2,1.1-0.2,1.6,0l1.7,0.9
	c0.5,0.2,1.1,0.2,1.6,0l1.7-0.9c0.5-0.2,1.1-0.2,1.6,0l1.7,0.9c0.5,0.2,1.1,0.2,1.6,0l1.7-0.9c0.5-0.2,1.1-0.2,1.6,0
	c0.9,0.4,1.9,0.1,2.3-0.8c0.1-0.2,0.2-0.5,0.2-0.8v-0.5L11.3,41.1z"/>
<path class="st1" d="M27,32.8h-8.3c-4.6,0-8.3,3.7-8.3,8.3h24.8C35.3,36.5,31.6,32.8,27,32.8z"/>
<path class="st6" d="M35.3,41.1H10.5c0-3.7,2.5-7,6.1-8c0.9,3.2,3.8,5.5,7.2,5.5h11.2C35.2,39.4,35.3,40.3,35.3,41.1z"/>
<path class="st6" d="M35.3,52.7c0,1.8-1.5,3.3-3.3,3.3H13.8c-1.8,0-3.3-1.5-3.3-3.3V51h1.8c0.4,1.5,1.7,2.5,3.2,2.5h17.4
	C33.7,53.5,34.6,53.2,35.3,52.7z"/>
<path class="st10" d="M34.5,41.1v0.5c0,0.1,0,0.2,0,0.3H12.7c0.2,0.3,0.5,0.6,0.9,0.7l0.6,0.3c0.8,0.4,1.6,0.4,2.4,0l1.3-0.7
	c0.5-0.2,1.1-0.2,1.6,0l1.8,0.9c0.5,0.2,1.1,0.2,1.6,0l1.8-0.9c0.5-0.2,1.1-0.2,1.6,0l1.8,0.9c0.5,0.2,1.1,0.2,1.6,0l1.8-0.9
	c0.5-0.2,1.1-0.2,1.6,0c0.5,0.2,1.1,0.2,1.5,0c-0.3,0.6-0.9,1-1.6,1c-0.3,0-0.5-0.1-0.8-0.2c-0.5-0.2-1.1-0.2-1.6,0L28.6,44
	c-0.5,0.2-1.1,0.2-1.6,0l-1.8-0.9c-0.5-0.2-1.1-0.2-1.6,0L22,44c-0.5,0.2-1.1,0.2-1.6,0l-1.8-0.9c-0.5-0.2-1.1-0.2-1.6,0l-1.3,0.7
	c-0.8,0.4-1.6,0.4-2.4,0l-0.6-0.3c-0.9-0.4-1.5-1.4-1.5-2.4H34.5z"/>
<g>
	<g>
		<circle class="st0" cx="24.6" cy="36.1" r="0.8"/>
		<circle class="st0" cx="21.2" cy="35.3" r="0.8"/>
		<circle class="st0" cx="18.8" cy="37" r="0.8"/>
		<circle class="st0" cx="31.2" cy="37" r="0.8"/>
	</g>
	<circle class="st1" cx="15.4" cy="36.1" r="0.8"/>
	<circle class="st0" cx="27.9" cy="35.3" r="0.8"/>
</g>
<path class="st1" d="M19.5,37.3c-0.2,0.4-0.7,0.6-1.1,0.4c-0.3-0.1-0.5-0.4-0.5-0.8c0-0.3,0.1-0.5,0.4-0.7h0
	C18.7,36.7,19.1,37,19.5,37.3z"/>
</svg>
