<?xml version="1.0" encoding="utf-8"?>
<!-- Generator: Adobe Illustrator 24.1.2, SVG Export Plug-In . SVG Version: 6.00 Build 0)  -->
<svg version="1.1" id="Layer_1" xmlns="http://www.w3.org/2000/svg" xmlns:xlink="http://www.w3.org/1999/xlink" x="0px" y="0px"
	 width="16" height="16" viewBox="0 0 16 16" style="enable-background:new 0 0 16 16;" xml:space="preserve">
<style type="text/css">
	.st0{fill:#C32026;}
</style>
<path class="st0" d="M5.3,1.8c-0.5,0-0.9,0-1.3-0.1C3.7,1.7,3.5,1.4,3.3,1.2C3.5,0.9,3.7,0.4,4,0.4c2.4,0,4.9-0.2,7.2,0.2
	c3.2,0.6,4.9,4,3.8,7.1c-1,3.1-3.2,5.4-5.4,7.8c-0.4-0.4-0.8-0.7-1-1.1c-0.2-0.4-0.3-1-0.2-1.4c0.4-1.2,0.9-2.3,1.4-3.4
	c0.1-0.3,0.4-0.6,0.6-0.8c1.6-1.1,2-3.4,0.7-4.9c-0.9-1-2.2-1.1-3.1,0C6.9,5.1,6.9,7.4,8.2,8.4C8.8,9,8.8,9.4,8.5,10
	c-0.2,0.4-0.3,0.7-0.5,1.1c-0.8,1.5-0.7,1.5-2,0.3c-0.5-0.4-1.2-0.4-1.9-0.5c-0.5-0.1-1.2,0.1-1.2-0.7c0-0.2,0.7-0.5,1.1-0.7
	c0.2-0.1,0.5-0.3,0.7-0.5C4.4,8.9,4.2,8.4,4,8.4c-0.7-0.1-1.5,0-2.1-0.1C1.5,8.2,1.1,7.9,0.8,7.7C1.1,7.4,1.5,7.1,1.9,7
	c0.4-0.1,0.9,0.1,1.2,0c0.3-0.1,0.7-0.5,0.8-0.7C4,5.6,3.7,5.3,3,5.3c-0.6,0-1.6,0.3-1.6-0.7c0-1,1-0.6,1.6-0.7
	C4.3,3.9,4.7,3.6,5.3,1.8z"/>
</svg>
