<?xml version="1.0" encoding="utf-8"?>
<!-- Generator: Adobe Illustrator 24.1.2, SVG Export Plug-In . SVG Version: 6.00 Build 0)  -->
<svg version="1.1" id="Layer_1" xmlns="http://www.w3.org/2000/svg" xmlns:xlink="http://www.w3.org/1999/xlink" x="0px" y="0px"
	 width="64" height="64" viewBox="0 0 64 64" style="enable-background:new 0 0 64 64;" xml:space="preserve">
<style type="text/css">
	.st0{fill:#130A08;}
	.st1{fill:#EF634C;}
	.st2{fill:#F0634C;}
	.st3{fill:#ED624B;}
	.st4{fill:#F1644D;}
	.st5{fill:#EE624B;}
	.st6{fill:#E54A34;}
	.st7{fill:#BB763A;}
	.st8{fill:#ED503A;}
	.st9{fill:#E24933;}
	.st10{fill:#E14833;}
	.st11{fill:#E44A34;}
	.st12{fill:#280C03;}
	.st13{fill:#290C03;}
</style>
<path class="st0" d="M36.6,32.9c0.9,0,1.8,0,2.7,0c0.3,0,0.7,0.2,0.9,0.5c0.5,0.8,0.9,1.6,1.4,2.5c-0.4,0.3-0.7,0.5-1.2,0.9
	c-0.6-1.9-1.9-2.6-4-2c0,1,0,2,0,3.2c1.4,0,2.5,0,3.5,0c0.6,1,1.1,2,1.7,3c-0.4,0.4-0.7,0.7-1.1,1c-1.3-2.5-1.4-2.5-3.8-2.2
	c-0.3,0.8-0.6,1.6-0.9,2.5c2.4,2.1,1.3,5,1.6,7.7c-1.8,0.5-3.1-0.4-4.4-1.6c0,1.2,0,2.3,0,3.4c0.5,0,0.9,0.1,1.4,0.1
	c0,2.2,0,4.4,0,6.6c-1.4,0-2.8,0-4.3,0c0-2.2,0-4.3,0-6.6c0.5,0,0.9-0.1,1.4-0.1c0-1.1,0-2.2,0-3.4c-1.3,1.1-2.5,2-4.4,1.6
	c0.3-2.6-0.9-5.5,1.6-7.7c-0.3-0.8-0.6-1.6-0.9-2.5c-2.3-0.3-2.6-0.2-3.8,2.2c-0.4-0.3-0.7-0.7-1.1-1c0.6-1,1.1-1.9,1.7-3
	c1.1,0,2.2,0,3.6,0c0-1.1,0-2.2,0-3.3c-1.1,0-2-0.3-2.7,0.1c-0.6,0.3-0.9,1.2-1.4,2c-0.4-0.3-0.8-0.5-1.2-0.8
	c0.5-0.9,0.9-1.8,1.4-2.6c0.1-0.2,0.5-0.4,0.8-0.4c0.9-0.1,1.8,0,2.7,0c0.2-0.6,0.3-1.2,0.4-1.5c-0.5-1.2-1-2.2-1.5-3.6
	c-1.1,0-2.6,0-4,0c-5.2,0.1-9.1-3.7-10.1-8.4c-0.7-3.4-0.3-6.6,1.6-9.4c1.8-2.6,4.2-4.3,7.6-4.4c0,1.4,0,2.7,0,4.1c0.5,0,1,0,1.5,0
	c0,2-0.1,3.9,0,5.7c0.1,2-0.5,3.7-1.6,5.5c2.1-0.3,3.9,0.2,5.4,1.3c2.4-3.6,1.8-10.1-0.5-12.7c0.3-0.4,0.6-0.8,0.9-1.2
	c2.2,2.6,2.6,5.6,2.4,8.9c1.1-0.9,1.6-1.7,1.5-3.1c-0.1-2.8,0-5.5,0-8.3c0.5,0,0.9,0,1.5,0c0,2.8,0.1,5.6,0,8.3
	c-0.1,1.4,0.4,2.3,1.4,3.1c0.4-6.7,0.8-5.8,2.5-8.8c0.3,0.4,0.6,0.8,0.9,1.1c-2.5,4.2-2.6,8.4-0.6,12.9c1.6-1.1,3.4-1.7,5.3-1.4
	c-0.5-1.3-0.9-2.4-1.3-3.6C41,17.2,41,17,41,16.8c0-2.3,0-4.6,0-7c0.5,0,1,0,1.5,0c0-1.4,0-2.7,0-4c1.8-0.2,3.2,0.4,4.6,1.3
	c1.5,0.9,2.6,2.1,3.5,3.6c2,3.7,2.1,7.4,0.4,11.2c-1.2,2.6-3,4.6-5.8,5.4c-1,0.3-2,0.5-3.1,0.6c-1.5,0.1-3.1,0-4.4,0
	c-0.5,1.2-0.9,2.3-1.4,3.3c-0.1,0-0.1-0.1-0.2-0.1C36.2,31.7,36.4,32.2,36.6,32.9z M35,43.9c-0.4-0.2-0.8-0.5-1.3-0.6
	c-0.6-0.2-1,0.1-0.8,0.8c-0.1,1.7,1.1,3.6,2.9,4.1c0-0.9,0.1-1.8,0-2.6C35.7,45,35.3,44.4,35,43.9z M29.2,43.9
	c-1.4,1.3-0.6,2.9-0.8,4.4c1.7-0.8,2.9-1.9,2.9-4.2c0.2-0.7-0.2-1-0.8-0.8C30.1,43.4,29.7,43.7,29.2,43.9z M29.2,39.7
	c0.1,1.1,0.7,1.6,1.7,1.6c0.8,0,1.5,0,2.3,0c1.1,0,1.6-0.5,1.7-1.7c0-0.7,0.1-1.4,0.1-1.9c-2.1,0-3.9,0-5.9,0
	C29.2,38.4,29.2,39.1,29.2,39.7z M29.5,32.3c-0.6,1.3-0.5,3,0.4,3.7c0.6,0.5,3.8,0.5,4.5,0c0.9-0.7,1-2.3,0.4-3.7
	c-0.3-1.2-1.3-1.1-2.2-1C31.5,31.4,30.1,30.7,29.5,32.3z M26.1,23.7c-0.4-0.2-0.8-0.6-1.3-0.7c-0.8-0.2-1.7-0.3-2.6-0.4
	c-1.1-0.2-1.8,0.2-2,1.3c-0.5-0.3-0.9-0.5-1.4-0.8c2.3-3.5,3.7-7.3,2.7-11.7c-1.6,1.1-2.3,2.8-2.8,4.6c-0.5-0.1-0.9-0.2-1.4-0.4
	c0.4-1.9,1.1-3.6,2.5-4.9c0.2-0.2,0.4-0.5,0.4-0.8c0.1-0.8,0-1.6,0-2.5c-2.6,0.7-4.4,2.3-5.6,4.6c-1.5,3-1.4,6.1-0.1,9.1
	c1.3,2.9,3.7,4.6,6.8,5c1.5,0.2,3.2,0,4.7,0c0.3,0,0.5,0,0.8,0C27,25.2,27,24.3,26.1,23.7z M38.1,26.2c0.9,0,1.9,0,2.8,0
	c1.5,0.1,2.8-0.2,4.2-0.7c0.7-0.3,1.5-0.6,2-1.1c2.8-2.5,3.8-5.7,3.4-9.3c-0.4-3.5-3-6.9-6.5-7.6c0,0.4,0,0.7,0,1.1
	c-0.1,1.1,0.1,1.9,1,2.8c1.1,1.1,1.7,2.6,1.9,4.3c-0.5,0.1-0.9,0.2-1.3,0.3c-1.5-3.7-2-4.3-2.9-4.3c-1,4.3,0.6,8,2.7,11.5
	c-0.6,0.3-0.9,0.5-1.3,0.7c-0.3-0.4-0.7-1.1-1-1.2c-1.8-0.1-3.6-0.3-5,1.1c-1,0.6-0.9,1.5-0.8,2.5C37.6,26.2,37.9,26.2,38.1,26.2z
	 M32.1,29.6c0.8,0,1.5,0,2.3,0c1,0.1,1.4-0.3,1.4-1.3c-0.1-1-0.1-2,0-2.9c0.2-2.5-0.8-4.5-2.3-6.4c-1.4-1.7-1.4-1.7-2.8,0
	c-1,1.2-2,2.5-2.1,4.1c-0.1,1.9-0.1,3.9-0.1,5.8c0,0.2,0.6,0.7,0.9,0.7C30.3,29.6,31.2,29.6,32.1,29.6z M32.8,56.8
	c0-1.2,0-2.2,0-3.3c-0.5,0-0.9,0-1.3,0c0,1.1,0,2.2,0,3.3C31.9,56.8,32.3,56.8,32.8,56.8z"/>
<path class="st1" d="M38.1,23.7c1.4-1.4,3.3-1.2,5-1.1c0.4,0,0.7,0.8,1,1.2c0.3-0.2,0.7-0.4,1.3-0.7c-2.2-3.5-3.8-7.3-2.7-11.5
	c0.9,0,1.3,0.7,2.9,4.3c0.4-0.1,0.8-0.2,1.3-0.3c-0.2-1.7-0.8-3.2-1.9-4.3c-0.9-0.9-1.1-1.7-1-2.8c0-0.3,0-0.7,0-1.1
	c3.5,0.7,6.1,4.1,6.5,7.6c0.5,3.7-0.6,6.8-3.4,9.3c-0.6,0.5-1.3,0.8-2,1.1c-1.3,0.5-2.7,0.8-4.2,0.7c-0.9-0.1-1.9,0-2.8,0
	C38.1,25.4,38.1,24.5,38.1,23.7z"/>
<path class="st1" d="M26.1,26.2c-1.6,0-3.2,0.2-4.7,0c-3.1-0.4-5.5-2.1-6.8-5c-1.3-3-1.4-6.1,0.1-9.1c1.2-2.3,3-3.9,5.6-4.6
	c0,0.9,0,1.7,0,2.5c0,0.3-0.2,0.6-0.4,0.8c-1.4,1.3-2,3-2.5,4.9c0.5,0.1,0.9,0.2,1.4,0.4c0.5-1.8,1.2-3.5,2.8-4.6
	c1,4.4-0.4,8.2-2.7,11.7c0.6,0.3,0.9,0.6,1.4,0.8c0.2-1.2,1-1.5,2-1.3c0.9,0.1,1.7,0.2,2.6,0.4c0.5,0.1,0.8,0.5,1.3,0.7
	C26.1,24.5,26.1,25.4,26.1,26.2z"/>
<path class="st2" d="M32.1,29.6c-0.9,0-1.8,0.1-2.7,0c-0.3,0-0.9-0.4-0.9-0.7c0-1.9-0.1-3.9,0.1-5.8c0.1-1.6,1.2-2.9,2.1-4.1
	c1.4-1.7,1.4-1.7,2.8,0c1.5,1.9,2.5,3.9,2.3,6.4c-0.1,1-0.1,2,0,2.9c0.1,1-0.4,1.4-1.4,1.3C33.7,29.5,32.9,29.6,32.1,29.6z
	 M30.6,24.6c0.7-0.5,1-1.1,0.4-1.8c-0.1-0.1-0.6-0.1-0.8,0C29.6,23.5,30,24,30.6,24.6z M33.6,24.5c0.7-0.5,1-1.1,0.4-1.8
	c-0.1-0.1-0.6-0.1-0.8,0C32.5,23.5,33,24,33.6,24.5z"/>
<path class="st3" d="M34.7,32.3c0.6,1.3,0.5,3-0.4,3.7c-0.6,0.5-3.8,0.5-4.5,0c-0.9-0.7-1-2.3-0.4-3.7C31.2,32.3,33,32.3,34.7,32.3z
	"/>
<path class="st4" d="M35,39.7c-0.1,1.1-0.7,1.6-1.7,1.7c-0.8,0-1.5,0-2.3,0c-1.1,0-1.6-0.5-1.7-1.6c0-0.3,0-0.6,0.1-0.8
	c1.9,0,3.7,0,5.6,0C34.9,39.1,34.9,39.4,35,39.7z"/>
<path class="st5" d="M31.3,44.1c0,2.3-1.2,3.4-2.9,4.2c0.2-1.5-0.6-3.2,0.8-4.4C29.9,44,30.6,44,31.3,44.1z"/>
<path class="st5" d="M35,43.9c0.3,0.6,0.7,1.1,0.8,1.7c0.1,0.9,0,1.7,0,2.6c-1.9-0.5-3.1-2.4-2.9-4.1C33.6,44,34.3,44,35,43.9z"/>
<path class="st6" d="M35,39.7c0-0.3,0-0.6-0.1-0.8c-1.9,0-3.7,0-5.6,0c0,0.2,0,0.5-0.1,0.8c0-0.7-0.1-1.3-0.1-1.9c2,0,3.9,0,5.9,0
	C35,38.4,35,39,35,39.7z"/>
<path class="st7" d="M32.8,56.8c-0.5,0-0.9,0-1.3,0c0-1.1,0-2.2,0-3.3c0.4,0,0.8,0,1.3,0C32.8,54.5,32.8,55.6,32.8,56.8z"/>
<path class="st8" d="M34.7,32.3c-1.8,0-3.5,0-5.3,0c0.6-1.6,2-0.9,3.1-1C33.5,31.2,34.4,31.1,34.7,32.3z"/>
<path class="st9" d="M26.1,26.2c0-0.8,0-1.6,0-2.4c0.9,0.6,0.9,1.4,0.8,2.4C26.6,26.2,26.4,26.2,26.1,26.2z"/>
<path class="st10" d="M38.1,23.7c0,0.8,0,1.6,0,2.5c-0.2,0-0.5,0-0.8,0C37.2,25.2,37.2,24.3,38.1,23.7z"/>
<path class="st11" d="M31.3,44.1c-0.7-0.1-1.4-0.2-2.1-0.2c0.4-0.2,0.8-0.5,1.3-0.6C31.2,43.1,31.5,43.4,31.3,44.1z"/>
<path class="st11" d="M35,43.9c-0.7,0.1-1.4,0.2-2.1,0.2c-0.2-0.7,0.2-1,0.8-0.8C34.1,43.4,34.6,43.7,35,43.9z"/>
<path class="st12" d="M30.6,24.6c-0.7-0.5-1-1.1-0.4-1.8c0.1-0.1,0.6-0.1,0.8,0C31.7,23.5,31.3,24,30.6,24.6z"/>
<path class="st13" d="M33.6,24.5c-0.6-0.5-1.1-1-0.4-1.7c0.1-0.1,0.7-0.2,0.8,0C34.6,23.4,34.3,24,33.6,24.5z"/>
</svg>
