<?xml version="1.0" encoding="utf-8"?>
<!-- Generator: Adobe Illustrator 24.1.2, SVG Export Plug-In . SVG Version: 6.00 Build 0)  -->
<svg version="1.1" id="Layer_1" xmlns="http://www.w3.org/2000/svg" xmlns:xlink="http://www.w3.org/1999/xlink" x="0px" y="0px"
	 width="64" height="64" viewBox="0 0 64 64" style="enable-background:new 0 0 64 64;" xml:space="preserve">
<style type="text/css">
	.st0{fill:#C40100;}
	.st1{fill:#7C1E1E;}
	.st2{fill:#FFFFFF;}
	.st3{fill:#AB856B;}
	.st4{fill:#97694A;}
	.st5{fill:#00C403;}
	.st6{fill:#049904;}
	.st7{fill:#FA405C;}
	.st8{fill:#C10023;}
</style>
<path class="st0" d="M50.3,37.1H13.7c-1.3,0-2.3,1-2.3,2.3v2c0,0.5,0.4,0.9,0.9,0.9h39.3c0.5,0,0.9-0.4,0.9-0.9v-2
	C52.6,38.1,51.5,37.1,50.3,37.1z"/>
<path class="st1" d="M50.3,37.1h-3.1v5.2h4.4c0.5,0,0.9-0.4,0.9-0.9v-2C52.6,38.1,51.5,37.1,50.3,37.1z"/>
<path class="st2" d="M51.8,34.4c1.2,0,2.2,1,2.2,2.2c0,1.8-2,2.7-4.3,2.4c-2.2-0.3-2.2-1.3-4.4-1.3C43,37.7,43,39,40.8,39
	c-2.2,0-2.2-1.3-4.4-1.3S34.2,39,32,39c-2.2,0-2.2-1.3-4.4-1.3c-2.2,0-2.2,1.3-4.4,1.3s-2.2-1.3-4.4-1.3c-2.2,0-2.2,1-4.4,1.3
	C12,39.3,10,38.4,10,36.6c0-1.2,1-2.2,2.2-2.2H51.8z"/>
<path class="st2" d="M54,36.6c0-1.2-1-2.2-2.2-2.2h-3.3v4.3c0.3,0.1,0.7,0.2,1.2,0.3C52,39.3,54,38.4,54,36.6z"/>
<path class="st3" d="M53.1,41.8H10.9c-1,0-1.9,0.8-1.9,1.9c0,5.3,4.3,9.7,9.7,9.7h26.5c5.3,0,9.7-4.3,9.7-9.7
	C54.9,42.7,54.1,41.8,53.1,41.8z"/>
<path class="st4" d="M53.1,41.8h-3.5v3.7c0,4.3-3.5,7.8-7.8,7.8h3.5c5.3,0,9.7-4.3,9.7-9.7C54.9,42.7,54.1,41.8,53.1,41.8z"/>
<path class="st5" d="M50.3,32H13.7c-1.3,0-2.3-1-2.3-2.3v-2c0-0.5,0.4-0.9,0.9-0.9h39.3c0.5,0,0.9,0.4,0.9,0.9v2
	C52.6,31,51.5,32,50.3,32z"/>
<path class="st6" d="M51.7,26.9h-4.4v3.8c0,0.8-0.6,1.4-1.4,1.4h4.4c1.3,0,2.3-1,2.3-2.3v-2C52.6,27.3,52.2,26.9,51.7,26.9z"/>
<path class="st7" d="M52.2,31.6H11.8c-0.9,0-1.7,0.7-1.7,1.7c0,0.9,0.7,1.6,1.6,1.6h25.6c0.4,0,0.8,0.1,1.1,0.4l3.6,3.1
	c1.1,0.9,2.6,0.8,3.6-0.2l2.8-2.9c0.3-0.3,0.8-0.5,1.2-0.5h2.3c0.9,0,1.7-0.7,1.7-1.7C53.8,32.3,53.1,31.6,52.2,31.6z"/>
<path class="st3" d="M32,10.6c-21.4,0-22.9,14.1-22.9,16.1c0,1,0.8,1.9,1.9,1.9h42.1c1,0,1.9-0.8,1.9-1.9
	C54.9,24.7,53.4,10.6,32,10.6z"/>
<path class="st4" d="M54.9,26.7C54.9,26.7,54.9,26.6,54.9,26.7C54.9,26.6,54.9,26.6,54.9,26.7C54.9,26.6,54.9,26.6,54.9,26.7
	c0-0.1,0-0.1,0-0.1c0,0,0,0,0,0c0,0,0,0,0-0.1c0,0,0,0,0,0c0,0,0,0,0-0.1c0,0,0,0,0,0c0-0.1,0-0.3,0-0.5c0,0,0,0,0,0
	c-0.4-3.6-3.4-15.3-22.9-15.3c-0.9,0-1.8,0-2.7,0.1c12.9,0.8,17.7,7.1,19.4,11.7c0.7,1.9-0.7,3.9-2.7,3.9h-35
	c-0.8,0-1.4-0.5-1.7-1.1c-0.1,0.7-0.2,1.2-0.2,1.5c0,1,0.8,1.9,1.9,1.9h42.1C54.1,28.6,54.9,27.7,54.9,26.7
	C54.9,26.7,54.9,26.7,54.9,26.7z"/>
<path class="st8" d="M52.2,31.6h-3.7v3.9l0.2-0.2c0.3-0.3,0.8-0.5,1.2-0.5h2.3c0.9,0,1.7-0.7,1.7-1.7C53.8,32.3,53.1,31.6,52.2,31.6
	z"/>
<path d="M53.3,41.1v-1.7c0-0.1,0-0.2,0-0.3c0.2-0.1,0.3-0.2,0.5-0.3c0.6-0.6,1-1.3,1-2.1c0-0.7-0.3-1.4-0.7-1.9
	c0.4-0.4,0.6-1,0.5-1.5c0-1-0.7-1.8-1.6-2.2c0.2-0.4,0.3-0.8,0.3-1.3v-0.5c1.3-0.1,2.4-1.2,2.4-2.5c0-0.2,0-4.8-3.6-9.2
	c-1.8-2.2-4.2-4-7.1-5.3C41.3,10.7,37,9.9,32,9.9c-6.3,0-11.5,1.2-15.4,3.6c-0.3,0.2-0.4,0.6-0.2,1c0.2,0.3,0.6,0.4,1,0.2
	C21,12.5,26,11.3,32,11.3c4.8,0,9,0.7,12.3,2.2c2.7,1.2,4.9,2.8,6.6,4.9c3.3,4,3.3,8.2,3.3,8.4c0,0.6-0.5,1.2-1.2,1.2H10.9
	c-0.6,0-1.2-0.5-1.2-1.2c0-0.2,0-1.8,0.8-4c0.9-2.4,2.3-4.5,4.2-6.2c0.3-0.3,0.3-0.7,0.1-1c-0.3-0.3-0.7-0.3-1-0.1
	c-5.4,4.8-5.5,10.9-5.5,11.2c0,1.3,1.1,2.5,2.4,2.5v0.5c0,0.5,0.1,0.9,0.3,1.3c-0.3,0.1-0.7,0.3-0.9,0.6c-0.4,0.4-0.7,1-0.7,1.7
	c0,0.5,0.2,1,0.5,1.4c-0.5,0.5-0.7,1.2-0.7,1.9c0,0.8,0.3,1.6,1,2.1c0.2,0.1,0.3,0.3,0.5,0.4c0,0.1,0,0.2,0,0.3v1.7
	c-1.3,0.1-2.4,1.2-2.4,2.5c0,5.7,4.7,10.4,10.4,10.4h26.5c5.7,0,10.4-4.7,10.4-10.4C55.6,42.3,54.6,41.2,53.3,41.1z M52.8,37.7
	c-0.6,0.6-1.8,0.8-3,0.6c-0.9-0.1-1.3-0.4-1.8-0.6c-0.1-0.1-0.2-0.1-0.3-0.2l1.6-1.6c0.2-0.2,0.5-0.3,0.8-0.3h2.3
	c0.2,0,0.4,0,0.6-0.1c0.3,0.3,0.5,0.7,0.5,1.1C53.3,37.1,53.1,37.4,52.8,37.7z M12.1,29.3h39.7v0.5c0,0.5-0.3,1-0.7,1.3c0,0,0,0,0,0
	c0,0-0.1,0-0.1,0.1c0,0,0,0,0,0c0,0-0.1,0-0.1,0.1c0,0,0,0,0,0c0,0-0.1,0-0.1,0.1c0,0,0,0,0,0c0,0-0.1,0-0.1,0c0,0,0,0,0,0
	c0,0-0.1,0-0.1,0c0,0,0,0,0,0c0,0-0.1,0-0.1,0H13.7c-0.9,0-1.6-0.7-1.6-1.6V29.3z M11.1,32.6c0.2-0.2,0.4-0.3,0.7-0.3h0.3
	c0.4,0.3,1,0.4,1.5,0.4h36.6c0.1,0,0.1,0,0.2,0c0,0,0,0,0.1,0c0,0,0.1,0,0.1,0c0,0,0,0,0.1,0c0.1,0,0.1,0,0.2,0c0,0,0,0,0.1,0
	c0,0,0.1,0,0.1,0c0,0,0.1,0,0.1,0c0,0,0.1,0,0.1,0c0,0,0.1,0,0.1,0c0,0,0.1,0,0.1-0.1c0,0,0.1,0,0.1,0c0,0,0.1,0,0.1,0
	c0,0,0.1,0,0.1,0c0,0,0.1,0,0.1-0.1c0,0,0,0,0.1,0h0.4c0.5,0,0.9,0.4,0.9,0.9c0,0.4-0.2,0.7-0.6,0.9c0,0,0,0,0,0
	c-0.1,0.1-0.3,0.1-0.4,0.1h-2.3c-0.6,0-1.3,0.3-1.7,0.7l-2.8,2.9c-0.7,0.7-1.7,0.8-2.5,0.2c0,0,0,0-0.1,0c0,0-0.1-0.1-0.1-0.1
	c0,0,0,0,0,0L39,34.8c-0.4-0.4-1-0.6-1.6-0.6H11.8c-0.1,0-0.3,0-0.4-0.1h0c-0.3-0.2-0.5-0.5-0.5-0.8C10.9,33,11,32.8,11.1,32.6z
	 M10.7,36.6c0-0.4,0.2-0.9,0.5-1.1c0.2,0.1,0.4,0.1,0.6,0.1h25.6c0.3,0,0.5,0.1,0.7,0.3l2.9,2.5c-0.1,0-0.1,0-0.2,0
	c-0.9,0-1.3-0.2-1.9-0.6c-0.6-0.4-1.3-0.8-2.6-0.8c-1.3,0-2,0.4-2.6,0.8c-0.5,0.3-0.9,0.6-1.9,0.6c-0.9,0-1.3-0.2-1.9-0.6
	c-0.6-0.4-1.3-0.8-2.6-0.8c-1.3,0-2,0.4-2.6,0.8c-0.5,0.3-0.9,0.6-1.9,0.6s-1.3-0.2-1.9-0.6C20.7,37.4,20,37,18.7,37
	c-1.4,0-2,0.4-2.7,0.7c-0.5,0.3-1,0.5-1.8,0.6c-1.2,0.2-2.4,0-3-0.6C10.8,37.4,10.7,37.1,10.7,36.6z M45.3,52.7H18.7c-5,0-9-4-9-9
	c0-0.6,0.5-1.2,1.2-1.2H42c0.4,0,0.7-0.3,0.7-0.7s-0.3-0.7-0.7-0.7H12.1v-1.5c0.4,0.1,0.8,0.1,1.2,0.1c0.3,0,0.7,0,1-0.1
	c1.1-0.2,1.7-0.5,2.3-0.8c0.6-0.3,1-0.5,2-0.5c0.9,0,1.3,0.2,1.9,0.6c0.6,0.4,1.3,0.8,2.6,0.8c1.3,0,2-0.4,2.6-0.8
	c0.5-0.3,0.9-0.6,1.9-0.6s1.3,0.2,1.9,0.6c0.6,0.4,1.3,0.8,2.6,0.8c1.3,0,2-0.4,2.6-0.8c0.5-0.3,0.9-0.6,1.9-0.6s1.3,0.2,1.9,0.6
	c0.6,0.4,1.3,0.8,2.6,0.8c0.6,0,1.1-0.1,1.6-0.3c0.5,0.2,1,0.3,1.5,0.3c0.9,0,1.7-0.3,2.4-1l0.2-0.2c0.3,0.1,0.5,0.2,0.7,0.3
	c0.5,0.3,1.2,0.6,2.3,0.8c0.3,0.1,0.7,0.1,1,0.1c0.4,0,0.9,0,1.3-0.1v1.5h-6.6c-0.4,0-0.7,0.3-0.7,0.7s0.3,0.7,0.7,0.7h7.8
	c0.6,0,1.2,0.5,1.2,1.2C54.2,48.6,50.2,52.7,45.3,52.7z"/>
</svg>
