<?xml version="1.0" encoding="utf-8"?>
<!-- Generator: Adobe Illustrator 24.1.2, SVG Export Plug-In . SVG Version: 6.00 Build 0)  -->
<svg version="1.1" id="Layer_1" xmlns="http://www.w3.org/2000/svg" xmlns:xlink="http://www.w3.org/1999/xlink" x="0px" y="0px"
	 viewBox="0 0 878 660" style="enable-background:new 0 0 878 660;" xml:space="preserve">
<style type="text/css">
	.st0{opacity:0.5;fill-rule:evenodd;clip-rule:evenodd;fill:url(#SVGID_1_);enable-background:new    ;}
	.st1{fill:#052036;}
	.st2{fill:#292935;}
	.st3{fill:#7B8485;}
	.st4{fill:#111233;}
	.st5{fill:#693B33;}
	.st6{fill:#996150;}
	.st7{fill:#EC8A53;}
	.st8{fill:#0B0B2F;}
	.st9{fill:#748183;}
	.st10{fill:#5D6870;}
	.st11{fill:#865738;}
	.st12{fill:#29304B;}
	.st13{fill:#DFD5D0;}
	.st14{fill:#5C9E3A;}
	.st15{fill:#F8F8F9;}
	.st16{fill:#B9BDBE;}
	.st17{fill:#F0E0DF;}
	.st18{fill:#D0816A;}
	.st19{fill:#41495B;}
	.st20{fill:#571A22;}
	.st21{fill:#464E5E;}
	.st22{fill:#FB6C61;}
	.st23{fill:#5A2F1A;}
	.st24{fill:#C2C7CA;}
	.st25{fill:#EC642B;}
	.st26{fill:#F7997E;}
	.st27{fill:#3E2521;}
	.st28{fill:#9596B0;}
	.st29{fill:#0B7D7F;}
	.st30{fill:#FDFDFD;}
</style>
<linearGradient id="SVGID_1_" gradientUnits="userSpaceOnUse" x1="242.8261" y1="895.9631" x2="746.4168" y2="392.3725" gradientTransform="matrix(1 0 0 -1 0 1176)">
	<stop  offset="0" style="stop-color:#FFFFFF"/>
	<stop  offset="1" style="stop-color:#FFFFFF;stop-opacity:0"/>
</linearGradient>
<path class="st0" d="M874.1,664H0.2C-10.9,514.5,136,420.2,215.9,369.1c10.4-6.7,19.6-12.5,27.2-17.8c33.4-22.9,58.1-73,84.4-126.1
	c48.5-98,102.3-206.8,225.2-176.8c108,26.5,270.4,139.4,331.5,308.2V637C881.2,646,877.7,655,874.1,664z"/>
<path class="st1" d="M437.2,382c0-1.5,0-2.8,0-4.3c0.5-0.6,1.3-1.4,1.3-2c-0.3-4.8-0.8-9.6-1.3-14.4c-0.9-9.8-2.2-19.5-2.7-29.3
	c-0.3-4.8,0.5-9.6,0.9-14.4c2.1-0.5,4.3-1,6.4-1.6c0.4,1.5,0.8,3,1,4.5c0.7,6.8,0.8,6.8,7.6,5c0.3,0.4,0.6,0.7,0.9,1.1
	c0.7,2.2,1.4,4.4,2.1,6.7c0.7,2.5,1.6,4.9,2.7,8.7c1.2-3.6,1.9-5.9,2.7-8.1c0.7-2.4,1.5-4.8,2.2-7.2h0.5c7,1.4,8.4,0.3,9.1-7.1
	c0.1-1.2,0.6-2.4,1-3.6c6.9,0.7,10.9,4.4,13.6,10.8c3.7,8.8,8.5,17.1,12.8,25.6c3,5.9,2.4,11.2-1.6,15.1c-3.9,3.7-9,4.3-14.8,1.6
	c-1.8-0.9-3.7-1.8-6-2.9c0,4.1,0.2,7.6-0.1,11.1c-0.3,4,2,8.6-2.4,12.1c-0.7,0.6-0.2,3-0.1,4.7c1,28.5,2,57.1,3,85.5
	c0,0.5-0.1,1.1-0.2,1.6c-2.7,0.2-5.3,0.4-8,0.5c-0.8-2.4-2.3-4.8-2.4-7.2c-1-27.2-1.8-54.2-2.7-81.4c-2.1-7.9-4.2-15.8-6.2-23.7
	c-0.7,0.1-1.4,0.1-2.1,0.2c-0.3,1.5-0.7,3-0.7,4.5c0.1,2.8,0.4,5.6,0.7,8.4c0.5,3.6-0.8,5.2-4.7,4.9c-3.8-0.3-7.8,0.1-11.7,0.3
	l0.1,0.1C437.9,385.8,437.5,383.9,437.2,382z M461.4,357.6c1.3,1.2,2.6,2.3,4.1,3.7c1.6-3,2.8-5.3,4.5-8.2c-2.2-0.7-3.9-1.4-5.6-1.9
	c-2.6-1.7-4.9-3.9-7.8-5c-1-0.4-3.7,1.6-4.5,3.1c-0.5,0.9,1.3,3.3,2.6,4.4C456.7,355.2,459.2,356.3,461.4,357.6z M479.1,334.6
	c-0.9,3.9-1.6,7-2.3,10.1c-2.5,11.5-2.5,11.5,8.6,16.3c1.4,0.6,3.2,0.2,4.8,0.3c0-1.6,0.5-3.5-0.2-4.8
	C486.7,349.3,483.1,342.5,479.1,334.6z M470.1,331.1c-2.9,1.8-5.1,3.2-7.2,4.6c0.2,0.5,0.4,0.9,0.5,1.4c2.1,0,4.3,0,6.6,0
	C470.1,335.3,470.1,333.9,470.1,331.1z"/>
<path class="st2" d="M296.4,305.3c4.3,0.7,8.5,1.5,12.8,2.2c0,7,0,14.1,0.1,21.1c-2.2,1.7-4.4,3.5-6.6,5.2c-0.5,0.9-1.7,1.9-1.6,2.7
	c0.3,1.9,1.2,3.8,1.7,5.8c-2.8,1.4-5.6,2.8-8.4,4.2c0,0.6,0,1.3,0,1.9c4.9,0.5,9.9,1.1,14.9,1.6c0,8.8,0,17.7,0.2,26.4
	c0.1,2.5-0.6,3.7-3.2,3.4c-1.1,0-2.1-0.2-3.2-0.1c-5.5,0.8-7.3-1.6-6.8-6.9c0.4-3.3,0.1-6.7,0.1-10.1c-2.1,3.4-3.8,6.7-4.5,10.2
	c-1,5.1-3.3,7.9-9.1,6.9c-0.1,2-0.3,3.6-0.4,5c-0.8,21.8-1.6,43.5-2.6,65.3c-0.3,6.7-1.1,13.3-1.7,19.9c-0.3,0.1-0.5,0.2-0.7,0.1
	c-2.7-0.4-5.3-0.7-8-1.1c-0.3-1.8-0.9-3.6-0.9-5.4c0.9-25.8,2-51.7,2.9-77.5c0.1-2.6,1.9-6.3-3-7c-0.3,0-0.5-1.6-0.5-2.4
	c0.3-4.8,0.6-9.5,1-14.3c5.4,0.4,10.9,3,17.2-1.5c-6.6-0.6-11.8-1.2-17-1.6c-0.2-2.3-0.5-4.6-0.4-6.9c0.3-3.7-1.1-6.2-3.7-9.1
	c-2.6-2.7-3.9-7-4.7-10.9c-0.6-3.3,0.1-7,0.7-10.5c2.7-14.5,4.5-16,19.2-17.3c3.8,5.8,7.7,11.5,11.6,17.3c0.7,1.6,1.6,3.3,2.3,4.8
	c0.4-0.1,0.7-0.3,1.1-0.4c0-2.6,0-5,0-7.6C295.7,314.5,296,309.9,296.4,305.3z M282.6,335.1c-1.1-1.1-2.1-2.3-3.2-3.4
	c-1.6-1.1-3.2-3-4.8-3c-2.6,0-5.9,0.5-7.4,2.1c-2.3,2.6,0.4,4.3,2.7,5.4c2,1,4,2.1,6,3.2c1.6-0.1,3.2-0.2,4.8-0.3
	c3.3-0.3,6.6-0.5,9.9-0.7c0-0.8,0.1-1.6,0.1-2.5C288,335.6,285.2,335.3,282.6,335.1z"/>
<path class="st3" d="M341.9,416.9c-1.2-1.4-2.5-2.7-3.6-4.2c-0.6-0.9-1.5-1.9-1.5-2.9c-0.5-9.7-0.7-19.4-1-29.1
	c12.3,0,24.7,0,36.9,0c0.3,9.4,0.6,18.8,0.7,28.3c0,1.3-1.3,2.6-2,3.7c-2.4,0-4.7,0-7,0c-5.4,0.3-10.7,0.6-16.1,0.9
	C346.3,414.8,344.1,415.8,341.9,416.9z"/>
<path class="st1" d="M441.5,482.3c-0.6-1-1.9-2-1.9-3c-0.4-29.6-0.6-59.2-0.8-88.8c3.6,0.7,7,1.5,10.6,2.1c0,14.4,0,28.9,0,43.4
	c0,15.4,0,30.7,0.1,46C446.7,482.1,444.1,482.2,441.5,482.3z"/>
<path class="st2" d="M305.9,384c-0.3,27.7-0.5,55.4-0.9,83.1c0,0.7-0.6,1.5-1,2.2c-2.9,0-5.9,0-8.8,0c-0.3-1.8-0.8-3.7-0.8-5.5
	c0.3-26.2,0.5-52.5,0.9-78.7C298.8,384.7,302.3,384.3,305.9,384z"/>
<path class="st4" d="M350.6,308.2c-0.4,0.1-0.7,0.1-1,0.2c-10,1.7-13.6-0.7-14.7-11c-0.7-6.3-0.4-12.7-0.2-19.1
	c0.1-1.6,1-3.7,2.3-4.6c7.1-4.8,14.9-7.4,23.5-4.6c1.7,0.5,3.7,1.6,4.8,3.1c5.8,8.1,6.4,17.7,6.3,27.3c0,1.8-3.6,3.9-5.9,5.3
	c-1.9,1.1-4.4,1.1-6.7,1.6c-1.7-4.3,0.7-9.3,5.2-11.7c1.4-0.7,3.1-2.8,2.9-4c-0.2-1.3-2.5-2.4-4-3.2c-1.8-0.9-4-1.2-5.8-2.3
	c-3.3-2-6.5-4.3-9.5-6.8c-2.2-1.6-3.7-1.3-5.4,0.6c-3.7,4-6.3,8.6-3.8,13.9c2.5,5.4,2.5,13.2,11.2,13.4
	C350.1,306.5,350.3,307.6,350.6,308.2z"/>
<path class="st5" d="M438.4,301.3c-2.7-4.2-2.8-8.4-0.6-12.9c0.9-1.9,0.9-4.4,0.8-6.7c-0.1-4.8,1.4-8.7,5.4-11.4
	c3.3,6.9,9.9,2.9,15,4.6c0,2.4,0,4.8,0,7.1c-1,4.5,1.2,10.2,5,11.7c-0.4-4.2,1-7,5.8-6.5c3.7,2.1,4.2,5.8,0.7,7.3
	c-7.6,3.3-9.4,8.9-8.7,16.2c-1.7,2.6-3.5,5-5.2,7.6c-0.3,0-0.5,0-0.7,0c-1.2-2.8-2.4-5.7-3.5-8.6c3.4-11.3,1.5-14.5-8-14
	C440.3,296,440.1,299.2,438.4,301.3z"/>
<path class="st6" d="M307.1,280c-0.3,2.5-0.5,4.9-0.8,7.3c-1,6.7-3.8,9.4-10.4,10.5c-1,0.2-1.7,1.4-2.7,2.2
	c-0.5,2.6-0.9,5.2-1.4,7.8c-0.5,0.2-1.2,0.5-1.7,0.6c-2-2.1-4.1-4.3-6.1-6.4c0.1-1.7,0.2-3.5,0.2-5.2c-0.2-0.6-0.5-1.3-0.6-2
	c-3.7-2.9-4.4-9-10.1-10.3c-0.5-0.1-0.1-3.9-0.1-6c2.7,1.7,5.5,3.5,9.1,5.9c-1.9-7.6,3.3-8.1,8-9.6c5.1-1.6,10.2-3.5,15.3-5.3
	C306.2,272.5,306.6,276.2,307.1,280z"/>
<path class="st7" d="M350.6,308.2c-0.3-0.5-0.5-1.6-0.7-1.6c-8.8-0.3-8.8-8-11.2-13.4c-2.4-5.3,0.1-9.9,3.8-13.9
	c1.7-1.9,3.2-2.3,5.4-0.6c3.1,2.4,6.2,4.7,9.5,6.8c1.7,1.1,3.9,1.3,5.8,2.3c1.6,0.8,3.7,1.9,4,3.2c0.2,1.2-1.6,3.3-2.9,4
	c-4.5,2.4-7,7.4-5.2,11.7c1.2,1.4,2.4,2.8,3.5,4.2c-1.4,3.2-2.7,6.5-4.2,9.7c-7.4,0.7-11.4-1.6-14.1-8.4
	C346.3,310.7,348.4,309.4,350.6,308.2z M351.2,297.3c-3.1,0-5.8,0-8.8,0C345.9,301.9,347.3,301.9,351.2,297.3z"/>
<path class="st8" d="M307.1,280c-0.5-3.7-0.9-7.4-1.4-10.5c-5,1.7-10.1,3.7-15.3,5.3c-4.7,1.4-9.9,2-8,9.6c-3.7-2.4-6.4-4.1-9.1-5.9
	c-0.4-3.8-1.3-7.7-0.8-11.4c0.7-6.5,5.8-10.7,12.3-10.9c4.8-0.2,9.5,0,14.3,0c0.2,0,0.4,0,0.5,0c8.2,0.7,7.6,9.1,11.3,13.7
	C313.3,272.7,311.3,277.6,307.1,280z"/>
<path class="st3" d="M372,312.8c1.5,0.8,3.7,1.3,4.2,2.5c3.4,8.4,5.9,17,2.8,26.2c-1.5,4.4-4.2,7.7-9.1,8.6
	c-5.7,0.4-11.2,0.7-16.9,1c-0.4-0.4-0.8-0.7-1.2-1.2c-3.9-1.7-8-3.6-11.9-5.3c1.5-2.2,3-4.4,4.5-6.6c1.4,0.5,2.7,0.8,4.1,1.3
	c0.4,0.1,0.6,0.1,1,0.1c1.1,0.4,2.2,0.6,3.3,1c4,1,8,2,12,3c2.3-1,4.8-1.8,7-3c3.3-1.9,3.2-4.1,0.3-6.4c-0.9-4.8-1.8-9.7-2.9-14.4
	C368.3,316.4,368.8,314.1,372,312.8z"/>
<path class="st8" d="M435.3,317.6c-0.4,4.8-1.2,9.6-0.9,14.4c0.5,9.8,1.8,19.6,2.7,29.3c0.5,4.8,0.9,9.6,1.3,14.4
	c0,0.6-0.8,1.4-1.3,2c-0.3-1.3-0.6-2.6-1-4.2c-1,5-2,9.5-2.9,14.1c-2.5-0.4-5-0.8-7.5-1.2c1.2-12.7,2.6-25.3,3.5-38
	c0.6-8.1,0.7-16.3,0.7-24.4C430,320,431.3,317.8,435.3,317.6z"/>
<path class="st9" d="M353,351c5.7-0.4,11.2-0.7,16.9-1c0.5,1.5,0.6,3,1.5,4.2c4.7,6.5,3.7,14,3.6,21.3c0,0.7-1.3,1.4-2,2.1
	c-2.6-0.4-5.2-1.2-7.8-0.9c-4.7,0.5-8.2-1.5-10.2-5.1c-1.6-2.9-1.6-6.6-2.3-10C352.8,358,352.9,354.5,353,351z M374.1,361.6
	c-5.2-1.5-9.1-2.6-14.1-3.9C363.5,364.9,367.7,366.2,374.1,361.6z"/>
<path class="st6" d="M372.2,422.2c2.8,13.2,5.7,26.4,8.7,39.6c0.5,2.1,1.8,4,2.8,6c-0.5,1.1-1.1,2.1-1.5,3.2
	c-1.9,5.9-3.3,6.5-9.3,4.3c2.6-5.4,1.6-10.7,0.3-16.4c-2.9-13.3-5-26.6-7.5-40C370,415.9,370.5,420.2,372.2,422.2z"/>
<path class="st8" d="M309.3,350c-4.9-0.5-9.9-1.1-14.9-1.6c0-0.6,0-1.3,0-1.9c2.8-1.4,5.6-2.8,8.4-4.2c1.5-0.5,2.8-1.2,4.3-1.7
	c4.8-1.6,5.6-6.4,2-12c0-7,0-14.1-0.1-21.1c1.1,1.2,2.7,2.3,3.4,3.7c2.7,7,5.8,13.8,7.2,20.9C321.6,342.1,318.8,346.1,309.3,350z"/>
<path class="st6" d="M341.9,416.9c2.2-1.1,4.4-2.1,6.6-3.2c0,16.2,0,32.5,0.1,48.7c0,1.8,0.6,3.7,0.9,5.6c-0.2,6.4-5.7,9-12.9,6
	c4.7-1.9,5.3-5.5,5.2-10.2C341.6,448.3,341.8,432.6,341.9,416.9z"/>
<path class="st9" d="M364.8,343.4c-4-1-8-2-12-3c0.4-2.6,0.4-5.2,1.1-7.7c1.2-4.2,2.9-8.2,4.4-12.3c1.4-3.2,2.7-6.5,4.2-9.7
	c3.2,0.6,6.3,1.4,9.5,2c-3.2,1.4-3.7,3.7-2.9,6.9c1.1,4.8,1.9,9.6,2.9,14.4c-4.1-1.6-7.9-0.9-9.7,3
	C361.7,338.6,363.9,341.3,364.8,343.4z"/>
<path class="st10" d="M339.9,344.5c3.9,1.7,8,3.6,11.9,5.3c-3.5,0.7-7,1.6-10.5,2.3c-1.4-0.1-2.7-0.1-4.2-0.2
	c-9.3-1.8-13-6.3-10.8-15.5c1.6-7,5-13.8,8-20.5c0.5-1.1,2.5-1.6,3.7-2.3c-0.7,6.5-1.4,12.9-2.1,19.4c-3.4,5.3-3.1,8.3,0.9,10.4
	C337.7,343.8,338.8,344.1,339.9,344.5z"/>
<path class="st10" d="M352.8,361.5c0.7,3.4,0.7,7,2.3,10c1.9,3.7,5.5,5.7,10.2,5.1c2.6-0.3,5.1,0.5,7.8,0.9c0,1.1,0,2.1,0,3.2
	c-12.3,0-24.7,0-36.9,0c-0.1-1-0.2-2.1-0.3-3.1c5,0.6,7.1-1.4,6.6-6.6c-0.4-3.1-0.1-6.3-0.1-9.5
	C345.7,361.6,349.2,361.5,352.8,361.5z"/>
<path class="st2" d="M382.6,482.8c-16.4,0-32.7,0-49.1,0c-0.7-0.3-1.5-0.6-2.2-0.9c-0.5-1.2-1.1-2.4-1.7-3.7c2.4-1.3,4.8-2.7,7-3.9
	c7.2,2.9,12.7,0.4,12.9-6c7.4,3.4,0.5,9,2.3,13.5c5.2,0,10.6,0,15.4,0c2.1-2.3,3.9-4.2,5.8-6.1c6,2.2,7.4,1.6,9.3-4.3
	c0.4-1.1,0.9-2.1,1.5-3.2c0.2,2.6,0.5,5,0.6,7.6C379.2,476.9,383.9,480.5,382.6,482.8z"/>
<path class="st11" d="M358.3,320.4c-1.5,4.1-3.2,8.1-4.4,12.3c-0.7,2.5-0.7,5.1-1.1,7.7c-1.1-0.4-2.2-0.6-3.3-1
	c-0.4-0.1-0.6-0.1-1-0.1c-1.4-0.5-2.7-0.8-4.1-1.3c0.2-1.1,0.5-2.2,0.7-3.7c-1.3,0.4-2.1,0.6-3,0.9c-0.1-7.5-0.1-15-0.2-22.6
	c0.7-0.2,1.6-0.4,2.3-0.5C346.8,318.8,350.8,321.2,358.3,320.4z"/>
<path class="st8" d="M458.8,281.9c0-2.4,0-4.8,0-7.1c-5-1.6-11.7,2.3-15-4.6c1.1-3.4,3.5-4.6,6.9-4.2c0.8,0.1,1.7,0,2.7,0
	c13.5,0,16.8,3.5,16,16.9C465.9,282.7,462.4,282.3,458.8,281.9z"/>
<path class="st8" d="M331.3,481.8c0.7,0.3,1.5,0.6,2.2,0.9c-13.1,0-26.2,0-39.3,0c0-0.3,0-0.6-0.1-0.9c0.5-2.4,1.1-4.8,1.6-7.2
	c3.7,0.3,7.3,0.5,8-4.5c4.6,3.4,8.8,7.4,15,7.7c0.8,0,1.6,2.6,2.4,4C324.5,481.8,327.9,481.8,331.3,481.8z"/>
<path class="st8" d="M449.2,392.7c-3.6-0.7-7-1.5-10.6-2.1c-0.2-1-0.4-1.9-0.5-2.9c3.9-0.1,7.8-0.5,11.7-0.3
	c3.8,0.3,5.1-1.4,4.7-4.9c-0.4-2.7-0.6-5.6-0.7-8.4c0-1.5,0.5-3,0.7-4.5c0.7-0.1,1.4-0.1,2.1-0.2c2.1,7.9,4.2,15.8,6.2,23.7
	C458.3,392.9,453.8,392.8,449.2,392.7z"/>
<path class="st3" d="M342.1,361.6c0,3.2-0.3,6.4,0.1,9.5c0.5,5.1-1.6,7.2-6.6,6.6c-0.9-1.4-2.6-2.7-2.7-4.2
	c-1-7.6,0.6-14.7,4.2-21.4c1.4,0.1,2.7,0.1,4.2,0.2C341.5,355.3,341.8,358.5,342.1,361.6z"/>
<path class="st8" d="M290,482.7c-7.8,0-15.6,0-23.4,0c0-0.4,0-0.6-0.1-1c1-2.5,2-4.9,3-7.4c4,1.3,5.9-1.6,8-4c0.3,0,0.5,0,0.7-0.1
	c1.3,0.9,2.5,1.8,3.7,2.8c1.3,1.1,2.4,3.1,3.6,3.1c4,0,4.8,2.7,5.7,5.7C290.8,482.1,290.3,482.4,290,482.7z"/>
<path class="st12" d="M438.4,301.3c1.7-2.1,1.9-5.3,5.9-5.6c9.4-0.6,11.4,2.6,8,14c-1.2,0.5-2.3,1.2-3.5,1.7
	C440.7,312.7,440.1,306.4,438.4,301.3z"/>
<path class="st8" d="M305.9,384c-3.5,0.4-7,0.7-10.5,1.1c-4.3,0-8.6-0.1-12.8-0.1c0.1-1.6,0.2-3.1,0.4-5c5.8,1,8-1.7,9.1-6.9
	c0.6-3.5,2.5-6.9,4.5-10.2c0,3.4,0.3,6.8-0.1,10.1c-0.5,5.2,1.3,7.7,6.8,6.9c1-0.2,2.1,0,3.2,0.1C306.1,381.2,306,382.6,305.9,384z"
	/>
<path class="st8" d="M446.1,493.9c-7.1-0.1-14.3-0.3-21.4-0.4c0-0.6,0-1.2,0-1.8c0.5-1.4,1.2-4,1.6-3.9c5.7,0.7,10.3-1.9,15.3-3.7
	c2.8,0.6,4.4,6.8,8.6,2.1c0.3,0.3,0.4,0.5,0.3,0.9c0.1,0.5,0.2,0.8,0.3,1.3c0.3,1.5,0.5,2.9,0.8,4.4c-0.7,0.4-1.5,0.6-2.2,1
	C448.1,493.7,447.1,493.8,446.1,493.9z"/>
<path class="st4" d="M449.2,493.5c0.7-0.4,1.5-0.6,2.2-1c1.6-0.1,3.1-0.2,4.8-0.3c0.6-1.7,1.2-3.3,1.3-3.5c4.4-2,7.6-3.4,10.8-4.8
	c1.8,1.2,3.6,2.3,5.9,3.7c0.5-0.4,1.6-1.1,2.7-1.8c0.5,2,0.9,4,1.5,6.7c3.1,0,6.6,0,10,0c0,0.4,0,0.6,0,1
	C475.3,493.5,462.2,493.5,449.2,493.5z"/>
<path class="st13" d="M283.9,301.9c2,2.1,4.1,4.3,6.1,6.4c0.5-0.2,1.2-0.5,1.7-0.6c0.5-2.6,0.9-5.2,1.4-7.8c1,1.7,2.1,3.6,3.1,5.3
	c-0.3,4.7-0.6,9.3-0.9,13.9c-0.4-1.8-0.5-3.7-1.2-5.5c-0.5-1.2-1.4-2.6-2.5-3c-0.6-0.3-2,1-3.1,1.6c0.6,0.2,1.3,0.4,1.9,0.6
	c0.5,3.2,0.8,6.3,1.3,9.5c-3.8-5.8-7.7-11.5-11.6-17.3C281.6,304,282.7,303,283.9,301.9z"/>
<path class="st9" d="M341.9,312.5c0.1,7.5,0.1,15,0.2,22.6c-0.9,0.3-1.8,0.6-2.7,0.9c-1.2-1-2.4-2-3.6-3c0.7-6.5,1.4-12.9,2.1-19.4
	C339.2,313.2,340.5,312.9,341.9,312.5z"/>
<path class="st5" d="M431.8,391.7c-0.2,3-0.1,6.1-0.6,9.1c-0.3,1.2-1.9,2.9-3,2.9c-1.4,0.1-4-1.3-4.1-2.2c-0.3-3.5,0.4-7,0.6-10.5
	C427,391.3,429.4,391.5,431.8,391.7z"/>
<path class="st8" d="M471.6,316c-0.4,1.2-0.9,2.3-1,3.6c-0.7,7.4-2.1,8.5-9.1,7.1c1.6-4.4,3.2-8.8,4.8-13.3
	C468,314.3,469.8,315.2,471.6,316z"/>
<path class="st2" d="M458.8,281.9c3.5,0.4,7,0.7,10.5,1.1c0.1,1.4,0.2,2.7,0.3,4.1c-4.7-0.6-6.1,2.3-5.8,6.5
	C460.1,292.2,457.9,286.4,458.8,281.9z"/>
<path class="st4" d="M450.4,325.5c-6.9,1.8-6.9,1.7-7.6-5c-0.2-1.6-0.6-3-1-4.5c1.8-0.5,3.6-0.8,5.4-1.3
	C448.2,318.3,449.3,322,450.4,325.5z"/>
<path class="st13" d="M466.2,313.5c-1.6,4.4-3.2,8.8-4.8,13.3h-0.5c-0.7-1-1.4-2.1-2.1-3.1c-0.7-1.7-1.6-3.5-2.3-5.3
	c1.7-2.6,3.5-5,5.2-7.6C463.2,311.6,464.7,312.6,466.2,313.5z"/>
<path class="st13" d="M450.4,325.5c-1.1-3.6-2.2-7.2-3.3-10.8c1.2-0.8,2.3-1.6,3.5-2.6c-0.6-0.3-1.2-0.5-1.8-0.8
	c1.2-0.5,2.3-1.2,3.5-1.7c1.2,2.8,2.4,5.7,3.5,8.6c-0.8,1.7-1.6,3.5-2.4,5.2c-0.7,1.1-1.4,2.1-2.1,3.2
	C451,326.3,450.7,325.9,450.4,325.5z"/>
<path class="st8" d="M269.3,359.6c5.2,0.5,10.4,1,17,1.6c-6.2,4.5-11.8,1.8-17.2,1.5C269.2,361.6,269.3,360.6,269.3,359.6z"/>
<path class="st14" d="M476.9,485.9c-1.1,0.7-2.2,1.5-2.7,1.8c-2.3-1.5-4-2.6-5.9-3.7c-0.1-0.8-0.3-1.6-0.4-2.4
	c2.7-0.2,5.3-0.4,8-0.5C476.3,482.7,476.6,484.3,476.9,485.9z"/>
<path class="st5" d="M303.9,470.1c-0.8,4.9-4.4,4.8-8,4.5c-0.2-1.7-0.4-3.5-0.5-5.2c2.9,0,5.9,0,8.8,0
	C304,469.5,304,469.8,303.9,470.1z"/>
<path class="st11" d="M372.2,422.2c-1.6-2-2.3-6.3-6.5-3.2c-0.4-2.1-0.7-4.2-1.1-6.3c2.3,0,4.7,0,7,0c0,0.5-0.1,1-0.1,1.6
	c0.1,0.5,0.2,1,0.2,1.5C371.9,418,372.1,420.1,372.2,422.2z"/>
<path class="st13" d="M431.8,391.7c-2.4-0.2-4.8-0.4-7.2-0.5c0.4-1.6,0.7-3.3,1.2-4.8c2.5,0.4,5,0.8,7.5,1.2
	C432.8,388.9,432.3,390.3,431.8,391.7z"/>
<path class="st14" d="M450.2,486c-4.2,4.7-5.7-1.4-8.6-2.1c0-0.5-0.1-1.1-0.1-1.7c2.7-0.1,5.2-0.1,7.9-0.2
	C449.6,483.4,449.9,484.8,450.2,486z"/>
<path class="st5" d="M277.4,470.3c-2.1,2.5-4,5.3-8,4c0-1.7,0.1-3.4,0.1-5.1C272.2,469.5,274.9,469.9,277.4,470.3z"/>
<path class="st4" d="M390.1,481c0,0.6,0,1.2,0,1.8c-2.5,0-4.9,0-7.5,0c1.3-2.3-3.4-5.9,1.7-7.2c-0.1,1.9-0.3,3.8-0.5,6.5
	C386.2,481.6,388.2,481.2,390.1,481z"/>
<path class="st8" d="M437.2,382c0.4,1.9,0.7,3.7,1.1,5.7C437.9,385.8,437.5,383.9,437.2,382z"/>
<path class="st13" d="M283.5,294.8c0.2,0.6,0.5,1.3,0.6,2C283.9,296,283.7,295.4,283.5,294.8z"/>
<path class="st3" d="M371.7,415.8c-0.1-0.5-0.2-1-0.2-1.5C371.5,414.8,371.6,415.4,371.7,415.8z"/>
<path class="st15" d="M450.2,486c-0.3-1.3-0.5-2.7-0.8-3.9c0-15.4-0.1-30.7-0.1-46c0-14.4,0-28.9,0-43.4c4.6,0.2,9.1,0.3,13.6,0.5
	c0.9,27.2,1.7,54.2,2.7,81.4c0.1,2.5,1.6,4.8,2.4,7.2c0.1,0.8,0.3,1.6,0.4,2.4c-3.2,1.5-6.4,2.8-10.8,4.8c-0.1,0.2-0.6,1.8-1.3,3.5
	c-1.7,0.1-3.3,0.2-4.8,0.3c-0.3-1.5-0.5-2.9-0.8-4.4c0.1-0.2,0.3-0.4,0.2-0.5c-0.1-0.3-0.3-0.5-0.5-0.8
	C450.5,486.6,450.4,486.3,450.2,486z"/>
<path class="st15" d="M479.1,334.6c3.9,7.9,7.6,14.7,10.9,21.8c0.6,1.4,0.2,3.2,0.2,4.8c-1.6-0.1-3.5,0.4-4.8-0.3
	c-11-4.8-11-4.8-8.6-16.3C477.5,341.5,478.2,338.5,479.1,334.6z"/>
<path class="st5" d="M461.4,357.6c-2.3-1.3-4.8-2.3-6.7-3.9c-1.3-1.1-3-3.5-2.6-4.4c0.6-1.5,3.4-3.5,4.5-3.1c2.8,1.1,5.2,3.3,7.8,5
	C463.4,353.3,462.4,355.4,461.4,357.6z"/>
<path class="st14" d="M453.4,323.5c0.8-1.7,1.6-3.5,2.4-5.2c0.3-0.1,0.5-0.1,0.7,0c0.7,1.7,1.6,3.5,2.3,5.3
	c-3.7,3.4-1.1,6.9-0.2,10.3c-0.7,2.3-1.5,4.6-2.7,8.1c-1.1-3.7-1.9-6.2-2.7-8.7C453.4,330,453.4,326.8,453.4,323.5z"/>
<path class="st13" d="M461.4,357.6c1-2.1,2-4.3,3-6.4c1.7,0.5,3.4,1.2,5.6,1.9c-1.6,2.9-2.8,5.2-4.5,8.2
	C464,359.8,462.7,358.7,461.4,357.6z"/>
<path class="st14" d="M470.1,331.1c0,2.7,0,4.2,0,5.9c-2.4,0-4.5,0-6.6,0c-0.2-0.5-0.4-0.9-0.5-1.4C465,334.3,467.1,333,470.1,331.1
	z"/>
<path class="st16" d="M458.7,333.9c-0.9-3.5-3.5-7,0.2-10.3c0.7,1,1.4,2.1,2.1,3.1C460.2,329,459.4,331.5,458.7,333.9z"/>
<path class="st16" d="M453.4,323.5c0,3.3,0,6.5,0,9.8c-0.7-2.2-1.4-4.4-2.1-6.7C452,325.6,452.7,324.5,453.4,323.5z"/>
<path class="st15" d="M295.2,469.3c0.2,1.7,0.4,3.5,0.5,5.2c-0.5,2.4-1.1,4.8-1.6,7.2c-1,0-2,0-3,0.1c-0.9-2.8-1.6-5.6-5.7-5.7
	c-1.2,0-2.4-2.1-3.6-3.1c-1.2-1-2.5-1.9-3.7-2.8c0.6-6.7,1.5-13.3,1.7-19.9c0.9-21.8,1.7-43.5,2.6-65.3c4.3,0,8.6,0.1,12.8,0.1
	c-0.3,26.2-0.6,52.5-0.9,78.7C294.4,465.6,294.9,467.4,295.2,469.3z"/>
<path class="st6" d="M275.9,339.3c-2-1.1-3.9-2.2-6-3.2c-2.4-1.2-5-2.9-2.7-5.4c1.5-1.6,4.8-2.2,7.4-2.1c1.6,0,3.2,2,4.8,3
	C278.2,334.2,277.1,336.7,275.9,339.3z"/>
<path class="st6" d="M309.2,328.5c3.6,5.6,2.7,10.4-2,12c0.5-3.6-0.5-6.2-4.5-6.8C304.8,332,307,330.2,309.2,328.5z"/>
<path class="st14" d="M292,322.3c-0.5-3.2-0.8-6.3-1.3-9.5c-0.6-0.2-1.3-0.4-1.9-0.6c1-0.5,2.4-1.8,3.1-1.6c1.1,0.5,2,1.8,2.5,3
	c0.6,1.7,0.8,3.7,1.2,5.5c0,2.6,0,5,0,7.6c-0.4,0.1-0.7,0.3-1.1,0.4C293.5,325.6,292.7,323.9,292,322.3z"/>
<path class="st13" d="M302.6,333.7c4.1,0.5,4.9,3.2,4.5,6.8c-1.5,0.5-2.8,1.2-4.3,1.7c-0.6-1.9-1.5-3.8-1.7-5.8
	C300.9,335.6,302,334.6,302.6,333.7z"/>
<path class="st8" d="M282.6,335.1c2.7,0.3,5.4,0.5,8.1,0.8c0,0.8-0.1,1.6-0.1,2.5c-3.3,0.3-6.6,0.5-9.9,0.7
	C281.3,337.7,281.9,336.4,282.6,335.1z"/>
<path class="st13" d="M282.6,335.1c-0.6,1.4-1.3,2.7-1.8,4c-1.6,0.1-3.2,0.2-4.8,0.3c1.2-2.6,2.3-5.1,3.5-7.7
	C280.4,332.8,281.5,333.9,282.6,335.1z"/>
<path class="st15" d="M364.6,412.8c0.4,2.1,0.7,4.2,1.1,6.3c2.5,13.4,4.6,26.7,7.5,40c1.3,5.7,2.2,11-0.3,16.4
	c-1.8,1.9-3.7,3.8-5.8,6.1c-4.8,0-10.2,0-15.4,0c-1.8-4.5,5.1-10.2-2.3-13.5c-0.4-1.8-0.9-3.7-0.9-5.6c-0.1-16.2-0.1-32.5-0.1-48.7
	C353.9,413.5,359.3,413.1,364.6,412.8z"/>
<path class="st17" d="M351.2,297.3c-3.9,4.6-5.3,4.6-8.8,0C345.5,297.3,348.1,297.3,351.2,297.3z"/>
<path class="st6" d="M342.1,361.6c-0.3-3.1-0.6-6.3-0.9-9.4c3.5-0.7,7-1.6,10.5-2.3c0.4,0.4,0.8,0.7,1.2,1.2
	c-0.1,3.5-0.1,7-0.2,10.5C349.2,361.5,345.7,361.6,342.1,361.6z"/>
<path class="st7" d="M364.8,343.4c-0.9-2.2-3.1-4.9-2.5-6.4c1.7-4,5.6-4.7,9.7-3c3,2.3,3.1,4.6-0.3,6.4
	C369.5,341.7,367.1,342.4,364.8,343.4z"/>
<path class="st6" d="M339.3,336c0.9-0.3,1.8-0.6,2.7-0.9c0.8-0.3,1.7-0.5,3-0.9c-0.3,1.6-0.5,2.7-0.7,3.7c-1.5,2.2-3,4.4-4.5,6.6
	c-1.1-0.4-2.1-0.7-3.2-1.1C334.6,339.9,336.4,337.7,339.3,336z"/>
<path class="st6" d="M348.5,339.2c0.4,0,0.6,0.1,1,0.1C349.1,339.4,348.9,339.3,348.5,339.2z"/>
<path class="st3" d="M374.1,361.6c-6.4,4.5-10.6,3.3-14.1-3.9C365,359.1,369,360.2,374.1,361.6z"/>
<path class="st18" d="M339.3,336c-2.9,1.7-4.8,3.9-2.7,7.5c-4-2.1-4.3-5.2-0.9-10.4C337,334,338.2,335,339.3,336z"/>
<path class="st14" d="M524.2,392.3c0.1-2.2,0.3-4.4,0.4-6.7c7,0.5,7,0.5,7.4-6.3c3.7-16.4,3-32.9,3-49.5c0-1.3-1.5-2.6-2.3-3.8
	c-6.3-10.1-6.8-21.2-6.4-32.6c0.2-7,3.2-12.4,9.2-15.6c6.6-3.5,13.6-3.9,20.3,0c4.9,2.9,7.7,7.7,7,13.4c-1.5,10.6-3.6,21.1-5.4,31.7
	c-3.6-0.7-4.3,1.6-5.2,4.3c-4.8,14.9-5.3,30.1-3.1,45.5c1.5,10.7-0.2,22.4,9.2,30.8c-2.7,0.1-5.3,0.2-8,0.2c-1.5,0-2.9,0-4.4,0
	c-5.4,0.4-10.8,0.6-16.3,1c-0.2,0-0.5,0-0.6,0c0.3-3.7,0.6-7.4,1-11.7C528.1,392.8,526.1,392.6,524.2,392.3z M528.2,299.4
	c1.4,4.4,2,9.2,4.3,13.2c2.9,5,8.7,5.2,15,1.6c5.7-3.2,6.5-5.1,3.7-11.6c-1.6-3.5-3.7-6.8-6.3-9.6c-3-3.4-6.7-7.3-11.7-5.4
	C527.8,289.4,529.4,294.7,528.2,299.4z"/>
<path class="st19" d="M453.5,348.3c1.4-8.7,2.6-17.4,4.3-26c0.3-1.4,2.7-2.8,4.4-3.2c3.6-0.8,7.3-1.1,11-1.6
	c3.5,5.6,7,11.2,10.4,16.8c1.4,2.5,2.7,5,4,7.5c0.5-0.2,1-0.5,1.5-0.6c0-2.7,0-5.5,0-8.2c0-5.2,0-10.4,0-15.6
	c4.4,0.8,8.8,1.6,13.2,2.6c-0.1,13-0.2,26.1-0.3,39c0,0.7,0.6,1.6,1,2.3c-0.7,1.5-1.6,2.9-2.1,4.5c-1.5,4-2.7,8.1-4.1,12.2
	c-0.7,2.1-1.6,4.1-2.4,6.2c-1.5,0.8-2.8,1.6-4.3,2.5c-0.5-4-1.1-8.1-1.8-13.6c-2,5-3.5,8.5-4.8,12.1c-1.6-0.9-3.4-1.8-5-2.7
	c-0.8-1.6-1.3-3.7-2.5-4.8c-7.6-7-12.1-15.6-13.7-25.9C461.3,345.7,458.8,344.9,453.5,348.3z"/>
<path class="st2" d="M429.3,369.9c0.1,5,0.4,10.2,0.3,15.2c0,1-1.7,1.8-2.7,2.8c-1.4-0.1-2.8-0.2-4.2-0.2c-9.1-0.1-9.1-0.1-9.1-9.4
	c0-2.4,0-4.7,0-7c-0.5-0.1-1.1-0.2-1.6-0.2c-1.4,4-2.9,8-4,12.2c-0.9,3.2-2.4,4.8-5.9,4.6c-4.8-0.3-9.5,0-14.3,0.1
	c-2.4-0.1-4-0.6-3.7-3.7c0.7-6.8,1.3-13.6,1.7-20.5c0.1-1.1,0.2-2.6-0.5-3.4c-6.4-8.8-5.7-18.7-4.3-28.5c0.2-1,0.5-2.1,0.6-3.1
	c2.2-12.1,3.1-12.8,16-13.2c0,1.9,0.1,3.9-0.2,5.8c-0.6,5.5,3,9.7,8.8,10.1c0.1,0.3,0.3,0.5,0.5,0.7c-0.7,0.4-2,0.6-2.1,1.2
	c-1.4,8.2-2.7,16.4-4.1,26c6.3-1.3,11.3-2.3,16.4-3.3c0.9,2.4,1.9,4.8,2.8,7.2c-5.7,1.1-11.2,2.2-16.9,3.5c-1.4,0.3-2.7,1-3.9,1.6
	c0.2,0.5,0.4,1.1,0.5,1.6C409.3,369.9,419.3,369.9,429.3,369.9z M387.9,364.3c1.9,5.2,5.4,5.5,9.6,1.7
	C393.9,365.4,390.9,364.9,387.9,364.3z"/>
<path class="st4" d="M264.9,493.1c7.3,0.5,14.7,0.9,23.4,1.5c-23.4-15.8-30.4-30-25.2-49.1c4.5-16.6,18.6-27.8,36.3-29.1
	c1.6-0.5,3.1-1.2,4.8-1.7c3.5,2.7,6.9,5.3,10.3,8c-0.3,0.3-0.6,0.5-0.9,0.8c-3.3-0.2-6.6-0.4-9.8-0.6c-2-0.4-4-1.3-5.9-1.1
	c-13.4,1.6-23.1,8.7-28.3,21.1c-5.4,13-3.2,25.1,5.9,35.7c9.1,10.3,20.7,13.8,34.1,11c0.9-0.2,2.3-0.9,2.4-1.5
	c0.4-3.8,2.9-3.2,5.5-3c1.1,0.1,2.5,0,3.3-0.6c6.6-4.7,11.6-10.7,13.8-18.7c0.5-1.6-0.4-3.5-0.5-5.3c-0.1-3,0-6.1,0-9.1
	c0-1.6,0.2-3.3,0.3-4.8c-1-3.3-2.1-6.5-3.1-9.8c0.9-1.1,1.8-2.1,2.7-3.2c2,4,4,8,6.1,12.1c0.6,1.7,1.3,3.4,1.9,5.1
	c3.3,3.6,3.5,7-0.2,10.6c-0.8,0.8-1.1,2.1-1.6,3.2c-2.9,5.9-5.9,11.9-8.8,17.9c-1,1.1-2.1,2.3-3.1,3.4c-1.1,0.8-2.3,1.6-3.4,2.4
	c0.1,0.5,0.3,0.9,0.4,1.3c4.4,0.5,8.7,1,13.1,1.2c0.8,0,1.7-1.8,2.7-2.8c0.1-1.3,0.3-2.6,0.4-3.9l0.1-0.1c0.3-0.5,0.5-0.9,0.7-1.4
	c3-4,6.9-5.2,11.7-3.8c1.1,3,0.7,4.1-3,3.6c-1.6-0.3-4.3,1.9-4.9,3.6c-0.5,1.3,1,4.5,2.3,5c1.6,0.6,4.6,0,5.9-1.3
	c2.2-2.1,3.6-5.1,5.3-7.8c2.8-3.8,5.7-7.8,8.5-11.6c3,3.2,2.1,6.7,0.8,10.2c-4.4,4.2-8.7,8.3-13.1,12.5c7.5,1.2,13.9,1.3,20.4,1.2
	c0.6,0,1.4-1.2,2-1.8c0.5,0.9,0.9,1.9,1.3,2.8c-8.9,0.1-17.7,0.2-26.5,0.3c-2.6,0.6-5,1.2-7.6,1.8c-1.7,0-3.5,0-5.2,0
	c-0.6-0.4-1.3-0.8-1.9-1.2c-1.5,0.4-3,0.8-4.5,1.2c-1.1,0-2.2-0.1-3.3-0.1c-5.8-0.3-11.4-0.6-17.2-0.8c-3.8-0.1-7.7,0-11.5,0
	c-0.1,0.3-0.1,0.5-0.1,0.8c-1.4,0-2.7-0.1-4.1-0.1c0-0.3,0-0.5-0.1-0.8c-1.8-0.4-3.6-1-5.4-1c-9.5-0.2-19.1-0.2-28.6-0.3
	C263.8,494.4,264.3,493.7,264.9,493.1z"/>
<path class="st20" d="M558.2,403.6c-9.3-8.4-7.7-20.1-9.2-30.8c-2.1-15.4-1.6-30.5,3.1-45.5c0.9-2.7,1.6-5.1,5.2-4.3
	c5.4,2.2,11.1,3.8,16.1,6.6c3.7,1.9,7,4.8,9.8,8c8.4,10.1,7,21-3.2,29.2c-1.6,1.2-3.3,2.1-4.9,3.1c-1-2.8-2-5.6-3.1-8.4
	c4.1-3.1,8.9-6.3,7.5-12.3c-1.7-7.3-7.9-10.7-14.4-14.1c-1.4,11-2.6,21.2-3.7,31.4c-2,0.7-4.5,0.9-6,2.2c-1.1,1-1.1,3.3-1.6,5
	c1.6,0.5,3.1,1.2,4.6,1.2c2.5,0,4.8-0.5,7.3-0.8c6.1,9.5,3.4,20.1,3.8,30.4c0,0.5-2.3,1.2-3.5,1.7
	C563.4,405.2,560.8,404.4,558.2,403.6z M553.2,376.9c1,6,4.8,6.4,8.5,6.5c1.5,0,2.9-1.4,4.4-2.2c-0.3-0.5-0.5-0.9-0.7-1.4
	C561.6,378.9,557.8,378,553.2,376.9z"/>
<path class="st9" d="M303.7,422.8c3.3,0.2,6.6,0.4,9.8,0.6c0.3-0.3,0.6-0.5,0.9-0.8c-3.5-2.7-6.9-5.3-10.3-8c-1.4-2.7-2.7-5.3-4.1-8
	c0-6.9,0-13.8-0.1-20.7c0.9-1.7,1.9-3.6,2.8-5.3c0.4-0.4,0.9-0.7,1-1.1c2.6-10.6,10.2-13.6,20-13.5c1.4,0,2.8-0.2,4.2-0.3
	c0.1,1.6,0.2,3,0.4,4.6c-0.3,11.2,1.3,22.7-4,33.3c-0.5,1.2-0.2,2.7-0.2,4.2c-3.5,0.2-7,0.4-10.4,0.5c-0.1,0.7-0.2,1.5-0.3,2.2
	c2.6,0.6,5.1,1.3,7.6,2c0.6,2.7,1.4,5.4,2,8.1c-1.5,2.7-7.1,3.9-3.2,8.7c-5.1-1.6-10.2-3.4-15.4-5.1
	C304.1,424,303.9,423.3,303.7,422.8z M309.2,405.1c0.7-0.1,1.5-0.2,2.2-0.3c-0.2-3.8-0.5-7.8-0.6-11.6c-0.9,0.1-1.9,0.2-2.8,0.3
	C308.4,397.3,308.8,401.2,309.2,405.1z"/>
<path class="st2" d="M426.4,392c-0.4,9.4-0.6,18.7-1.2,28.2c-0.1,1-2.1,1.8-3.2,2.8c-2.5,0-5,0.1-7.5,0.1c-4.2,0-8.5-0.1-12.7-0.1
	c-2.5,0-4.9,0.1-7.4,0.1c-1.6-0.1-3.1-0.3-5.2-0.4c-0.4-10.2-0.7-20.5-1.2-30.6C400.8,392,413.6,392,426.4,392z"/>
<path class="st21" d="M461.5,486.8c0.7-28.4,1.6-56.9,2.1-85.3c0.1-3.4,2.7-8.1-3-10.2c-0.4-0.1-0.3-2-0.2-3c0.3-4.8,0.6-9.5,1-14.3
	c4.3,4.9,8.6,9.9,12.9,14.9c0.8,1,1.6,1.9,2.5,2.9c-0.8,1.9-1.6,3.8-2.5,5.8c-0.9,26.7-1.8,53.3-2.9,80c-0.1,1.6-1.5,3.2-2.2,4.8
	C466.6,483.8,464,485.3,461.5,486.8z"/>
<path class="st10" d="M387,430.2c2.2,1.3,4.3,2.5,6.5,3.7c2.6,3.1,5.1,6.2,7.8,9.3c0.9,3.8,1.9,7.8,2.7,11.6c0.7,3.5,1.2,7,1.8,10.6
	c-2.6,0-5.1,0.1-7.7,0.1c-1.3-1.7-2.6-3.5-3.8-5.2c-1.6-5-3.3-10.1-4.9-15.1c-2.7-2.2-5.2-4.5-7.9-6.7c-1.6-0.2-3.2-0.3-5.5-0.5
	c1.5,4.7,2.5,8.1,3.6,11.6c0.9,4.9,1.7,10,2.7,14.9c-2.4,0.6-4.8,1.4-7.2,2c-1.1-1.2-2.8-2.1-3.3-3.5c-1.9-5.9-3.5-11.8-5.1-17.7
	c-2.7-4.3-5.9-6.7-11.2-4.6c-2.6,1-5.5,0.9-8.2,1.3c-0.1-6.8-0.3-13.4-0.4-20.2c0.5,0.9,1,1.9,1.7,2.7c1,1,2.3,1.7,3.5,2.6
	c6.3-0.1,12.6-0.2,18.9-0.2c1.3,0.4,2.7,0.7,3.9,1.1c1.6,1.3,3.4,2.5,4.9,3.7C382.9,434.3,385.6,434.7,387,430.2z"/>
<path class="st22" d="M257.2,324.6c2.8,1.1,5.6,2.2,8.4,3.3c0.3,5.3,0.6,10.6,0.6,15.9c0,2,0,4.5-1.1,5.9c-3,3.8-3.1,8-2.7,12.5
	c0,2.8,0,5.7,0,8.4c0,0.4,0,0.7,0,1.1c0,0.7,0,1.5,0,2.2s0.1,1.4,0.1,2.1c-0.5,0.5-0.9,0.9-1.5,1.4c-0.3-0.3-0.5-0.4-0.8-0.4
	c-6.1-5.5-12.3-10.9-18.4-16.4c-1.6-8-3.3-15.9-4.7-23.9c-0.7-4.3-1.1-8.6-1.6-12.9c1.6-0.4,3.4-0.7,5-1.1c1.7,2.2,3.1,4.9,5.3,6.3
	c2.1,1.3,5.4,2.1,7.6,1.4C255.3,329.9,256,326.7,257.2,324.6z"/>
<path class="st1" d="M264.3,400.4c0.4,5.8,0.7,11.5,1.2,17.7c-2,0-3.6,0-5.1,0c-2.5,0.2-4.8,0.4-7.3,0.5c-4.3-0.3-8.6-0.5-12.8-0.7
	c-2.6,0.3-5.1,0.5-7.8,0.7c-0.4-0.3-0.8-0.5-1.2-0.7c0.4-3.5,0.7-7,1.2-10.5c1-8.2,2.1-16.4,3.2-24.5c5.3,0,10.6,0,16,0
	c0.4,0,0.6,0,1,0c0.7-0.1,1.5-0.2,2.2-0.2c6.3,1.8,10,5.4,8.6,12.6C263.1,396.8,264,398.6,264.3,400.4z"/>
<path class="st1" d="M558.2,403.6c2.6,0.8,5.1,1.7,7.8,2.6c-0.9,24.1-1.8,48.2-2.7,72.2c-3,0.3-6,0.6-9.1,0.9
	c-0.1-0.8-0.4-1.7-0.4-2.6c-1.2-24.3-2.4-48.7-3.6-73C552.8,403.6,555.5,403.6,558.2,403.6z"/>
<path class="st21" d="M497.5,395.2c-0.3,23-0.5,46-0.9,69c-0.1,6.1-0.7,12.3-1,18.5c-0.6,0.4-1.4,0.7-2,1.1c-1.3-4.2-4.7-1.6-7-2.3
	c-0.3-0.8-0.7-1.6-0.7-2.4c0.5-26.8,1.2-53.7,1.8-80.5c3-1.2,6-2.4,9.1-3.6C496.8,395.2,497.1,395.2,497.5,395.2z"/>
<path class="st23" d="M257.2,324.6c-1.2,2.1-2,5.3-3.7,5.9c-2.2,0.7-5.5,0-7.6-1.4c-2.2-1.4-3.6-4.1-5.3-6.3
	c4-5.5,0.5-15.1-5.9-16.8c-1.6-0.5-4.2-1.8-4.2-2.7c0-1.6,1.6-3.2,2.7-4.8c1.6,1.3,3.3,2.7,4.8,3.7c1.2-2.6,2.4-4.8,3.4-7.2
	c0.5-1.2,1.6-2.5,1.4-3.6c-0.6-3.7,1.2-4.6,4.4-4.8c3.7-0.2,7.6-0.7,11.3-1.1c2.1,7.2,4.9,14.4,5.9,21.8c1.1,8.1-1.8,10.4-10.1,10.2
	c-0.8,0-1.7,0-2.6,0C249.3,323.3,255.3,322.3,257.2,324.6z"/>
<path class="st1" d="M529.9,473c-0.8-11.7-1.6-23.4-2.6-35l0.4-0.3c0.1-0.1,0.2-0.2,0.4-0.3c-0.2-0.2-0.4-0.4-0.5-0.5
	c0-4.8,0-9.5-0.1-14.3c0-10.6,1.2-9-8.8-9.1c-1.6,0-3.3,0-4.9,0c0-0.4,0-0.7,0-1.1c4.7,0,9.4,0,13.9,0c0.7-2.1,1.3-3.7,1.8-5.3
	c5.1,0.2,7,3.6,8.8,7.8c3.1,7.4,3.3,15,3.2,22.7c-0.4,1.8-1.1,3.7-1.2,5.6c-0.5,11.8-0.7,23.6-1.1,35.3c-0.4,0.6-0.7,1.3-1.1,1.9
	c-0.7,0-1.5-0.1-2.2-0.1c-1.8-0.9-3.7-1.9-5.4-2.8c-0.2-1.1-0.4-2.2-0.5-3.3c0.1-0.1,0.3-0.3,0.3-0.3
	C530.2,473.3,530,473.1,529.9,473z"/>
<path class="st7" d="M497.5,289.8c0.3,3.3,0.6,6.6,0.7,9.9c0.4,10.7,0,11-10.2,11.5c-0.3,0.4-0.6,0.6-0.9,1c0,1.5,0,2.8,0,4.3
	c-2.1,1.4-4.6,4-6.3,3.7c-1.8-0.4-3-3.7-4.6-5.8c1-6.7-3.7-10.9-7.7-14.5c-4.1-3.8-4.9-4.4-0.6-8.8c2.1,1.6,4.2,3.3,6.9,5.5
	c1.5-3.1,3.2-6.7,5.1-10.6c4.6-0.2,10-0.5,15.5-0.7C496,286.7,496.8,288.2,497.5,289.8z"/>
<path class="st18" d="M423.2,289.4c0,2.8,0,5.6,0,8.4c-0.1,7.7-1.6,9.6-9.1,11.6c-1.1,0.3-2,1.6-2.9,2.3c1.6,1.3,3,2.6,4.6,3.8
	c-0.3,3.2-0.6,6.3-0.9,9.5c-3.7-0.4-7.6-0.7-11.3-1c-1.6-2.9-3.3-5.9-4.9-8.7c1.5-1.1,3.8-1.9,4.3-3.3c0.9-2.8,0.6-5.9-3-7.3
	c-1.3-1.9-2.1-4.7-3.8-5.6c-3.1-1.6-3.3-3.7-2.8-6.4l-0.2-0.4l0.3-0.3c2.7,0.8,5.5,1.6,9,2.7c4.4-3.7,10-8.2,15.5-12.9
	C419.6,284.5,421.4,287,423.2,289.4z"/>
<path class="st24" d="M416.8,356c-5,1-10.2,2.1-16.4,3.3c1.5-9.6,2.7-17.8,4.1-26c0.1-0.5,1.4-0.8,2.1-1.2c2.3,0,4.6,0.1,6.9,0.1
	c5.4,3.7,9.3,3.3,11.7-0.9c0.7,0,1.4,0,2.1,0c9,0.3,9,0.3,7,9.2c-0.6,3-1.4,6.1-2,9.1c-2.9,0.6-5.9,1.3-8.8,1.9
	C421.3,353.2,419,354.5,416.8,356z"/>
<path class="st25" d="M322.5,338.7c0.5-2.5,1.5-4.9,1.5-7.5c0.2-8,2.3-10.7,10.4-12.1c-0.2-1.6-0.4-3.2-0.6-5.3
	c7.1,0,14-0.5,20.9,0.2c4.5,0.4,7.1,3.9,7.5,8.4c0.4,4.9-2.3,8-7.1,9c-4.8,0-9.6,0-14.4-0.1c-3.3-0.1-5.1,1.1-6.3,4.4
	c-1,2.8-2.8,5.9-7.1,3.5C325.9,338.5,324.1,338.9,322.5,338.7z"/>
<path class="st26" d="M322.5,338.7c1.6,0.1,3.4-0.2,4.7,0.5c4.3,2.4,6.1-0.6,7.1-3.5c1.2-3.3,3-4.5,6.3-4.4
	c4.8,0.1,9.6,0.1,14.4,0.1c-0.1,1.5-0.2,2.8-0.4,4.3c-3.7,0.5-7.3,1.1-11.2,1.6c1.7,5.3-2.1,6.3-6.1,7.2c4.5,1.6,7.6,0.6,8.4-4.7
	c3.9,5.5,3.9,5.5,9,5.4c0.3,10.7-1.1,12.2-13.3,13.2c0,1.6,0,3.2,0,4.8c-0.8,2.1,0.4,6.2-3.9,4.8c-2-0.6-3.4-3.1-5-4.8
	c1-7.8-2.3-13.1-9.1-16.7C319.5,344.5,321.3,341.5,322.5,338.7z"/>
<path class="st8" d="M258.3,285.6c-3.7,0.4-7.5,0.9-11.3,1.1c-3.2,0.2-5,1-4.4,4.8c0.2,1.1-0.8,2.4-1.4,3.6
	c-1.1,2.3-2.2,4.7-3.4,7.2c-1.4-1.1-3-2.4-4.8-3.7c0.1-2.8-0.9-4.1-4-4.8c-8.4-1.7-12.2-16.1-6.2-22.3c4.5-4.7,12.3-3.7,15.5,2
	c0.8,1.4,1.3,2.9,1.9,4.5C247.3,278,254.9,276.8,258.3,285.6z"/>
<path class="st8" d="M379.4,495c-0.5-0.9-0.9-1.9-1.3-2.8c-0.7-2.1-1.5-4.3-2.2-6.4c-0.2-4.4-0.5-8.7-0.6-13.1
	c3.6-0.3,6.7-1.2,7.5-5.3c3.7-0.6,5.1,1.6,6.1,4.6c1.7,0.4,3.5,0.6,5.2,1c0.9,1.1,1.8,2.1,2.5,2.8c1.2-1.6,2.2-2.7,3.1-4
	c3.4,0.5,6.4,0.4,6.4-4.2c1.6,1.1,3.3,2.1,4.9,3.3c1.2,0.8,2.3,1.6,3.4,2.5c0.7,0.1,1.5,0.1,2.1,0.2c0.4,0,0.7,0,1.1,0.1
	c1.1,0.3,2.3,0.5,3.4,0.7l0.2-0.1c0.4,1.7,0.7,3.6,1.1,5.3c-1.3,0.8-2.6,1.6-3.7,2.7c-0.7,0.6-1.1,2.2-1.6,2.2
	c-7.6,0.4-15.4,5-22.8-0.7c-0.1-7.8-5.9-3.6-9.1-4.2c-4.7-0.9-3.6,2.8-3.5,5.5c-3.4,1.4-2.6,4.2-0.7,5.2c2.1,1.1,5.3,1.2,7.6,0.5
	c1.6-0.5,2.6-3.2,3.8-4.9c0.3,0,0.6,0,0.9,0c1,5.1,1,5.1-2.8,7.9c-0.3,0.2-0.3,1-0.4,1.5c-0.9,0.1-1.9,0.3-2.8,0.4
	c-0.6,0.2-1.3,0.3-1.9,0.5l0.1,0.1c-0.9-0.2-1.8-0.5-2.8-0.6C381.5,495.2,380.4,495.1,379.4,495z"/>
<path class="st27" d="M529.5,406.8c-0.5,1.6-1.1,3.2-1.8,5.3c-4.5,0-9.2,0-13.9,0c0,0.4,0,0.7,0,1.1c1.6,0,3.3,0,4.9,0
	c10,0.2,8.8-1.5,8.8,9.1c0,4.8,0,9.5,0.1,14.3c0,0.3,0.1,0.5,0.2,0.8l-0.4,0.3c-3.9-0.2-7.9-0.4-11.8-0.5l-0.3-0.2l-0.4,0.2
	c-2.6,0-5.1,0-7.7,0c0.4-2.2,1-4.5,1-6.7c0.1-8,0-15.8,0-23.8c3.1-0.1,6.1-0.1,9.2-0.2c0.5-0.4,0.9-0.7,1.5-1.1c1-1.2,2-2.4,3.1-3.6
	c0.8,4.8,4.5,2.1,6.9,2.6c0.2,0,0.5,0,0.6,0C529.5,405.5,529.5,406.2,529.5,406.8z"/>
<path class="st23" d="M253.1,418.6c2.5-0.2,4.8-0.4,7.3-0.5c-0.7,13.6-1.4,27.2-2.4,40.8c-0.4,5.7-1,11.3-2.5,16.8
	c-1.4,5.3-0.4,8.8,4.8,10.8c-6.9,3.7-11-0.9-15.1-5.2c1.2-1.9,3-3.7,3.5-5.8c1.3-6.1,2-12.4,3-18.7c0.1-0.1,0.4-0.2,0.4-0.3
	c0-0.3-0.2-0.5-0.3-0.8c0.4-3.9,0.6-7.8,1-11.7c0-1.1,0.1-2.1,0.1-3.2C253,433.5,253,426,253.1,418.6z"/>
<path class="st8" d="M497.5,289.8c-0.7-1.6-1.5-3.1-2.1-4.6c-5.5,0.3-10.9,0.5-15.5,0.7c-1.9,3.9-3.6,7.5-5.1,10.6
	c-2.7-2.1-4.8-3.8-6.9-5.5c-1.2-6.1-1.2-12.2,4.5-16.3c2.4-1.7,5.7-2.7,8.7-3.1c3.8-0.5,7.8-0.2,11.6-0.2c5.9,0,7,1.5,6.1,7.1
	C498.3,282.4,498,286.1,497.5,289.8z"/>
<path class="st23" d="M264.3,400.4c-0.3-1.7-1.2-3.6-0.8-5.2c1.4-7.2-2.3-10.8-8.6-12.6c-1.3-1.1-2.6-2.2-3.7-3.4
	c-4.8-4.9-9.6-10-14.4-14.9c1.7-1.2,3.6-2.4,5.3-3.6c6.1,5.5,12.3,10.9,18.4,16.4c0.3,0.1,0.5,0.3,0.8,0.4c0.5-0.5,0.9-0.9,1.5-1.4
	c0-0.7-0.1-1.4-0.1-2.1s0-1.5,0-2.2c0.1-0.1,0.3-0.3,0.3-0.4c-0.1-0.3-0.2-0.5-0.3-0.8c0-2.8,0-5.7,0-8.4c1.5-2.2,2.9-3.5,4.2,0.2
	c0.3,4,0.4,8,1,12.1c0.4,2.2,1.6,4.3,2.6,6.5c0.6,1.6,1.5,3.1,1.6,4.8c0.1,2.5-0.5,4.9-0.5,7.4C271.3,398.4,269.2,400.6,264.3,400.4
	z"/>
<path class="st4" d="M554.1,479.3c3-0.3,6-0.6,9.1-0.9c4.1,4.8,2.3,10.1,0.1,15.6c12.3,0,24,0,35.6,0c0.1,0.4,0.1,0.6,0.1,1
	c-29.4,0-58.9,0-88.4,0c0.4-0.3,0.8-0.5,1.2-0.9c2.9,0,5.9,0,9.3,0c-0.8-1.5-1.5-2.5-2.3-3.9c2.9-1.4,5.7-2.7,8.4-4.1
	c2.5,0.3,5.2,1.2,7.5,0.5c2.7-0.7,5.8-2.4,4.5-6.4c5.9,1.8,1.6,6.4,2.4,10c3.2-1.5,6.1-2.7,9.1-4.1c1.8,0.5,4.1,2,5.5,1.4
	c2.5-1.1,4.4-3.4,6.6-5.1c-2.3-0.5-4.7-1.2-7-1.7c-0.5-0.1-1,0-1.6,0C554.2,480.2,554.2,479.7,554.1,479.3z"/>
<path class="st12" d="M237.5,495.3c0.9,0.2,1.8,0.5,2.8,0.6l-0.1-0.1c0.6-0.2,1.3-0.3,1.9-0.5c1.8,0.3,3.7,0.9,5.6,0.9
	c114.8,0,229.5,0,344.2,0.1c1.9,0,3.9,0.7,5.9,1.1c-33,0.1-66,0.1-99,0.2c-30.3,0-60.5,0-90.8,0c-12,0.1-24,0.2-35.8,0.2
	c-1.6-0.1-3.2-0.4-4.8-0.4c-31.9,0-63.8,0-95.7,0c-23.8,0-47.6-0.2-71.2-0.3c2.6-0.6,5-1.2,7.6-1.8c3.7,0.4,7.4,1,11.2,1
	C225.1,496.2,231.3,495.6,237.5,495.3z"/>
<path class="st2" d="M417.9,282c-5.6,4.7-11.2,9.2-15.5,12.9c-3.6-1.1-6.2-1.9-9-2.7c-4.3-14.2,8.5-21.3,18.5-18.6
	c3.5,0.9,6.9,2.4,10.2,3.7C420.6,278.7,419.2,280.4,417.9,282z"/>
<path class="st2" d="M394.4,483.7c7.4,5.8,15.2,1.2,22.8,0.7c0.5,0,1-1.6,1.6-2.2c1.1-1,2.5-1.7,3.7-2.7c-3.6,2.8-1.2,4.5,1.3,5.9
	c3.1,1.6,6.3,3,9.8,4.8c-0.8,1.6-1.4,2.8-2,4.1c-0.4,0.3-0.6,0.5-1,0.9c-13.5,0-27.1,0-40.6,0c0.1-0.5,0.1-1.3,0.4-1.5
	c3.8-2.7,3.8-2.7,2.8-7.9C393.7,485,394.1,484.3,394.4,483.7z"/>
<path class="st28" d="M245.1,495c13.5,0,27.1,0,40.6,0c9.9,0,19.8,0,29.7-0.1c7.5,0,14.9,0,22.4,0c1.1,0,2.1,0,3.2,0
	c8.1,0,16.4,0,24.5-0.1c29.4,0,58.9,0,88.4,0c7.8,0,15.6,0,23.4,0c1.4,0,2.8,0,4.2,0c13.1,0,26.2,0,39.3,0c16.4,0,32.7,0,49.1,0
	c2.5,0,4.9,0,7.5,0c7.1,0.1,14.3,0.3,21.4,0.4c-0.4,0.6-0.7,1.4-1.1,2c-1.9-0.4-3.9-1.1-5.9-1.1c-114.8,0-229.5,0-344.2-0.1
	c-1.8,0-3.7-0.5-5.6-0.9C243.1,495.3,244,495.2,245.1,495z"/>
<path class="st10" d="M474.3,388.8c-4.3-4.9-8.6-9.9-12.9-14.9c-4.6-8-8-16.3-7.9-25.6c5.3-3.4,7.8-2.7,8.8,3.3
	c1.6,10.2,6.1,18.8,13.7,25.9c1.3,1.2,1.7,3.2,2.5,4.8C477.1,384.5,475.6,386.6,474.3,388.8z"/>
<path class="st9" d="M352,427.1c-1.2-0.8-2.4-1.6-3.5-2.6c-0.7-0.7-1.2-1.7-1.7-2.7c-0.5-3.6-1-7.1-1.6-10.7c0.4-1.6,1.1-3.3,1-4.9
	c-0.3-9.9-0.6-19.7-1.1-29.5c0-1-0.6-1.9-1-2.8c0.7-2.3,1.5-4.5,2.2-6.8c2.8,0.7,5.7,1.6,8.6,2.3c1,7.5-2,13.5-6.8,18.5
	c1.9,2.8,3.1,5.6,3.4,8.4c0.6,5.6,0.8,11.2,1.2,16.7c0,2.7,0,5.3,0,7.9C352.6,423,352.3,425,352,427.1z"/>
<path class="st10" d="M352.8,413.1c-0.4-5.6-0.5-11.2-1.2-16.7c-0.4-2.8-1.6-5.6-3.4-8.4c4.8-4.8,7.7-10.9,6.8-18.5
	c4.2,0.7,3.6,3.7,2.9,6.6c-1.1,4.8-2.6,9.5-3.7,14.4c-1.6,7.5,1.1,13.9,7.6,18.3c1.9,1.6,3.8,3.1,5.9,4.7c2.2,2.1,4.3,4.2,6.5,6.4
	c-1.5,1.5-2.8,2.8-4.3,4.3c-1.8-0.5-3.7-0.8-5.6-1.3C360.4,419.5,356.7,416.3,352.8,413.1z"/>
<path class="st26" d="M241.9,360.8c-1.7,1.2-3.6,2.4-5.3,3.6c-0.4,0-0.7,0-1.2,0c-6.4-11-7-23-6.4-35.3c0.2-4.3,3.2-4.9,6.6-5.1
	c0.5,4.3,0.9,8.6,1.6,12.9C238.7,344.8,240.3,352.8,241.9,360.8z"/>
<path class="st28" d="M345.2,497.1c23.8,0.1,47.6,0.3,71.2,0.3c31.9,0.1,63.8,0,95.7,0c1.6,0,3.2,0.3,4.8,0.4l-0.1,0.4
	c-11.2,0.1-22.3,0.3-33.5,0.3c-69.1,0-138.4-0.1-207.5-0.1l-0.2-0.3l0.2-0.3c7.2-0.2,14.4-0.5,21.6-0.6c1.4,0,2.7,0.1,4.1,0.1
	c1.9,0.1,3.7,0.2,5.7,0.3c0-0.4,0-0.7,0-1.1c-1.8,0-3.7,0-5.6,0c3.8,0,7.7-0.2,11.5,0c5.8,0.2,11.4,0.5,17.2,0.8
	c1.1,0,2.2,0.1,3.3,0.1c1.5-0.4,3-0.8,4.5-1.2c0.6,0.4,1.3,0.8,1.9,1.2C341.8,497.1,343.5,497.1,345.2,497.1z"/>
<path class="st18" d="M421.2,474.2c-1.1-0.3-2.3-0.5-3.4-0.7c-0.4,0-0.7,0-1.1-0.1c-0.7-0.1-1.5-0.1-2.1-0.2
	c0.1-14.4,0.2-28.7,0.3-43.1c2.1,0,4.2,0.1,6.3,0.1c0,14.2,0,28.4-0.1,42.6C421.1,473.4,421.1,473.9,421.2,474.2z"/>
<path class="st22" d="M235.5,364.3c0.4,0,0.7,0,1.2,0c4.8,4.9,9.6,10,14.4,14.9c1.2,1.2,2.5,2.3,3.7,3.4c-0.7,0.1-1.5,0.2-2.2,0.2
	c-0.4-0.2-0.6-0.3-1,0c-5.3,0-10.6,0-16,0c-2.5-0.1-4.9-0.2-7.4-0.3C227.9,375.4,231,369.5,235.5,364.3z"/>
<path class="st12" d="M275.9,498.3c69.1,0,138.4,0.1,207.5,0.1c11.2,0,22.3-0.2,33.5-0.3c-1.7,0.5-3.5,1.5-5.2,1.5
	c-40.1,0.1-80.1,0.1-120.2,0.1c-36.9,0-73.8,0-110.7-0.1C279.3,499.6,277.7,498.8,275.9,498.3z"/>
<path class="st12" d="M503,361.2c-0.4-0.7-1-1.6-1-2.3c0-13,0.2-26.1,0.3-39c1.2,1.2,3.3,2.2,3.4,3.5c1.5,13.4,2.6,26.6,3.7,40
	C507.3,362.7,505.2,361.9,503,361.2z"/>
<path class="st10" d="M503,361.2c2.1,0.7,4.2,1.4,6.4,2.1c-1.7,6.6-3.4,13.2-5.1,19.7c-0.6,2.3-1.2,4.8-2.4,6.8
	c-1.1,2-2.9,3.7-4.4,5.5c-0.4,0-0.7,0-1-0.1c0.1-0.9,0.2-1.8,0.4-2.7c3.5-4.5,3-6-2.4-8.2c0.8-2.1,1.6-4.1,2.4-6.2
	c1.4-4,2.7-8.1,4.1-12.2C501.4,364.1,502.3,362.8,503,361.2z"/>
<path class="st8" d="M426.4,392c-12.8,0-25.6,0-38.4,0c-0.1-1.4-0.2-2.7-0.4-4.1c4.8-0.1,9.5-0.3,14.3-0.1c3.6,0.2,5-1.4,5.9-4.6
	c1.1-4.1,2.7-8.1,4-12.2c0.5,0.1,1.1,0.2,1.6,0.2c0,2.4,0,4.7,0,7c0,9.3,0,9.3,9.1,9.4c1.4,0,2.8,0.1,4.2,0.2
	C426.6,389.3,426.5,390.7,426.4,392z"/>
<path class="st8" d="M482.8,495c-7.5,0-14.9,0-22.4,0c-0.4-0.3-0.8-0.6-1.2-0.9c0.7-2.5,1.6-4.9,2.3-7.4c2.6-1.5,5.1-2.9,7.7-4.4
	c4.6,3.1,9.1,6.1,13.6,9.2c0.4,0.3,0.2,1.3,0.3,2C482.9,494.1,482.8,494.5,482.8,495z"/>
<path class="st20" d="M532.7,326c0.8,1.3,2.3,2.6,2.3,3.8c0,16.6,0.6,33.2-3,49.5c-0.8-10-1.6-19.8-2.6-29.8c0.4-3.5,1.1-7,1.1-10.3
	c0-3.7-0.7-7.4-1.2-11.2C530.4,327.3,531.6,326.6,532.7,326z"/>
<path class="st8" d="M510.5,495c-8.1,0-16.4,0-24.5,0.1c-0.1-0.5-0.1-0.8-0.2-1.3c0.5-2.4,0.8-4.7,1.3-7c2.3-0.6,6,1.8,6.4-2.9
	c0.6-0.4,1.4-0.7,2-1.1c4.2,3.7,8.5,6.9,14.4,7.3c0.7,0.1,1.2,2.7,1.7,4.1C511.3,494.5,510.9,494.7,510.5,495z"/>
<path class="st4" d="M433.9,353c2.1-4,4.2-8,6.3-12c2.5,0.5,4.8,0.8,7.3,1.3c-0.8,7.3-3.8,13.6-9.6,18.2c-1.9,1.5-4.8,1.7-7.2,2.5
	c0.3-2,0.6-3.9,0.9-5.9C432.3,355.7,433,354.4,433.9,353z"/>
<path class="st8" d="M228.2,382.5c2.5,0.1,4.9,0.2,7.4,0.3c-1.1,8.1-2.2,16.4-3.2,24.5c-0.5,3.5-0.8,7-1.2,10.5
	c-2.9,1-3.2-0.7-3.2-3C228.1,404.1,228.2,393.3,228.2,382.5z"/>
<path class="st24" d="M431.6,357.1c-0.3,2-0.6,3.9-0.9,5.9c-0.5,2.3-0.9,4.7-1.4,7c-10,0-19.9,0-30,0c-0.2-0.5-0.4-1.1-0.5-1.6
	c1.3-0.5,2.6-1.3,3.9-1.6c5.6-1.2,11.2-2.3,16.9-3.5c2.2-1.4,4.4-2.8,6.6-4.2C428,358.4,429.8,357.7,431.6,357.1z"/>
<path class="st13" d="M346.4,367.2c-0.7,2.3-1.5,4.5-2.2,6.8c-1,2.8-2,5.6-3.1,8.4c-0.6-3.7-1.3-7.6-2.1-12.2
	c-2,1.6-3.1,2.6-4.7,3.7c5.4,2.5,2.7,6.1,2.2,9.4c-2.7-4.3-5.5-8.7-8.2-13c-0.1-1.6-0.2-3-0.4-4.6c1.5-0.8,2.9-1.6,4.3-2.5
	c1.6,1.6,3,4.1,5,4.8c4.3,1.5,3.2-2.7,3.9-4.8C343,364.6,344.7,365.9,346.4,367.2z"/>
<path class="st8" d="M529.4,349.5c0.8,10,1.6,19.8,2.6,29.8c-0.5,6.8-0.5,6.8-7.4,6.3c1-12.1,2.1-24.1,3.1-36.2
	C528.2,349.5,528.8,349.5,529.4,349.5z"/>
<path class="st1" d="M230.1,492.1c-0.8-3.9-4.6-8,0.5-11.7c0.5,0,1.1,0,1.6,0l0,0c-0.9,5.5,4.3,8.6,10.8,6.3
	c3.8-0.6,6.3,1.5,8.5,4.2c-0.4,0.7-0.7,1.4-1,2.1l-0.1,0.1c-0.7,0.6-1.4,1.2-2.1,1.8c-2.8,0-5.7,0-8.5,0c-0.6-0.5-1.2-1.5-1.9-1.6
	C235.4,492.8,232.8,492.5,230.1,492.1z"/>
<path class="st4" d="M508.3,406.9c0,8,0.1,15.8,0,23.8c0,2.2-0.6,4.5-1,6.7c-1.4-1.1-3.9-2.1-3.9-3.2c-0.4-8.1-0.2-16.3-0.2-24.3
	C503.1,405.8,505.7,406.4,508.3,406.9z"/>
<path class="st13" d="M476.3,314.4c1.5,2,2.7,5.4,4.6,5.8c1.7,0.4,4.2-2.3,6.3-3.7c0.6,0.3,1.3,0.5,1.9,0.8c0,5.2,0,10.4,0,15.6
	c-0.8-2.2-1.5-4.4-2.4-6.6c-0.5-1.4-1.3-3-2.5-3.6c-0.7-0.4-2.4,0.9-4.8,1.9c5.7,2.4,5.2,5.9,4.1,9.5c-3.5-5.6-7-11.2-10.4-16.8
	C474.2,316.5,475.2,315.4,476.3,314.4z"/>
<path class="st8" d="M251.6,491c-2.2-2.7-4.7-4.8-8.5-4.2c0.4-1.3,0.6-2.6,1-3.8c0.4-0.5,0.7-1.1,1.1-1.6c4.1,4.3,8.1,8.9,15.1,5.2
	c2.4,1.3,4.7,2.6,7.5,4.1c-1.2,1-2.1,1.7-2.9,2.5c-0.5,0.6-1.1,1.3-1.6,1.9c-2.5,0-4.9,0-7.4,0c-0.4-0.8-0.8-1.6-1.7-3.5
	c-0.3,2-0.4,2.7-0.5,3.6c-1.1,0-2.1,0-3.2,0c0-0.6,0-1.3,0-1.8l0.1-0.1C251,492.4,251.3,491.7,251.6,491z"/>
<path class="st2" d="M358.5,338.2c-1.4,2.5-2.6,4.8-3.8,7.1c-1.4,0-2.4,0.1-3.2,0c0.3-0.1,0.6-0.2,0.9-0.3c-1.4-0.4-2.7-0.7-3.8-1.2
	l0,0c-0.6-0.7-1.4-1.6-2.4-3c-0.1-0.8,0-1.7,0.4-2.9c-0.9-0.2-1.9-0.3-2.8-0.5c3.7-0.5,7.3-1.1,10.9-1.6
	C355.8,336.4,356.9,337.2,358.5,338.2z"/>
<path class="st2" d="M346.2,340.6c-0.2-0.3-0.4-0.5-0.5-0.7c-0.2,1-0.4,1.9-0.7,2.7c-0.9,2.1-2.6,2.8-4.7,2.7
	c-0.9-0.1-1.9-0.3-2.9-0.6c4-0.9,7.8-1.9,6.1-7.2c0.1,0,0.3,0,0.4,0c0.9,0.2,1.8,0.3,2.8,0.5C346.2,338.9,346.2,339.8,346.2,340.6z"
	/>
<path class="st2" d="M352.5,344.9c-0.3,0.1-0.6,0.2-0.9,0.3c-1.2-0.1-1.9-0.5-2.9-1.6C349.7,344.2,351.1,344.6,352.5,344.9z"/>
<path class="st28" d="M255.8,495c2.5,0,4.9,0,7.4,0c9.5,0.1,19.1,0.1,28.6,0.3c1.8,0,3.6,0.6,5.4,1c-38.7,0-77.4,0-116.1,0
	c-0.3-0.3-0.3-0.5-0.1-0.8c1.5-0.2,2.9-0.3,4.4-0.5c2.1,0,4.3,0,6.4,0c8.5,0,17,0,25.5,0c7.4,0,14.9,0,22.3,0c2.8,0,5.7,0,8.5,0
	c0.7,0,1.5,0,2.1,0c1.1,0,2.1,0,3.2,0C254.4,495.1,255.2,495,255.8,495z"/>
<path class="st12" d="M181.3,496.3c38.7,0,77.4,0,116.1,0c0.1,0.3,0.2,0.5,0.1,0.8c-7.2,0.2-14.4,0.5-21.6,0.6
	c-29.8-0.1-59.7-0.1-89.5-0.3C184.7,497.5,182.9,496.7,181.3,496.3z"/>
<path class="st26" d="M565.5,374c-2.5,0.3-4.8,0.8-7.3,0.8c-1.6,0-3.1-0.7-4.6-1.2c0.5-1.7,0.5-4.1,1.6-5c1.6-1.3,3.9-1.6,6-2.2
	c1.3-0.1,2.5-0.1,3.7-0.2c1.1,1.8,2.2,3.7,3.3,5.6C567.4,372.5,566.5,373.2,565.5,374z"/>
<path class="st4" d="M291.9,379.1c-3.7,0.3-7.3,0.9-11,0.8c-1.1,0-2.7-1.8-2.9-3c-0.1-1.1,1.5-3.5,2.2-3.5c4.2,0.3,8.4,1.1,12.6,1.6
	C292.6,376.5,292.2,377.9,291.9,379.1z"/>
<path class="st24" d="M367.6,413.3c-1.9-1.6-3.8-3.1-5.9-4.7c4.4-0.2,9.1-1.4,13.1-0.4c2.7,0.7,4.8,4.3,6.5,7.1
	c0.9,1.6,0.2,4.1,0.2,6.3c-1,0-2.1,0-3.1,0c-0.3-0.7-0.6-1.4-0.9-2.1C377.2,411.9,373.8,409.7,367.6,413.3z"/>
<path class="st6" d="M266.7,362.5c-1.2-3.7-2.7-2.4-4.2-0.2c-0.5-4.5-0.4-8.6,2.7-12.5c1.1-1.4,1.2-3.9,1.1-5.9
	c-0.1-5.3-0.5-10.6-0.6-15.9c0.6,0.8,1.7,1.6,1.7,2.4C267.2,341,267,351.8,266.7,362.5z"/>
<path class="st26" d="M378.4,421.8c1,0,2.1,0,3.1,0c1.8,2.7,3.7,5.6,5.5,8.3c-1.5,4.6-4.1,4.1-7.2,1.6c-1.6-1.3-3.3-2.6-4.9-3.7
	C376.1,426,377.2,423.9,378.4,421.8z"/>
<path class="st28" d="M407.9,497.6c30.3,0,60.5,0,90.8,0c-0.4,0.6-0.8,1.3-1.2,1.9c-1.5-0.4-2.8-1.1-4.3-1.1c-28.1,0-56.1,0-84.1,0
	C408.7,498.1,408.3,497.8,407.9,497.6z"/>
<path class="st12" d="M409.1,498.5c28.1,0,56.1-0.1,84.1,0c1.5,0,2.9,0.7,4.3,1.1c-28.4,0-56.9,0.1-85.4,0.1
	C411.1,499.6,410.1,498.8,409.1,498.5z"/>
<path class="st4" d="M393.2,292.7c-0.5,2.7-0.3,4.8,2.8,6.4c1.7,0.9,2.6,3.7,3.8,5.6c-4.1,1.9-7.7,1.3-9.8-2.8
	C387.9,297.9,389.2,294.7,393.2,292.7z"/>
<path class="st26" d="M528.9,404.7c-2.5-0.5-6,2.2-6.9-2.6c0.7-3.3,1.5-6.6,2.2-9.9c2,0.3,3.9,0.5,5.7,0.7
	C529.5,397.3,529.2,401,528.9,404.7z"/>
<path class="st14" d="M568.2,371.7c-1.1-1.8-2.2-3.7-3.3-5.6c2.4-1.6,4.7-3.2,7-4.8c1,2.8,2,5.6,3.1,8.4
	C572.9,370.8,572.2,377.1,568.2,371.7z"/>
<path class="st8" d="M398.6,315.3c1.6,2.9,3.3,5.9,4.9,8.7c0.9,2.5,1.8,4.9,2.7,7.4c-5.8-0.4-9.3-4.6-8.8-10.1
	c0.2-1.9,0.1-3.8,0.2-5.8C397.8,315.3,398.2,315.2,398.6,315.3z"/>
<path class="st2" d="M417.8,315.5c2.1,0.4,4.3,0.7,6.4,1.1c0,4.2,0,8.4,0,12.6c-1.8-0.1-3.6-0.1-5.4-0.2c1.8-2.6,2.8-5,0.3-8
	C418,319.7,418.1,317.3,417.8,315.5z"/>
<path class="st18" d="M440.3,335.4c-0.9-1.5-1.9-2.9-2.8-4.4c0.2-0.3,0.4-0.5,0.5-0.7c2.2-1.7,3.7-6.5,7.1-3.4
	c1.6,1.5,0.8,5.8,1.1,8.8C444.4,335.5,442.4,335.4,440.3,335.4z"/>
<path class="st18" d="M401.2,443.1c-2.6-3.1-5.1-6.2-7.8-9.3c0.4-1.6,0.7-3,1.1-4.6c2.2,0.4,4.5,0.6,6.7,1
	C401.2,434.6,401.2,438.9,401.2,443.1z"/>
<path class="st18" d="M431.6,357.1c-1.7,0.6-3.5,1.3-5.3,1.9c-0.9-2.5-1.8-4.8-2.7-7.3c2.9-0.6,5.9-1.3,8.8-1.9
	c0.5,1.1,1,2.1,1.5,3.2C433,354.4,432.3,355.7,431.6,357.1z"/>
<path class="st23" d="M232.7,476.2c0-1.1,0-2.2,0-3.2c0.2-15.1,0.3-30.2,0.5-45.3c-0.1-0.7-0.3-1.6-0.4-2.3c0.6,0,1.4,0,2,0
	c0,16.7,0,33.4-0.2,50.1c0,1.7-1.4,3.4-2.1,5l0,0c0.1-0.3,0.2-0.5,0.1-0.9c0.1-0.5,0.1-0.9,0.2-1.3
	C232.7,477.5,232.7,476.8,232.7,476.2z"/>
<path class="st26" d="M539.2,480.2c1.3,4-1.7,5.7-4.5,6.4c-2.3,0.6-4.9-0.3-7.5-0.5c1.5-1.8,3-3.7,4.5-5.6c1.4-0.2,2.8-0.4,4.2-0.5
	c0.7,0,1.5,0.1,2.2,0.1C538.5,480.2,538.8,480.2,539.2,480.2L539.2,480.2z"/>
<path class="st4" d="M529.4,349.5c-0.5,0-1.2,0-1.7,0c-0.1-5.7-0.3-11.3-0.1-16.9c0-1.6,1.2-3,1.8-4.6c0.5,3.7,1.2,7.4,1.2,11.2
	C530.5,342.6,529.8,346,529.4,349.5z"/>
<path class="st4" d="M417.9,282c1.4-1.6,2.7-3.2,4.2-4.8c4.1,3.9,4.5,7.4,1.3,12.3C421.4,287,419.6,284.5,417.9,282z"/>
<path class="st24" d="M291.9,379.1c0.3-1.4,0.6-2.7,0.9-4c4.8-0.8,8.3,0.5,9.9,5.5c-0.9,1.7-1.9,3.6-2.8,5.3
	C298.8,381.9,297.5,378,291.9,379.1z"/>
<path class="st6" d="M421.1,430.3c-2.1,0-4.2-0.1-6.3-0.1c-0.1-2.4-0.3-4.8-0.4-7.1c2.5,0,5-0.1,7.5-0.1
	C421.6,425.4,421.3,427.9,421.1,430.3z"/>
<path class="st6" d="M401.2,430.3c-2.2-0.4-4.5-0.6-6.7-1c-0.1-2.1-0.2-4.2-0.3-6.2c2.5,0,4.9-0.1,7.4-0.1
	C401.6,425.4,401.4,427.9,401.2,430.3z"/>
<path class="st4" d="M417.8,315.5c0.5,1.8,0.3,4.2,1.4,5.5c2.6,3,1.5,5.4-0.3,8c-1.4,0.2-2.7,0.3-4,0.5c0-1.5,0-2.9,0-4.4
	c0.3-3.2,0.6-6.3,0.9-9.5C416.4,315.6,417,315.6,417.8,315.5z"/>
<path class="st5" d="M233,427.6c-0.2,15.1-0.3,30.2-0.5,45.3C232.8,457.8,232.9,442.7,233,427.6z"/>
<path class="st27" d="M234.7,425.2c-0.6,0-1.4,0-2,0l-0.1-0.1c0.1-0.1,0.4-0.3,0.3-0.4c-0.1-0.3-0.3-0.5-0.4-0.8
	c0-1.8-0.1-3.6-0.1-5.4c2.6-0.3,5.1-0.5,7.8-0.7c-0.3,2.4-0.6,4.8-0.9,7.3C237.7,425.2,236.2,425.2,234.7,425.2z"/>
<path class="st4" d="M424.2,329.2c0-4.2,0-8.4,0-12.6c1.5,1.5,3.5,2.8,4.2,4.6c0.6,1.6-0.1,3.7-0.2,5.7c-0.1,0.5-0.2,0.9-0.3,1.4
	c-0.2,1-0.4,2.1-0.6,3.1c-0.7,0-1.4,0-2.1,0C424.9,330.7,424.5,329.9,424.2,329.2z"/>
<path class="st13" d="M440.3,335.4c2,0.1,4,0.2,6,0.2c0.4,2.2,0.7,4.5,1.1,6.7c-2.5-0.5-4.8-0.8-7.3-1.3
	C440.3,339.1,440.3,337.2,440.3,335.4z"/>
<path class="st4" d="M239.8,495.1c-7.4,0-14.9,0-22.3,0c0.1-1.2,0.1-2.3,0.2-3.5c2.6,3.3,9.9,3.7,12.5,0.5c2.6,0.5,5.2,0.7,7.8,1.3
	C238.6,493.5,239.2,494.5,239.8,495.1z"/>
<path class="st16" d="M300,406.7c1.4,2.7,2.7,5.3,4.1,8c-1.6,0.5-3.1,1.2-4.8,1.7C299.6,413.2,299.8,409.9,300,406.7z"/>
<path class="st4" d="M459.1,494.1c0.4,0.3,0.8,0.6,1.2,0.9c-9.9,0-19.8,0-29.7,0.1c0.4-0.3,0.6-0.5,1-0.9
	C440.8,494.2,450,494.2,459.1,494.1z"/>
<path class="st4" d="M535.9,480c-1.4,0.2-2.8,0.4-4.2,0.5c-0.4-1.1-0.8-2.2-1.2-3.3C532.3,478.1,534.1,479.1,535.9,480z"/>
<path class="st5" d="M232.5,479.5c0,0.3,0,0.5-0.1,0.9c-0.5,0-1.1,0-1.6,0C231.3,480.1,231.8,479.8,232.5,479.5z"/>
<path class="st5" d="M232.7,476.2c0,0.7,0,1.4,0,2.1C232.7,477.5,232.7,476.8,232.7,476.2z"/>
<path class="st13" d="M487.1,312.2c0.3-0.4,0.6-0.6,0.9-1C487.7,311.6,487.4,311.9,487.1,312.2z"/>
<path class="st4" d="M518.9,405.7c-0.5,0.4-0.9,0.7-1.5,1.1C518,406.4,518.4,406,518.9,405.7z"/>
<path class="st5" d="M232.6,423.9c0.1,0.3,0.3,0.5,0.4,0.8c0,0.1-0.2,0.3-0.3,0.4c-0.1-0.3-0.2-0.5-0.3-0.8
	C232.4,424.2,232.5,424.1,232.6,423.9z"/>
<polygon class="st4" points="514.9,437.4 515.2,437.2 515.5,437.4 515.2,437.6 "/>
<path class="st24" d="M427.9,328.2c0.1-0.5,0.2-0.9,0.3-1.4C428.1,327.3,428,327.7,427.9,328.2z"/>
<path class="st4" d="M529.9,473c0.1,0.2,0.3,0.5,0.4,0.6c0,0.1-0.2,0.2-0.3,0.3C529.7,473.6,529.7,473.3,529.9,473z"/>
<path class="st6" d="M421.2,474.2c-0.1-0.5-0.2-0.8-0.2-1.3c0.2,0.4,0.3,0.8,0.5,1.2C421.4,474.2,421.2,474.2,421.2,474.2z"/>
<path class="st15" d="M554.1,479.3c0.1,0.5,0.1,0.9,0.2,1.3c-1.2,1.8-2.4,3.7-3.6,5.5c-2.9,1.3-5.9,2.7-9.1,4.1
	c-0.7-3.6,3.6-8.1-2.4-10l0.1,0.1c0-0.7-0.1-1.4-0.1-2.1c0.4-11.8,0.6-23.6,1.1-35.3c0.1-1.8,0.7-3.7,1.2-5.6
	c3.6,0.1,3.1-2.5,3.2-4.8c0.4-9.6,0.7-19.2,1.1-28.8c1.5,0,2.9,0,4.4,0c1.2,24.3,2.4,48.7,3.6,73C553.8,477.6,554,478.4,554.1,479.3
	z"/>
<path class="st26" d="M528.2,299.4c1.2-4.7-0.5-10,4.8-11.9c5.1-1.9,8.7,2.1,11.7,5.4c2.6,2.8,4.8,6.1,6.3,9.6
	c2.8,6.5,2.1,8.4-3.7,11.6c-6.3,3.6-12.1,3.4-15-1.6C530.2,308.6,529.6,303.8,528.2,299.4z M543.1,308.1c-3.7,0.2-6.4,0.3-9.9,0.5
	C537.7,313.5,539.5,313.4,543.1,308.1z"/>
<path class="st8" d="M545.8,403.7c-0.4,9.6-0.7,19.2-1.1,28.8c-0.1,2.3,0.3,4.8-3.2,4.8c0-7.7-0.1-15.4-3.2-22.7
	c-1.7-4.2-3.7-7.6-8.8-7.8c0-0.7,0-1.5,0-2.1C534.9,404.4,540.4,404.1,545.8,403.7z"/>
<path class="st4" d="M483.6,334.3c1.1-3.7,1.6-7.2-4.1-9.5c2.4-1,3.9-2.4,4.8-1.9c1.1,0.5,1.8,2.2,2.5,3.6c0.9,2.1,1.6,4.4,2.4,6.6
	c0,2.7,0,5.5,0,8.2c-0.5,0.2-1,0.5-1.5,0.6C486.3,339.4,485,336.8,483.6,334.3z"/>
<path class="st13" d="M474.3,388.8c1.4-2.2,2.7-4.3,4.2-6.5c1.6,0.9,3.4,1.8,5,2.7c0.2,0.5,0.5,0.9,0.6,1.3
	c-1.6,1.8-3.2,3.6-4.8,5.4c-0.8,0-1.7,0-2.6,0C475.9,390.7,475.1,389.8,474.3,388.8z"/>
<path class="st12" d="M484.2,386.4c-0.2-0.5-0.5-0.9-0.6-1.3c1.4-3.5,2.8-7,4.8-12.1c0.7,5.5,1.3,9.5,1.8,13.6
	c-0.1,0.4-0.2,0.8-0.3,1.2C488,387.4,486.1,386.8,484.2,386.4z"/>
<path class="st13" d="M489.8,387.8c0.1-0.4,0.2-0.8,0.3-1.2c1.5-0.8,2.8-1.6,4.3-2.5c5.3,2.3,5.8,3.7,2.4,8.2
	C495.4,389.4,493.8,386.8,489.8,387.8z"/>
<path class="st7" d="M414.8,325.1c0,1.5,0,2.9,0,4.4c-0.5,0.9-0.8,1.9-1.3,2.8c-2.3,0-4.6-0.1-6.9-0.1c-0.2-0.3-0.3-0.5-0.5-0.7
	c-0.9-2.5-1.8-4.9-2.7-7.4C407.2,324.4,411,324.7,414.8,325.1z"/>
<path class="st13" d="M423.6,351.7c0.9,2.5,1.8,4.8,2.7,7.3c-2.2,1.4-4.4,2.8-6.6,4.2c-0.9-2.4-1.9-4.8-2.8-7.2
	C419,354.5,421.3,353.2,423.6,351.7z"/>
<path class="st8" d="M387.9,364.3c3,0.5,5.9,1.1,9.6,1.7C393.3,369.8,389.9,369.5,387.9,364.3z"/>
<path class="st17" d="M303.7,422.8c0.2,0.5,0.3,1.2,0.6,1.3c5.1,1.7,10.2,3.4,15.4,5.1c0.4,0.1,0.7,0.1,1.1,0.2
	c0.4,0.5,0.8,1.2,1.2,1.7c1.7,1.6,3.5,3,5.2,4.6l-0.1-0.1c1.8,4,2.2,9.1,7.3,10.9c-0.1,1.6-0.3,3.3-0.3,4.8c-0.1,3-0.1,6.1,0,9.1
	c0,1.7,0.8,3.7,0.5,5.3c-2.2,8-7.2,13.9-13.8,18.7c-0.8,0.5-2.2,0.6-3.3,0.6c-2.6-0.2-5.1-0.8-5.5,3c-0.1,0.5-1.5,1.3-2.4,1.5
	c-13.4,2.9-25.1-0.5-34.1-11c-9.1-10.5-11.2-22.8-5.9-35.7c5.2-12.4,14.8-19.6,28.3-21.1C299.7,421.6,301.8,422.5,303.7,422.8z
	 M329.3,454.5c-0.4-1.6-0.7-3.3-1.1-4.9c-0.5-1.7-1.1-3.6-1.6-5.3c-4.8-9.1-12.3-14.4-22.6-15.8c-1.5,0-3-0.1-4.5-0.1
	c-10,0.6-17.6,5.8-22.2,14.1c-6.6,11.8-4.6,25.5,6.9,35.1c5.3,4.5,14.9,8.5,21.7,4.8c2-0.1,4-0.2,4.8-0.3c-2.9-7-5.6-13.3-8.2-19.7
	c1.1-0.4,2.2-0.6,3.3-1c-0.4,6.8,3.2,11.7,7.4,16.5c1.7,2,3.3,1.7,4.5-0.5c1.9-1.5,4.8-2.6,5.7-4.6c2.4-4.7,3.9-9.9,5.8-14.8
	C329.3,456.7,329.3,455.6,329.3,454.5z"/>
<path class="st16" d="M345.2,411.2c0.5,3.6,1,7.1,1.6,10.7c0.1,6.8,0.3,13.4,0.4,20.2c-0.6,2.7,0.5,3.5,3,3.4
	c5.5-0.1,11-0.1,16.5-0.2c1.6,5.9,3.2,11.9,5.1,17.7c0.5,1.4,2.2,2.4,3.3,3.5c0,2,0.1,4.1,0.1,6.1c0.2,4.4,0.5,8.7,0.6,13.1
	c-2.2,0-4.5,0-6.9,0c-0.2-2.1-0.3-3.7-0.4-5.4c1.3-3.6,2.2-7-0.8-10.2c-0.2-1.3-0.4-2.5-0.6-4.6c-2.3,3.9-4,7-5.5,9.5
	c-2.9-0.9-5-1.6-7-2.1c-0.3-5-0.6-10.1-0.7-15.1c-0.1-8.3-3.7-10.4-12.1-7.1c-0.6-1.7-1.3-3.4-1.9-5.1c0.7-1.2,2.1-2.4,2.1-3.5
	c0.1-6.7-0.1-13.4-0.2-20c0.6-9,0.2-9.5-7.9-9.7c-4.4-0.1-8.9,0.1-13.3,0.2c-2.6-0.6-5.1-1.3-7.6-2c0.1-0.7,0.2-1.5,0.3-2.2
	c3.5-0.2,7-0.4,10.4-0.5c4.4,0.1,8.9-0.3,13.3,0.3C340,408.5,342.6,410.1,345.2,411.2z M359,451c0,6.5,0,12.6,0,19.5
	C365.8,462.8,365.6,455,359,451z"/>
<path class="st15" d="M342,450.6c8.4-3.3,12-1.2,12.1,7.1c0.1,5,0.5,10.1,0.7,15.1c-0.4,1.6-0.7,3.4-1.2,5l-0.2,0.4l0.4,0.3
	c-4.8-1.4-8.7-0.2-11.7,3.8c-0.3,0.5-0.5,0.9-0.7,1.4l-0.1,0.1c-3.3-0.5-6.7-1-10-1.6c2.9-5.9,5.9-11.9,8.8-17.9
	c0.5-1.1,0.8-2.5,1.6-3.2C345.5,457.8,345.3,454.3,342,450.6z"/>
<path class="st29" d="M342,422c0.1,6.7,0.3,13.4,0.2,20c0,1.2-1.4,2.4-2.1,3.5c-2-4-4-8-6.1-12.1c-0.1-4.8-2.7-7.8-6.9-9.4
	c0-0.3-0.1-0.5-0.2-0.8C332,422.8,337,422.4,342,422z"/>
<path class="st15" d="M368.7,480.4c0.1,1.6,0.2,3.3,0.4,5.4c2.4,0,4.6,0,6.9,0c0.7,2.1,1.5,4.3,2.2,6.4c-0.6,0.6-1.3,1.8-2,1.8
	c-6.5,0.2-12.9,0.1-20.4-1.2C360.1,488.7,364.4,484.5,368.7,480.4z"/>
<path class="st28" d="M359.4,481.7c-1.7,2.7-3.1,5.7-5.3,7.8c-1.3,1.3-4.3,1.9-5.9,1.3c-1.3-0.5-2.8-3.7-2.3-5
	c0.6-1.6,3.4-3.7,4.9-3.6c3.7,0.5,4.1-0.5,3-3.6l-0.4-0.3l0.2-0.4C355.6,479.3,357.5,480.5,359.4,481.7z"/>
<path class="st26" d="M327.1,424c4.2,1.7,6.8,4.8,6.9,9.4c-0.9,1.1-1.8,2.1-2.7,3.2c-1.4-0.4-2.7-0.7-4.1-1.1l0.1,0.1
	c-1.7-1.6-3.5-3-5.2-4.6c-0.4-0.5-0.8-1.2-1.2-1.7C322.9,427.6,325,425.9,327.1,424z"/>
<path class="st17" d="M359.4,481.7c-1.9-1.3-3.8-2.5-5.8-3.7c0.4-1.6,0.7-3.4,1.2-5c2.1,0.6,4.2,1.3,7,2.1c1.4-2.5,3.2-5.6,5.5-9.5
	c0.3,2.1,0.5,3.3,0.6,4.6C365.1,474,362.2,477.9,359.4,481.7z"/>
<path class="st24" d="M331.4,482.4c3.3,0.5,6.7,1,10,1.6c-0.1,1.3-0.3,2.6-0.4,3.9c-4.2-0.6-8.5-1.4-12.7-2
	C329.3,484.7,330.3,483.6,331.4,482.4z"/>
<path class="st17" d="M328.3,485.9c4.2,0.6,8.5,1.4,12.7,2c-0.9,1-1.7,2.8-2.7,2.8c-4.4-0.1-8.7-0.7-13.1-1.2
	c-0.1-0.5-0.3-0.9-0.4-1.3C326,487.4,327.1,486.6,328.3,485.9z"/>
<path class="st9" d="M327.1,435.7c1.4,0.4,2.7,0.7,4.1,1.1c1,3.3,2.1,6.5,3.1,9.8C329.3,444.7,329,439.7,327.1,435.7z"/>
<path class="st28" d="M382.5,495.3c-6.2,0.4-12.3,0.9-18.6,1c-3.7,0.1-7.4-0.6-11.2-1c8.9-0.1,17.7-0.2,26.5-0.3
	C380.4,495.1,381.5,495.2,382.5,495.3z"/>
<path class="st12" d="M301.7,496.3c1.8,0,3.7,0,5.6,0c0,0.4,0,0.7,0,1.1c-1.9-0.1-3.7-0.2-5.7-0.3
	C301.5,496.8,301.6,496.6,301.7,496.3z"/>
<path class="st12" d="M333.6,497.1c-1.1,0-2.2-0.1-3.3-0.1C331.5,497.1,332.6,497.1,333.6,497.1z"/>
<path class="st12" d="M340,497.1c-0.6-0.4-1.3-0.8-1.9-1.2C338.7,496.4,339.4,496.7,340,497.1z"/>
<path class="st24" d="M341.5,483.8c0.3-0.5,0.5-0.9,0.7-1.4C341.9,482.9,341.7,483.4,341.5,483.8z"/>
<path class="st15" d="M572,361.4c-2.4,1.6-4.7,3.2-7,4.8c-1.3,0.1-2.5,0.1-3.7,0.2c1.2-10.2,2.5-20.3,3.7-31.4
	c6.7,3.4,12.7,6.8,14.4,14.1C580.9,355.1,576.2,358.3,572,361.4z"/>
<path class="st11" d="M553.2,376.9c4.6,1.1,8.3,2,12.2,2.8c0.3,0.5,0.5,0.9,0.7,1.4c-1.5,0.7-2.9,2.2-4.4,2.2
	C558.1,383.3,554.2,383,553.2,376.9z"/>
<path class="st10" d="M345.2,411.2c-2.7-1.1-5.2-2.7-8-3.1c-4.4-0.5-8.8-0.3-13.3-0.3c0.1-1.4-0.4-3,0.2-4.2
	c5.3-10.7,3.7-22.1,4-33.3c2.7,4.3,5.5,8.7,8.2,13c0.5,1.5,1.1,2.9,1.6,4.4c0.5,0,0.9-0.1,1.4-0.1c0.5-1.7,1-3.5,1.6-5.2
	c1-2.8,2-5.6,3.1-8.4c0.4,0.9,1,1.9,1,2.8c0.5,9.9,0.8,19.7,1.1,29.5C346.3,407.9,345.6,409.6,345.2,411.2z"/>
<path class="st10" d="M342,422c-5,0.5-10.1,0.8-15.1,1.3c-1.4-0.9-2.7-1.7-4-2.7c-0.6-2.7-1.4-5.4-2-8.1c4.4-0.1,8.9-0.3,13.3-0.2
	C342.2,412.4,342.7,413.1,342,422z"/>
<path class="st13" d="M322.9,420.6c1.4,0.9,2.7,1.7,4,2.7c0.1,0.3,0.1,0.5,0.2,0.8c-2.1,1.7-4.2,3.6-6.3,5.3c-0.4,0-0.7-0.1-1.1-0.2
	C315.9,424.6,321.6,423.4,322.9,420.6z"/>
<path class="st5" d="M309.2,405.1c-0.5-3.8-0.9-7.7-1.4-11.5c0.9-0.1,1.9-0.2,2.8-0.3c0.2,3.8,0.5,7.8,0.6,11.6
	C310.7,404.9,309.9,405,309.2,405.1z"/>
<path class="st15" d="M401.2,430.3c0.2-2.5,0.4-4.8,0.5-7.3c4.2,0,8.5,0.1,12.7,0.1c0.1,2.4,0.3,4.8,0.4,7.1
	c-0.1,14.4-0.2,28.7-0.3,43.1c-1.1-0.8-2.2-1.6-3.4-2.5c-1.6-1.1-3.3-2.2-4.9-3.3c-0.2-0.7-0.3-1.5-0.5-2.1c-0.6-3.6-1.1-7-1.8-10.6
	c-0.8-3.9-1.8-7.8-2.7-11.6C401.2,438.9,401.2,434.6,401.2,430.3z"/>
<path class="st15" d="M487,486.8c-0.5,2.4-0.8,4.7-1.3,7c-0.9-0.1-1.8-0.1-2.8-0.2c-0.1-0.6,0.1-1.7-0.3-2
	c-4.5-3.1-9.1-6.2-13.6-9.2c0.7-1.6,2.2-3.2,2.2-4.8c1.1-26.7,1.9-53.3,2.9-80c1.4-0.2,2.8-0.4,4.2-0.5c1,0,2.1,0,3.1,0
	c1.1,0,2.1,0,3.2,0.1c0.8,0.5,1.7,1.1,2.6,1.6c-0.6,26.8-1.2,53.7-1.8,80.5c0,0.7,0.5,1.6,0.7,2.4C486.6,483.3,486.8,485,487,486.8z
	"/>
<path class="st12" d="M484.9,397.1c-1.1,0-2.1,0-3.2-0.1c-1,0-2.1,0-3.1,0c-1.4,0.2-2.8,0.4-4.2,0.5c0.8-1.9,1.6-3.8,2.5-5.8
	c0.8,0,1.7,0,2.6,0C481.1,393.5,483,395.2,484.9,397.1z"/>
<path class="st24" d="M394.2,473c-1.7-0.4-3.5-0.6-5.2-1c0.1-4.3,0.2-8.5,0.2-12.8c0-9.5-0.1-9.6-9.3-9.5c-1.1-3.5-2.1-7-3.6-11.6
	c2.2,0.2,3.8,0.4,5.5,0.5c0,2,0,4.1,0,6.7c3,0,5.4,0,7.9,0c1.6,5,3.3,10.1,4.9,15.1C394.3,464.5,394.2,468.8,394.2,473z"/>
<path class="st15" d="M379.7,449.6c9.2-0.1,9.4,0,9.3,9.5c0,4.3-0.1,8.5-0.2,12.8c-1-2.9-2.5-5.1-6.1-4.6c-0.1-0.9-0.3-1.9-0.4-2.8
	C381.5,459.6,380.6,454.6,379.7,449.6z"/>
<path class="st12" d="M364.3,422.7c1.8,0.5,3.7,0.8,5.6,1.3c0.4,1,0.7,1.9,1.1,2.9c-6.3,0.1-12.6,0.2-18.9,0.2
	c0.3-2,0.5-4.1,0.8-6.1C356.6,421.6,360.4,422.1,364.3,422.7z"/>
<path class="st12" d="M366.7,445.3c-5.5,0-11,0-16.5,0.2c-2.5,0.1-3.7-0.7-3-3.4c2.7-0.4,5.7-0.4,8.2-1.3
	C360.9,438.7,364.1,441,366.7,445.3z"/>
<path class="st18" d="M394.2,473c0.1-4.2,0.1-8.4,0.2-12.6c1.3,1.7,2.6,3.5,3.8,5.2c0.2,0.6,0.5,1.4,0.6,2c0.2,0.5,0.4,0.9,0.5,1.4
	c0.2,1,0.4,1.9,0.5,2.9c-1,1.3-1.9,2.5-3.1,4C396,475.1,395.1,474,394.2,473z"/>
<path class="st29" d="M382.4,464.5c0.1,0.9,0.3,1.9,0.4,2.8c-0.8,4.1-3.9,5-7.5,5.3c-0.1-2-0.1-4.1-0.1-6.1
	C377.5,465.9,380,465.2,382.4,464.5z"/>
<path class="st13" d="M370.9,426.9c-0.4-1-0.7-1.9-1.1-2.9c1.5-1.5,2.8-2.8,4.3-4.3c1.1,0,2.2,0,3.3,0c0.3,0.7,0.6,1.4,0.9,2.1
	c-1.2,2.1-2.4,4.1-3.6,6.2C373.6,427.6,372.2,427.2,370.9,426.9z"/>
<path class="st29" d="M398.8,467.6c-0.2-0.6-0.5-1.4-0.6-2c2.6,0,5.1-0.1,7.7-0.1c0.2,0.7,0.3,1.5,0.5,2.1c0,4.7-3.1,4.7-6.4,4.2
	c-0.2-1-0.4-1.9-0.5-2.9C399.1,468.4,399,467.9,398.8,467.6z"/>
<path class="st15" d="M389.4,445.2c-2.4,0-4.8,0-7.9,0c0-2.6,0-4.7,0-6.7C384.2,440.8,386.8,443,389.4,445.2z"/>
<path class="st6" d="M262.5,374c0,0.7,0.1,1.4,0.1,2.1C262.6,375.4,262.6,374.7,262.5,374z"/>
<path class="st6" d="M261.2,377.5c-0.3-0.1-0.5-0.3-0.8-0.4C260.6,377.1,260.9,377.2,261.2,377.5z"/>
<path class="st6" d="M262.5,370.7c0.1,0.3,0.3,0.5,0.3,0.8c0,0.1-0.2,0.2-0.3,0.4C262.5,371.5,262.5,371.1,262.5,370.7z"/>
<path class="st30" d="M239.2,425.2c0.3-2.5,0.6-4.8,0.9-7.3c4.3,0.3,8.6,0.5,12.8,0.7c0,7.5-0.1,14.9-0.1,22.4
	c0,1.1-0.1,2.1-0.1,3.2c-0.4,3.9-0.6,7.8-1,11.7c0,0.4-0.1,0.7-0.1,1c-1,6.2-1.7,12.4-3,18.7c-0.5,2-2.3,3.8-3.5,5.8
	c-0.4,0.5-0.7,1.1-1.1,1.6c-0.8,0.5-1.7,0.8-2.6,1.3c-0.6-1.6-1.8-3.3-1.8-4.9C239.4,461.3,239.3,443.2,239.2,425.2z"/>
<path class="st23" d="M251.6,382.8c0.4-0.2,0.6-0.2,1,0C252.2,382.8,252,382.8,251.6,382.8z"/>
<path class="st7" d="M484.9,397.1c-1.8-1.7-3.7-3.6-5.6-5.3c1.6-1.8,3.2-3.6,4.8-5.4c1.9,0.5,3.8,1,5.8,1.5c4-1,5.6,1.6,6.9,4.6
	c-0.1,0.9-0.2,1.8-0.4,2.7c-3,1.2-6,2.4-9.1,3.6C486.5,398.2,485.7,397.6,484.9,397.1z"/>
<path class="st12" d="M487,486.8c-0.2-1.7-0.5-3.5-0.6-5.2c2.4,0.6,5.9-2,7,2.3C493.1,488.6,489.4,486.1,487,486.8z"/>
<path class="st4" d="M539.2,478.3c0,0.7,0.1,1.4,0.1,2.1c-0.4-0.1-0.7-0.1-1.2-0.2C538.5,479.5,538.8,478.9,539.2,478.3z"/>
<path class="st4" d="M527.7,437.7c-0.1-0.3-0.2-0.5-0.2-0.8c0.2,0.2,0.4,0.4,0.5,0.5C528,437.5,527.8,437.6,527.7,437.7z"/>
<path class="st28" d="M413.6,332.3c0.5-0.9,0.8-1.9,1.3-2.8c1.4-0.2,2.7-0.3,4-0.5c1.8,0.1,3.6,0.1,5.4,0.2c0.4,0.7,0.7,1.5,1.1,2.2
	C422.9,335.6,418.9,335.9,413.6,332.3z"/>
<path class="st3" d="M392.3,485.7c-1.3,1.7-2.2,4.4-3.8,4.9c-2.3,0.7-5.5,0.6-7.6-0.5c-1.8-1-2.7-3.9,0.7-5.2
	C385.3,485.2,388.8,485.4,392.3,485.7z"/>
<path class="st27" d="M392.3,485.7c-3.6-0.3-7.1-0.5-10.6-0.8c-0.1-2.7-1.1-6.4,3.5-5.5c3.2,0.6,9.1-3.6,9.1,4.2
	c-0.4,0.7-0.7,1.4-1.1,2.1C393,485.7,392.7,485.7,392.3,485.7z"/>
<path class="st28" d="M385.2,495.8C385.2,495.8,385.3,495.9,385.2,495.8C385.3,495.9,385.2,495.8,385.2,495.8z"/>
<path class="st6" d="M416.7,473.5c0.4,0,0.7,0,1.1,0.1C417.4,473.5,417,473.5,416.7,473.5z"/>
<path class="st5" d="M252.8,444.2c0-1.1,0.1-2.1,0.1-3.2C252.9,442.1,252.9,443.1,252.8,444.2z"/>
<path class="st5" d="M251.7,457c0-0.4,0.1-0.7,0.1-1c0.1,0.3,0.2,0.5,0.3,0.8C252.1,456.8,251.9,456.9,251.7,457z"/>
<path class="st26" d="M550.7,486.1c1.2-1.8,2.4-3.7,3.6-5.5c0.5,0,1.1-0.1,1.6,0.1c2.3,0.5,4.7,1.2,7,1.7c-2.2,1.7-4.1,4-6.6,5.1
	C554.8,488.1,552.6,486.7,550.7,486.1z"/>
<path class="st4" d="M478.5,494.1c1,0,2,0,3-0.1c0,0.3,0.1,0.6,0.1,0.9c-1.4,0-2.8,0-4.2,0C477.7,494.7,478.2,494.5,478.5,494.1z"/>
<path class="st4" d="M483,493.6c0.9,0.1,1.8,0.1,2.8,0.2c0.1,0.5,0.1,0.8,0.2,1.3c-1.1,0-2.1,0-3.2,0
	C482.8,494.5,482.9,494.1,483,493.6z"/>
<path class="st17" d="M364.3,422.7c-3.8-0.5-7.7-1.2-11.5-1.7c0-2.7,0-5.3,0-7.9C356.7,416.3,360.4,419.5,364.3,422.7z"/>
<path class="st15" d="M377.4,419.7c-1.1,0-2.2,0-3.3,0c-2.2-2.1-4.3-4.2-6.5-6.4C373.8,409.7,377.2,411.9,377.4,419.7z"/>
<path class="st4" d="M603.2,488.5c0.2,0.3,0.4,0.5,0.5,0.8c0,0.1-0.2,0.3-0.2,0.5C603.4,489.4,603.3,489,603.2,488.5z"/>
<path class="st12" d="M341.1,382.3c-0.5,1.7-1,3.5-1.6,5.2c-0.5,0-0.9,0.1-1.4,0.1c-0.5-1.5-1.1-2.9-1.6-4.4
	c0.5-3.3,3.2-6.9-2.2-9.4c1.6-1.3,2.7-2.1,4.7-3.7C339.8,374.7,340.5,378.5,341.1,382.3z"/>
<path class="st5" d="M239.2,425.2c0.1,18,0.2,36,0.4,54c0,1.6,1.2,3.3,1.8,4.9c0.8-0.5,1.7-0.8,2.6-1.3c-0.4,1.3-0.6,2.6-1,3.8
	c-6.5,2.2-11.7-0.8-10.8-6.3c0.7-1.6,2.1-3.4,2.1-5c0.2-16.7,0.2-33.4,0.2-50.1C236.2,425.2,237.7,425.2,239.2,425.2z"/>
<path class="st4" d="M250.5,495.1c-0.7,0-1.5,0-2.1,0c0.7-0.6,1.4-1.2,2.1-1.8C250.5,493.8,250.5,494.5,250.5,495.1z"/>
<path class="st4" d="M251.6,491c-0.4,0.7-0.7,1.4-1,2.1C251,492.4,251.3,491.7,251.6,491z"/>
<path class="st4" d="M255.8,495c-0.7,0-1.5,0-2.2,0.1c0.1-0.8,0.2-1.6,0.5-3.6C255.1,493.4,255.4,494.2,255.8,495z"/>
<path class="st17" d="M543.1,308.1c-3.7,5.3-5.4,5.4-9.9,0.5C536.7,308.4,539.4,308.3,543.1,308.1z"/>
<path class="st30" d="M306,482.2c-6.9,3.7-16.4-0.3-21.7-4.8c-11.4-9.6-13.4-23.3-6.9-35.1c4.7-8.3,12.2-13.4,22.2-14.1
	c0,4.8,0,9.8,0,14.6c-2.2,5.9-6.7,11.3-2.5,18C297.5,469,301.3,475.8,306,482.2z"/>
<path class="st29" d="M304,428.4c10.2,1.5,17.7,6.6,22.6,15.8c-7.5,0.5-15,1.2-22.6,1.7C304,439.2,304,433.8,304,428.4z"/>
<path class="st30" d="M329.2,457.7c-1.8,4.9-3.4,10.1-5.8,14.8c-1,2-3.7,3.1-5.8,4.6c-3.4-6-6.8-12.1-10.1-18
	c0.1-0.5,0.2-0.8,0.4-1.3c6.7-0.1,13.4-0.2,20.1-0.3C328.5,457.6,328.9,457.7,329.2,457.7z"/>
<path class="st16" d="M304,428.4c0,5.4,0,10.8,0,17.5c7.6-0.5,15.1-1.2,22.6-1.7c0.5,1.7,1.1,3.6,1.6,5.3c-4.8,0-9.8,0.3-14.6,0
	c-3.3-0.2-4.8,1.1-5.5,4c-2.7-1.7-5.2-3.4-8.7-5.6c0-0.9,0-3,0-5c0-4.8,0-9.8,0-14.6C301.1,428.3,302.5,428.3,304,428.4z"/>
<path class="st10" d="M299.5,442.9c0,2,0,4.1,0,5c3.5,2.2,6,3.9,8.7,5.6l0.2,0.4l-0.3,0.3c0,1.2,0,2.4-0.1,3.7
	c-0.1,0.5-0.2,0.8-0.4,1.3c-0.5,0.7-1.2,1.5-1.7,2.2c-1.1,0.4-2.2,0.6-3.3,1c-1.8-0.5-3.7-0.9-5.5-1.4
	C292.8,454.2,297.3,448.7,299.5,442.9z"/>
<path class="st4" d="M297,460.9c1.8,0.5,3.7,0.9,5.5,1.4c2.7,6.4,5.3,12.7,8.2,19.7c-0.8,0-2.8,0.2-4.8,0.3
	C301.3,475.8,297.5,469,297,460.9z"/>
<path class="st15" d="M308.1,454.2l0.3-0.3l-0.2-0.4c0.6-2.9,2.2-4.3,5.5-4c4.8,0.3,9.8,0.1,14.6,0c0.4,1.6,0.7,3.3,1.1,4.9
	c-0.3-0.1-0.6-0.1-0.9,0.1C321.6,454.5,314.9,454.3,308.1,454.2z"/>
<path class="st24" d="M305.9,461.3c0.5-0.7,1.2-1.5,1.7-2.2c3.4,6,6.8,12.1,10.1,18c-1.2,2.4-2.7,2.6-4.5,0.5
	C309.1,473,305.5,468,305.9,461.3z"/>
<path class="st9" d="M322,431.2c1.7,1.6,3.5,3,5.2,4.6C325.5,434.2,323.7,432.6,322,431.2z"/>
<path class="st10" d="M328.5,454.6c0.3-0.2,0.5-0.3,0.9-0.1c0,1.1-0.1,2.2-0.1,3.3c-0.4-0.1-0.7-0.1-1.1-0.2
	C328.2,456.6,328.3,455.6,328.5,454.6z"/>
<path class="st15" d="M359,451c6.6,4,6.8,11.8,0,19.5C359,463.6,359,457.5,359,451z"/>
<path class="st21" d="M478.5,397c1,0,2.1,0,3.1,0C480.6,397,479.6,397,478.5,397z"/>
<path class="st10" d="M398.8,467.6c0.2,0.5,0.4,0.9,0.5,1.4C399.1,468.4,399,467.9,398.8,467.6z"/>
<path class="st8" d="M328.5,454.6c-0.1,1-0.3,2-0.4,2.9c-6.7,0.1-13.4,0.2-20.1,0.3c0-1.2,0-2.4,0.1-3.7
	C314.9,454.3,321.6,454.5,328.5,454.6z"/>
<path class="st2" d="M346.6,337.7c-0.4,1.2-0.5,2.1-0.4,2.9c-0.2-0.3-0.4-0.5-0.5-0.7c-0.2,1-0.4,1.9-0.7,2.7
	c-0.3-0.6-0.5-1.4-0.5-2.2c-2,2.9-2.9,4.3-4.2,4.9c-1,0.5-2.2,0.5-4.4,0.5c-1.2-2.3-2.4-4.7-3.7-7.1c1.6-1,2.7-1.7,3.7-2.5
	c2.6,0.4,5.2,0.8,7.9,1.2C344.7,337.4,345.6,337.5,346.6,337.7z"/>
<path class="st2" d="M352.5,344.9c-0.3,0.1-0.6,0.2-0.9,0.3c-1.2-0.1-1.9-0.5-2.9-1.6C349.7,344.2,351.1,344.6,352.5,344.9z"/>
</svg>
