<?xml version="1.0" encoding="utf-8"?>
<!-- Generator: Adobe Illustrator 24.1.2, SVG Export Plug-In . SVG Version: 6.00 Build 0)  -->
<svg version="1.1" id="Layer_1" xmlns="http://www.w3.org/2000/svg" xmlns:xlink="http://www.w3.org/1999/xlink" x="0px" y="0px"
	 viewBox="0 0 878 660" style="enable-background:new 0 0 878 660;" xml:space="preserve">
<style type="text/css">
	.st0{opacity:0.5;fill-rule:evenodd;clip-rule:evenodd;fill:url(#SVGID_1_);enable-background:new    ;}
	.st1{fill:#E9CEBB;}
	.st2{fill:#31789E;}
	.st3{fill:#436291;}
	.st4{fill:#C40101;}
	.st5{fill:#F4BB94;}
	.st6{fill:#252933;}
	.st7{fill:#FAF600;}
	.st8{fill:#394760;}
	.st9{fill:#2E71A8;}
	.st10{fill:#A8211B;}
	.st11{fill:#811F17;}
	.st12{fill:#AE2924;}
	.st13{fill:#CB8C64;}
	.st14{fill:#16171C;}
	.st15{fill:#FEFEFE;}
	.st16{fill:#D32526;}
	.st17{fill:#F8EDE6;}
	.st18{fill:#F9C381;}
	.st19{fill:#378CB7;}
	.st20{fill:#3D414D;}
	.st21{fill:#F8F7F7;}
	.st22{fill:#232637;}
	.st23{fill:#4C5262;}
	.st24{fill:#FEEDE6;}
	.st25{fill:#52586A;}
	.st26{fill:#8BD0E4;}
	.st27{fill:#C0E5F3;}
	.st28{fill:#BC6C51;}
	.st29{fill:#F1E000;}
	.st30{fill:#EA9D39;}
	.st31{fill:#DD3032;}
	.st32{fill:#D75224;}
</style>
<linearGradient id="SVGID_1_" gradientUnits="userSpaceOnUse" x1="239.9359" y1="1404.1761" x2="743.5266" y2="900.5855" gradientTransform="matrix(1 0 0 -1 0 1692)">
	<stop  offset="0" style="stop-color:#FFFFFF"/>
	<stop  offset="1" style="stop-color:#FFFFFF;stop-opacity:0"/>
</linearGradient>
<path class="st0" d="M871.2,671.8H-2.7C-13.8,522.3,133.1,428,213,376.9c10.4-6.7,19.6-12.5,27.2-17.8c33.4-22.9,58.1-73,84.4-126.1
	c48.5-98,102.3-206.8,225.2-176.8c108,26.5,270.4,139.4,331.5,308.2v280.4C878.3,653.8,874.8,662.8,871.2,671.8z"/>
<path class="st1" d="M537.3,402.1c7.8,1.6,16.1,1.3,23.8,6.7c-2,1.1-3.1,2.2-4.4,2.5c-8.2,1.6-16.3,3.5-24.5,4.5
	c-11.5,1.4-23.1,2.1-34.7,3c-5.5,0.4-11.1,0.8-16.7,0.8c-29.7,0.3-59.3,0.6-89,0.7c-7.2,0-14.4-0.4-21.6-0.7
	c0.5-7.6,1-15.3,1.6-22.9c1.9,2.4,3.9,4.8,5.9,7.3c0,0.2,0.2,0.3,0.3,0.3c0.5,0.3,1.1,0.7,1.6,1c8,6.3,22.6,4,27.7-6.8
	c0.2-0.5,0.9-0.7,1.3-1.1c11.2,0,22.3,0,33.5,0c2.7,4.7,6.3,8.3,11.7,9.9c10.7,2.5,17.9-0.2,24.3-9.1c9.2,0.5,18.4,1,27.6,1.6
	c5.2,8.2,15.7,9.7,22,7.6C530.8,405.7,534.1,403.9,537.3,402.1z"/>
<path class="st2" d="M371.7,396.8c-0.5,7.6-1,15.3-1.6,22.9c-0.8,9-1.8,18-2.4,27.1c-0.4,6.2-0.4,12.4-0.6,18.7
	c-0.2,0.2-0.2,0.4-0.1,0.6c0,0.5,0,1,0,1.5c-0.8,1.2-1.6,2.5-2.5,3.7c-2-0.4-4-0.9-6-1.3c-0.6-1-1.2-2-1.9-3.1
	c-0.5-9-0.9-18.1-1.5-27.1c-0.4-7-1-13.9-1.4-20.9c-0.4-7.5-0.7-14.9-1.1-22.4c-0.3,0-0.7,0-1,0c-0.5,7.5-1.1,14.9-1.6,22.4
	c-0.8,6.9-1.8,13.8-2.3,20.8c-0.6,9.1-0.9,18.1-1.3,27.2c-0.3,1.5-0.7,3-1,4.5c-2.2,0.1-4.5,0.2-6.7,0.3l-0.2-0.1
	c-0.2-14.7-0.5-29.4-0.7-44.1c-0.3-19.1-0.5-38.3-0.8-57.4c-0.1-4.2-0.3-8.1,5-9.3c0.5-0.1,0.8-0.9,1.2-1.4c3.5,0,6.9,0.1,10.4,0.1
	c1.4,0.5,2.8,0.9,4.3,1.4c0,3.2,0,6.5,0,9.7c1.7-6.5,2.9-8.1,7.6-9.1c2,0,4-0.1,6-0.1c0.5,0.2,1,0.3,1.5,0.5c0.3,3,0.5,6,0.8,9
	c-0.3,1-0.5,2.1-0.8,3.1c0,1.8-0.1,3.6-0.1,5.5c-0.2,3-0.4,6-0.6,8.9c0,0.8-0.1,1.6-0.1,2.3C372.1,392.8,371.9,394.8,371.7,396.8z
	 M356.3,372.5c-0.1-1.9-0.3-3.8-0.4-5.7c-0.3,0-0.6,0-0.9,0c-0.8,7.2-1.6,14.4-2.4,21.6c0.2,0,0.3,0.1,0.5,0.1
	c0.7-2.3,1.5-4.6,2.2-6.9c0.5,3.3,1.4,6.6,1.5,9.9c0.4,20.8,0.5,41.5,0.9,62.3c0.1,4.4,0.5,8.8,0.8,13.2c0,0.5,0.6,1.1,1.4,2.6
	c0-2.4,0.1-3.7,0-4.9c-0.5-9.3-1.3-18.6-1.5-28c-0.4-19.9-0.6-39.7-0.8-59.6c0-1,0.1-2.1-0.1-3C357.5,373.5,356.8,373,356.3,372.5z"
	/>
<path class="st1" d="M345.6,471.4c0.3-1.5,0.7-3,1-4.5c3.4,0,6.8,0,10.2,0c0.6,1,1.2,2,1.9,3.1c0,1-0.1,2-0.1,2.9
	c0.1,0.4,0,1,0.2,1.1c6.1,3,12.1,6.1,18.3,8.7c1.1,0.5,4.5-0.4,2.9-3.6c-2.6-2-5.2-4-7.9-5.9c-1.5,0-3.1,0-4.1,0
	c-1.2-0.7-2.2-1.3-3.2-1.8c0.8-1.2,1.6-2.5,2.5-3.7c3.2,0,6.5-0.2,9.7,0.2c11.1,1,22.2,1.8,32.4,6.8c1.5,0.7,3.5,2.5,3.6,3.8
	s-1.8,3.5-3.2,4c-5.3,2-10.7,4.3-16.2,4.9c-14.7,1.5-29.4,3-44.2,3c-15,0-30.1-1.1-44.5-5.7c-1.7-0.5-3.3-1.3-4.9-2.1
	c-4.1-2.2-4.4-5.7-0.3-7.6c4.3-2,9-3.7,13.6-4.5c7.7-1.3,15.5-1.8,23.3-2.7c0.2,1,0.4,2.1,0.6,3.1c0.5,0.2,1,0.5,1.5,0.7l0.2,0.1
	c-1.8,2.9-4.6,4-7.8,4.5c-2,1.2-4.1,2.5-6.1,3.7c-1.4,1.9-0.6,3.6,1.2,4.2c2.4,0.8,5,0.8,6.3-2.2v0.1c0.5-0.3,1.1-0.6,1.6-0.9
	l-0.1,0.1c0.5-0.3,1.1-0.6,1.6-0.9v0.1c0.7-0.4,1.4-0.7,2.1-1.1l0.2,0.1c0.4-0.3,0.9-0.6,1.3-0.9l0.2,0.1c0.4-0.3,0.9-0.6,1.3-0.9
	l0.2,0.1c2.4,0.6,4.1-0.1,4.8-2.7C345.6,474,345.6,472.7,345.6,471.4z"/>
<path class="st3" d="M334.8,270.9c1.8-0.7,3.6-1.3,5.4-2c0.2,2.7,0.4,5.4,0.5,7.1c4.6-0.7,8.3-1.3,12-1.9c0.6,0,1.3,0,1.9,0.1
	c3.4,0.6,6.8,1.2,10.5,1.9c0.4-2.2,1-5.1,1.6-8c2.8,0.9,5.6,1.7,8.4,2.6c0.5,0.4,1,0.7,1.6,1.1v-0.1c0.3,9.9,0.5,19.7,0.8,29.6
	c-0.1,0.8-0.2,1.7-0.3,2.5c-6.3,0-12.6,0-18.9,0c0-3.2,0-6.5,0-10c-6.6,0-12.9,0-19.5,0c0,3.5,0,6.6,0,9.7c0,1,0.3,1.9,0.5,2.9
	c4,2.4,8.1,1.5,12.1,0.4c0.8-0.1,1.5-0.1,2.3-0.2c0,8.2,0,16.4,0.1,24.6c-7.8-2.2-15.6-4.3-23.3-6.7c-0.7-0.2-1.4-2.1-1.4-3.1
	c0.4-6.3,1-12.6,1.6-18.9c2.3,0.1,3.4-1,3.9-3.2C337.3,289.9,338.9,280.4,334.8,270.9z M361.8,293c3.5,2.4,10.6,2.1,12.8,0
	C370.1,293,365.9,293,361.8,293z"/>
<path class="st4" d="M372.9,379.5c0-1.8,0.1-3.6,0.1-5.5c1-1,2-2.1,3-3.1l0,0c0.5-0.3,1-0.5,1.5-0.8l0,0c1.1-0.2,2.2-0.4,3.3-0.5
	c4.6-0.3,9.1-0.9,13.7-0.9c2.2,0,4.4,0.9,6.6,1.4l0,0c0.5,0.3,1,0.5,1.5,0.8l0,0c0.8,0.5,1.5,1,2.3,1.5l0,0c0.8,0.8,1.5,1.5,2.3,2.3
	l0,0c0.2,0.2,0.5,0.5,0.7,0.7l0,0c1.3,0.8,2.7,2.1,4,2.2c8.8,0.2,17.5,0,26.3,0.2c3.2,0.1,4.1-0.9,4.1-4.1
	c-0.1-29.1-0.1-58.1-0.1-87.2c31.2,0,62.4-0.1,93.6-0.1c2.2,0,4.3,0.1,6.5,0c3.4-0.3,5.9,0.9,7.6,3.9c0.2,1,0.3,2,0.5,3
	c-0.3,1.4-0.8,2.9-0.8,4.3c-0.1,27.2,0,54.5,0,81.7c-2.3,0-4.7,0.3-7,0.1c-1.5-0.2-3-1-4.5-1.5c1.3,0,2.6-0.2,3.8,0
	c4,0.6,4.8-1,4.8-4.8c-0.2-25-0.1-49.9-0.1-74.9c0-1.9-0.9-3.8-1.4-5.7c-0.8-0.5-1.5-1-2.3-1.5c-1.5-0.5-2.9-1.4-4.4-1.4
	c-29.6-0.1-59.1,0-88.7-0.1c-3.6,0-4.5,1.2-4.5,4.6c0.1,26.4,0.1,52.8,0,79.2c0,3.7,1.2,4.7,4.8,4.7c17.5-0.2,35-0.1,52.5-0.1
	c1.5,0,3-0.5,4.4-0.7c-0.5,0.8-1,1.7-1.5,2.5c-32.8,0-65.5,0-98.3,0c-1.2-1.2-2.3-2.3-3.5-3.4c-6.2-5.7-18.1-6.4-24.8-1.5l-0.1,0.1
	c-0.4,0.3-0.9,0.6-1.3,0.9C376,376.8,374.5,378.1,372.9,379.5z"/>
<path class="st5" d="M369.2,233.6c2.2,7.7,0.4,15.1-2.4,22.3c-1.2,3.1-3.6,4.8-7.1,4.6c-3.8-0.7-7.7-1.4-11.5-2.2
	c-3.4-3.5-6.9-7.1-10.3-10.6c-2.7-2.8-3.1-6-1.4-9.4c2.2,0.9,4.3,1.7,6.1,2.4c0-3.1,0-6.9,0-10.6c5.7,0.7,10.7-0.2,14.9-4.7
	c1.8-1.9,4.6-3,6.9-4.4C368.9,224.1,369.3,228.8,369.2,233.6z M355.6,233.8c-3.4-2.9-5.7-2.7-7.5,0
	C350.5,233.8,352.8,233.8,355.6,233.8z"/>
<path class="st6" d="M538.1,377.8c1.5,0.5,3,1.3,4.5,1.5c2.3,0.2,4.7,0,7-0.1c0.4,0,0.9,0,1.3,0c0.7,0.2,1.4,0.3,2.1,0.5v-0.1
	c0.3,0.3,0.7,0.5,1,0.8c0.2,0.2,0.4,0.3,0.6,0.5c1.6,2.5,1.5,5-0.2,7.5c-3.9,0.7-7.9,1.3-11,1.9c-2.1,4.1-4.2,7.9-6.2,11.8
	c-3.2,1.8-6.5,3.6-9.7,5.4c-1.6-0.3-3.1-0.9-4.7-0.7c-9.4,0.9-14.5-4.9-16.9-12.6c-2.7-8.7,3.5-22.5,16-21.8
	c1.3,0.1,2.6-0.5,3.9-0.7c3.5,1.6,7.1,3.1,10.6,4.7C537.1,376.8,537.6,377.3,538.1,377.8z M523.8,399.9c5.6,0,10.6-4.8,10.6-10.3
	c0-5.2-5.1-10.3-10.3-10.3c-5.7,0-10.3,4.6-10.3,10.4C513.8,395.6,518.1,399.9,523.8,399.9z"/>
<path class="st5" d="M330.8,302.6c-0.6,6.3-1.2,12.6-1.6,18.9c-0.1,1,0.6,2.9,1.4,3.1c7.7,2.4,15.5,4.5,23.3,6.7
	c1.8,0.2,3.6,0.6,5.4,0.4c3.1-0.3,6.1-0.9,8.1-1.2c1.7,1.9,2.7,2.9,3.5,4.1c0.6,0.9,0.9,2,1.3,3c0,0.2,0,0.4-0.1,0.7l0,0
	c-0.3,0.3-0.5,0.5-0.8,0.8l0,0c-0.3,0.3-0.5,0.5-0.8,0.8l0,0c-3.4-0.3-6.9-0.5-10.3-0.9c-2.2-0.3-4.3-0.8-6.5-1.3
	c-8.1-0.8-16.2-1.6-24.3-2.4c-1.3,0-2.6,0-3.8-0.1c-0.7-0.2-1.3-0.6-2-0.7c-6-0.7-7.6-2.8-6.9-8.8c1-8.8,2-17.5,2.9-26.3
	C323.4,300.4,327.1,301.5,330.8,302.6z"/>
<path class="st4" d="M298.2,356.5c1.8-3.1,3.6-6.1,5.4-9.2c8.4,0,16.8,0,25.2,0.1c-0.4,4.1,0,7.9,3.2,11c0,0.9,0,1.8,0,2.7
	c-9.3,0-18.7,0-28,0c-1.1,0-2.2,0.5-3.4,0.8c0,4,0,8,0,12.2c4.1,0,7.7,0,11.3,0c6.6,0,13.2,0,19.8,0c0.2,0.1,0.4,0.1,0.7,0.1
	c0.1,1.8,0.1,3.5,0.2,5.3c-0.3,0-0.5,0.1-0.8,0.1c-11.2-0.1-22.4-0.2-33.6-0.3c0-0.3,0-0.5-0.2-0.7
	C298.2,371.2,298.2,363.8,298.2,356.5z"/>
<path class="st7" d="M330.8,302.6c-3.7-1.1-7.4-2.3-11.1-3.4c-1.8-1-2.7-2.1-1.7-4.5c1.8-4.2,3.3-8.5,4.4-12.9
	c1.7-6.6,5.9-10,12.4-11c4.1,9.5,2.5,19-0.1,28.5C334.2,301.6,333.1,302.8,330.8,302.6z"/>
<path class="st8" d="M298.3,379.3c11.2,0.1,22.4,0.2,33.6,0.3c0.3,0.2,0.5,0.3,0.8,0.5c0.2,3.3,0.4,6.6,0.5,9.9
	c-4.4,0-8.7,0-13.1,0.1c-2,0-3.9-0.1-5.9-0.1c-2.5,0-5.1,0-7.6,0.1c-1.1,0-2.2,0-3.2-0.1c-2.1-0.2-4.5,0.1-6.2-0.8
	c-4.8-2.5-4.8-6-0.3-9.6c0.3,0,0.5-0.1,0.7-0.3C297.8,379.3,298.1,379.3,298.3,379.3z"/>
<path class="st1" d="M333.3,417.4c-14.8-1.7-29.9-1.5-45.1-7.9c6.5-5.7,13.6-5.7,20.4-6.6c2.9,1.5,5.8,3.1,8.7,4.6
	c5.5,1.9,10.7,0.6,15.9-1.4C333.3,409.8,333.3,413.6,333.3,417.4z"/>
<path class="st9" d="M364.5,220.9c-2.3,1.4-5.1,2.5-6.9,4.4c-4.2,4.5-9.2,5.4-14.9,4.7c-2.3-0.8-4.6-1.6-6.9-2.4
	c-0.1-0.4-0.2-0.7-0.2-1.1c0.3-1.2,0.4-2.5,1.1-3.4c3.7-5.4,9.2-8.5,15.5-9c6-0.5,12.1,0.3,18.2,0.5c1.8,1,3.6,2,5.3,3
	C371.9,218.8,368.2,219.8,364.5,220.9z"/>
<path class="st2" d="M333.3,417.4c0-3.8-0.1-7.6-0.1-11.3c0-3.3,0-6.6,0-9.9c0-2,0-4.1,0-6.1c-0.2-3.3-0.4-6.6-0.5-9.9
	c0-0.2,0-0.4,0-0.6c-0.1-1.8-0.1-3.5-0.2-5.3c0-0.3,0-0.6,0-0.9c0-0.6,0-1.2-0.1-1.8c0-0.8,0-1.7-0.1-2.5c-0.1-2.6-0.2-5.3-0.3-7.9
	c0-0.9,0-1.8,0-2.7c1.2-0.1,2.4-0.2,3.6-0.2c0.2,7.6,0.5,15.1,0.7,22.7c0.3,11.5,0.6,23,0.8,34.5c0.1,8.1-0.1,16.2,0.1,24.3
	c0.1,7.8,0.6,15.6,0.7,23.5c0,2.6-0.5,5.2-0.7,7.7c-0.2-1-0.4-2.1-0.6-3.1c-0.9-14.8-1.8-29.5-2.7-44.3
	C333.7,421.4,333.5,419.4,333.3,417.4z"/>
<path class="st7" d="M370.3,214.7c-6.1-0.2-12.2-1-18.2-0.5c-6.3,0.5-11.7,3.6-15.5,9c-0.6,1-0.7,2.3-1.1,3.4
	c-2.3-9.2,1.6-14.9,8.2-19.9c1.3-1,3.5-1.2,5.3-1.4c3-0.4,6-0.7,8.9-0.8C362.2,204.4,368.5,209.7,370.3,214.7z"/>
<path class="st7" d="M377.6,301.3c-0.3-9.9-0.5-19.7-0.8-29.6c1.7,2.5,3.7,4.9,5.2,7.6c1.3,2.2,2.1,4.8,3.1,7.2c0,0.5,0,0.9,0,1.4
	c0.5,1.8,0.8,3.7,1.7,5.4c1.3,2.6,0.8,4.5-1.7,5.9c-0.5,0.3-1,0.5-1.5,0.8C381.6,300.4,379.6,300.9,377.6,301.3z"/>
<path class="st3" d="M364.5,220.9c3.7-1.1,7.4-2.1,11.1-3.2c1.3,0.4,2.7,0.5,3.7,1.3c1.4,1,2.5,2.5,3.7,3.8
	c-1.2,1.1-2.2,2.8-3.7,3.3c-2.7,1-5.5,1.4-8,1.9c-0.7,1.9-1.4,3.8-2.1,5.6C369.3,228.8,368.9,224.1,364.5,220.9z"/>
<path class="st10" d="M411,286.6c9.7,0,19.3,0,29,0v0.4c0.2,0.3,0.5,0.6,0.7,0.9l0,0c0,13.2,0,26.4-0.1,39.5c0,1.3-0.9,2.6-1.3,3.9
	c-0.1-2.3-0.1-4.5-0.2-6.8c0-1.8,0-3.6,0-5.4c0-1.3,0-2.6,0-3.8c0-1,0-2,0-2.9c0-2.5,0-5.1,0-7.6c0-5.3,0-10.5,0-16
	c-7.5,0-14.8,0-22.1,0c-2,0-4,0-6,0C411.1,288,411.1,287.3,411,286.6z"/>
<path class="st11" d="M440,287v-0.4c0.7,0,1.5-0.1,2.2-0.1c0,29.1,0,58.1,0.1,87.2c0,3.1-0.9,4.2-4.1,4.1c-8.8-0.2-17.5,0-26.3-0.2
	c-1.4,0-2.7-1.4-4-2.2c1.7,0.3,3.5,0.7,5.2,0.7c8.1,0.1,16.2-0.1,24.3,0.1c3.3,0.1,4-1.1,4-4.1c-0.1-26.9-0.1-53.8-0.1-80.7
	c0-1.2-0.5-2.4-0.7-3.6l0,0C440.5,287.6,440.3,287.3,440,287z"/>
<path class="st12" d="M328.8,347.4c-8.4,0-16.8,0-25.2-0.1c1.1-0.9,2.2-2,3.4-2.6c6.2-3.3,12.5-6.4,18.7-9.6c1.3,0,2.6,0,3.8,0.1
	c-0.3,0.5-0.5,1-0.8,1.5c-6.1,2.8-12.2,5.7-18.3,8.5c0.1,0.2,0.2,0.5,0.3,0.7c6.1,0,12.1,0,18.2,0
	C328.8,346.3,328.8,346.8,328.8,347.4z"/>
<path class="st5" d="M354.7,274.2c-0.6,0-1.3,0-1.9-0.1c-2.1-2.5-4.1-5-6.2-7.5c1.2-0.5,2.3-1.2,3.5-1.6c3.1-1.1,6.2-2.1,9.4-3.2
	c0.5,0.5,0.9,1,1.4,1.5C358.7,267,356.7,270.6,354.7,274.2z"/>
<path class="st9" d="M346.5,266.6c2.1,2.5,4.1,5,6.2,7.5c-3.7,0.6-7.4,1.2-12,1.9c-0.1-1.7-0.3-4.4-0.5-7.1c0.8-1.3,1.3-2.8,2.4-3.7
	c0.9-0.7,2.4-0.7,3.6-1C346.3,265,346.4,265.8,346.5,266.6z"/>
<path class="st9" d="M354.7,274.2c2-3.6,4.1-7.2,6.1-10.8c1.1,0.9,2.2,1.8,3.3,2.7c0.9,0.7,1.8,1.4,2.7,2.1c-0.6,2.9-1.2,5.8-1.6,8
	C361.5,275.4,358.1,274.8,354.7,274.2z"/>
<path class="st11" d="M335.8,227.7c2.3,0.8,4.6,1.6,6.9,2.4c0,3.7,0,7.5,0,10.6c-1.7-0.7-3.9-1.5-6.1-2.4
	C336.3,234.7,336,231.2,335.8,227.7z"/>
<path class="st12" d="M411,286.6c0,0.7,0,1.4,0,2.2c-0.3,1-0.6,1.9-0.8,2.9c-0.3,0.7-0.6,1.4-0.9,2.2c-0.4,1-0.8,2.1-1.2,3.1
	c-0.5,1.8-1,3.6-1.5,5.4c-0.3,0.3-0.7,0.6-1,0.8c-1.2,0.1-2.5,0.3-3.7,0.4c1.4-5.7,5.4-10.8,4.5-17.1
	C408,286.6,409.5,286.6,411,286.6z"/>
<path class="st4" d="M406.4,286.6c0.9,6.3-3.1,11.3-4.5,17.1c-0.6,0-1.2,0-1.7,0.1c1.4-3.5,2.8-7,4.2-10.5c1.4-3.7,0.3-5.2-3.6-5.3
	c-5.2-0.1-10.4,0-15.6,0c0-0.5,0-0.9,0-1.4C392.2,286.5,399.3,286.6,406.4,286.6z"/>
<path class="st13" d="M346.5,266.6c-0.1-0.8-0.2-1.6-0.3-2.4c0.6-2,1.3-3.9,1.9-5.9c3.9,0.7,7.7,1.4,11.6,2.2
	c-0.1,0.4-0.2,0.9-0.3,1.3c-3.1,1.1-6.3,2.1-9.4,3.2C348.8,265.5,347.7,266.1,346.5,266.6z"/>
<path class="st14" d="M317.3,407.4c-2.9-1.5-5.8-3.1-8.7-4.6c-3.1-3.7-5.3-7.8-5.2-12.9c1.1,0,2.2,0,3.2,0.1
	c-0.1,7.3,2.8,12.8,9.6,16C316.8,406.3,317,406.9,317.3,407.4z"/>
<path class="st15" d="M297.5,379.3c-0.2,0.2-0.4,0.3-0.7,0.3c0-6.7-0.1-13.4,0-20.1c0-1,0.9-2,1.4-3c0,7.4,0,14.7-0.1,22.1
	C297.9,378.8,297.7,379.1,297.5,379.3z"/>
<path class="st16" d="M376.8,271.9c-0.5-0.4-1-0.7-1.6-1.1C375.8,271.1,376.3,271.5,376.8,271.9z"/>
<path class="st1" d="M367.1,466.1c-0.1-0.2-0.1-0.4,0.1-0.6c0.1,0.2,0.1,0.3,0.1,0.5C367.3,466,367.2,466,367.1,466.1z"/>
<path class="st15" d="M554.2,380.4c-0.3-0.3-0.7-0.5-1-0.8C553.5,379.9,553.8,380.2,554.2,380.4z"/>
<path class="st6" d="M378.9,374.6c6.7-5,18.6-4.3,24.8,1.5c1.2,1.1,2.3,2.3,3.5,3.4c0.8,3,1.5,6,2.3,9c0.2,0.4,0.5,0.9,0.7,1.3
	c-0.1,1-0.1,1.9-0.2,2.9c-0.5,1.6-1,3.2-1.5,4.9c-0.4,0.3-1.1,0.6-1.3,1.1c-5.1,10.8-19.6,13.1-27.7,6.8c0.1-0.4,0.2-0.8,0.3-1.1
	c-0.6,0-1.3,0.1-1.9,0.1c-0.2,0-0.3-0.1-0.3-0.3c0.1-0.5,0.5-1,0.4-1.3c-1.9-4-3.8-8-5.8-12c0-0.8,0.1-1.6,0.1-2.3
	c0.7-1.7,1.4-3.4,2-5.1c1-2.6,2.1-5.2,3.1-7.8C378,375.2,378.4,374.9,378.9,374.6c0.1,0.2,0.2,0.3,0.6,0.6
	C379.2,374.8,379,374.7,378.9,374.6z M391.6,399.9c5.8,0,10.3-4.6,10.3-10.3c0-5.2-5-10.2-10.3-10.2c-5.4,0-10.3,5.1-10.3,10.6
	C381.4,395.4,386.1,399.9,391.6,399.9z"/>
<path class="st6" d="M478,398.4c-6.5,8.9-13.6,11.6-24.3,9.1c-0.4-0.6-0.7-1.3-1.3-1.7c-6-3.6-8.9-8.9-9.4-15.8c2.8,0,5.6,0,8.4,0
	c0.1,4.7,2.5,7.9,6.8,9.4c4.4,1.5,8.4,0.4,11.5-3.3c3,0,6.1,0,9.1,0C478.5,396.8,478.3,397.6,478,398.4z"/>
<path class="st14" d="M526,371.7c-1.3,0.3-2.6,0.8-3.9,0.7c-12.5-0.7-18.7,13.1-16,21.8c2.4,7.7,7.5,13.5,16.9,12.6
	c1.5-0.1,3.1,0.5,4.7,0.7c-6.3,2-16.8,0.6-22-7.6c-1-1.5-1.9-3-2.9-4.4l0,0c0.8-4.7,0.2-5.6-4.1-5.6c-14.2,0-28.4,0-42.6,0
	c1.3-0.5,2.5-1.4,3.8-1.4c13-0.1,26.1,0,39.1-0.1c1.4,0,3.3-0.8,3.9-1.9c1.3-2.1,1.8-4.6,2.7-7c0.5-0.8,1-1.7,1.5-2.5l0,0
	C512.6,372.7,518.8,370.2,526,371.7z"/>
<path class="st17" d="M502.7,395.5c1,1.5,1.9,3,2.9,4.4c-9.2-0.5-18.4-1-27.6-1.6c0.3-0.8,0.5-1.5,0.8-2.3l0,0
	c1.5-0.1,3-0.2,4.5-0.2C489.8,395.7,496.3,395.6,502.7,395.5z"/>
<path class="st14" d="M442,397.5c-0.5-1.7-1-3.5-1.5-5.2c0-0.7,0-1.5,0-2.2c0.8,0,1.7,0,2.5-0.1c0.5,6.8,3.4,12.2,9.4,15.8
	c0.6,0.3,0.9,1.1,1.3,1.7C448.3,405.8,444.7,402.2,442,397.5z"/>
<path class="st14" d="M372.2,390.8c1.9,4,3.9,8,5.8,12c0.1,0.3-0.2,0.9-0.4,1.3c-2-2.4-3.9-4.8-5.9-7.2
	C371.9,394.8,372.1,392.8,372.2,390.8z"/>
<path class="st14" d="M377.9,404.4c0.6,0,1.3-0.1,1.9-0.1c-0.1,0.4-0.2,0.8-0.3,1.1C379,405,378.5,404.7,377.9,404.4z"/>
<path class="st18" d="M400.2,303.7c0.6,0,1.2,0,1.7-0.1c1.2-0.1,2.5-0.3,3.7-0.4c0,19.2,0,38.3,0,57.5c-10.4,0-20.7,0-31.1,0
	c-1,0.2-2,0.5-2.9,0.7c-2,0-4,0.1-6,0.1c-2.5-0.2-5.1-0.4-7.6-0.7c-1.4-0.5-2.8-0.9-4.3-1.4c0.1-7.1,0.2-14.2,0.3-21.3
	c2.1,0.7,4.3,1.3,6.4,2c3.5,1.1,7,2.2,10.3-0.4l0,0c0.3-0.3,0.5-0.5,0.8-0.8l0,0c0.3-0.3,0.5-0.5,0.8-0.8l0,0
	c0.1-0.1,0.3-0.1,0.3-0.2c0-0.2-0.1-0.3-0.2-0.5c-0.4-1-0.7-2.1-1.3-3c-0.8-1.2-1.9-2.2-3.5-4.1c-2,0.3-5,1-8.1,1.2
	c-1.8,0.2-3.6-0.3-5.4-0.4c0-8.2,0-16.4-0.1-24.6c-0.2-1.4-0.4-2.8-0.6-4.2c1,0,2,0,3,0c0.7,0.5,1.5,0.9,2.2,1.4
	c6.3,0,12.6,0,18.9,0c2.2,0,4.3,0,6.5-0.1c2.2,0,4.5-0.1,6.7-0.1C393.8,303.6,397,303.7,400.2,303.7z M367.5,358.7
	c12.5-0.3,10.5,2.1,10.7-9.2c0-0.1,0.1-0.3,0-0.4c-0.8-0.8-1.6-2.3-2.5-2.3c-3.7-0.3-7.3-0.1-11-0.1c-7.8,0-7.7,0-7.8,7.8
	c-0.1,3.2,0.6,4.8,4.2,4.3C363.2,358.5,365.4,358.7,367.5,358.7z"/>
<path class="st12" d="M440.7,287.9c0.2,1.2,0.7,2.4,0.7,3.6c0,26.9,0,53.8,0.1,80.7c0,3.1-0.7,4.2-4,4.1c-8.1-0.2-16.2,0-24.3-0.1
	c-1.7,0-3.5-0.5-5.2-0.7l0,0c-0.2-0.2-0.5-0.5-0.7-0.7l0,0c-0.8-0.8-1.5-1.5-2.3-2.3l0,0c-0.8-0.5-1.5-1-2.3-1.5l0,0
	c-0.5-0.3-1-0.5-1.5-0.8l0,0c-6.3-4.4-17.4-4.4-23.6,0l0,0c-0.5,0.3-1,0.5-1.5,0.8l0,0c-0.7,0-1.4,0-2.2,0c-0.3-3-0.5-6-0.8-9
	c0.2-0.1,0.4-0.1,0.6-0.1c12.8,0,25.6,0,38.4,0c1.2,0,2.4-0.5,3.5-0.8l-0.1-0.2c2.6,0.3,5.2,1,7.8,0.9c2.6,0,5.1-0.8,7.7-1.2
	c0.2-1.3,0.5-2.7,0.5-4.1c0.1-6.6,0-13.1,0.1-19.7c2,0,4,0.1,6-0.1c0.6-0.1,1-1,1.6-1.6c-0.5-0.4-1-1.2-1.5-1.3c-2-0.2-4-0.1-6-0.1
	c0-0.7,0-1.4,0-2.1c2.6,0,5.2-0.1,7.8-0.1c0.5-1.3,1.3-2.6,1.3-3.9C440.8,314.3,440.7,301.1,440.7,287.9z"/>
<path class="st3" d="M353.9,338.2c-0.1,7.1-0.2,14.2-0.3,21.3c-3.5,0-6.9-0.1-10.4-0.1c-2.6-0.4-5.1-0.9-7.7-1.3
	c-1.2,0.1-2.4,0.2-3.6,0.2c-3.2-3-3.7-6.9-3.2-11c0-0.5,0-1,0-1.6c0-3.1-0.1-6.2-0.1-9.2c0.3-0.5,0.5-1,0.8-1.5
	c8.1,0.8,16.2,1.6,24.3,2.4C353.9,337.7,353.9,337.9,353.9,338.2z"/>
<path class="st17" d="M356.8,466.9c-3.4,0-6.8,0-10.2,0c0.4-9.1,0.6-18.2,1.3-27.2c0.5-6.9,1.5-13.8,2.3-20.8c1.2,0,2.4,0,3.6,0
	c0.5,7,1,13.9,1.4,20.9C355.8,448.8,356.3,457.8,356.8,466.9z"/>
<path class="st19" d="M335.6,358.1c2.6,0.4,5.1,0.9,7.7,1.3c-0.4,0.5-0.7,1.3-1.2,1.4c-5.3,1.2-5.1,5.1-5,9.3
	c0.4,19.1,0.6,38.3,0.8,57.4c0.2,14.7,0.5,29.4,0.7,44.1c-0.5-0.2-1-0.5-1.5-0.7c0.3-2.6,0.8-5.2,0.7-7.7
	c-0.1-7.8-0.5-15.6-0.7-23.5c-0.1-8.1,0.1-16.2-0.1-24.3c-0.2-11.5-0.5-23-0.8-34.5C336.2,373.2,335.9,365.7,335.6,358.1z"/>
<path class="st19" d="M356.3,372.5c0.5,0.5,1.2,1,1.3,1.6c0.2,1,0.1,2,0.1,3c0.3,19.9,0.4,39.7,0.8,59.6c0.2,9.3,1,18.6,1.5,28
	c0.1,1.2,0,2.5,0,4.9c-0.9-1.5-1.4-2-1.4-2.6c-0.3-4.4-0.8-8.8-0.8-13.2c-0.3-20.8-0.5-41.5-0.9-62.3c-0.1-3.3-1-6.6-1.5-9.9
	C355.7,378.6,356,375.5,356.3,372.5z"/>
<path class="st6" d="M331,476.1c3.2-0.4,6-1.6,7.8-4.5c2.2-0.1,4.5-0.2,6.7-0.3c0,1.3,0,2.6,0,3.9c-1.6,0.9-3.2,1.8-4.8,2.7
	l-0.2-0.1c-0.4,0.3-0.9,0.6-1.3,0.9l-0.2-0.1c-0.4,0.3-0.9,0.6-1.3,0.9l-0.2-0.1c-0.7,0.4-1.4,0.7-2.1,1.1v-0.1
	c-0.5,0.3-1.1,0.6-1.6,0.9l0.1-0.1c-0.5,0.3-1.1,0.6-1.6,0.9V482c-0.4,0.1-0.9,0.2-1.3,0.3C331.1,480.1,331.1,478.1,331,476.1z
	 M332.1,477.8c-0.1,0.1-0.2,0.2-0.3,0.3c0.1,0.1,0.2,0.2,0.3,0.3c0.1-0.1,0.2-0.3,0.3-0.4C332.3,477.8,332.2,477.8,332.1,477.8z"/>
<path class="st20" d="M364.7,471.3c1,0.6,2,1.1,3.2,1.8c1,0,2.6,0,4.1,0c-0.4,0.8-0.9,1.6-1.5,2.8c3.9-0.8,3.7,1.5,3.2,4
	c-5.1-2.3-10.1-4.7-15.2-7c0-1,0.1-2,0.1-2.9C360.7,470.4,362.7,470.8,364.7,471.3z"/>
<path class="st1" d="M353.9,418.9c-1.2,0-2.4,0-3.6,0c0.5-7.5,1.1-14.9,1.6-22.4c0.3,0,0.7,0,1,0C353.2,404,353.5,411.4,353.9,418.9
	z"/>
<path class="st8" d="M356.3,372.5c-0.3,3-0.6,6.1-0.9,9.1c-0.7,2.3-1.5,4.6-2.2,6.9c-0.2,0-0.3-0.1-0.5-0.1
	c0.8-7.2,1.6-14.4,2.4-21.6c0.3,0,0.6,0,0.9,0C356.1,368.7,356.2,370.6,356.3,372.5z"/>
<path class="st14" d="M377.5,375.5c-1,2.6-2.1,5.2-3.1,7.8c-0.7,1.7-1.4,3.4-2,5.1c0.2-3,0.4-6,0.6-8.9
	C374.5,378.1,376,376.8,377.5,375.5z"/>
<path class="st8" d="M357.9,360.9c2.5,0.2,5.1,0.4,7.6,0.7c-4.7,1-6,2.5-7.6,9.1C357.9,367.4,357.9,364.2,357.9,360.9z"/>
<path class="st11" d="M373.8,370.9c0.7,0,1.4,0,2.2,0c-1,1-2,2.1-3,3.1C373.3,373,373.6,372,373.8,370.9z"/>
<path class="st13" d="M373.7,361.8c-0.2,0-0.4,0.1-0.6,0.1c-0.5-0.2-1-0.3-1.5-0.5c1-0.2,2-0.5,2.9-0.7
	C374.2,361.1,374,361.4,373.7,361.8z"/>
<path class="st17" d="M358.5,472.9c5.1,2.3,10.1,4.7,15.2,7c2.2,1,4.4,1.5,6.1-0.8c1.6,3.3-1.7,4.1-2.9,3.6
	c-6.2-2.6-12.2-5.7-18.3-8.7C358.5,473.9,358.6,473.3,358.5,472.9z"/>
<path class="st21" d="M379.9,479.1c-1.8,2.3-3.9,1.9-6.1,0.8c0.5-2.5,0.6-4.7-3.2-4c0.6-1.2,1.1-2,1.5-2.8
	C374.6,475.1,377.2,477.1,379.9,479.1z"/>
<path class="st21" d="M331,476.1c0,2,0.1,4,0.1,6c-2.3-0.2-5.7,2.6-6.2-2.3C327,478.6,329,477.3,331,476.1z"/>
<path class="st17" d="M324.9,479.8c0.5,4.9,3.9,2.1,6.2,2.3c0.4-0.1,0.9-0.2,1.3-0.3c-1.3,3.1-3.9,3-6.3,2.2
	C324.3,483.4,323.5,481.8,324.9,479.8z"/>
<path class="st17" d="M340.8,477.9c1.6-0.9,3.2-1.8,4.8-2.7C344.9,477.8,343.2,478.6,340.8,477.9z"/>
<path class="st17" d="M335.5,480.5c0.7-0.4,1.4-0.7,2.1-1.1C336.9,479.7,336.2,480.1,335.5,480.5z"/>
<path class="st17" d="M339.2,478.7c0.4-0.3,0.9-0.6,1.3-0.9C340.1,478.1,339.7,478.4,339.2,478.7z"/>
<path class="st17" d="M337.7,479.5c0.4-0.3,0.9-0.6,1.3-0.9C338.6,478.9,338.1,479.2,337.7,479.5z"/>
<path class="st17" d="M333.9,481.2c0.5-0.3,1.1-0.6,1.6-0.9C335,480.6,334.4,480.9,333.9,481.2z"/>
<path class="st17" d="M332.4,482c0.5-0.3,1.1-0.6,1.6-0.9C333.4,481.4,332.9,481.7,332.4,482z"/>
<path class="st21" d="M353.2,302.4c0.2,1.4,0.4,2.8,0.6,4.2c-0.8,0.1-1.5,0.1-2.3,0.2c-4-0.1-8.1-0.3-12.1-0.4
	c-0.2-1-0.4-1.9-0.5-2.9c-0.1-3.1,0-6.2,0-9.7c6.6,0,12.9,0,19.5,0c0,3.5,0,6.8,0,10c-0.7-0.5-1.5-0.9-2.2-1.4
	c-0.2-0.3-0.5-0.6-0.7-0.9c0.2-1,0.4-2,0.6-2.9c-0.5-0.5-0.9-1-1.4-1.5c-0.5,0.7-0.9,1.5-1.4,2.2c0.2,0.7,0.4,1.5,0.7,2.2
	C353.7,301.8,353.5,302.1,353.2,302.4z M341.4,300.9c2.8-0.5,5.9,0.6,8.6-1.7c-3-0.3-5.9-0.5-8.6-0.8
	C341.4,299.4,341.4,300,341.4,300.9z"/>
<path class="st16" d="M361.8,293c4.1,0,8.3,0,12.8,0C372.4,295.1,365.3,295.4,361.8,293z"/>
<path class="st5" d="M383.8,303.8c-2.2,0-4.3,0-6.5,0.1c0.1-0.8,0.2-1.7,0.3-2.5c2-0.4,4-0.9,5.9-1.3
	C383.7,301.3,383.7,302.5,383.8,303.8z"/>
<path class="st18" d="M339.4,306.4c4,0.1,8.1,0.3,12.1,0.4C347.4,308,343.4,308.8,339.4,306.4z"/>
<path class="st22" d="M443,390c-0.8,0-1.7,0-2.5,0.1c-0.3,0-0.5-0.1-0.5-0.4c-1.2-0.4-2.4-1.2-3.6-1.2c-9-0.1-17.9,0-26.9,0
	c-0.8-3-1.5-6-2.3-9c32.8,0,65.5,0,98.3,0c-0.9,2.4-1.4,4.9-2.7,7c-0.6,1.1-2.6,1.8-3.9,1.9c-13,0.1-26.1,0-39.1,0.1
	c-1.3,0-2.5,0.9-3.8,1.4l-0.1,0.1c-1.5,0-3,0-4.5,0C448.6,390,445.8,390,443,390z"/>
<path class="st11" d="M507,377c-1.5,0.2-3,0.7-4.4,0.7c-17.5,0.1-35-0.1-52.5,0.1c-3.6,0-4.8-1-4.8-4.7c0.1-26.4,0.1-52.8,0-79.2
	c0-3.4,0.9-4.6,4.5-4.6c29.6,0.1,59.1,0,88.7,0.1c1.5,0,3,0.9,4.4,1.4l-0.1,0.1c-30.8,0-61.7,0-92.5-0.1c-3.1,0-3.5,1.2-3.5,3.9
	c0.1,25.8,0.1,51.5,0,77.3c0,3.7,1.3,4.4,4.6,4.3c17.1-0.1,34.3-0.1,51.4,0C504.1,376.3,505.6,376.8,507,377L507,377z"/>
<path class="st11" d="M538.1,377.8c-0.5-0.5-1-1-1.5-1.5c1.9,0,3.8-0.2,5.7,0c2.2,0.1,2.8-0.8,2.8-2.9c-0.1-26.9-0.1-53.9-0.2-80.8
	l0.2-0.2c0.5,1.9,1.4,3.8,1.4,5.7c0.1,25,0,49.9,0.1,74.9c0,3.8-0.8,5.5-4.8,4.8C540.7,377.6,539.4,377.8,538.1,377.8z"/>
<path class="st10" d="M550.5,293.2c0.1,1.8,0.4,3.5,0.4,5.3c0,26.9,0.1,53.9,0.1,80.8c-0.4,0-0.9,0-1.3,0c0-27.2,0-54.5,0-81.7
	C549.7,296.1,550.2,294.7,550.5,293.2z"/>
<path class="st11" d="M377.5,370.2c6.2-4.4,17.3-4.4,23.6,0c-2.2-0.5-4.4-1.4-6.6-1.4c-4.6,0-9.1,0.5-13.7,0.9
	C379.7,369.8,378.6,370,377.5,370.2z"/>
<path class="st11" d="M404.9,372.5c0.8,0.8,1.5,1.5,2.3,2.3C406.5,374,405.7,373.2,404.9,372.5z"/>
<path class="st11" d="M402.7,370.9c0.8,0.5,1.5,1,2.3,1.5C404.2,371.9,403.4,371.4,402.7,370.9z"/>
<path class="st11" d="M542.9,290.9c0.8,0.5,1.5,1,2.3,1.5l-0.2,0.2c-0.7-0.5-1.5-1-2.2-1.6L542.9,290.9z"/>
<path class="st11" d="M401.1,370.2c0.5,0.3,1,0.5,1.5,0.8C402.1,370.7,401.6,370.4,401.1,370.2z"/>
<path class="st11" d="M376,370.9c0.5-0.3,1-0.5,1.5-0.8C377,370.4,376.5,370.7,376,370.9z"/>
<path class="st11" d="M407.2,374.8c0.2,0.2,0.5,0.5,0.7,0.7C407.7,375.2,407.5,375,407.2,374.8z"/>
<path class="st11" d="M355.6,233.8c-2.8,0-5.2,0-7.5,0C350,231,352.2,230.9,355.6,233.8z"/>
<path class="st4" d="M542.8,291c0.7,0.5,1.5,1,2.2,1.6c0,26.9,0.1,53.9,0.2,80.8c0,2.1-0.6,3-2.8,2.9c-1.9-0.1-3.8,0-5.7,0
	c-3.5-1.6-7.1-3.1-10.6-4.7c-7.2-1.5-13.4,1-19,5.4c-1.4-0.3-2.9-0.7-4.3-0.7c-17.1-0.1-34.3-0.1-51.4,0c-3.3,0-4.6-0.6-4.6-4.3
	c0.2-25.8,0.1-51.5,0-77.3c0-2.6,0.4-3.9,3.5-3.9C481.1,291,511.9,291,542.8,291z M472.6,351.2c0.2,1.5,0,3.1,0.6,4.5
	c0.4,1,1.8,2.2,2.8,2.2c20.2,0.1,40.5,0.1,60.7,0c1,0,2.6-0.9,2.8-1.7c0.9-2.9,1.2-5.9,1.8-8.9c1.1-4.1,2.1-8.2,3.3-12.8
	c-2.7,0.3-4.7,0.4-6.6,0.6c0.1-1,0.2-2,0.3-3c1-3.2,2-6.4,3.1-10.2c-31.4-3.1-62.3-6.2-93.9-9.3c1.9,4.7,3.6,8.7,5.2,12.7
	c1.9,5.1,3.6,10.2,5.7,15.2c0.4,1,2.1,2.1,3.3,2.2c4.1,0.3,8.3,0.1,12.5,0.1c-1.1,0.4-2.3,0.8-3.9,1.4
	C471.1,346.6,471.9,348.9,472.6,351.2z"/>
<path class="st23" d="M523.8,399.9c-5.7,0-9.9-4.3-10-10.2c0-5.8,4.5-10.4,10.3-10.4c5.2,0,10.3,5.1,10.3,10.3
	C534.3,395.1,529.3,399.9,523.8,399.9z M523.8,396.1c3.5,0,6.9-3.3,6.8-6.7c-0.1-3.2-3.6-6.4-6.9-6.3c-3.6,0.1-6,2.8-6,6.9
	C517.7,393.8,519.9,396.1,523.8,396.1z"/>
<path class="st13" d="M353.9,338.2c0-0.2-0.1-0.5-0.1-0.7c2.2,0.4,4.3,1,6.5,1.3c3.4,0.4,6.9,0.6,10.3,0.9
	c-3.3,2.7-6.8,1.5-10.3,0.4C358.2,339.5,356.1,338.8,353.9,338.2z"/>
<path class="st13" d="M372.3,337.5c0.1,0.2,0.2,0.3,0.2,0.5c0,0-0.2,0.1-0.3,0.2C372.2,338,372.2,337.8,372.3,337.5z"/>
<path class="st13" d="M372.2,338.2c-0.3,0.3-0.5,0.5-0.8,0.8C371.7,338.7,371.9,338.4,372.2,338.2z"/>
<path class="st13" d="M371.5,338.9c-0.3,0.3-0.5,0.5-0.8,0.8C370.9,339.5,371.2,339.2,371.5,338.9z"/>
<path class="st6" d="M332.4,371.4c0,0.6,0,1.2,0.1,1.8c-0.2,0.3-0.5,0.5-0.7,0.8c-6.6,0-13.2,0-19.8,0c-0.1-0.5-0.2-1.1-0.3-1.6
	v-0.2l-0.2-0.1c0.2-3,0.5-6,0.8-9.2c-2.4,0-4.3,0-6.1,0c-1.3,0-2.6-0.1-3.9-0.1c-0.5-0.3-1-0.6-1.5-0.9c1.1-0.3,2.2-0.8,3.4-0.8
	c9.3-0.1,18.7,0,28,0c0.1,2.6,0.2,5.3,0.3,7.9c-1.7,0.4-3.4,0.7-5.1,1.1C329,370.5,330.7,371,332.4,371.4z M317.1,364.2
	c-0.1,0.5-0.1,0.9-0.2,1.4c1.5,0.2,3.1,0.6,4.6,0.6c1,0,2-0.5,3.1-0.8c-0.1-0.4-0.2-0.7-0.3-1.1
	C321.9,364.2,319.5,364.2,317.1,364.2z"/>
<path class="st14" d="M311.7,372.4c0.1,0.5,0.2,1.1,0.3,1.6c-3.6,0-7.3,0-11.3,0c0-4.2,0-8.2,0-12.2c0.5,0.3,1,0.6,1.5,0.9
	c0,3,0,6,0,9.6C305.5,372.4,308.6,372.4,311.7,372.4z"/>
<path class="st14" d="M331.8,374c0.2-0.3,0.5-0.5,0.7-0.8c0,0.3,0,0.6,0,0.9C332.3,374.1,332,374.1,331.8,374z"/>
<path class="st24" d="M297.5,379.3c0.2-0.2,0.4-0.5,0.6-0.7c0.1,0.2,0.2,0.4,0.2,0.7C298.1,379.3,297.8,379.3,297.5,379.3z"/>
<path class="st23" d="M332.7,379.4c0,0.2,0,0.4,0,0.6c-0.3-0.2-0.5-0.3-0.8-0.5C332.1,379.5,332.4,379.5,332.7,379.4z"/>
<path class="st6" d="M317.3,407.4c-0.3-0.5-0.6-1.2-1.1-1.4c-6.8-3.2-9.7-8.7-9.6-16c2.5,0,5.1,0,7.6-0.1c0.4,5,2.8,8.5,7.2,9.6
	c4.3,1,8.3,0.5,11.1-3.5h0.3h0.3c0,3.3,0,6.6,0,9.9C328.1,408,322.8,409.3,317.3,407.4z"/>
<path class="st14" d="M332.6,396.1c-2.8,4-6.9,4.5-11.1,3.5c-4.4-1.1-6.8-4.6-7.2-9.6c2,0,3.9,0.1,5.9,0.1c0.6,4.1,2.4,5.8,6.4,5.9
	C328.5,396.1,330.6,396,332.6,396.1z"/>
<path class="st25" d="M332.6,396.1c-2,0-4,0-6.1-0.1c-4-0.2-5.7-1.8-6.4-5.9c4.4,0,8.7,0,13.1-0.1c0,2,0,4.1,0,6.1h-0.3H332.6z"/>
<path class="st16" d="M332.4,371.4c-1.7-0.5-3.4-0.9-5.1-1.4c1.7-0.4,3.4-0.7,5.1-1.1C332.4,369.8,332.4,370.6,332.4,371.4z"/>
<path class="st26" d="M400.2,303.7c-3.2,0-6.4-0.1-9.6-0.1c-1.8-1.5-3.7-2.9-5.5-4.4c2.5-1.4,3-3.3,1.7-5.9
	c-0.8-1.7-1.1-3.6-1.7-5.4c5.2,0,10.4-0.1,15.6,0c4,0,5,1.6,3.6,5.3C403,296.7,401.6,300.2,400.2,303.7z"/>
<path class="st27" d="M385.1,299.2c1.8,1.5,3.7,2.9,5.5,4.4c-2.2,0-4.5,0.1-6.7,0.1c-0.1-1.3-0.2-2.5-0.3-3.8
	C384.1,299.7,384.6,299.5,385.1,299.2z"/>
<path class="st27" d="M410.2,291.7c0.3-1,0.6-1.9,0.8-2.9c2,0,4,0,6,0c7.4,5.3,14.7,10.7,22.1,16c0,2.5,0,5.1,0,7.6
	c-2.5-1.6-5.1-3.2-7.6-4.7c-0.1-1.2-0.3-2.4-0.4-3.6c-1.8-0.1-3.4-0.2-4.9-0.3C420.9,299.6,415.6,295.6,410.2,291.7z"/>
<path class="st26" d="M439.2,304.7c-7.4-5.3-14.7-10.7-22.1-16c7.3,0,14.6,0,22.1,0C439.2,294.2,439.2,299.5,439.2,304.7z"/>
<path class="st27" d="M439.4,331.4c-2.6,0-5.2,0.1-7.8,0.1c0-3.9,0-7.8,0-11.6c2.5,1.6,5.1,3.1,7.6,4.7
	C439.3,326.8,439.3,329.1,439.4,331.4z"/>
<path class="st26" d="M439.2,324.6c-2.5-1.6-5.1-3.1-7.6-4.7c0-2,0-4.1,0-6.1c2.5,1.8,5.1,3.6,7.6,5.4
	C439.2,320.9,439.2,322.7,439.2,324.6z"/>
<path class="st27" d="M439.2,319.1c-2.5-1.8-5.1-3.6-7.6-5.4c0-1.3,0-2.5,0-3.8c2.5,1.8,5.1,3.5,7.6,5.3
	C439.2,316.6,439.2,317.9,439.2,319.1z"/>
<path class="st26" d="M439.2,315.3c-2.5-1.8-5.1-3.5-7.6-5.3c0-0.8,0-1.6,0-2.4c2.5,1.6,5.1,3.2,7.6,4.7
	C439.2,313.3,439.2,314.3,439.2,315.3z"/>
<path class="st12" d="M440,287c0.2,0.3,0.5,0.6,0.7,0.9C440.5,287.6,440.3,287.3,440,287z"/>
<path class="st4" d="M328.7,336.5c0,3.1,0.1,6.2,0.1,9.2c-6.1,0-12.1,0-18.2,0c-0.1-0.2-0.2-0.5-0.3-0.7
	C316.5,342.2,322.6,339.4,328.7,336.5z"/>
<path class="st13" d="M431.6,307.6c0,0.8,0,1.6,0,2.4c0,1.3,0,2.5,0,3.8c0,2,0,4.1,0,6.1c0,3.9,0,7.8,0,11.6c0,0.7,0,1.4,0,2.1
	c0,1,0,2.1,0,3.1c0,6.6,0,13.1-0.1,19.7c0,1.4-0.3,2.7-0.5,4c-1.6-0.1-3.3-0.2-4.9-0.1c-2.6,0.1-4.9,0.1-4.6-3.6c0-0.5-2-1.6-3-1.6
	s-2.3,1-2.8,1.9c-0.5,1-0.2,2.5-0.2,3.7l0.1,0.2c-3.3-0.1-6.6-0.2-10-0.3c0-19.2,0-38.3,0-57.5c0.3-0.3,0.7-0.6,1-0.8
	c3,0.5,6,1,9,1.6c0,1,0.1,2,0,3c-0.2,2.3,0.8,3.1,3.1,3.1c2.3,0,3.3-0.8,3.1-3.1c-0.1-1,0-2,0-3l0.1-0.3c1.5,0,3,0,4.5,0
	c1.6,0.1,3.1,0.2,4.9,0.3C431.3,305.2,431.5,306.4,431.6,307.6z"/>
<path class="st26" d="M415.6,303.9c-3-0.5-6-1-9-1.6c0.5-1.8,1-3.6,1.5-5.4c3.3,2.2,6.5,4.5,9.8,6.7
	C417.1,303.7,416.4,303.8,415.6,303.9z"/>
<path class="st27" d="M417.9,303.6c-3.3-2.2-6.5-4.5-9.8-6.7c0.4-1,0.8-2.1,1.2-3.1c3.4,2.3,6.8,4.6,10.1,7.1
	c0.9,0.7,1.6,1.8,2.4,2.7l-0.1,0.3C420.4,303.8,419.2,303.7,417.9,303.6z"/>
<path class="st26" d="M421.8,303.6c-0.8-0.9-1.4-2-2.4-2.7c-3.3-2.4-6.7-4.7-10.1-7.1c0.3-0.7,0.6-1.4,0.9-2.2c5.3,4,10.7,8,16,12
	C424.8,303.6,423.3,303.6,421.8,303.6z"/>
<path class="st23" d="M391.6,399.9c-5.6,0-10.3-4.5-10.3-9.9c0-5.5,4.9-10.6,10.3-10.6c5.2,0,10.2,5,10.3,10.2
	C401.9,395.3,397.4,399.9,391.6,399.9z M391.7,396.1c3.9,0,6.4-2.4,6.4-6.3c0-3.2-3.3-6.6-6.5-6.6s-6.4,3.3-6.5,6.7
	C385.1,393.6,387.7,396.1,391.7,396.1z"/>
<path class="st14" d="M409.5,388.5c9,0,17.9-0.1,26.9,0c1.2,0,2.4,0.8,3.6,1.2c-9.9,0-19.8,0.1-29.7,0.1
	C410,389.3,409.8,388.9,409.5,388.5z"/>
<path class="st14" d="M378.9,374.6c0.1,0.1,0.2,0.3,0.6,0.6C379.1,374.9,379,374.7,378.9,374.6L378.9,374.6z"/>
<path class="st25" d="M456,389.9c14.2,0,28.4,0,42.6,0c4.3,0,5,0.9,4.1,5.6c-0.5-0.3-1.1-0.8-1.6-0.8c-6.8-0.1-13.6-0.1-20.4,0
	c-0.6,0-1.2,1-1.8,1.5l0,0c-3,0-6.1,0-9.1,0c-2.4,0-4.8,0-7.1-0.1C458.3,395.9,456.5,394.2,456,389.9C455.9,390,456,389.9,456,389.9
	z"/>
<path class="st14" d="M455.9,390c0.6,4.2,2.4,5.9,6.6,6c2.4,0.1,4.8,0.1,7.1,0.1c-3.1,3.7-7,4.8-11.5,3.3c-4.3-1.5-6.7-4.7-6.8-9.4
	C452.9,390,454.4,390,455.9,390z"/>
<path class="st20" d="M478.8,396.1c0.6-0.5,1.2-1.5,1.8-1.5c6.8-0.1,13.6-0.1,20.4,0c0.5,0,1.1,0.5,1.6,0.8l0,0
	c-6.4,0.1-12.9,0.2-19.3,0.4C481.9,395.9,480.3,396,478.8,396.1z"/>
<path class="st13" d="M367.5,358.7c-2.2,0-4.3-0.2-6.5,0c-3.5,0.4-4.2-1.1-4.2-4.3c0.2-7.8,0-7.8,7.8-7.8c3.7,0,7.4-0.1,11,0.1
	c0.9,0.1,1.7,1.5,2.5,2.3c0.1,0.1,0,0.2,0,0.4C378,360.8,380,358.4,367.5,358.7z M367.7,357.3L367.7,357.3c2.4,0,4.8,0.1,7.2-0.1
	c0.9-0.1,2.4-0.9,2.5-1.5c0.3-2.1,0.3-4.3,0-6.4c-0.1-0.7-1.5-1.7-2.3-1.7c-4.6-0.2-9.1-0.3-13.7-0.2c-1.2,0-3.2,0.9-3.5,1.8
	c-1.9,5.6,0,8.1,5.7,8.1C364.9,357.3,366.3,357.3,367.7,357.3z"/>
<path class="st10" d="M405.6,360.7c3.3,0.1,6.6,0.2,10,0.3c-1.2,0.3-2.4,0.8-3.5,0.8c-12.8,0.1-25.6,0-38.4,0c0.3-0.3,0.6-0.7,0.9-1
	C384.9,360.7,395.3,360.7,405.6,360.7z"/>
<path class="st13" d="M355.5,301.5c0.2,0.3,0.5,0.6,0.7,0.9c-1,0-2,0-3,0c0.2-0.3,0.5-0.6,0.7-0.9
	C354.5,301.5,355,301.5,355.5,301.5z"/>
<path class="st28" d="M415.5,360.7c0-1.3-0.3-2.7,0.2-3.7c0.5-0.9,1.8-1.9,2.8-1.9s3,1.1,3,1.6c-0.3,3.7,1.9,3.8,4.6,3.6
	c1.6-0.1,3.3,0.1,4.9,0.1c-2.6,0.4-5.1,1.2-7.7,1.2C420.7,361.7,418.1,361.1,415.5,360.7z"/>
<path class="st11" d="M431.5,336.7c0-1,0-2.1,0-3.1c2,0,4-0.1,6,0.1c0.5,0,1,0.8,1.5,1.3c-0.5,0.6-1,1.5-1.6,1.6
	C435.6,336.8,433.6,336.7,431.5,336.7z"/>
<path class="st21" d="M332.1,477.8c0.1,0,0.2,0.1,0.3,0.1c-0.1,0.1-0.2,0.3-0.3,0.4c-0.1-0.1-0.2-0.2-0.3-0.3
	C331.9,477.9,332,477.9,332.1,477.8z"/>
<path class="st17" d="M341.4,300.9c0-0.9,0-1.5,0-2.5c2.7,0.2,5.6,0.5,8.6,0.8C347.3,301.6,344.2,300.4,341.4,300.9z M345,299.4
	c-0.1,0.2-0.1,0.3-0.2,0.5c0.1,0,0.3,0.1,0.3,0.1c0.2-0.1,0.3-0.2,0.5-0.4C345.4,299.6,345.2,299.5,345,299.4z"/>
<path class="st5" d="M355.5,301.5c-0.5,0-1,0-1.5,0c-0.2-0.7-0.4-1.5-0.7-2.2c0.9-0.3,1.9-0.5,2.8-0.8
	C355.9,299.5,355.7,300.5,355.5,301.5z"/>
<path class="st11" d="M356.1,298.6c-0.9,0.3-1.9,0.5-2.8,0.8c0.5-0.7,0.9-1.5,1.4-2.2C355.1,297.6,355.6,298.1,356.1,298.6z"/>
<path class="st29" d="M538.3,332.1c-0.1,1-0.2,2-0.3,3c-0.2,0.7-0.6,1.4-0.7,2.1c-0.7,4-2.5,5.7-7,5.6c-18.7-0.3-37.5-0.1-56.2-0.1
	c-4.2,0-8.3,0.1-12.5-0.1c-1.2-0.1-2.8-1.1-3.3-2.2c-2.1-5-3.8-10.1-5.7-15.2c3.9,0.2,7.8,0.4,11.7,0.7c0.1,2.5-0.1,5.1,0.2,7.6
	c0.1,1,1.1,2.5,1.9,2.7c3.1,0.7,6.8-2.4,6.9-5.7c0.1-1.3,0.1-2.5,0.2-3.8c0.8,0,1.6,0.1,2.4,0.1c-0.3,1.6-1.2,3.3-0.8,4.6
	c0.5,1.6,1.9,3.3,3.3,4c1.2,0.6,3.1-0.3,4.8-0.5c-0.1-0.3-0.1-0.6-0.2-1c-1.7-0.5-3.3-1-5-1.5c0.1-0.4,0.2-0.7,0.3-1.1
	c1.7-0.1,3.4-0.2,5.4-0.4c-0.2-1.4-0.3-2.5-0.5-3.6c0.7,0,1.5,0,2.2,0c0,1.6,0,3.3,0.1,4.9c0.2,3.5,1.5,4.1,4.9,2.3
	c0-2.2-1.8-4.8,1.8-7.4c0,2.8-0.1,4.7,0.1,6.6c0,0.5,0.8,1,1.2,1.6c0.4-0.5,1.1-1,1.2-1.5c0.2-1.9,0.2-3.8,0.2-5.7
	c0.4,0,0.7,0,1.1,0c0.8,1.3,1.6,2.7,2.5,4c0.8,1.2,1.6,2.3,2.4,3.4c0.7-1.1,1.5-2.1,2.1-3.2s1-2.3,1.4-3.5c0.5,0,1.1,0,1.6,0
	c0.1,1.4-0.2,3.1,0.5,4.1c0.9,1.2,2.6,2.2,4.1,2.6c0.9,0.3,2.2-0.8,3.3-1.2c-0.1-0.3-0.3-0.6-0.4-0.8c-1.6-0.3-3.1-0.5-4.7-0.8
	c0.1-0.3,0.1-0.6,0.2-1c2.2-0.6,4.5-1.2,7.2-1.9c0.1,1.2,0.1,2.5,0.3,3.8c0.1,0.6,0.7,1.1,1.1,1.7c0.5-0.6,1.2-1.1,1.3-1.8
	c0.4-1.7,0.4-3.4,0.6-5.2c4,1.6,4.9,2.9,6.1,8.5c-1.1,0.4-2.3,0.8-4.3,1.5c3.6,1.8,5.7,1.6,6.7-1.7c0.6-1.8,1.1-3.6,1.7-5.5
	C532.8,331.6,535.5,331.9,538.3,332.1z"/>
<path class="st7" d="M485.5,327.5c-0.7,0-1.5,0-2.2,0c-2.2-3.1-4.7-2.2-7.3-0.7c-0.8,0-1.6-0.1-2.4-0.1c-0.9-4.5-3.2-5.6-8.9-4.1
	c-0.1,1.1-0.2,2.2-0.3,3.3c-3.9-0.2-7.8-0.4-11.7-0.7c-1.6-4-3.3-7.9-5.2-12.7c31.6,3.1,62.5,6.2,93.9,9.3c-1.1,3.7-2.1,7-3.1,10.2
	c-2.8-0.3-5.5-0.5-8.3-0.8c0.4-1.7,0.8-3.4,1.4-6.2c-2.2,1.4-3.6,2.2-5,3.1c-2.9-3.8-9.1-3.7-10.9,0.1c-6-3.9-6.6-3.8-9.3,0.8
	c-0.5,0-1.1,0-1.6,0c0.2-1,0.3-2,0.5-3c-0.3-0.2-0.6-0.3-0.9-0.5c-0.9,1.1-1.7,2.2-2.5,3.1c-2.1,1.9-3-7.8-5.6-0.3
	c-0.4,0-0.7,0-1.1,0c-0.5-4.9-4.1-1.1-6.2-2.2c-0.2-1.4-0.5-3-0.9-5.1C484.4,322.6,486.3,325.6,485.5,327.5z"/>
<path class="st3" d="M541.3,347.3c-0.6,3-1,6-1.8,8.9c-0.2,0.8-1.8,1.7-2.8,1.7c-20.2,0.1-40.5,0.1-60.7,0c-1,0-2.3-1.2-2.8-2.2
	c-0.6-1.3-0.4-3-0.6-4.5c5.1-0.3,10.2-0.6,15.3-0.8c0.8,1.1,1.4,2.3,2.5,3.1c0.4,0.3,2.4-0.8,2.4-1.1c-0.2-1.7-0.7-3.3-1.2-5.1
	c0.5,0,1.5-0.1,2.7-0.2c0,1.6-0.3,3,0.1,4.3c0.2,0.9,1.4,1.4,2.1,2.2c0.7-0.8,1.3-1.6,2-2.4c1.8-0.8,3.6-1.5,5.4-2.3
	c0.6,1.6,1.2,3.2,1.8,4.8c0.4,0,0.7-0.1,1.1-0.1c0.5-1.6,1-3.1,1.5-4.7c1.2,0,2.4,0,3.6,0c0.6,1.5,1.1,3.1,1.7,4.6
	c1.1-0.5,2.2-1,3.6-1.6c1.2,1.6,2.8,2.8,4.8-0.3c-1.2-0.3-2-0.4-2.4-0.5c0.8-0.8,1.6-1.5,2.4-2.3c0.3,0,0.6,0,0.9,0
	c0.6,0.7,1.2,1.5,1.8,2.2c-0.2,0.2-0.4,0.3-0.6,0.5c-0.4,0.1-0.7,0.3-1.1,0.4c0.4,0.5,0.8,1.4,1.3,1.5c0.7,0.1,1.7-0.2,2.3-0.7
	c0.3-0.3,0.3-1.7,0-2c-2.1-1.4-0.4-1.9,0.5-2.6C531.8,347.8,536.6,347.6,541.3,347.3z"/>
<path class="st9" d="M503.9,348.9c-1.8,0.8-3.6,1.5-5.4,2.3c-0.4-0.1-0.7-0.1-1.1-0.2c0.2-1.3,0.5-2.5,0.7-3.8
	c-1.4-0.1-2.8-0.3-4.2-0.4c-1.4-1-3.7-2.5-4.6-1.9c-4,2.5,1.6,3.9,1.1,6.4c-1-0.3-1.8-0.6-2.6-0.9c-5.1,0.3-10.2,0.6-15.3,0.8
	c-0.8-2.3-1.5-4.6-2.3-7c1.6-0.6,2.7-1,3.9-1.4c18.7,0,37.5-0.2,56.2,0.1c4.6,0.1,6.4-1.6,7-5.6c0.1-0.7,0.4-1.4,0.7-2.1
	c1.9-0.2,3.9-0.4,6.6-0.6c-1.2,4.5-2.3,8.7-3.3,12.8c-4.8,0.3-9.5,0.5-14.3,0.8c-1.8-2.2-3.3-2.6-4.2,0.7c-0.3,0-0.6,0-0.9,0
	c-0.7-0.7-1.8-2.2-2.1-2.1c-1.3,0.5-2.3,1.6-3.4,2.5c0.5-0.4,0.9-0.8,1.4-1.3c-1.1-0.4-2.3-1.3-3.4-1.2c-0.9,0.1-1.7,1.4-2.6,2.1
	c-1.2,0-2.4,0-3.6,0c-0.1-0.7-0.2-1.4-0.4-3.1c-0.9,2.1-1.4,3.1-1.9,4.3c-0.4-1.3-0.8-2.3-1.1-3.3c-0.2,0-0.4,0.1-0.6,0.1
	C504.1,347.5,504,348.2,503.9,348.9z"/>
<path class="st20" d="M523.8,396.1c-3.8,0-6.1-2.3-6.1-6.1c0-4.1,2.4-6.8,6-6.9c3.4-0.1,6.8,3.1,6.9,6.3
	C530.7,392.8,527.3,396.1,523.8,396.1z"/>
<path class="st21" d="M306.1,362.9c1.8,0,3.7,0,6.1,0c-0.3,3.2-0.5,6.2-0.7,9.2c-1.7-0.2-3.4-0.3-5.4-0.5
	C306.1,368.6,306.1,365.7,306.1,362.9z"/>
<path class="st30" d="M306.1,362.9c0,2.9,0,5.7,0,8.7c2,0.2,3.7,0.4,5.4,0.5l0.2,0.1v0.2c-3.1,0-6.2,0-9.5,0c0-3.6,0-6.6,0-9.6
	C303.5,362.8,304.8,362.8,306.1,362.9z"/>
<path class="st31" d="M317.1,364.2c2.4,0,4.8,0,7.2,0c0.1,0.4,0.2,0.7,0.3,1.1c-1,0.3-2,0.8-3.1,0.8c-1.5,0-3.1-0.4-4.6-0.6
	C317,365.1,317.1,364.7,317.1,364.2z"/>
<path class="st28" d="M417.9,303.6c1.3,0.1,2.5,0.2,3.8,0.3c0,1-0.1,2,0,3c0.2,2.3-0.8,3.1-3.1,3.1c-2.3,0-3.3-0.8-3.1-3.1
	c0.1-1,0-2,0-3C416.4,303.8,417.1,303.7,417.9,303.6z"/>
<path class="st20" d="M391.7,396.1c-4,0-6.6-2.5-6.5-6.2c0.1-3.4,3.3-6.7,6.5-6.7s6.5,3.4,6.5,6.6
	C398,393.6,395.6,396.1,391.7,396.1z"/>
<path class="st18" d="M367.7,357.3c-1.4,0-2.8,0-4.2,0c-5.7,0-7.6-2.5-5.7-8.1c0.3-0.9,2.3-1.7,3.5-1.8c4.6-0.2,9.1-0.1,13.7,0.2
	c0.8,0,2.2,1,2.3,1.7c0.3,2.1,0.3,4.3,0,6.4c-0.1,0.6-1.6,1.4-2.5,1.5C372.5,357.4,370.1,357.3,367.7,357.3L367.7,357.3z
	 M367.1,355.1c0.7-1.1,1.8-2.8,3-4.8c-1.6-2.1-3.5-2.3-5.3-0.3C365.8,352.2,366.6,354,367.1,355.1z M358.4,348.9
	c1.1,2.9,1.9,5.1,2.9,7.8c0.2-1.6,0.4-2.8,0.6-4.1c0.2-1.1,0.4-2.3,0.6-3.4C361.3,349.1,360.1,349,358.4,348.9z"/>
<path class="st21" d="M345,299.4c0.2,0.1,0.4,0.1,0.6,0.2c-0.2,0.1-0.3,0.3-0.5,0.4c-0.1,0-0.2-0.1-0.3-0.1
	C344.9,299.8,344.9,299.6,345,299.4z"/>
<path class="st24" d="M506.2,329.1c2.7-4.6,3.3-4.6,9.3-0.8c1.8-3.7,7.9-3.9,10.9-0.1c1.4-0.9,2.8-1.7,5-3.1c-0.6,2.8-1,4.5-1.4,6.2
	c-0.6,1.8-1.1,3.6-1.7,5.5c-1,3.3-3.1,3.4-6.7,1.7c2-0.7,3.2-1.1,4.3-1.5c-1.2-5.5-2.1-6.8-6.1-8.5c-0.2,1.8-0.3,3.5-0.6,5.2
	c-0.1,0.7-0.9,1.2-1.3,1.8c-0.4-0.5-1-1.1-1.1-1.7c-0.2-1.3-0.2-2.6-0.3-3.8c-2.7,0.7-4.9,1.3-7.2,1.9c-0.1,0.3-0.1,0.6-0.2,1
	c1.6,0.3,3.1,0.5,4.7,0.8c0.1,0.3,0.3,0.6,0.4,0.8c-1.1,0.5-2.4,1.5-3.3,1.2c-1.5-0.4-3.2-1.4-4.1-2.6
	C506,332.2,506.3,330.4,506.2,329.1z"/>
<path class="st24" d="M464.4,326c0.1-1.1,0.2-2.2,0.3-3.3c5.7-1.5,8-0.4,8.9,4.1c-0.1,1.3-0.1,2.5-0.2,3.8c-0.1,3.3-3.8,6.4-6.9,5.7
	c-0.8-0.2-1.8-1.7-1.9-2.7C464.3,331.1,464.5,328.5,464.4,326z M467.6,333.4c3.6-0.4,3.5-2.8,3.5-5.2c-0.1-2.1-0.4-4.1-3.5-3.6
	C467.6,327.5,467.6,330.3,467.6,333.4z"/>
<path class="st24" d="M485.5,327.5c0.7-2-1.1-5,2.4-6.6c0.4,2.1,0.6,3.7,0.9,5.1c2.1,1.1,5.7-2.7,6.2,2.2c-0.1,1.9,0,3.8-0.2,5.7
	c-0.1,0.6-0.8,1-1.2,1.5c-0.4-0.5-1.1-1-1.2-1.6c-0.2-1.8-0.1-3.7-0.1-6.6c-3.6,2.5-1.9,5.1-1.8,7.4c-3.4,1.8-4.7,1.2-4.9-2.3
	C485.6,330.8,485.6,329.2,485.5,327.5z M488.6,332.4l-0.2-0.1v0.2L488.6,332.4z"/>
<path class="st24" d="M476,326.9c2.6-1.6,5.1-2.4,7.3,0.7c0.1,1.1,0.3,2.2,0.5,3.6c-1.9,0.1-3.7,0.3-5.4,0.4
	c-0.1,0.4-0.2,0.7-0.3,1.1c1.7,0.5,3.3,1,5,1.5c0.1,0.3,0.1,0.6,0.2,1c-1.6,0.2-3.5,1.1-4.8,0.5c-1.5-0.7-2.8-2.4-3.3-4
	C474.8,330.2,475.7,328.4,476,326.9z"/>
<path class="st24" d="M496.2,328.3c2.6-7.5,3.5,2.2,5.6,0.3c0.7-0.9,1.6-2,2.5-3.1c0.3,0.2,0.6,0.3,0.9,0.5c-0.2,1-0.3,2-0.5,3
	c-0.5,1.2-0.9,2.4-1.4,3.5c-0.6,1.1-1.4,2.1-2.1,3.2c-0.8-1.1-1.6-2.2-2.4-3.4C497.8,331,497,329.6,496.2,328.3z"/>
<path class="st17" d="M488,350.4c0.8,0.3,1.6,0.6,2.6,0.9c0.5-2.4-5.1-3.9-1.1-6.4c1-0.6,3.2,0.9,4.6,1.9c1.4,0.1,2.8,0.3,4.2,0.4
	c-0.2,1.3-0.5,2.5-0.7,3.8c0.4,0.1,0.7,0.1,1.1,0.2c-0.7,0.8-1.3,1.6-2,2.4c-0.7-0.7-1.9-1.3-2.1-2.2c-0.4-1.3-0.1-2.7-0.1-4.3
	c-1.2,0.1-2.2,0.2-2.7,0.2c0.5,1.8,1,3.4,1.2,5.1c0,0.3-2,1.3-2.4,1.1C489.4,352.7,488.8,351.4,488,350.4z"/>
<path class="st17" d="M511.9,348.8c0.8-0.7,1.6-2,2.6-2.1c1.1-0.1,2.2,0.8,3.4,1.2c-0.5,0.4-0.9,0.8-1.4,1.3c1.1-0.9,2.2-2,3.4-2.5
	c0.4-0.1,1.4,1.3,2.1,2.1c-0.8,0.8-1.6,1.5-2.4,2.3c0.5,0.1,1.2,0.3,2.4,0.5c-2,3.1-3.6,1.9-4.8,0.3c-1.4,0.6-2.5,1.1-3.6,1.6
	C513,351.9,512.4,350.4,511.9,348.8z"/>
<path class="st17" d="M503.9,348.9c0.1-0.7,0.2-1.4,0.3-2c0.2,0,0.4-0.1,0.6-0.1c0.3,1,0.6,2,1.1,3.3c0.5-1.2,1-2.2,1.9-4.3
	c0.2,1.7,0.3,2.4,0.4,3.1c-0.5,1.6-1,3.1-1.5,4.7c-0.4,0-0.7,0.1-1.1,0.1C505.1,352,504.5,350.4,503.9,348.9z"/>
<path class="st17" d="M522.9,348.8c0.8-3.3,2.3-2.9,4.2-0.7c-0.9,0.7-2.6,1.2-0.5,2.6c0.3,0.2,0.4,1.6,0,2c-0.5,0.5-1.5,0.8-2.3,0.7
	c-0.5-0.1-0.9-0.9-1.3-1.5c0.4-0.1,0.7-0.3,1.1-0.4c0.4,0.2,0.7,0.4,1.1,0.6c-0.2-0.3-0.3-0.7-0.5-1
	C524,350.3,523.5,349.6,522.9,348.8z"/>
<path class="st13" d="M367.1,355.1c-0.5-1.2-1.3-2.9-2.3-5.1c1.8-2,3.7-1.8,5.3,0.3C368.9,352.3,367.8,354,367.1,355.1z"/>
<path class="st13" d="M358.4,348.9c1.6,0.1,2.9,0.2,4.2,0.3c-0.2,1.1-0.5,2.3-0.6,3.4c-0.2,1.3-0.4,2.5-0.6,4.1
	C360.3,354,359.5,351.8,358.4,348.9z"/>
<path class="st29" d="M467.6,333.4c0-3.1,0-5.9,0-8.8c3.1-0.5,3.4,1.6,3.5,3.6C471.1,330.6,471.2,333,467.6,333.4z"/>
<polygon class="st30" points="488.6,332.4 488.4,332.5 488.4,332.3 "/>
<path class="st32" d="M524.6,351c0.2,0.3,0.3,0.7,0.5,1c-0.4-0.2-0.7-0.4-1.1-0.6C524.3,351.3,524.4,351.2,524.6,351z"/>
</svg>
