<?xml version="1.0" encoding="utf-8"?>
<!-- Generator: Adobe Illustrator 24.1.3, SVG Export Plug-In . SVG Version: 6.00 Build 0)  -->
<svg version="1.1" id="Layer_1" xmlns="http://www.w3.org/2000/svg" xmlns:xlink="http://www.w3.org/1999/xlink" x="0px" y="0px"
	 width="64" height="64" viewBox="0 0 64 64" style="enable-background:new 0 0 64 64;" xml:space="preserve">
<style type="text/css">
	.st0{fill:#433526;}
	.st1{fill:#E57365;}
</style>
<path class="st0" d="M20.8,4.9h9v5.6l0.2,0.4c0.1,0.3,3.2,7.2,14.7,7.2h10.6v1.3v2.1v0.7V25v4.2l0.6,0.6c0,0,2.4,2.3,2.4,7.1h4
	c0-2.7-0.6-5.2-1.7-7.4c-0.5-0.8-0.9-1.5-1.3-1.9V25v-2.8v-0.7v-2.1v-5.3H44.6c-7.6,0-10.2-3.5-10.9-4.5V1H16.8v11.7h4V4.9z"/>
<path class="st0" d="M46.6,49.4l-2.9-2.9c-2.9,4.4-2.8,9.2-2.4,12.3c-6.6-2.3-8.9-13.1-9-13.7c-0.4-2.4-2.6-6.9-8.3-6.9
	c-4.6,0-6.8,3.2-7.7,5.8c-3.1-0.4-4.5-2.2-6.1-7c-0.4-1.3-0.9-2.5-1.5-3.6c-0.8-1.6-1.8-3-2.7-4.1h6.8v-4H1.1v4v0.2
	c0.8,0.8,2,2.1,3.2,3.9c0.9,1.4,1.8,3,2.4,4.8c1.9,6,4.5,9.8,11.4,9.8l1.8,0l0.2-1.8c0,0,0.1-1.2,0.8-2.3c0.8-1.3,1.8-1.9,3.4-1.9
	c1.6,0,2.7,0.6,3.6,1.7c0.3,0.5,0.6,1,0.7,1.3c0.1,0.4,0.2,0.6,0.2,0.6l0,0.1c0,0.2,0.8,4.3,3,8.4c3.1,5.8,7.3,8.9,12.4,8.9l2.7,0
	l-0.9-2.6C45.8,60.5,43.8,54.5,46.6,49.4z"/>
<polygon class="st1" points="55.5,42.5 53.9,38.1 52.4,42.5 48.2,42.5 51.1,45.4 50,49.5 53.9,46.9 57.9,49.5 56.8,45.4 59.7,42.5 
	"/>
<path class="st0" d="M46.7,35.4v-6.1h4.7v-4h-4.7h-4h-9v-1.3c0-0.8,0.7-1.5,1.5-1.5V21h-1.5h-4h-1.5v1.6h0c0.8,0,1.5,0.7,1.5,1.5
	v1.3h-9v-5.6c0-0.8,0.7-1.5,1.5-1.5v-1.6h-1.5h-4h-1.5v1.6h0c0.8,0,1.5,0.7,1.5,1.5v5.6v4v1.8c0,0.8-0.7,1.5-1.5,1.5h0v1.6h1.5h4
	h1.5v-1.6c-0.8,0-1.5-0.7-1.5-1.5v-1.8h9v1.8c0,0.8-0.7,1.5-1.5,1.5h0v1.6h1.5v0h4v0h1.5v-1.6c-0.8,0-1.5-0.7-1.5-1.5v-1.8h9v6.1
	c0,0.8-0.7,1.5-1.5,1.5v1.6h1.5h4h1.5v-1.6h0C47.3,36.9,46.7,36.2,46.7,35.4z"/>
</svg>
