<svg id="Capa_1" enable-background="new 0 0 512.079 512.079" height="64" viewBox="0 0 512.079 512.079" width="64" xmlns="http://www.w3.org/2000/svg"><g><g><g><ellipse cx="316.05" cy="315.583" fill="#f7f6f7" rx="176.958" ry="81.068"/><path d="m316.05 234.515c-5.053 0-10.054.103-15 .292 90.709 3.489 161.958 38.318 161.958 80.775s-71.249 77.287-161.958 80.775c4.946.19 9.947.293 15 .293 97.731 0 176.958-36.295 176.958-81.068 0-44.771-79.227-81.067-176.958-81.067z" fill="#e2dfe3"/><path d="m146.551 306.547c-10.851 1.476-20.248-7.695-18.9-18.562 10.976-88.496 91.139-121.048 188.399-121.048s177.423 32.553 188.399 121.048c1.348 10.867-8.049 20.038-18.899 18.562-49.858-6.781-106.956-11.498-170.005-11.473-62.64.025-119.392 4.727-168.994 11.473z" fill="#e17f85"/><g><path d="m504.449 287.985c-10.976-88.496-91.139-121.048-188.399-121.048-5.05 0-10.05.093-15 .272 90.394 3.264 162.993 36.875 173.399 120.776.838 6.756-2.478 12.854-7.714 16.149 6.38.77 12.654 1.575 18.815 2.414 10.85 1.475 20.247-7.697 18.899-18.563z" fill="#de646e"/></g><path d="m337.214 396.072c-14.665-75.491-14.662-153.103.007-228.593-6.951-.362-14.013-.543-21.171-.543-11.374 0-22.511.452-33.334 1.38-13.249 75.049-13.253 151.842-.011 226.892 10.801.944 21.945 1.444 33.345 1.444 7.163-.001 14.223-.201 21.164-.58z" fill="#655e67"/><path d="m307.357 396.544c2.879.069 5.776.107 8.693.107 7.163 0 14.223-.2 21.163-.579-14.665-75.491-14.662-153.103.007-228.592-6.951-.362-14.013-.543-21.171-.543-5.005 0-9.954.103-14.86.28 2.018.074 4.03.159 6.03.263-14.669 75.49-14.672 153.102-.007 228.592z" fill="#544f56"/></g><g><ellipse cx="195.323" cy="283.698" fill="#f7f6f7" rx="176.958" ry="81.068" transform="matrix(.866 -.5 .5 .866 -115.68 135.67)"/><path d="m348.573 195.219c-11.241-19.47-38.714-27.097-73.997-23.683 20.597 2.38 36.202 10.182 43.997 23.683 22.386 38.774-28.078 109.82-112.716 158.686-42.14 24.329-84.803 38.57-119.788 41.955 38.557 4.456 94.62-10.104 149.788-41.955 84.638-48.866 135.103-119.913 112.716-158.686z" fill="#e2dfe3"/><path d="m44.014 360.621c-8.659 6.703-21.383 3.46-25.649-6.625-34.742-82.128 18.404-150.401 102.634-199.031s169.929-60.52 223.683 10.632c6.601 8.737 3.049 21.378-7.086 25.525-46.569 19.057-98.376 43.52-152.965 75.066-54.235 31.342-101.033 63.79-140.617 94.433z" fill="#e17f85"/><path d="m344.682 165.597c-30.254-40.046-70.628-53.786-115.164-49.476 32.573 3.412 61.869 18.642 85.164 49.476 6.601 8.737 3.049 21.377-7.086 25.525-46.569 19.057-98.376 43.52-152.965 75.066-51.718 29.887-96.658 60.777-135.043 90.151 5.115 8.203 16.479 10.433 24.426 4.281 39.583-30.643 86.382-63.091 140.617-94.433 54.589-31.546 106.396-56.01 152.965-75.066 10.134-4.147 13.686-16.787 7.086-25.524z" fill="#de646e"/><path d="m253.895 342.821c-50.445-58.045-89.249-125.26-114.29-197.971-6.201 3.162-12.408 6.536-18.606 10.115-9.851 5.687-19.269 11.647-28.178 17.862 26.05 71.619 64.444 138.125 113.437 196.5 9.825-4.583 19.726-9.722 29.599-15.422 6.203-3.582 12.217-7.286 18.038-11.084z" fill="#655e67"/><path d="m139.605 144.85c-6.201 3.163-12.408 6.536-18.606 10.115-2.161 1.248-4.293 2.514-6.411 3.788 22.728 61.063 55.258 118.004 96.299 168.579 6.831 8.417 4.659 20.966-4.723 26.395-.102.059-.204.118-.306.177-2.799 1.616-5.601 3.175-8.402 4.701 2.896 3.603 5.829 7.178 8.803 10.721 9.825-4.583 19.726-9.722 29.599-15.422 6.203-3.582 12.217-7.285 18.038-11.083-50.446-58.044-89.25-125.26-114.291-197.971z" fill="#544f56"/></g></g><path d="m310.897 256.179c3.898 1.045 8.112-1.258 9.186-5.303l3.596-13.418c1.072-4.001-1.302-8.113-5.303-9.186-4.003-1.077-8.114 1.302-9.186 5.303l-3.596 13.418c-1.072 4.002 1.302 8.114 5.303 9.186zm-183.612 84.854-13.418-3.596c-3.998-1.075-8.113 1.302-9.186 5.303-1.072 4.001 1.302 8.113 5.303 9.186l13.418 3.596c3.897 1.051 8.103-1.26 9.186-5.303 1.072-4.002-1.302-8.114-5.303-9.186zm-36.498 8.1c-4-1.073-8.113 1.302-9.186 5.303l-3.595 13.418c-1.072 4.001 1.303 8.114 5.304 9.186 3.898 1.044 8.111-1.258 9.186-5.303l3.595-13.418c1.071-4.002-1.303-8.115-5.304-9.186zm60.425 21.03c3.898 1.044 8.111-1.258 9.186-5.303l3.595-13.418c1.072-4.001-1.303-8.114-5.304-9.186-3.998-1.072-8.113 1.301-9.186 5.303l-3.595 13.418c-1.071 4.001 1.303 8.115 5.304 9.186zm360.679-83.1c-4.923-39.677-23.346-70.799-54.757-92.501-26.817-18.527-62.683-29.827-106.601-33.654-24.906-32.882-57.667-50.655-97.38-52.821-49.803-2.716-116.431 24.972-164.625 58.588-14.681 10.24-27.773 21.041-38.912 32.102-2.939 2.919-2.956 7.668-.037 10.607 2.918 2.938 7.667 2.955 10.606.037 8.502-8.443 18.26-16.743 29.049-24.757 13.38 35.153 29.632 68.917 48.645 101.071-33.719 21.306-66.814 44.462-98.454 68.953-2.298 1.78-5.231 2.38-8.052 1.642-2.77-.725-4.992-2.64-6.097-5.256-16.972-40.11-12.669-78.998 12.79-115.582 2.366-3.4 1.528-8.074-1.872-10.44-3.401-2.365-8.075-1.526-10.44 1.872-28.596 41.09-33.405 84.828-14.294 129.993 2.931 6.937 8.805 12.012 16.116 13.925 1.936.506 3.893.762 5.837.792.651 1.469 1.362 2.909 2.16 4.293 10.958 18.974 34.523 28.249 65.138 28.248 27.08 0 59.675-7.269 93.925-21.491 33.889 14.103 80.629 21.462 121.412 21.462 103.436 0 184.46-38.9 184.46-88.56 0-1.594-.104-3.194-.274-4.792 1.669-.999 3.234-2.207 4.659-3.615 5.377-5.311 7.927-12.644 6.998-20.116zm-173.198-116.947c1.713 2.269 2.262 5.155 1.504 7.918-.771 2.809-2.754 5.051-5.438 6.151-47.086 19.257-93.505 41.631-138.091 66.54-19.086-32.302-35.063-66.415-47.796-102.117 59.254-28.879 138.187-46.845 189.821 21.508zm-290.846 196.974c32.338-23.58 63.978-47.182 97.815-68.528 14.679 23.577 30.877 46.246 48.53 67.927-66.582 28.72-130.56 31.419-146.345.601zm54.035-191.387c10.598-7.236 22.162-14.013 33.536-20.19 24.505 68.018 60.512 130.386 107.163 185.619-3.431 2.133-6.921 4.229-10.472 6.28-7.918 4.571-15.88 8.776-23.82 12.62-45.643-55.412-81.284-116.856-106.407-184.329zm112.181 198.241c8.479-4.107 17.011-8.615 25.545-13.542 9.991-5.769 19.495-11.818 28.468-18.072 1.366 14.848 3.242 29.717 5.61 44.43-21.475-2.464-41.691-6.799-59.623-12.816zm41.188-41.057c-18.682-21.979-35.631-45.125-50.786-69.337 43.911-24.506 136.545-65.732 136.826-65.86 20.465 31.931-20.132 90.089-86.04 135.197zm60.798 56.259c-9.094 0-18.089-.326-26.924-.955-3.108-18.594-5.411-37.466-6.87-56.248 12.341-9.51 23.453-19.379 33.191-29.367h.046c1.186-.022 2.398.01 3.588.012.993 28.934 4.077 57.909 9.182 86.355-4.039.133-8.111.203-12.213.203zm178.301-92.635c-2.071 2.046-4.908 2.997-7.791 2.604-17.124-2.328-34.521-4.33-51.706-5.951-4.11-.379-7.782 2.638-8.171 6.763-.389 4.124 2.639 7.782 6.763 8.171 17.265 1.627 34.76 4.129 52.016 5.976 1.896 37.79-62.455 67.984-142.105 74.066-5.141-28.123-8.246-56.792-9.26-85.424 21.578.312 43.269 1.177 64.709 2.6.169.012.337.017.504.017 3.915 0 7.213-3.039 7.476-7.004.274-4.133-2.854-7.705-6.987-7.979-23.491-1.559-47.276-2.458-70.892-2.699 29.475-35.571 40.612-71.155 26.17-96.179-.799-1.387-1.691-2.723-2.638-4.022.944-1.697 1.697-3.52 2.226-5.448.504-1.838.787-3.699.857-5.549 38.408 4.077 69.7 14.293 93.088 30.451 27.74 19.166 44.023 46.758 48.397 82.01.349 2.814-.619 5.584-2.656 7.597zm-246.99-34.046-13.418-3.595c-4.002-1.074-8.113 1.302-9.186 5.304-1.072 4.001 1.303 8.113 5.304 9.185l13.418 3.595c3.897 1.051 8.102-1.26 9.186-5.304 1.072-4.002-1.303-8.114-5.304-9.185zm152.919 57.518c-2.93-2.928-7.678-2.928-10.607 0-2.929 2.93-2.929 7.678 0 10.607l9.822 9.822c2.93 2.928 7.679 2.93 10.607 0s2.929-7.678 0-10.607zm-28.548 13.838c2.93-2.929 2.93-7.678.001-10.606l-9.822-9.823c-2.93-2.929-7.679-2.93-10.606-.001-2.93 2.929-2.93 7.678-.001 10.606l9.822 9.823c2.929 2.929 7.677 2.93 10.606.001zm5 20.325-9.822 9.822c-2.929 2.93-2.929 7.678 0 10.607 2.929 2.93 7.677 2.928 10.607 0l9.822-9.822c2.929-2.93 2.929-7.678 0-10.607-2.929-2.928-7.677-2.928-10.607 0zm-100.389-72.696c-4.002-1.074-8.114 1.302-9.186 5.303l-3.596 13.419c-1.072 4.001 1.302 8.113 5.303 9.186 3.898 1.045 8.112-1.258 9.186-5.303l3.596-13.419c1.072-4.002-1.302-8.114-5.303-9.186zm164.165 68.09 9.822-9.822c2.929-2.93 2.929-7.678 0-10.607-2.93-2.928-7.678-2.928-10.607 0l-9.822 9.822c-2.929 2.93-2.929 7.678 0 10.607 2.928 2.929 7.676 2.928 10.607 0zm-156.622-100.55-13.418-3.596c-4.001-1.074-8.113 1.302-9.186 5.303s1.302 8.113 5.303 9.186l13.418 3.596c3.897 1.051 8.102-1.26 9.186-5.303 1.072-4.001-1.302-8.114-5.303-9.186z"/></g></svg>