<?xml version="1.0" encoding="utf-8"?>
<!-- Generator: Adobe Illustrator 24.1.2, SVG Export Plug-In . SVG Version: 6.00 Build 0)  -->
<svg version="1.1" id="Layer_1" xmlns="http://www.w3.org/2000/svg" xmlns:xlink="http://www.w3.org/1999/xlink" x="0px" y="0px"
	 width="64" height="64" viewBox="0 0 64 64" style="enable-background:new 0 0 64 64;" xml:space="preserve">
<style type="text/css">
	.st0{fill:#353434;}
	.st1{fill:#FDFDFC;}
	.st2{fill:#FDFDFD;}
	.st3{fill:#FBFBFB;}
	.st4{fill:#F9AD1A;}
	.st5{fill:#FAAD1A;}
	.st6{fill:#E84824;}
	.st7{fill:#8BC03F;}
	.st8{fill:#E69824;}
	.st9{fill:#E99A23;}
	.st10{fill:#F2DB0E;}
	.st11{fill:#B97129;}
	.st12{fill:#BA7129;}
	.st13{fill:#83BC41;}
	.st14{fill:#EA3B24;}
	.st15{fill:#8ABF3F;}
	.st16{fill:#FFFBF6;}
	.st17{fill:#FFFDF9;}
	.st18{fill:#FFFBF5;}
	.st19{fill:#FFFCF6;}
</style>
<g id="vc2asp.tif">
	<g>
		<path class="st0" d="M53.6,47.5c-14.5,0-29,0-43.5,0c-0.1,0-0.2-0.1-0.3-0.1c-2.4-0.7-3.9-2.2-4.5-4.7c0-0.1-0.1-0.1-0.1-0.2
			c0-1.3,0-2.6,0-4c0.3-0.9,0.8-1.6,1.7-2c0.3-0.1,0.4-0.3,0.4-0.6c0-1.8,0-3.5,0-5.3c0-0.5,0-0.8-0.6-1c-0.8-0.3-1.1-1.1-1.5-1.9
			c0-0.7,0-1.5,0-2.2c0-0.1,0.1-0.2,0.1-0.3c1-5.2,5.6-8.7,10.8-8.7c10.6,0.1,21.2,0,31.7,0c0.6,0,1.1,0,1.7,0.1
			c5.2,0.7,9.1,5.1,9.2,10.3c0,1.3-0.6,2.2-1.7,2.7c-0.2,0.1-0.3,0.3-0.3,0.5c0,1.9,0,3.8,0,5.7c0,0.3,0.1,0.4,0.3,0.5
			c1.1,0.5,1.7,1.4,1.7,2.6c0,0.8,0,1.7,0,2.5c-0.1,1.9-0.9,3.4-2.3,4.6C55.6,46.9,54.6,47.2,53.6,47.5z M9.1,30.1c0,0.7,0,1.3,0,2
			c0,0,0,0.1,0.1,0.1c1.7,0,3.3,0,5,0c0.2,0,0.3,0,0.5,0c13.2,0,26.4,0,39.6,0c0.2,0,0.4,0,0.6,0c0-0.8,0-1.5,0-2.2
			c-0.2,0-0.4,0-0.6,0c-13.2,0-26.3,0-39.5,0c-0.2,0-0.4,0-0.6,0C12.4,30,10.8,30,9.1,30.1L9.1,30.1L9.1,30.1z M9.1,36.2
			c0.2,0,0.3,0.1,0.5,0.1c1.9,0,3.8,0,5.7,0c0.6,0,1.2,0,2,0c-0.6-0.6-1.2-1.1-1.7-1.7c-0.4-0.5-0.9-0.6-1.5-0.5c-1.6,0-3.3,0-4.9,0
			l0,0l0,0C9.1,34.8,9.1,35.5,9.1,36.2z M14.6,28.2c0.2,0,0.3,0,0.5,0c13.4,0,26.8,0,40.3,0c0.2,0,0.3,0,0.5,0c0.1,0,0.1,0,0.2-0.1
			c0.5-0.1,0.7-0.5,0.7-1c0-3.5-2.2-6.7-5.4-7.9c-0.7-0.3-1.4-0.4-2-0.6c0,0.1-0.1,0.1-0.1,0.2c0.1,0.1,0.3,0.2,0.4,0.4
			c1.4,1.4,1.5,3.5,0.1,4.8c-1.3,1.3-3.4,1.3-4.8-0.1c-1.4-1.4-2.9-2.8-4.2-4.3c-0.8-0.8-1.6-1.2-2.7-1.1c-0.9,0.1-1.8,0-2.9,0
			c0.3,0.4,0.6,0.6,0.9,0.9c0.8,0.9,1,2,0.7,3.1c-0.7,2.4-3.7,3.2-5.5,1.4c-1.5-1.5-3-3-4.5-4.5c-0.7-0.7-1.4-1.1-2.4-1
			c-1,0.1-2,0-3.1,0c0.3,0.4,0.6,0.6,0.9,0.9c1.2,1.4,1.1,3.4-0.2,4.6c-1.3,1.2-3.3,1.1-4.6-0.1c-0.5-0.5-1.1-1.1-1.6-1.6
			c-1-1-2-2-3-2.9c-0.1-0.1-0.4-0.1-0.6-0.1C9.2,20.5,7,23.8,7,27c0,0.7,0.4,1.1,1.1,1.1C10.3,28.2,12.4,28.2,14.6,28.2z M14.6,38.1
			c-2.2,0-4.3,0-6.5,0c-0.7,0-1.1,0.4-1.1,1.1c0,0.9,0,1.8,0,2.7c0.1,1.7,1.5,3.4,3.2,3.6c2,0.2,4,0.1,5.9,0.1c0.3,0,0.7,0,1,0
			c11.7,0,23.3,0,35,0c0.1,0,0.3,0,0.4,0c2.6-0.1,4.3-1.8,4.3-4.4c0-0.6,0-1.3,0-1.9c0-0.9-0.4-1.2-1.3-1.2c-9.2,0-18.4,0-27.6,0
			c-0.2,0-0.5,0.1-0.7,0.3c-1,1-2.1,2-3.1,3.1c-0.7,0.7-1.1,0.7-1.8,0c-1-1-2.1-2.1-3.1-3.1c-0.1-0.1-0.4-0.3-0.6-0.3
			C17.4,38.1,16,38.1,14.6,38.1z M29.5,36.2c8.5,0,16.9,0,25.3,0c0-0.8,0-1.5,0-2.2c-0.1,0-0.1,0-0.2,0c-7.6,0-15.1,0-22.7,0
			c-0.1,0-0.3,0.1-0.4,0.2C30.8,34.9,30.2,35.5,29.5,36.2z M23.2,39.6c1.9-1.9,3.7-3.8,5.5-5.6c-3.6,0-7.3,0-11.1,0
			C19.6,36,21.5,37.8,23.2,39.6z M28.5,18.4c0.2,0.3,0.4,0.4,0.5,0.5c0.9,0.9,1.7,1.7,2.6,2.6c0.3,0.3,0.7,0.7,1,1
			c0.6,0.6,1.5,0.5,2.1,0c0.6-0.6,0.6-1.5,0-2.1c-0.1-0.1-0.2-0.2-0.3-0.3c-0.6-0.6-1.1-1.3-1.7-1.6c-0.7-0.3-1.6-0.1-2.4-0.1
			C29.7,18.4,29.1,18.4,28.5,18.4z M42.4,18.5c0.2,0.2,0.2,0.3,0.3,0.3c1.2,1.2,2.5,2.5,3.7,3.7c0.7,0.7,1.6,0.7,2.2,0.1
			c0.6-0.6,0.6-1.5-0.1-2.2c-0.6-0.6-1.1-1.1-1.7-1.7c-0.1-0.1-0.3-0.2-0.4-0.2C45,18.4,43.7,18.5,42.4,18.5z M14.6,18.5
			c0.2,0.2,0.3,0.3,0.4,0.4c1.2,1.2,2.4,2.4,3.6,3.6c0.7,0.7,1.6,0.8,2.2,0.2c0.6-0.6,0.6-1.5-0.1-2.2c-0.5-0.6-1.1-1.1-1.7-1.7
			c-0.1-0.1-0.3-0.2-0.4-0.2C17.3,18.4,16.1,18.5,14.6,18.5z"/>
		<path class="st1" d="M53.6,47.5c1-0.3,2-0.6,2.8-1.3c1.5-1.2,2.3-2.7,2.3-4.6c0-0.8,0-1.7,0-2.5c0-1.2-0.6-2.1-1.7-2.6
			c-0.2-0.1-0.3-0.2-0.3-0.5c0-1.9,0-3.8,0-5.7c0-0.3,0.1-0.4,0.3-0.5c1.2-0.5,1.7-1.5,1.7-2.7c-0.1-5.3-4-9.6-9.2-10.3
			c-0.5-0.1-1.1-0.1-1.7-0.1c-10.6,0-21.2,0.1-31.7,0c-5.3,0-9.8,3.5-10.8,8.7c0,0.1-0.1,0.2-0.1,0.3c0-3,0-6.1,0-9.1
			c17.9,0,35.8,0,53.6,0c0,10.3,0,20.7,0,31C57.1,47.5,55.3,47.5,53.6,47.5z"/>
		<path class="st2" d="M5.2,27.8c0.3,0.7,0.7,1.5,1.5,1.9c0.5,0.2,0.6,0.5,0.6,1c0,1.8,0,3.5,0,5.3c0,0.3,0,0.5-0.4,0.6
			c-0.9,0.4-1.3,1.1-1.7,2C5.2,34.9,5.2,31.4,5.2,27.8z"/>
		<path class="st3" d="M5.2,42.5c0,0.1,0.1,0.1,0.1,0.2c0.6,2.4,2.1,4,4.5,4.7c0.1,0,0.2,0.1,0.3,0.1c-1.6,0-3.3,0-4.9,0
			C5.2,45.8,5.2,44.2,5.2,42.5z"/>
		<path class="st4" d="M14.6,38.1c1.4,0,2.8,0,4.2,0c0.2,0,0.4,0.1,0.6,0.3c1,1,2.1,2.1,3.1,3.1c0.7,0.7,1.1,0.7,1.8,0
			c1-1,2-2.1,3.1-3.1c0.2-0.2,0.5-0.3,0.7-0.3c9.2,0,18.4,0,27.6,0c0.9,0,1.2,0.3,1.3,1.2c0,0.6,0,1.3,0,1.9c0,2.6-1.7,4.3-4.3,4.4
			c-0.1,0-0.3,0-0.4,0c-11.7,0-23.3,0-35,0c-0.3,0-0.7,0-1,0c-0.1-0.2-0.3-0.4-0.4-0.6c-0.7-0.8-1.3-1.7-1.4-2.8
			c-0.1-1-0.1-1.9-0.1-2.9C14.3,39,14.5,38.5,14.6,38.1z M54.3,41.1c0,0.4,0,0.8,0,1.1c0,0,0,0.1,0,0.1c0,0.5,0.4,0.9,0.9,0.9
			c0.5,0,0.9-0.4,0.9-0.9c0-0.8,0-1.6,0-2.4c0-0.5-0.4-0.9-0.9-0.9c-0.5,0-0.9,0.4-0.9,0.9C54.3,40.3,54.3,40.7,54.3,41.1z"/>
		<path class="st5" d="M55.9,28.1c-0.2,0-0.3,0-0.5,0c-13.4,0-26.8,0-40.3,0c-0.2,0-0.3,0-0.5,0c-0.1-0.2-0.2-0.4-0.2-0.6
			c0-0.8,0-1.6,0.1-2.3c0.2-1.1,0.5-2.1,1.2-3c0.5,0.5,1.1,1.1,1.6,1.6c1.3,1.3,3.3,1.4,4.6,0.1c1.3-1.3,1.4-3.2,0.2-4.6
			c-0.2-0.3-0.5-0.6-0.9-0.9c1.1,0,2.1,0.1,3.1,0c1-0.1,1.7,0.2,2.4,1c1.4,1.6,3,3,4.5,4.5c1.8,1.8,4.8,1,5.5-1.4
			c0.3-1.2,0.1-2.2-0.7-3.1c-0.2-0.3-0.5-0.5-0.9-0.9c1,0,2,0.1,2.9,0c1.1-0.1,1.9,0.3,2.7,1.1c1.3,1.5,2.8,2.8,4.2,4.3
			c1.4,1.4,3.5,1.4,4.8,0.1c1.4-1.4,1.3-3.4-0.1-4.8c-0.1-0.1-0.3-0.2-0.4-0.4c0-0.1,0.1-0.1,0.1-0.2c0.7,0.2,1.4,0.3,2,0.6
			c3.2,1.3,5.4,4.5,5.4,7.9c0,0.5-0.2,0.9-0.7,1C56,28.1,56,28.1,55.9,28.1z M55.7,25.4c-0.4-1.6-1.2-3.1-2.6-4.2
			c-0.4-0.3-0.8-0.2-1.1,0.2c-0.3,0.3-0.3,0.8,0,1.2c0.2,0.2,0.4,0.4,0.6,0.6c0.7,0.7,1.1,1.6,1.3,2.6c0.1,0.5,0.5,0.7,1,0.6
			C55.4,26.4,55.7,26.1,55.7,25.4z M44.4,25c-0.1-0.3-0.1-0.5-0.2-0.6c-0.8-0.9-1.6-1.7-2.5-2.5c-0.3-0.3-0.9-0.2-1.2,0.1
			c-0.3,0.3-0.4,0.8,0,1.2c0.8,0.8,1.6,1.6,2.4,2.4c0.2,0.2,0.7,0.2,1,0.1C44.1,25.6,44.3,25.3,44.4,25z M26.9,21.2
			c-0.3,0.2-0.6,0.4-0.8,0.7c-0.2,0.4-0.1,0.7,0.2,1c0.7,0.7,1.4,1.5,2.2,2.2c0.4,0.4,1,0.5,1.3,0.1c0.4-0.4,0.4-1-0.1-1.4
			c-0.7-0.7-1.4-1.4-2.1-2.1C27.5,21.5,27.2,21.4,26.9,21.2z M25,19.4c-0.5,0-0.9,0.4-0.9,0.9c0,0.5,0.4,0.9,0.9,0.9
			c0.5,0,0.9-0.4,0.9-0.9C25.9,19.9,25.5,19.4,25,19.4z M40.4,20.9c0-0.5-0.5-0.9-1-0.9c-0.5,0-0.9,0.4-0.9,0.9c0,0.5,0.5,0.9,1,0.9
			C40,21.8,40.4,21.4,40.4,20.9z"/>
		<path class="st6" d="M14.1,30c0.2,0,0.4,0,0.6,0c13.2,0,26.3,0,39.5,0c0.2,0,0.4,0,0.6,0c0,0.8,0,1.5,0,2.2c-0.2,0-0.4,0-0.6,0
			c-13.2,0-26.4,0-39.6,0c-0.2,0-0.3,0-0.5,0C14.1,31.5,14.1,30.7,14.1,30z"/>
		<path class="st7" d="M29.5,36.2c0.7-0.7,1.4-1.4,2.1-2c0.1-0.1,0.3-0.2,0.4-0.2c7.6,0,15.1,0,22.7,0c0,0,0.1,0,0.2,0
			c0,0.7,0,1.4,0,2.2C46.4,36.2,38,36.2,29.5,36.2z"/>
		<path class="st8" d="M15.7,22.2c-0.7,0.9-1,1.9-1.2,3c-0.1,0.8-0.1,1.6-0.1,2.3c0,0.2,0.1,0.4,0.2,0.6c-2.2,0-4.3,0-6.5,0
			C7.4,28.2,7,27.7,7,27c0-3.3,2.1-6.5,5.2-7.8c0.2-0.1,0.5,0,0.6,0.1C13.8,20.3,14.7,21.3,15.7,22.2z"/>
		<path class="st9" d="M14.6,38.1c-0.1,0.4-0.3,0.8-0.3,1.2c0,1,0,1.9,0.1,2.9c0.1,1.1,0.6,2,1.4,2.8c0.2,0.2,0.3,0.4,0.4,0.6
			c-2,0-4,0.1-5.9-0.1c-1.7-0.2-3.1-1.9-3.2-3.6c0-0.9,0-1.8,0-2.7c0-0.7,0.4-1.1,1.1-1.1C10.3,38.1,12.4,38.1,14.6,38.1z"/>
		<path class="st10" d="M23.2,39.6c-1.8-1.8-3.7-3.7-5.5-5.6c3.7,0,7.5,0,11.1,0C27,35.9,25.1,37.8,23.2,39.6z"/>
		<path class="st11" d="M28.5,18.4c0.7,0,1.2,0,1.7,0c0.8,0,1.7-0.2,2.4,0.1c0.7,0.3,1.2,1.1,1.7,1.6c0.1,0.1,0.2,0.2,0.3,0.3
			c0.6,0.6,0.6,1.5,0,2.1c-0.6,0.6-1.4,0.6-2.1,0c-0.4-0.3-0.7-0.7-1-1c-0.9-0.9-1.7-1.7-2.6-2.6C28.8,18.8,28.7,18.7,28.5,18.4z"/>
		<path class="st11" d="M42.4,18.5c1.4,0,2.7,0,3.9,0c0.1,0,0.3,0.1,0.4,0.2c0.6,0.6,1.1,1.1,1.7,1.7c0.7,0.7,0.7,1.6,0.1,2.2
			c-0.6,0.6-1.5,0.6-2.2-0.1c-1.2-1.2-2.5-2.5-3.7-3.7C42.6,18.7,42.5,18.6,42.4,18.5z"/>
		<path class="st12" d="M14.6,18.5c1.4,0,2.7,0,4,0c0.1,0,0.3,0.1,0.4,0.2c0.6,0.5,1.1,1.1,1.7,1.7c0.7,0.7,0.7,1.6,0.1,2.2
			c-0.6,0.6-1.5,0.5-2.2-0.2c-1.2-1.2-2.4-2.4-3.6-3.6C14.9,18.8,14.8,18.7,14.6,18.5z"/>
		<path class="st13" d="M9.1,34.1c1.6,0,3.3,0,4.9,0c0,0.5,0,1.1,0.1,1.6c0,0.4-0.1,0.6-0.6,0.6c-1.5,0-3,0-4.5,0
			C9.1,35.5,9.1,34.8,9.1,34.1C9.1,34.1,9.1,34.1,9.1,34.1z"/>
		<path class="st14" d="M14.1,30c0,0.7,0.1,1.5,0.1,2.2c-1.7,0-3.3,0-5,0c0,0,0-0.1-0.1-0.1c0-0.7,0-1.3,0-2c0,0,0,0,0,0
			C10.8,30,12.4,30,14.1,30z"/>
		<path class="st15" d="M9.1,36.2c1.5,0,3,0,4.5,0c0.4,0,0.6-0.1,0.6-0.6c0-0.5-0.1-1.1-0.1-1.6c0.6-0.1,1.1,0,1.5,0.5
			c0.5,0.6,1.1,1.1,1.7,1.7c-0.8,0-1.4,0-2,0c-1.9,0-3.8,0-5.7,0C9.4,36.3,9.3,36.2,9.1,36.2z"/>
		<path class="st8" d="M55.9,28.1c0.1,0,0.1,0,0.2-0.1C56,28.1,56,28.1,55.9,28.1z"/>
		<path class="st6" d="M9.1,30C9.1,30,9.1,30,9.1,30C9.1,30.1,9.1,30,9.1,30L9.1,30z"/>
		<path class="st6" d="M9.1,32.1c0,0,0,0.1,0.1,0.1C9.1,32.1,9.1,32.1,9.1,32.1z"/>
		<path class="st15" d="M9.1,34.1C9.1,34.1,9.1,34.1,9.1,34.1C9.1,34.1,9.1,34.1,9.1,34.1L9.1,34.1z"/>
		<path class="st16" d="M54.3,41.1c0-0.4,0-0.8,0-1.2c0-0.5,0.4-0.9,0.9-0.9c0.5,0,0.9,0.4,0.9,0.9c0,0.8,0,1.6,0,2.4
			c0,0.6-0.4,0.9-0.9,0.9c-0.5,0-0.9-0.4-0.9-0.9c0,0,0-0.1,0-0.1C54.3,41.8,54.3,41.5,54.3,41.1z"/>
		<path class="st17" d="M55.7,25.4c0,0.6-0.3,1-0.8,1.1c-0.5,0.1-0.9-0.2-1-0.6c-0.3-0.9-0.7-1.8-1.3-2.6c-0.2-0.2-0.4-0.4-0.6-0.6
			c-0.3-0.3-0.3-0.9,0-1.2c0.3-0.4,0.8-0.5,1.1-0.2C54.5,22.4,55.3,23.9,55.7,25.4z"/>
		<path class="st16" d="M44.4,25c-0.2,0.2-0.3,0.6-0.6,0.7c-0.3,0.1-0.8,0.1-1-0.1c-0.8-0.8-1.6-1.6-2.4-2.4c-0.3-0.4-0.3-0.9,0-1.2
			c0.3-0.3,0.9-0.4,1.2-0.1c0.9,0.8,1.7,1.7,2.5,2.5C44.3,24.6,44.4,24.8,44.4,25z"/>
		<path class="st17" d="M26.9,21.2c0.3,0.2,0.6,0.3,0.8,0.5c0.7,0.7,1.4,1.4,2.1,2.1c0.5,0.5,0.5,1,0.1,1.4
			c-0.4,0.4-0.9,0.3-1.3-0.1c-0.7-0.7-1.5-1.4-2.2-2.2c-0.3-0.3-0.4-0.7-0.2-1C26.3,21.6,26.6,21.4,26.9,21.2z"/>
		<path class="st18" d="M25,19.4c0.5,0,0.9,0.4,0.9,0.9c0,0.5-0.5,0.9-0.9,0.9c-0.5,0-0.9-0.4-0.9-0.9C24.1,19.9,24.5,19.4,25,19.4z
			"/>
		<path class="st19" d="M40.4,20.9c0,0.5-0.4,0.9-0.9,0.9c-0.5,0-1-0.4-1-0.9c0-0.5,0.4-0.9,0.9-0.9C39.9,20,40.4,20.4,40.4,20.9z"
			/>
	</g>
</g>
</svg>
