<?xml version="1.0" encoding="utf-8"?>
<!-- Generator: Adobe Illustrator 24.2.0, SVG Export Plug-In . SVG Version: 6.00 Build 0)  -->
<svg version="1.1" id="Layer_1" xmlns="http://www.w3.org/2000/svg" xmlns:xlink="http://www.w3.org/1999/xlink" x="0px" y="0px"
	 width="182" height="44" viewBox="0 0 182 44" style="enable-background:new 0 0 182 44;" xml:space="preserve">
<style type="text/css">
	.st0{fill:#433526;}
	.st1{fill:#E57466;}
	.st2{fill:#DE8D5E;}
	.st3{fill:#443627;}
	.st4{fill:#242222;}
	.st5{fill:#222020;}
	.st6{fill:#232121;}
	.st7{fill:#423425;}
	.st8{fill:#232222;}
	.st9{fill:#211F1F;}
	.st10{fill:#050505;}
	.st11{fill:#060606;}
	.st12{fill:#030303;}
	.st13{fill:#070707;}
	.st14{fill:#827A72;}
	.st15{fill:#FCFCFC;}
	.st16{fill:#F8F8F8;}
	.st17{fill:#FAFAFA;}
</style>
<path class="st0" d="M87.9,42.3H62.1c-4.2,0-8.4,0-12.6-0.1h-0.4v-0.6c0-10.8,0-21.6,0-32.3c0-0.4,0.1-0.7,0.4-0.9
	c3.3-2.2,6.5-4.5,9.7-6.7c0.2-0.2,0.5-0.3,0.8-0.1C67.1,3.9,74,6.3,80.9,8.7c0.1,0,0.2,0.1,0.3,0.2L59.7,3.3v37l11,0.4V29L81,29.8
	v11.7l6.9,0.5L87.9,42.3z"/>
<path class="st1" d="M42.4,42.2h-8.9c0-0.2,0-0.4,0-0.6c0-9.4,0-18.8,0-28.2c0-0.3,0.2-0.7,0.4-0.8c2.7-1.9,5.4-3.7,8.1-5.6
	c0.2-0.1,0.4-0.2,0.6-0.1c1.6,0.5,3.1,1,4.7,1.6c0.1,0,0.1,0.1,0.2,0.1l-5.1-0.2V42.2z"/>
<path class="st2" d="M31.4,19h-4.6v23.2h-6.9c0-0.2,0-0.4,0-0.6v-19c0-0.3,0.1-0.6,0.4-0.8c2-1.4,4.1-2.8,6.1-4.2
	c0.2-0.2,0.6-0.3,0.9-0.1C28.6,18,30,18.4,31.4,19L31.4,19z"/>
<path class="st3" d="M91.1,27.6l-28.7-3.1V13.1l1.1,0.2l21.2,4.9c0.2,0,0.4,0.2,0.5,0.4c1.9,2.9,3.8,5.8,5.7,8.7
	C93.8,31.7,91,27.4,91.1,27.6z M65.6,15.3c1.3,2.4,2.7,4.6,3.9,6.9c0.6,1.2,1.3,2,2.8,1.9c0.2,0,0.4,0,0.5,0.1L85.7,26l3.7,0.5
	c-0.1-0.1-0.2-0.3-0.2-0.4c-1.4-2.1-2.8-4.3-4.2-6.4c-0.2-0.3-0.5-0.5-0.8-0.6c-4-0.8-8-1.6-12-2.4L65.6,15.3z"/>
<path class="st4" d="M120.6,32.9h2.3l-2.6,9.5c-0.6,0-1.3,0-1.9,0c-0.1,0-0.3-0.2-0.3-0.4c-0.5-1.7-0.9-3.4-1.4-5
	c0-0.1-0.1-0.2-0.2-0.4c-0.6,2-1.1,3.9-1.6,5.8h-2.1l-2.7-9.5h2.4l1.5,5.9h0.2l1.5-5.9c0.6,0,1.2,0,1.7,0c0.1,0,0.3,0.2,0.3,0.3
	c0.5,1.8,0.9,3.6,1.4,5.4c0.7,2.7,0,0.1,0.1,0.2C119.6,36.8,120.1,34.9,120.6,32.9z"/>
<path class="st5" d="M109.9,20v9.5h-2.2v-5.7l-2.4,3.5c-0.4,0.6-0.4,0.6-0.8,0l-2.2-3c-0.1-0.1-0.2-0.3-0.4-0.5v5.7h-2.2V20
	c0.7,0,1.4,0,2.1,0c0.2,0,0.4,0.2,0.5,0.3c0.9,1.2,1.7,2.5,2.6,3.7c0.4-0.5,0.7-1,1-1.6c0.5-0.7,1-1.5,1.5-2.2
	c0.2-0.2,0.4-0.3,0.6-0.3C108.6,20,109.2,20,109.9,20z"/>
<path class="st5" d="M125.8,36.8v5.6h-2.3v-9.5c0.7,0,1.3,0,2,0c0.2,0,0.3,0.2,0.4,0.3c1.2,1.6,2.3,3.2,3.5,4.8l0.4,0.5v-5.5h2.2
	v9.5c-0.6,0-1.3,0-2,0c-0.2,0-0.3-0.2-0.5-0.4c-1.2-1.6-2.4-3.2-3.5-4.8C126,37.1,125.9,36.9,125.8,36.8z"/>
<path class="st6" d="M114.9,20.1c1.3-0.5,2.7,0.1,3.3,1.4c0.7,1.3,1.7,2.4,2.6,3.6c0.1,0.1,0.2,0.3,0.4,0.5V20h2.2v9.5
	c-0.7,0-1.3,0-2,0c-0.2,0-0.3-0.2-0.5-0.4c-1.2-1.6-2.3-3.2-3.5-4.7l-0.3-0.5v5.6h-2.2V20.1z"/>
<path class="st6" d="M109.9,37.7c0.1,2.9-2.2,5.4-5.1,5.4c-2.9,0.1-5.4-2.2-5.4-5.1c-0.1-2.9,2.2-5.4,5.1-5.4c0.1,0,0.3,0,0.4,0
	C107.7,32.7,109.9,34.9,109.9,37.7z M104.6,40.6c1.7,0,3-1.3,3-3s-1.3-3-3-3s-3,1.3-3,3l0,0C101.6,39.2,103,40.6,104.6,40.6
	L104.6,40.6z"/>
<path class="st6" d="M129.7,19.7c2.8,0.1,4.9,2.5,4.8,5.3s-2.5,4.9-5.3,4.8c-2.8-0.1-4.9-2.5-4.8-5.3c0-0.6,0.2-1.2,0.4-1.8
	C125.7,20.8,127.6,19.6,129.7,19.7z M132.6,24.7c0-1.7-1.3-3-3-3c-1.7,0-3,1.3-3,3c0,1.7,1.3,3,3,3
	C131.3,27.7,132.6,26.3,132.6,24.7C132.6,24.7,132.6,24.6,132.6,24.7L132.6,24.7z"/>
<path class="st6" d="M140.3,42.4v-9.5c1.4,0,2.8,0,4.1,0.2c2.4,0.3,4.1,2.6,3.8,5c0,0.1,0,0.3-0.1,0.4c-0.2,2.2-2.1,3.9-4.3,3.9
	C142.7,42.5,141.5,42.4,140.3,42.4z M142.6,35v5.3c1.1,0.3,2.3-0.2,2.9-1.2c0.6-1,0.6-2.2-0.1-3.1C144.8,35.2,143.6,34.7,142.6,35
	L142.6,35z"/>
<path class="st4" d="M135.9,20c1.5-0.1,3,0,4.5,0.2c1.2,0.2,2.2,1.3,2.3,2.5c0.2,1.3-0.5,2.5-1.6,3.1l-0.5,0.2l2.5,3.5
	c-0.9,0-1.8,0-2.6,0c-0.1,0-0.3-0.2-0.4-0.3c-0.6-0.9-1.2-1.7-1.9-2.7v3h-2.3V20z M138.2,24.6c0.8,0,1.6,0.1,2-0.7
	c0.3-0.4,0.3-0.9,0-1.3c-0.5-0.7-1.3-0.6-2-0.6V24.6z"/>
<path class="st7" d="M68.1,36.9l-5.7-0.2v-8.3l5.7,0.4V36.9z"/>
<path class="st8" d="M135.8,40.4h3.2v2h-5.6v-9.5h5.4v2h-3.2v1.7h2.9v1.8h-2.9L135.8,40.4z"/>
<path class="st6" d="M162.1,20l-2.2,4.4c-0.3,0.6-0.6,1.2-0.9,1.8c-0.1,0.2-0.2,0.5-0.1,0.7c0,0.9,0,1.7,0,2.6h-2.3
	c0-0.7,0-1.5,0-2.2c0-0.5-0.1-1-0.4-1.5c-0.9-1.8-1.8-3.5-2.7-5.3c-0.1-0.1-0.1-0.2-0.2-0.5c0.8,0,1.6,0,2.3,0
	c0.1,0,0.2,0.2,0.3,0.4c0.6,1.3,1.2,2.6,1.8,4c0.4-0.9,0.9-1.8,1.3-2.6c0.2-0.5,0.4-0.9,0.7-1.4c0.1-0.2,0.2-0.3,0.4-0.3
	C160.7,20,161.3,20,162.1,20z"/>
<path class="st5" d="M153,20v2h-1.8v7.4H149V22h-1.8v-2H153z"/>
<path class="st3" d="M86.8,37.6h-3.5v-7.6l3.5,0.3V37.6z"/>
<path class="st9" d="M146.3,29.5H144V20h2.3L146.3,29.5z"/>
<path class="st9" d="M113.6,19.9v9.6h-2.3v-9.6H113.6z"/>
<path class="st10" d="M142.4,16.2V8.7c0.6-0.2,1.2,0,1.5,0.6c1.2,1.8,2.4,3.5,3.7,5.3V8.7h0.9v7.5c-0.5,0.2-1.1,0-1.3-0.5
	c0,0,0,0,0,0c-1.2-1.8-2.5-3.6-3.8-5.4v6L142.4,16.2z"/>
<path class="st11" d="M132.8,12.5c-0.1-2.3,1.7-4.2,4-4.3c2.3-0.1,4.2,1.7,4.3,4c0.1,2.3-1.7,4.2-4,4.3c0,0-0.1,0-0.1,0
	C134.7,16.5,132.9,14.7,132.8,12.5C132.8,12.5,132.8,12.5,132.8,12.5z M133.8,12.5c0.1,1.7,1.6,3.1,3.3,3c1.6-0.1,2.9-1.4,3-3
	c0-1.7-1.4-3.1-3.2-3.1C135.3,9.3,133.9,10.7,133.8,12.5L133.8,12.5z"/>
<path class="st11" d="M115.1,12.5c0,2.3-1.8,4.2-4.1,4.2c-2.3,0-4.2-1.8-4.2-4.1s1.8-4.2,4.1-4.2c0,0,0.1,0,0.1,0
	c2.2,0,4,1.7,4.1,3.9C115.1,12.4,115.1,12.5,115.1,12.5z M114.1,12.5c0-1.7-1.4-3.2-3.1-3.2c-1.7,0-3.2,1.4-3.2,3.1
	c0,1.8,1.5,3.2,3.2,3.2C112.7,15.7,114.2,14.3,114.1,12.5L114.1,12.5z"/>
<path class="st11" d="M100.9,16.2h-0.9V8.7h0.9v3.1h3.7V8.7h1v7.6h-0.9v-3.6h-3.7L100.9,16.2z"/>
<path class="st12" d="M116.5,8.7h0.9v0.5c0,1.5,0,2.9,0,4.4c-0.1,1,0.6,1.9,1.6,2.1c0.4,0,0.7,0,1-0.2c0.7-0.4,1.2-1.2,1.1-2V8.7
	h0.9c0,1.8,0.1,3.5,0,5.3c-0.1,1.5-1.4,2.6-2.9,2.5c-1.3-0.1-2.4-1.2-2.5-2.5C116.4,12.2,116.5,10.5,116.5,8.7z"/>
<path class="st13" d="M123.3,15.2c0.6,0.1,1.3,0.3,1.9,0.3c0.6,0.1,1.2-0.3,1.4-0.8c0.2-0.6-0.1-1.2-0.6-1.5
	c-0.6-0.4-1.2-0.8-1.8-1.2c-0.4-0.3-0.7-0.8-0.9-1.3c-0.2-0.9,0.3-1.8,1.2-2.1c0.1,0,0.3-0.1,0.4-0.1c0.4-0.1,0.9-0.1,1.3,0
	c0.8,0.1,0.8,0.2,0.7,1.1c-0.4-0.1-0.7-0.2-1.1-0.2c-0.3,0-0.6,0-0.9,0.1c-0.5,0.1-0.8,0.6-0.7,1c0,0.2,0.1,0.3,0.2,0.4
	c0.3,0.3,0.6,0.6,1,0.8c0.3,0.3,0.7,0.4,1.1,0.7c0.9,0.5,1.3,1.5,1,2.4c-0.3,1-1.2,1.6-2.2,1.5c-0.4,0-0.8,0-1.2-0.1
	C123.3,16.1,123.3,16.1,123.3,15.2z"/>
<path d="M129.8,9.5h-1.6V8.7h4v0.8h-1.5v6.7h-0.9L129.8,9.5z"/>
<path class="st14" d="M87.9,42.3v-0.2l1.8,0.1v0.1H87.9z"/>
<path class="st15" d="M107.6,37.7L107.6,37.7c0,1.6-1.4,2.9-3,2.9c-1.7,0-3-1.3-3-3c0-1.7,1.3-3,3-3"/>
<path class="st16" d="M142.6,40.3l0-5.3c1.1-0.3,2.2,0.1,2.9,1"/>
<path class="st17" d="M140.2,23.9c-0.4,0.8-1.2,0.7-2,0.7V22"/>
<path class="st15" d="M137,15.6c0,0-0.1,0-0.1,0c-1.7,0-3.1-1.4-3.1-3.1c0-1.8,1.3-3.2,3.1-3.2"/>
<path class="st15" d="M114.2,12.5c0,1.7-1.4,3.1-3.2,3.1c-1.7,0-3.1-1.5-3.2-3.2"/>
</svg>
