<?xml version="1.0" encoding="utf-8"?>
<!-- Generator: Adobe Illustrator 24.1.2, SVG Export Plug-In . SVG Version: 6.00 Build 0)  -->
<svg version="1.1" id="Layer_1" xmlns="http://www.w3.org/2000/svg" xmlns:xlink="http://www.w3.org/1999/xlink" x="0px" y="0px"
	 width="182" height="44" viewBox="0 0 182 44" style="enable-background:new 0 0 182 44;" xml:space="preserve">
<style type="text/css">
	.st0{fill:#C40101;}
	.st1{fill:#255D8B;}
	.st2{font-family:'KeepCalm-Medium';}
	.st3{font-size:23.1861px;}
	.st4{fill:#666666;}
	.st5{font-size:12px;}
</style>
<path class="st0" d="M15.1,7.2C14,7.1,12.9,7.2,12,7c-0.6-0.2-1.1-0.9-1.7-1.4c0.5-0.6,1.1-1.8,1.6-1.8c5.8,0,11.7-0.5,17.3,0.6
	c7.6,1.5,11.7,9.7,9.2,17.2c-2.4,7.4-7.6,13-13,18.8c-0.9-1-2-1.7-2.4-2.7c-0.5-1-0.7-2.3-0.4-3.3c0.9-2.8,2.1-5.6,3.3-8.3
	c0.3-0.7,0.9-1.5,1.5-2c3.9-2.6,4.8-8.3,1.7-11.9c-2.1-2.5-5.3-2.6-7.5-0.1c-2.7,3-2.6,8.4,0.5,11c1.5,1.3,1.4,2.3,0.8,3.7
	c-0.4,0.9-0.8,1.8-1.3,2.7c-2,3.6-1.8,3.5-4.9,0.8c-1.1-0.9-3-0.9-4.5-1.1c-1.2-0.2-3,0.3-2.9-1.6c0-0.6,1.7-1.2,2.7-1.8
	c0.5-0.3,1.1-0.7,1.6-1.1c-0.6-0.6-1.1-1.6-1.7-1.7c-1.7-0.3-3.5,0.1-5.1-0.2c-0.9-0.2-1.7-1.1-2.6-1.6c0.9-0.6,1.7-1.3,2.7-1.6
	c0.9-0.3,2.1,0.2,2.9-0.1c0.8-0.3,1.7-1.1,1.9-1.8c0.4-1.4-0.4-2.1-2-2.1c-1.5,0-3.9,0.8-3.8-1.7c0.1-2.4,2.5-1.5,3.9-1.6
	C12.8,12.1,13.7,11.4,15.1,7.2z"/>
<text transform="matrix(1 0 0 1 44.0527 25.3998)" class="st1 st2 st3">SoDelivery</text>
<text transform="matrix(1 0 0 1 42.6212 38.0731)" class="st4 st2 st5">campo grande</text>
</svg>
