<?xml version="1.0" encoding="utf-8"?>
<!-- Generator: Adobe Illustrator 24.1.2, SVG Export Plug-In . SVG Version: 6.00 Build 0)  -->
<svg version="1.1" id="Layer_1" xmlns="http://www.w3.org/2000/svg" xmlns:xlink="http://www.w3.org/1999/xlink" x="0px" y="0px"
	 width="64" height="64" viewBox="0 0 64 64" style="enable-background:new 0 0 64 64;" xml:space="preserve">
<style type="text/css">
	.st0{fill:#701816;}
	.st1{fill:#6C1918;}
	.st2{fill:#642020;}
	.st3{fill:#F4E7E3;}
	.st4{fill:#721212;}
	.st5{fill:#E62339;}
	.st6{fill:#D5C5D0;}
	.st7{fill:#F2A453;}
	.st8{fill:#EED7D4;}
	.st9{fill:#F3A64B;}
	.st10{fill:#A4C350;}
	.st11{fill:#942A2F;}
	.st12{fill:#CAD3E1;}
	.st13{fill:#A75E5E;}
	.st14{fill:#E1E5ED;}
	.st15{fill:#B1B0B0;}
	.st16{fill:#FBB126;}
</style>
<path class="st0" d="M33.9,19c0.1,0,0.2,0,0.3,0v0.1c-0.1,0-0.1,0.1-0.2,0.1c0,0.1,0,0.1-0.1,0.2c0.1,0,0.2,0,0.3,0h0.1l0,0
	c0.1,0.1,0.3,0.3,0.4,0.4l0,0c0.1,0.1,0.1,0.1,0.2,0.2l0,0c-0.1,0.2-0.1,0.4-0.2,0.6c0.2,0,0.5-0.1,0.7-0.1l0,0
	c0,0.1,0.1,0.1,0.1,0.2l0,0c0.1,0,0.1,0.1,0.2,0.1l0,0c0.1,0.1,0.2,0.3,0.3,0.4l0,0c0.1,0.1,0.2,0.2,0.3,0.3l0,0
	c0.2,0.2,0.4,0.4,0.6,0.5l0,0c0.1,0,0.1,0.1,0.2,0.1c0.2,0.3,0.4,0.5,0.6,0.9c0.5,0.5,1.2,1.2,1.7,1.7c0.3,0.3,0.6,0.7,0.9,1.1
	c0.1-0.1,0.1-0.1,0.2-0.2c-0.3-0.3-0.7-0.5-1.1-0.9c-0.3-0.3-0.5-0.6-0.9-1.1c0.2-0.1,0.3-0.2,0.5-0.2c0.2,0,0.4,0.1,0.4-0.2l0,0
	l0,0c0.6,0.1,0.5-0.5,0.6-0.9l0,0c0.1,0,0.3,0,0.4-0.1c0.5-0.4,1.2-0.5,1.9-0.5c0.6,0,1.1,0,1.6,0.3c0.3,0.1,0.6,0.2,0.5,0.6
	c0.2,0,0.4-0.1,0.6-0.1l0,0c0,0.2,0,0.4,0.1,0.6c0.1,0.3,0.3,0.5,0.4,0.9c0.3,0.6,0,1.3,0.1,1.9c-0.1,0.1-0.1,0.2-0.2,0.3v0.1
	c-0.2,0.2-0.4,0.4-0.5,0.6l0,0l0,0c0.1-0.1,0.3-0.1,0.4-0.2c0.5,0,1,0.4,1.4,0.2c0,0,0.1,0,0.1,0.1c0.4,0.5,1.3,0.5,1.6,1.3
	c0.1,0.2,0.3,0.3,0.5,0.4c0.6,0.3,1.4,0.5,2,0.7c0.1,0,0.1,0,0.2,0c0.3,0,0.6,0,1,0.1c1.1,0.2,1.9,1.1,3.1,1.1
	c0.1,0,0.1,0.2,0.2,0.3c0.1,0.1,0.1,0.3,0.3,0.4c0.1,0.1,0.3,0.2,0.4,0.3c-0.2,0.1-0.4,0.1-0.6,0.2v-0.1c0.1-0.1,0.2-0.1,0.2-0.2
	l-0.1-0.1c0,0.1-0.1,0.1-0.1,0.2c-0.4-0.1-0.7-0.2-1.2-0.3c0-0.2,0-0.4,0-0.6c-0.2,0.1-0.3,0.2-0.3,0.2c0.1,0.4,0.1,0.7,0.2,1
	c0.2,0.1,0.4,0.1,0.6,0.2c-0.1,0.2-0.1,0.5-0.2,0.7c0.3-0.1,0.5-0.1,0.7-0.1c0,0.2-0.1,0.4-0.1,0.5s0,0.2,0.1,0.4
	c0.1-0.2,0.2-0.4,0.3-0.5c0.1,0.1,0.2,0.1,0.2,0.2c0.3,0.9,0.7,1.7,1.1,2.6c0,0.1-0.1,0.3-0.1,0.4c0,0.1-0.2,0.2-0.2,0.3
	c0.1,0.9-0.6,1.4-0.9,2.1c-0.2-0.1-0.3-0.2-0.4-0.3c-0.1,0.1-0.3,0.3-0.3,0.4c0.3,0.6-0.2,0.7-0.5,1c-0.3,0.3-0.6,0.6-1,0.9
	c-0.2,0-0.4,0-0.6,0c0,0.3-0.1,0.4-0.6,0.4c0-0.1,0.1-0.2,0.1-0.3l0,0l0,0c-0.5-0.1-0.6,0.3-0.6,0.5c-0.5,0.3-1.1,0.2-1.6,0.7
	c-0.4,0.4-1.2,0.5-1.8,0.7c-0.2,0-0.7,0.2-0.6-0.4l0,0c0-0.1,0-0.3,0-0.3c0.5-0.3,1.1-0.5,1.5-0.9c0.5-0.3,1.1-0.5,1.5-0.9
	c0.4-0.3,0.9-0.6,1.4-1.1c-0.2-0.1-0.3-0.1-0.4-0.2c0.1-0.1,0.1-0.1,0.2-0.2c0.1-0.1,0.1-0.2,0.2-0.2l0,0c0.2-0.1,0.4-0.2,0.5-0.3
	c0.3,0.2,0.6,0.3,0.9,0.4l0.1-0.1c-0.2-0.2-0.5-0.4-0.6-0.6c0.1-1.1,0.2-2,0.2-3c0,0-0.2-0.1-0.3-0.2c-0.2-0.4-0.3-0.9-0.5-1.3
	c-0.1-0.3-0.3-0.3-0.5-0.1c0,0.1,0,0.1,0,0.2c-0.2-0.1-0.4-0.2-0.7-0.3c0.1,0.3,0.2,0.6,0.2,0.9c0.1,0.3,0.1,0.6,0.2,1
	c-0.1,0-0.3,0.1-0.4,0.1c-0.4,0-0.6-0.3-0.6-0.7c0-0.4-0.1-0.9-0.1-1.3c-0.1,0-0.2,0-0.2,0c-0.1,0.5-0.1,1.2-0.2,1.7
	c-0.1,0-0.3-0.1-0.4-0.1c-0.1-0.1-0.2-0.2-0.3-0.3c0-0.1-0.1-0.1-0.1-0.2c-0.1,0-0.1-0.1-0.2-0.1l-0.1-0.1l-0.1-0.1
	c-0.2-0.2-0.4-0.4-0.6-0.6c-0.2-0.2-0.3-0.4-0.5-0.6c-0.6-0.6-1.3-1.2-1.9-1.7c-0.3-0.3-0.6-0.6-1-1c-0.1-0.1-0.3-0.2-0.4-0.3
	l-0.1-0.1c-0.1-0.2-0.2-0.4-0.3-0.6c0.2-0.1,0.4-0.2,0.5-0.3c1-0.2,1.8-0.2,2.4,0.6c0.5,0.7,0.7,1.6,1.1,2.3
	c0.5-0.3,1.2-0.6,1.9-1.1c-1.5-1.1-2.9-2.1-4.3-3.2c-0.5,0.4-1,0.7-1.3,1c-0.2,0.1-0.5,0.1-0.7,0.2c-0.5-0.4-1-0.9-1.5-1.3
	c0-0.1,0-0.1,0-0.2c1,0.2,1.8,0,2.3-0.9c0.5-1,0.4-1.9-0.3-2.7c-0.5-0.5-1.7-1-2.7-0.1c-1.1,0.6-1.2,2.9,0.3,3.6
	c0.1,0.1,0.2,0.2,0.3,0.3c0.4,0.4,0.7,0.9,1.2,1.4c-0.2,0-0.4,0.1-0.6,0.1c-1.8,0-3-1.1-3.6-3c0-0.3,0-0.6-0.1-1.1
	C39,25,38.7,25,38.5,25c-0.1,0.3-0.1,0.6-0.2,1c-0.4,1.2-1.2,2-2.3,2.4c-1.3,0.3-2.4,0.1-3.5-0.6c0,0.2-0.1,0.3-0.1,0.4
	c-0.3,0.5-0.6,1.1-1.1,1.6c-0.7,0.5-1.5,1-2.3,1c-1.3,0-2.3-0.5-3.2-1.5c-0.2-0.3-0.4-0.6-0.5-1.1c0-0.1-0.1-0.1-0.1-0.2
	c-0.1-0.5-0.2-1-0.2-1.5c0-0.2-0.1-0.4-0.1-0.5s0-0.2,0-0.2l0,0c0.3-0.2,0.3-0.4,0-0.6c-0.2-0.1-0.4-0.2-0.5-0.3
	c-0.5,0.3-1.1,0.5-1.6,0.7c-0.1,0.1-0.2,0.2-0.4,0.4l0,0l-0.1,0.1c-0.1,0-0.1,0-0.2,0l-0.1,0.1l0,0c-0.3,0-0.9-0.2-0.9,0.3l0,0l0,0
	c-0.1,0-0.2,0-0.3,0v0.1c0.1,0,0.3,0,0.4,0.1l0,0c0,0,0,0,0,0.1c0,0,0,0,0-0.1c0.1,0,0.1,0,0.2,0c0.1,0.1,0.1,0.2,0.2,0.2
	c0.9,0.9,1.1,2.2,0.3,3.1c-0.7,0.9-1.8,1.5-3,0.6c-0.9-0.6-1.2-1.4-1.1-2.6c-0.4,0.3-0.6,0.4-1,0.6c-0.1,0.1-0.3,0.2-0.4,0.3
	c-0.3,0.2-0.6,0.4-1,0.6c-0.1,0.1-0.2,0.1-0.2,0.2c-0.1,0.1-0.2,0.2-0.3,0.3c0.3,0.3,0.5,0.6,0.2,1c-0.4,0.4-0.7,0.1-1-0.2
	c-0.4,0.4-0.9,0.9-1.3,1.3l0,0c-0.2-0.2-0.4-0.4-0.5-0.5l0,0c-0.2-0.2-0.4-0.4-0.6-0.6l0,0c-0.2-0.3-0.4-0.6-0.7-1
	c0.1,0,0.1-0.1,0.2-0.2c0.2-0.1,0.4-0.1,0.6-0.2c0.1,0,0.1,0.1,0.2,0.1c0,0,0,0,0-0.1c-0.1,0-0.2,0-0.2,0c0.6-0.2,1.4-0.6,2-0.6
	c0.9,0,1.2-0.6,1.8-1c0.9-0.4,1.6-1.2,2.6-1.6c1-0.5,1.9-1,2.9-1.4c0.9-0.4,1.7-0.9,2.7-1l0,0c0.1,0,0.2,0,0.2,0.1c0,0,0,0,0-0.1
	c-0.1,0-0.2,0-0.2,0c0.5-0.2,1-0.4,1.5-0.5c0.4-0.1,0.5-0.3,0.6-0.6c0.4-1.6,2.1-1.7,3.2-1.2c0.3,0.2,0.5,0.4,0.9,0.5
	c0.2,0.1,0.4,0.1,0.5,0.1c0-0.2,0.1-0.4,0.1-0.6c-0.1-0.6-0.2-1.3-0.3-1.8c0,0,0.1,0,0.1-0.1c0.1,0.2,0.2,0.3,0.3,0.5
	c0.1,0.2,0.2,0.4,0.3,0.7c0.1,0,0.1,0,0.2,0c0-0.1,0-0.2,0-0.2l0,0c0.3-0.2,0.4-0.2,0.2-0.9c0.1,0,0.2-0.1,0.3-0.1
	c0-0.1-0.1-0.2-0.1-0.3c0.1,0.1,0.2,0.2,0.3,0.2c0.4,0,1-0.1,1.4-0.2C33.7,19.3,33.8,19.1,33.9,19z M28.1,27.5
	c0.7-0.4,1.3-1.1,1.8-1.7l-0.1-0.1C29.1,26.2,28.6,26.7,28.1,27.5c-0.1,0-0.1,0.1-0.1,0.1c-0.1-0.2-0.3-0.5-0.4-0.7
	c-0.2-1.1-0.4-2.2-0.6-3.2c-0.9,1.7,0.2,4.8,1.7,5c-0.2-0.3-0.4-0.7-0.6-1.1C28,27.5,28.1,27.5,28.1,27.5z M20.9,28.8
	c0.3-0.3,0.2-0.6-0.1-0.9c-0.2-0.2-0.5-0.3-0.7,0c-0.4,0.3-0.3,0.6,0,1C20.2,29.3,20.6,29.2,20.9,28.8z M54.3,32.8
	c0.3,0.9,0.7,1.8,0.9,2.8s0,1.9,0,2.9c1.2-0.5,1.7-2.2,1.1-3.5C55.8,34,55.1,33.4,54.3,32.8z M36.9,25.6c0.9-1.4-0.6-4.5-2.1-4.6
	C35.8,22.4,36.9,23.7,36.9,25.6z M45.4,27.5c0-0.1-0.1-0.1-0.1-0.2c-0.3,0.3-0.7,0.5-1.2,0.9c0,0,0.1,0.1,0.1,0.2
	C44.7,28.1,45.1,27.8,45.4,27.5z M54.7,39.6h0.1c0-0.1-0.1-0.2-0.1-0.2s0,0-0.1,0C54.6,39.4,54.6,39.5,54.7,39.6z M21,25.9L21,25.9
	c0,0.1,0,0.1,0,0.1C21.1,26,21.1,26,21,25.9C21.1,25.9,21,25.9,21,25.9z M23.9,24.5C23.8,24.5,23.8,24.5,23.9,24.5
	C23.8,24.5,23.8,24.5,23.9,24.5C23.8,24.5,23.8,24.5,23.9,24.5z"/>
<path class="st0" d="M6.6,43.4c-0.3-0.3-0.7-0.5-1.1-0.9c-1.4-1.5-2.8-3-3.4-5c-0.4-1.5-0.1-2.9,1-4c0.2-0.1,0.3-0.1,0.5-0.2
	c0.2-0.1,0.4-0.1,0.6-0.2c0-0.9,0.7-0.7,1.3-0.9c0.1-0.2,0.1-0.4,0.2-0.5c0.5-0.4,1.4-0.2,1.7-1h0.1c0.3-0.1,0.6-0.3,1.1-0.4
	c0.7-0.3,1.5-0.5,2.2-0.9c0.4,0.4,0.7,0.7,1.2,1.2l0,0c0.2,0.2,0.4,0.4,0.6,0.6l0,0c0.2,0.2,0.4,0.4,0.5,0.5l0,0
	c-0.3,0.4-0.6,1-1,1.4c-0.4,1-1,1.8-1.2,2.8c-0.3,1.1-0.1,2.2,0.6,3.1c0.3,0.3,0.5,0.6,0.9,1c1.2,1,2.6,1.6,3.9,1.9
	c1.9,0.4,3.9,0.9,5.8,1.2c1.2,0.2,2.3,0.2,3.4,0.3c0.2-0.3,0.4-0.5,0.5-0.7c0.5,0,0.7,0.3,0.7,0.9c0.6,0,1.2,0,1.8,0
	c-1.1-1.6-1-3.1,0-4.6c0.1-0.1,0.2-0.2,0.4-0.3c1.2-1.1,2.9-1.2,4.3-0.4c1.4,0.9,2,2.4,1.6,4c-0.1,0.4-0.4,0.9-0.6,1.4
	c1.7-0.1,3.3-0.2,4.8-0.2c0-0.4,0-0.7,0.1-1c0.1-0.1,0.5-0.2,0.5-0.1c0.2,0.2,0.3,0.5,0.5,1c0.9-0.1,1.8-0.2,2.8-0.4
	c1-0.1,1.9-0.3,2.9-0.5v-0.1c-0.1,0-0.1-0.1-0.2-0.1v-0.1c0.3-0.2,0.5-0.5,0.4-1c0.3,0.1,0.4,0.4,0.3,0.7c0,0.1,0,0.3,0,0.4
	c0,0.1,0,0.2,0,0.3c-0.1,0.3-0.3,0.4-0.6,0.3c-0.1,0-0.3-0.1-0.4-0.1c-0.3,0.1-0.5,0.2-1,0.4c0.2,0.3,0.5,0.6,0.9,1
	c-0.4,0.1-0.7,0.2-1.2,0.2c-2.1,0.3-4.3,0.7-6.4,1c-3.5,0.3-7,0.3-10.6,0.1c-3.5-0.2-7-0.6-10.4-1.6c-2.7-0.6-5.3-1.7-7.7-3.1
	c-0.1-0.1-0.2-0.2-0.4-0.3l0,0c-0.1-0.1-0.3-0.2-0.4-0.3l0,0C8.2,40,8.2,40,8.1,39.9l0,0l0,0L8,39.8l0,0l-0.1-0.1l0,0
	c-0.2-0.2-0.4-0.4-0.6-0.7l0,0l0,0c-0.1-0.1-0.1-0.2-0.2-0.2l0,0c-0.1-0.1-0.2-0.2-0.3-0.4l0,0c0-0.1-0.1-0.1-0.1-0.2l0,0
	c-0.7-1.3-0.7-2.7-0.1-4l0,0c0-0.1,0.1-0.1,0.1-0.2l0,0C6.8,33.5,7,33.3,7.1,33l0,0c0.1-0.1,0.1-0.1,0.2-0.2l0,0
	c0.4-0.4,0.9-0.7,1.3-1.2c0,0,0.1,0,0.1-0.1c0,0-0.1,0-0.1,0.1c-0.5,0.2-1.1,0.5-1.6,0.7l0,0c-0.1,0-0.1,0.1-0.2,0.1l0,0
	c-0.3,0.3-0.5,0.4-0.9,0.6l0,0l0,0c-0.1,0-0.1,0.1-0.2,0.1l0,0c-0.1,0-0.1,0.1-0.2,0.1l0,0l-0.1,0.1c-0.1,0-0.1,0.1-0.2,0.1
	c-0.3,0.2-0.5,0.5-0.9,0.7l0,0l0,0l-0.1,0.1l0,0c-0.1,0.1-0.1,0.2-0.2,0.2l0,0c-0.7,1-0.9,1.9-0.1,3.2l0,0c0.2,0.3,0.4,0.6,0.5,1.1
	l0,0c0.1,0.2,0.3,0.4,0.4,0.6l0,0c0,0.1,0.1,0.1,0.1,0.2l0,0l0.1,0.1c0.1,0.2,0.3,0.4,0.4,0.5c0.6,0.7,1.4,1.4,2,2.1
	C7.4,42.9,6.9,43.2,6.6,43.4z M8.3,37.9L8.4,38c0.3,0.3,0.7,0.7,1.1,1.1c-0.7-2.7,0.2-4.9,1.6-7L11,32c-0.5,0.4-1.1,0.9-1.7,1.2
	c-0.4,0.4-1,0.9-1.4,1.4c-0.5,1.2-0.5,2.1,0.2,3.1C8.2,37.7,8.2,37.8,8.3,37.9z M6.3,32.1c-0.3,0.3-0.7,0.5-1.1,0.9
	C5.3,33,5.3,33,5.4,33.1C5.7,32.8,6,32.5,6.3,32.1c0.1,0,0.1,0,0.2-0.1l-0.1-0.1C6.3,32,6.3,32.1,6.3,32.1z M30.2,40.1
	c-0.6,1-0.6,2,0.2,2.8c0.9,0.7,1.7,0.6,2.8-0.2c0.7-1.1,0.6-2.1-0.3-2.9C32.1,39.2,31.1,39.4,30.2,40.1z M46.3,42.6
	C46.4,42.6,46.4,42.6,46.3,42.6C46.4,42.6,46.4,42.6,46.3,42.6C46.4,42.6,46.4,42.5,46.3,42.6C46.3,42.5,46.3,42.6,46.3,42.6z"/>
<path class="st1" d="M56.4,32c0.2-0.1,0.4-0.1,0.6-0.2c0.1,0,0.2,0,0.4,0l-0.1,0.1c0.1,0.2,0.2,0.4,0.4,0.5c0.6,0.3,0.2-0.6,0.5-0.6
	c-0.1-0.2-0.2-0.3-0.2-0.5c1.1,0.5,2.1,1.3,2.9,2.1c1.3,1.4,1.4,3,0.6,4.7c-1,2.1-2.4,3.8-4.1,5.3c-5.3,4.8-11.6,7.8-18.6,9.1
	c-0.3,0.1-0.6,0.1-0.9,0.1c0.3-0.6,0.3-0.9-0.2-1.4c0.9-0.2,1.7-0.3,2.6-0.5c2.7-0.6,5.3-1.6,7.8-2.9c1.1-0.5,2-1.2,3.1-1.7l0,0
	c1.2-0.7,2.3-1.5,3.4-2.3c0.7-0.5,1.5-1.3,2.1-1.9c-0.3-0.2-0.6-0.1-0.9,0.4c0,0,0,0-0.1,0c0,0-0.1,0-0.1,0.1l0,0
	c-0.2,0.1-0.4,0.2-0.6,0.4l0,0c-0.1,0-0.1,0.1-0.2,0.1l0,0l0,0c-0.9,0-1.5,0.5-2.2,1c-0.1,0-0.1,0.1-0.2,0.1
	c-0.5,0.2-1.1,0.4-1.6,0.6c-0.1,0-0.1,0-0.2,0.1c-0.2,0-0.3,0-0.5,0c-1.5,0.4-2.9,0.7-4.4,1.2c-0.3,0.1-0.5,0-0.9,0
	c0-0.1,0-0.1,0-0.2c0.2-0.1,0.5-0.2,0.7-0.3c0.5-0.2,1.1-0.4,1.6-0.5c1.1-0.3,2.2-0.6,3.3-1.1c2.3-0.9,4.6-1.8,6.6-3.3l0.1-0.1l0,0
	l0.1-0.1l0,0c0.7-0.6,1.5-1.2,2.1-1.9c1.2-1.3,1.2-2.9-0.1-4.1C58.7,33.3,57.5,32.7,56.4,32C56.4,32.1,56.4,32.1,56.4,32z
	 M51.9,47.4c-0.7-0.7-1-0.7-1.3,0C51,47,51.5,48,51.9,47.4z"/>
<path class="st1" d="M37.2,53c-8.4,1.2-16.2-0.5-23.6-4.5c-0.1,0-0.2-0.1-0.3-0.2c0.1-0.4,0.3-1,0.4-1.4c0.9,0.4,1.7,0.9,2.6,1.3
	c4.3,2,8.6,3.3,13.3,3.5c2.2,0.1,4.4-0.1,6.6-0.1c0.1,0,0.3,0,0.5,0.1C36.5,52.3,36.9,52.6,37.2,53z"/>
<path class="st2" d="M10.8,29.6c-0.7,0.3-1.5,0.5-2.2,0.9c-0.3,0.1-0.6,0.3-1.1,0.4H7.4c-0.3,0.7-1.2,0.5-1.7,1
	c-0.1,0.1-0.1,0.3-0.2,0.5c-0.5,0.1-1.3,0-1.3,0.9c-0.2,0.1-0.4,0.2-0.6,0.2c-0.2,0.1-0.3,0.1-0.5,0.2c1-1.2,2.1-1.9,3.4-2.6
	c2.4-1.3,5.1-2,7.8-2.7c0.3-0.1,0.6-0.3,1-0.5c3-2.2,6.2-3.7,9.7-4.7c0.2,0,0.4-0.2,0.5-0.3c0.7-2.1,2.4-2.3,4.3-1.2
	c0.2,0.1,0.4,0.3,0.9,0.4c-0.1-0.6-0.2-1.3-0.4-1.8c-0.4-1.1-0.9-2-1.2-3.1c-0.9-2.3-0.5-4.6,0.5-6.7c0.3-0.5,0.5-1.1,0.9-1.7
	l0.1-0.1c0.1,0,0.1,0,0.2,0c0.2,0.1,0.4,0.3,0.5,0.4c-0.3,0.5-0.5,1-0.9,1.5c-0.7,1.5-1.4,3.1-1.1,4.8c0.2,1.2,0.6,2.2,1.1,3.3
	c0.2,0.7,0.5,1.5,0.7,2.2c-0.1-0.2-0.2-0.5-0.3-0.7s-0.2-0.3-0.3-0.5c0,0-0.1,0-0.1,0.1c0.1,0.6,0.2,1.3,0.3,1.8
	c0,0.2,0,0.4-0.1,0.6c-0.2,0-0.4,0-0.5-0.1c-0.3-0.1-0.5-0.3-0.9-0.5c-1.1-0.5-2.9-0.4-3.2,1.2c-0.1,0.3-0.2,0.5-0.6,0.6
	c-0.5,0.1-1,0.3-1.5,0.5c-1,0.1-1.8,0.5-2.7,1c-1,0.4-1.9,0.9-2.9,1.4c-0.9,0.5-1.6,1.2-2.6,1.6c-0.6,0.3-1,1-1.8,1
	c-0.6,0-1.4,0.4-2,0.6l0,0c-0.2,0.1-0.4,0.1-0.6,0.2C11.2,29.6,11,29.6,10.8,29.6z"/>
<path class="st3" d="M31.2,20.9c-0.2-0.7-0.5-1.5-0.7-2.2c-0.3-1.1-0.9-2.1-1.1-3.3c-0.4-1.7,0.2-3.3,1.1-4.8c0.2-0.5,0.5-1,0.9-1.5
	c-0.2-0.1-0.4-0.3-0.5-0.4c0.1-0.1,0.2-0.3,0.3-0.2c0.5,0.1,0.9,0.9,0.7,1.3c0,0.2,0.1,0.3,0.1,0.5c0,0.1,0.2,0.1,0.2,0.2
	c0.5,0.6,0.5,0.9-0.3,1.1c0.1-0.2,0.2-0.4,0.3-0.6c-0.2-0.2-0.4-0.3-0.6-0.5c-1.2,1.7-1.9,3.4-1.5,5.4c0.3,1.3,1,2.6,1.4,3.8
	c0.1,0.3,0,0.6,0,1l0,0c0,0.1,0,0.2,0,0.2C31.3,20.9,31.3,20.9,31.2,20.9z"/>
<path class="st2" d="M31.4,20.6c0-0.3,0.1-0.6,0-1c-0.4-1.3-1.1-2.6-1.4-3.8c-0.5-2,0.3-3.8,1.5-5.4c0.2,0.2,0.4,0.4,0.6,0.5
	c-0.1,0.2-0.2,0.4-0.3,0.6c-1,1.5-1.3,3.1-0.6,4.9c0.3,1,0.7,1.9,1.2,2.9c0.5-0.3,1.1-0.6,1.7-0.3c-0.1,0.1-0.2,0.3-0.3,0.3
	c-0.4,0.1-1,0.2-1.4,0.2c-0.1,0-0.2-0.1-0.3-0.2c-0.1-0.3-0.1-0.7-0.2-1.1c-0.1,0-0.1,0-0.2,0c0,0.2-0.1,0.4-0.1,0.5
	c0.1,0.3,0.2,0.6,0.3,1C31.8,20.4,31.8,20.5,31.4,20.6z M30.4,13c-0.1,0-0.2,0-0.2,0c0,0.9,0,1.6-0.1,2.4c0,0.1,0,0.3,0.1,0.4
	s0.2,0.1,0.3,0.2c0-0.9,0.1-1.7,0.1-2.4C30.6,13.5,30.5,13.2,30.4,13z M31,17.9c0.1,0,0.1,0,0.2,0c-0.1-0.3-0.1-0.7-0.2-1.2
	C30.3,17.3,30.8,17.6,31,17.9z M30.6,12.9c0.1-0.3,0.2-0.5,0.4-0.9C31,12.1,31,12,30.8,12c-0.1,0.2-0.2,0.5-0.3,0.7
	C30.5,12.8,30.5,12.8,30.6,12.9z M31,11.5l-0.1,0.1l0.1,0.1l0.1-0.1C31.1,11.6,31.1,11.5,31,11.5z M31.4,11.3
	C31.4,11.3,31.3,11.3,31.4,11.3c-0.1-0.1-0.1-0.1-0.1-0.1C31.3,11.3,31.3,11.3,31.4,11.3C31.3,11.4,31.3,11.3,31.4,11.3z"/>
<path class="st1" d="M56.4,31c-0.1-0.1-0.1-0.3-0.2-0.3c-1.2-0.1-2-1-3.1-1.1c-0.3-0.1-0.6-0.1-1-0.1c-0.1,0-0.1,0-0.2,0
	c-0.6-0.2-1.4-0.5-2-0.7c-0.2-0.1-0.5-0.2-0.5-0.4c-0.3-0.9-1.2-0.9-1.6-1.4l-0.1-0.1c-0.5,0.2-1-0.2-1.4-0.2c0-0.1,0.1-0.2,0.1-0.3
	v-0.1c0.1,0,0.2-0.1,0.3-0.1s0.1,0,0.2,0c1.1,0.6,2.1,1.4,3.1,2c0.3,0.2,0.7,0.4,1.2,0.5c2.3,0.6,4.6,1.4,6.7,2.4
	c0.1,0,0.1,0.1,0.2,0.1c-0.2,0-0.4,0.1-0.6,0C57.1,31.3,56.7,31.1,56.4,31z"/>
<path class="st2" d="M34.3,19.1C34.3,19.1,34.3,19,34.3,19.1c0.9-0.1,1.5,0.3,2,0.9c0.7,0.7,1.5,1.6,2,2.4c0.2,0.3,0.4,0.6,1,0.6
	c0.3,0,0.6,0.1,1,0.2c0,0.4-0.3,0.2-0.4,0.2c-0.2,0-0.3,0.2-0.5,0.2c-0.3-0.2-0.6-0.4-1-0.6c-0.2-0.3-0.4-0.5-0.6-0.9
	c-0.1,0-0.1-0.1-0.2-0.1l0,0c-0.2-0.2-0.4-0.4-0.6-0.5l0,0c-0.1-0.1-0.2-0.2-0.3-0.3l0,0c-0.1-0.1-0.2-0.3-0.3-0.4l0,0
	c-0.1,0-0.1-0.1-0.2-0.1l0,0c0-0.1-0.1-0.1-0.1-0.2l0,0c0-0.2,0-0.4,0-0.6c-0.2,0.1-0.4,0.1-0.6,0.2l0,0c-0.1-0.1-0.1-0.1-0.2-0.2
	l0,0c-0.1-0.1-0.3-0.3-0.4-0.4l0,0C34.4,19.2,34.3,19.2,34.3,19.1z"/>
<path class="st1" d="M8.8,45.3c1.2-0.3,1.7-0.2,2.2,0.5c0.2,0.3,0.1,0.7,0.2,1.2C10.4,46.5,9.7,45.9,8.8,45.3z"/>
<path class="st2" d="M45.9,22.6c-0.2,0-0.4,0.1-0.6,0.1c0.1-0.4-0.2-0.4-0.5-0.6c-0.5-0.2-1.1-0.3-1.6-0.3c-0.6,0-1.3,0.1-1.9,0.5
	c-0.1,0.1-0.3,0.1-0.4,0.1C42.2,21.1,44.6,21.1,45.9,22.6z"/>
<path class="st1" d="M8.2,44.7c0.4-0.2,0.9-0.5,1.2-0.7l-0.1-0.1c0,0,0,0-0.1,0c-0.1-0.1-0.3-0.2-0.4-0.4H8.6c0,0,0,0-0.1,0
	c-0.4,0.2-0.7,0.5-1.2,0.9L8.2,44.7z"/>
<path class="st4" d="M56.4,31c0.3,0.1,0.7,0.3,1.1,0.4c0.2,0,0.4,0,0.6,0l0,0c0.1,0.2,0.2,0.3,0.2,0.5c-0.3,0,0.1,0.9-0.5,0.6
	c-0.2-0.1-0.3-0.3-0.4-0.5l0.1-0.1c-0.1,0-0.2,0-0.4,0c-0.1-0.1-0.3-0.2-0.4-0.3C56.6,31.3,56.5,31.1,56.4,31z"/>
<path class="st2" d="M46.9,26.2c-0.1,0-0.1,0-0.2,0c0-0.1-0.1-0.1-0.1-0.2c-0.1-0.6,0.2-1.3-0.1-1.9c-0.1-0.3-0.3-0.5-0.4-0.9
	c-0.1-0.2-0.1-0.4-0.1-0.6c0.9,0.9,1.2,1.8,1.1,3C46.9,25.8,46.9,26,46.9,26.2z"/>
<path class="st1" d="M13,46.5c-0.1,0.5,0,1.1-0.5,1.4c-0.1-0.1-0.2-0.1-0.3-0.2c0-0.5,0.1-1.1,0.1-1.5C12.6,46.2,12.8,46.3,13,46.5
	C13,46.4,13,46.4,13,46.5z"/>
<path class="st2" d="M40.8,22.5c-0.1,0.3,0,1-0.6,0.9C40.3,23,40.5,22.7,40.8,22.5z"/>
<path class="st3" d="M30.3,8.7l-0.1,0.1C30.3,8.8,30.3,8.8,30.3,8.7z"/>
<path class="st5" d="M45,26.3c-0.5,0.9-1.4,1.1-2.3,0.9c-0.1,0-0.2,0-0.3-0.1c-1.5-0.7-1.4-3-0.3-3.6c0.1,0,0.3,0,0.4,0
	c1.6,0,2.6,0.9,2.6,2.6C45,26.1,45,26.2,45,26.3z"/>
<path class="st1" d="M52.4,35.5c-0.1-0.3-0.1-0.6-0.2-1c-0.1-0.3-0.1-0.5-0.2-0.9c0.3,0.1,0.5,0.2,0.7,0.3c0,0.6,0,1.2-0.1,1.8
	c-0.3,1.7-0.7,3.3-2.2,4.5c-0.2,0-0.3,0-0.5-0.1c-0.3-0.1-0.4-0.5-0.1-0.7c0.1,0.2,0.1,0.3,0.2,0.5c0.3-0.6,0.3-0.9-0.3-1.3
	c0.9-1.1,1.3-2.2,1.2-3.6c0,0.1,0,0.1-0.1,0.2c0,0,0,0-0.1-0.1c0.1-0.5,0.1-1.2,0.2-1.7c0.1,0,0.2,0,0.2,0c0,0.4,0.1,0.9,0.1,1.3
	s0.1,0.7,0.6,0.7c0,0.2,0.1,0.5,0.1,0.7c0.1,0,0.1,0,0.2,0C52.3,36,52.3,35.7,52.4,35.5z"/>
<path class="st3" d="M50.4,40.1c1.5-1.1,1.9-2.8,2.2-4.5c0.1-0.6,0.1-1.2,0.1-1.8c0-0.1,0-0.1,0-0.2c1.1,1.7,1.4,3.4,0.3,5.2l0,0
	C53,39,53,39.1,52.9,39.1c-0.1,0.1-0.1,0.1-0.2,0.2c-0.7,0.5-1.5,1.1-2.2,1.5c-0.1-0.1-0.1-0.2-0.2-0.4l-0.1-0.1
	C50.2,40.4,50.3,40.2,50.4,40.1z"/>
<path class="st1" d="M50.4,40.9c0.7-0.5,1.5-1.1,2.2-1.5c0.1,0.1,0.2,0.1,0.4,0.2c-0.4,0.3-0.9,0.7-1.4,1.1
	c-0.5,0.3-1.1,0.5-1.5,0.9c-0.5,0.3-1.1,0.5-1.5,0.9c0,0,0,0.2,0,0.3l-0.1-0.1l0,0h0.1c-0.1,0.6,0.4,0.4,0.6,0.4
	c0.6-0.1,1.4-0.3,1.8-0.7c0.4-0.5,1.1-0.4,1.6-0.7c0-0.3,0.1-0.6,0.6-0.5l0,0c0,0.1-0.1,0.2-0.1,0.3c0.5,0,0.6-0.1,0.6-0.4
	c0.2,0,0.4,0,0.6,0l0,0c-0.1,0.1-0.2,0.1-0.3,0.2c-2.6,1.5-5.3,2.4-8.2,3c-0.2-0.2-0.4-0.3-0.6-0.5c0.2-0.2,0.4-0.4,0.6-0.6
	c0.3,0.1,0.5,0,0.6-0.3c0,0,0,0,0.1,0.1l0.1,0.1c0.1,0.1,0.3,0.3,0.4,0.4v0.1c-0.1,0-0.2,0.1-0.3,0.1l0.1,0.1
	c0.1-0.1,0.1-0.1,0.2-0.2c0.7,0,0.7,0,0.7-0.4c-0.1,0-0.3,0-0.4,0l0,0l-0.1-0.1c-0.2-0.2-0.4-0.4-0.6-0.6c0.2,0,0.4-0.1,0.6-0.1
	c0.2,0.1,0.4,0.2,0.4-0.1l0,0l0.1-0.1h0.1c0.2,0,0.3-0.1,0.5-0.1c0.1-0.1,0.2-0.2,0.3-0.3C49.6,41.3,50,41.1,50.4,40.9z M48.6,43.1
	V43c-0.1,0-0.2,0.1-0.4,0.1v0.1C48.4,43.2,48.5,43.2,48.6,43.1z M45.9,43.4c0,0,0,0.1-0.1,0.1c0.1,0,0.2,0,0.3,0.1v-0.1
	C46.2,43.5,46.1,43.4,45.9,43.4z"/>
<path class="st3" d="M45,28.4c0.4-0.3,0.7-0.6,1.3-1c1.4,1.1,2.8,2.1,4.3,3.2c-0.7,0.4-1.4,0.7-1.9,1.1c-0.3-0.7-0.6-1.6-1.1-2.3
	c-0.5-0.9-1.5-0.7-2.4-0.6C45.1,28.7,45,28.6,45,28.4z"/>
<path class="st6" d="M54.3,32.8c0.7,0.5,1.5,1.2,1.9,2c0.6,1.3,0.1,3-1.1,3.5c0-1,0.1-1.9,0-2.9C55,34.6,54.6,33.8,54.3,32.8z"/>
<path class="st7" d="M45,28.4c0,0.1,0.1,0.2,0.1,0.2c-0.2,0.1-0.4,0.2-0.5,0.3c-0.1,0-0.2,0.1-0.2,0.1c-0.2,0-0.4,0-0.5,0.1
	c-0.6,0.6-1.2,1.3-1.7,1.9c-0.1-0.2,0.3-0.6-0.2-0.7c-0.3-0.1-0.5-0.1-0.9-0.1c0-0.3-0.1-0.7,0-1c0.1-0.3,0.4-0.4,0.5-0.6
	c-0.5-0.4-1.1-1-1.6-1.5c-0.3-0.3-0.4-0.7-0.6-1.1c-0.2-0.3-0.5-0.4-0.7-0.1c-0.2,0.3-0.4,0.7-0.7,1.1c-0.4,0.4-1,1-1.7,1l0,0
	c1.2-0.4,2-1.3,2.3-2.4c0.3,0.1,0.6,0.1,1,0.2c0.5,1.9,1.8,3,3.6,3c0.2,0,0.4,0,0.6-0.1c0.1,0,0.2,0,0.4-0.1
	C44.5,28.7,44.7,28.6,45,28.4z M42.3,29.9c0.1,0.1,0.2,0.2,0.2,0.2c0.3-0.2,0.6-0.5,0.9-0.7c0,0,0-0.1-0.1-0.1c-0.3,0-0.5,0-0.7,0
	C42.4,29.4,42.4,29.6,42.3,29.9c-0.1-0.3-0.1-0.5-0.3-0.6s-0.5,0-0.6,0.1s-0.1,0.5,0,0.6s0.4,0.2,0.6,0.2
	C42.1,30.1,42.2,30,42.3,29.9z"/>
<path class="st1" d="M54.4,40.9c0.3-0.3,0.6-0.5,1-0.9c0.3-0.2,0.9-0.3,0.5-1c0-0.1,0.2-0.2,0.3-0.4c0.1,0.1,0.3,0.2,0.4,0.3
	c0.2-0.7,1-1.3,0.9-2.1c0-0.1,0.1-0.2,0.2-0.3c0.1-0.1,0.2-0.3,0.1-0.4c-0.3-0.9-0.7-1.7-1.1-2.6c0-0.1-0.1-0.1-0.2-0.2
	c-0.1,0.2-0.2,0.3-0.3,0.5c0-0.2-0.1-0.3-0.1-0.4c0-0.2,0-0.4,0.1-0.5c-0.2,0-0.4,0.1-0.7,0.1c0.1-0.3,0.1-0.5,0.2-0.7
	c0,0,0-0.1,0.1-0.1c0.2,0.1,0.4,0.3,0.6,0.4c0.4,0.5,0.9,1,1.2,1.6c0.7,1.3,0.7,2.7,0,3.9C56.8,39.3,55.7,40.2,54.4,40.9L54.4,40.9z
	"/>
<path class="st8" d="M28,27.6c0.2,0.3,0.4,0.7,0.6,1.1c-1.5-0.2-2.6-3.3-1.7-5c0.2,1,0.3,2,0.6,3.2C27.6,27.1,27.8,27.3,28,27.6
	L28,27.6z"/>
<path class="st8" d="M45,26.3c0-0.1,0-0.2,0-0.3c0-1.6-1-2.6-2.6-2.6c-0.1,0-0.3,0-0.4,0c1.1-0.7,2.1-0.4,2.7,0.1
	C45.4,24.4,45.5,25.4,45,26.3z"/>
<path class="st8" d="M36.9,25.6c0.1-1.9-1-3.3-2.1-4.6C36.3,21.2,37.7,24.2,36.9,25.6z"/>
<path class="st1" d="M53.1,39c1.1-1.8,0.7-3.5-0.3-5.2c0.2-0.2,0.4-0.2,0.5,0.1c0.2,0.4,0.3,0.9,0.5,1.3c0.1,0.1,0.3,0.2,0.3,0.2
	c-0.1,1-0.2,2-0.2,3c0.2,0.2,0.4,0.4,0.6,0.6l-0.1,0.1c-0.3-0.1-0.5-0.3-0.9-0.4C53.5,38.6,53.3,38.9,53.1,39z"/>
<path class="st9" d="M19.2,30.5c1.2,0.9,2.2,0.3,3-0.6c0.7-0.9,0.6-2.2-0.3-3.1c-0.1-0.1-0.1-0.2-0.2-0.2c0.1-0.1,0.2-0.2,0.3-0.3
	H22c0.2,0.4,0.4,1,0.6,1.4c0.1,0.1,0.1,0.2,0.1,0.3c0.1,1.5-1,3-2.3,3.1C20,31.1,19.4,31.2,19.2,30.5L19.2,30.5z"/>
<path class="st9" d="M26.2,28.9c0.9,1,1.8,1.5,3.2,1.5c1,0,1.7-0.4,2.3-1l0,0c-0.1,0.1-0.1,0.4-0.2,0.4c-0.7,0.2-1.5,0.6-2.2,0.6
	c-1.1,0.1-2-0.3-2.9-1.1c-0.3,0.2-0.7,0.4-1.1,0.6c-0.1-0.1-0.1-0.2-0.2-0.2c0.2-0.1,0.4-0.1,0.5-0.2C25.9,29.5,26,29.2,26.2,28.9
	L26.2,28.9z"/>
<path class="st7" d="M12.1,33.4c0.3-0.4,0.6-1,1-1.4c0.4-0.4,0.9-0.9,1.3-1.3c0.3,0.3,0.6,0.6,1,0.2c0.3-0.3,0.1-0.6-0.2-1
	c0.1-0.1,0.2-0.2,0.3-0.3c0,0,0,0,0.1,0.1c0,0.1,0,0.2,0.1,0.3c0.2,0.3,0.2,0.6-0.1,1c-0.2,0.3-0.5,0.4-1,0.2
	c-0.4-0.1-1.1,0.2-1.2,0.6C13.4,32.8,12.7,33,12.1,33.4C12.2,33.4,12.1,33.4,12.1,33.4z"/>
<path class="st2" d="M22.6,25.6c0.1-0.1,0.2-0.3,0.4-0.4c0.5-0.3,1.1-0.5,1.6-0.7c0.1,0.1,0.4,0.2,0.5,0.3c0.3,0.2,0.3,0.4,0,0.6
	c0-0.1,0-0.3,0-0.4c-0.3,0.1-0.5,0.1-0.7,0.2C23.7,25.3,23.2,25.5,22.6,25.6z"/>
<path class="st8" d="M22.6,25.6c0.5-0.2,1.2-0.3,1.7-0.5c0.2-0.1,0.4-0.1,0.7-0.2c0,0.2,0,0.3,0,0.4l0,0c-0.1,0-0.2,0-0.3,0
	c-0.1,0-0.3,0.1-0.4,0.1c-0.7,0.2-1.5,0.4-2.3,0.6c-0.1,0.1-0.2,0.2-0.3,0.3c-0.1,0-0.1,0-0.2,0l0,0l0,0l0,0c0-0.1-0.1-0.2-0.1-0.2
	l0,0l0,0c0.3-0.1,0.6-0.2,0.9-0.3l0,0l0.1-0.1c0.1,0,0.1,0,0.2,0C22.6,25.7,22.6,25.7,22.6,25.6L22.6,25.6z"/>
<path class="st9" d="M32.8,27.8c0-0.1,0-0.2,0.1-0.4c1.1,0.7,2.2,1,3.5,0.6l0,0c0,0.1,0,0.2,0,0.2c-0.7,0.1-1.5,0.1-2.1,0.2
	c-0.1,0-0.1-0.1-0.2-0.1C33.5,28.2,33.2,28,32.8,27.8C32.8,27.9,32.8,27.8,32.8,27.8z"/>
<path class="st10" d="M20.9,28.8c-0.2,0.3-0.6,0.4-0.9,0.1c-0.3-0.3-0.3-0.6,0-1C20.5,28,20.7,28.3,20.9,28.8z"/>
<path class="st3" d="M39.7,25.8c-0.3-0.1-0.6-0.1-1-0.2c0.1-0.3,0.1-0.6,0.2-1c0.2,0,0.4,0.1,0.7,0.1C39.6,25.1,39.6,25.5,39.7,25.8
	z"/>
<path class="st7" d="M19.2,30.5L19.2,30.5c-0.2,0.1-0.5,0.1-0.7,0c-0.2-0.6-0.4-1.4-0.7-2c-0.1,0-0.3,0.1-0.5,0.1l0,0
	c0.3-0.2,0.5-0.4,1-0.6C18,29.1,18.3,29.8,19.2,30.5z"/>
<path class="st11" d="M46.4,31.1c0.6,0.5,1.3,1.2,1.9,1.7c0.2,0.2,0.3,0.4,0.5,0.6l0,0c-0.2-0.1-0.4-0.3-0.6-0.4
	C47.5,32.4,46.9,31.7,46.4,31.1L46.4,31.1z"/>
<path class="st1" d="M56.4,31.8V32c0,0,0,0.1-0.1,0.1c-0.3-0.1-0.6-0.2-0.9-0.3c0,0,0,0,0,0.1c0.1,0.1,0.2,0.2,0.4,0.3
	c0,0,0,0.1-0.1,0.1c-0.2-0.1-0.4-0.1-0.6-0.2c0-0.3-0.1-0.6-0.2-1c0,0,0.1-0.1,0.3-0.2c0,0.2,0,0.4,0,0.6
	C55.6,31.6,55.9,31.7,56.4,31.8C56.4,31.8,56.4,31.8,56.4,31.8z"/>
<path class="st11" d="M28.1,27.4c0.5-0.6,1.1-1.3,1.7-1.8l0.1,0.1C29.4,26.3,28.8,27,28.1,27.4C28.1,27.5,28.1,27.4,28.1,27.4z"/>
<path class="st4" d="M31.6,19.7c-0.1-0.3-0.2-0.6-0.3-1c0-0.2,0.1-0.3,0.1-0.5c0.1,0,0.1,0,0.2,0c0.1,0.3,0.1,0.7,0.2,1.1
	c0,0.1,0.1,0.2,0.1,0.3C31.8,19.7,31.7,19.7,31.6,19.7z"/>
<path class="st11" d="M38.2,23.1c0.3,0.2,0.6,0.4,1,0.6c0.3,0.3,0.5,0.6,0.9,1.1l0,0C39.4,24.2,38.8,23.7,38.2,23.1z"/>
<path class="st7" d="M24.8,25.4c0.1,0,0.2,0,0.3,0c0,0.1,0,0.2,0,0.2c0,0.2,0.1,0.4,0.1,0.5c0.1,0.5,0.2,1,0.2,1.5l0,0
	c-0.2-0.5-0.4-1.1-0.6-1.5c0,0,0.1-0.1,0.1-0.2S24.8,25.6,24.8,25.4z"/>
<path class="st11" d="M44.1,28.7c-0.1,0-0.2,0-0.4,0.1c-0.4-0.4-0.7-0.9-1.2-1.4l0,0C43.2,27.8,43.7,28.2,44.1,28.7z"/>
<path class="st11" d="M45.4,27.5c-0.4,0.3-0.7,0.6-1.2,0.9c-0.1-0.1-0.1-0.2-0.1-0.2c0.4-0.3,0.7-0.6,1.2-0.9
	C45.4,27.4,45.4,27.5,45.4,27.5z"/>
<path class="st8" d="M20.9,28.8c-0.1-0.4-0.3-0.9-0.9-0.9c0.2-0.4,0.5-0.2,0.7,0C21.1,28.2,21.2,28.4,20.9,28.8z"/>
<path class="st11" d="M10.8,29.6c0.2,0,0.4,0,0.6,0c-0.1,0.1-0.2,0.1-0.2,0.2c0.2,0.3,0.4,0.6,0.7,1C11.5,30.4,11.1,29.9,10.8,29.6z
	"/>
<path class="st9" d="M31.7,29.5c0.3-0.5,0.6-1.1,1.1-1.6l0,0C32.7,28.6,32.4,29.2,31.7,29.5L31.7,29.5z"/>
<path class="st11" d="M35,20c0.2-0.1,0.4-0.1,0.6-0.2c0,0.2,0,0.4,0,0.6c-0.2,0-0.4,0.1-0.7,0.1C34.9,20.5,35,20.3,35,20z"/>
<path class="st4" d="M52.4,35.5c0,0.3-0.1,0.5-0.1,0.9c-0.1,0-0.1,0-0.2,0c0-0.2-0.1-0.5-0.1-0.7C52.1,35.5,52.2,35.5,52.4,35.5z"/>
<path class="st11" d="M40,24.8c0.3,0.3,0.7,0.5,1.1,0.9c-0.1,0.1-0.1,0.1-0.2,0.2C40.5,25.5,40.2,25.1,40,24.8
	C39.9,24.8,40,24.8,40,24.8z"/>
<path class="st11" d="M45.4,30.1c0.3,0.3,0.6,0.6,1,1l0,0C46.1,30.8,45.7,30.5,45.4,30.1L45.4,30.1z"/>
<path class="st9" d="M25.5,27.9c0.2,0.3,0.4,0.6,0.5,1.1l0,0c-0.4-0.1-0.6-0.4-0.5-1C25.5,27.9,25.5,27.9,25.5,27.9z"/>
<path class="st7" d="M15.9,29.6c0.3-0.2,0.6-0.4,1-0.6l0,0C16.5,29.2,16.2,29.4,15.9,29.6L15.9,29.6z"/>
<path class="st11" d="M12.6,31.4c-0.2-0.2-0.4-0.4-0.6-0.6C12.1,31,12.4,31.2,12.6,31.4z"/>
<path class="st11" d="M48.7,33.4c0.2,0.2,0.4,0.4,0.6,0.6l0,0C49.1,34,48.9,33.8,48.7,33.4L48.7,33.4z"/>
<path class="st2" d="M22.1,25.9c-0.3,0.1-0.6,0.2-0.9,0.3C21.4,25.6,21.8,25.9,22.1,25.9z"/>
<path class="st11" d="M36.6,21.6c0.2,0.2,0.4,0.4,0.6,0.5C37.1,22,36.9,21.7,36.6,21.6z"/>
<path class="st11" d="M46.4,26.4c0,0.1-0.1,0.2-0.1,0.3c-0.1,0.1-0.3,0.1-0.4,0.2l0,0C45.9,26.7,46.2,26.5,46.4,26.4z"/>
<path class="st11" d="M44.2,29.2c0.1,0,0.2-0.1,0.2-0.1c0.1,0.2,0.2,0.4,0.3,0.6l0,0C44.7,29.5,44.5,29.4,44.2,29.2z"/>
<path class="st11" d="M13.1,32c-0.2-0.2-0.4-0.4-0.5-0.5C12.8,31.6,12.9,31.8,13.1,32z"/>
<path class="st11" d="M34.4,19.3c0.1,0.1,0.3,0.3,0.4,0.4C34.7,19.6,34.5,19.5,34.4,19.3z"/>
<path class="st2" d="M25.2,26.2c0-0.2-0.1-0.4-0.1-0.5C25.1,25.8,25.2,26,25.2,26.2z"/>
<path class="st11" d="M45,29.8c0.1,0.1,0.3,0.2,0.4,0.3l0,0C45.3,30,45.1,29.9,45,29.8L45,29.8z"/>
<path class="st11" d="M36,20.8c0.1,0.1,0.2,0.3,0.3,0.4C36.2,21.1,36.1,21,36,20.8z"/>
<path class="st11" d="M42.3,27.2c0.1,0,0.2,0,0.3,0.1c0,0.1,0,0.1,0,0.2l0,0C42.5,27.4,42.4,27.3,42.3,27.2z"/>
<path class="st7" d="M16.7,28.9c0.1-0.1,0.3-0.2,0.4-0.3l0,0C17.1,28.7,16.9,28.8,16.7,28.9C16.8,28.9,16.7,28.9,16.7,28.9z"/>
<path class="st2" d="M21.3,26.2c0,0.1,0.1,0.2,0.1,0.2c-0.1,0-0.3,0-0.4-0.1v-0.1C21.1,26.2,21.2,26.2,21.3,26.2z"/>
<path class="st11" d="M50,34.7c0.1,0.1,0.2,0.2,0.3,0.3l0,0C50.2,34.9,50.1,34.8,50,34.7L50,34.7z"/>
<path class="st11" d="M50.3,35c0.1,0,0.3,0.1,0.4,0.1c0,0,0,0,0.1,0.1l0,0C50.5,35.5,50.4,35.4,50.3,35L50.3,35z"/>
<path class="st11" d="M36.3,21.2c0.1,0.1,0.2,0.2,0.3,0.3C36.5,21.5,36.4,21.3,36.3,21.2z"/>
<path class="st1" d="M54.7,39.6c0-0.1,0-0.2-0.1-0.3c0,0,0,0,0.1,0c0,0.1,0.1,0.2,0.1,0.2C54.7,39.6,54.7,39.6,54.7,39.6z"/>
<path class="st11" d="M46.6,25.9c0,0.1,0.1,0.1,0.1,0.2c-0.1,0-0.2,0.1-0.3,0.1C46.4,26.2,46.5,26.1,46.6,25.9z"/>
<path class="st4" d="M56.4,31.8v-0.1c0-0.1,0.1-0.1,0.1-0.2l0.1,0.1C56.6,31.7,56.5,31.8,56.4,31.8z"/>
<path class="st11" d="M34.3,19.1c0,0.1,0.1,0.1,0.1,0.2h-0.1c-0.1,0-0.1-0.1-0.2-0.1C34,19.2,34.1,19.1,34.3,19.1z"/>
<path class="st2" d="M34,19.2c0.1,0,0.1,0.1,0.2,0.1c-0.1,0-0.2,0-0.3,0C33.9,19.3,34,19.3,34,19.2z"/>
<path class="st2" d="M21,25.9C21,25.9,21.1,25.9,21,25.9c0.1,0.1,0.1,0.1,0,0.1C21,26,21,26,21,25.9L21,25.9z"/>
<path class="st7" d="M15.5,29.7c0.1-0.1,0.2-0.1,0.2-0.2l0,0C15.8,29.7,15.8,29.7,15.5,29.7C15.6,29.8,15.5,29.8,15.5,29.7z"/>
<path class="st11" d="M37.3,22.2c0.1,0,0.1,0.1,0.2,0.1C37.4,22.3,37.4,22.2,37.3,22.2z"/>
<path class="st1" d="M52.9,39.2C53,39.1,53,39,53.1,39C53,39,53,39.1,52.9,39.2z"/>
<path class="st2" d="M23.8,23.9c0.1,0,0.2,0,0.2,0s0,0,0,0.1C24,24,23.9,24,23.8,23.9L23.8,23.9z"/>
<path class="st11" d="M34.8,19.7c0.1,0.1,0.1,0.1,0.2,0.2C35,19.9,34.9,19.8,34.8,19.7z"/>
<path class="st2" d="M31.4,20.9c0-0.1,0-0.2,0-0.2C31.4,20.7,31.4,20.8,31.4,20.9z"/>
<path class="st7" d="M25.5,27.9V28c0-0.1-0.1-0.2-0.1-0.3l0,0C25.5,27.7,25.5,27.8,25.5,27.9z"/>
<path class="st2" d="M12,29.4c0.1,0,0.2,0,0.2,0s0,0,0,0.1C12.1,29.4,12,29.4,12,29.4C11.9,29.4,12,29.4,12,29.4z"/>
<path class="st11" d="M35.6,20.5c0,0.1,0.1,0.1,0.1,0.2C35.6,20.6,35.6,20.6,35.6,20.5z"/>
<path class="st11" d="M35.7,20.7c0.1,0,0.1,0.1,0.2,0.1C35.8,20.8,35.8,20.7,35.7,20.7z"/>
<path class="st11" d="M49.9,34.5c0,0.1,0.1,0.1,0.1,0.2l0,0C50,34.6,49.9,34.6,49.9,34.5L49.9,34.5z"/>
<path class="st11" d="M49.7,34.4c0.1,0,0.1,0.1,0.2,0.1l0,0C49.8,34.5,49.7,34.4,49.7,34.4L49.7,34.4z"/>
<path class="st2" d="M23.9,24.5C23.8,24.5,23.8,24.5,23.9,24.5C23.8,24.5,23.8,24.5,23.9,24.5C23.8,24.5,23.8,24.5,23.9,24.5z"/>
<path class="st1" d="M53.3,41L53.3,41L53.3,41L53.3,41z"/>
<path class="st11" d="M49.6,34.3l0.1,0.1l0,0C49.6,34.4,49.6,34.3,49.6,34.3L49.6,34.3z"/>
<path class="st11" d="M49.5,34.2l0.1,0.1l0,0C49.5,34.3,49.5,34.2,49.5,34.2L49.5,34.2z"/>
<path class="st2" d="M22.6,25.6l-0.1,0.1C22.6,25.7,22.6,25.7,22.6,25.6z"/>
<path class="st2" d="M22.3,25.8l-0.1,0.1C22.2,25.8,22.2,25.8,22.3,25.8z"/>
<path class="st2" d="M21.4,26.4L21.4,26.4C21.4,26.4,21.5,26.5,21.4,26.4C21.4,26.5,21.4,26.5,21.4,26.4
	C21.4,26.5,21.4,26.5,21.4,26.4z"/>
<path class="st11" d="M45.7,27L45.7,27L45.7,27L45.7,27z"/>
<path class="st11" d="M44.9,29.7l0.1,0.1l0,0C44.9,29.8,44.9,29.7,44.9,29.7L44.9,29.7z"/>
<path class="st11" d="M27.9,27.6l0.1-0.1l0,0C28.1,27.5,28,27.5,27.9,27.6C28,27.6,27.9,27.6,27.9,27.6z"/>
<path class="st12" d="M54.4,40.9c1.3-0.7,2.3-1.6,3-2.9c0.7-1.3,0.7-2.7,0-3.9c-0.3-0.5-0.7-1.1-1.2-1.6c0.1,0,0.2,0,0.3,0
	c0.6,0.5,1.4,1,1.9,1.7c0.5,0.7,0.9,1.6,0.6,2.4c-0.2,0.9-0.6,1.6-1,2.4c-0.2,0.4-0.4,0.9-0.7,1.3l0,0l-0.1,0.1l0,0
	c-0.1,0-0.2,0-0.2,0l0.1,0.1c-2,1.5-4.3,2.4-6.6,3.3c-1.1,0.4-2.2,0.7-3.3,1.1c-1.1,0.2-2,0.4-3.1,0.6c-1,0.2-1.8,0.3-2.8,0.5
	c-2.1,0.2-4.1,0.4-6.3,0.5c-6,0.3-11.8-0.1-17.5-1.5c-1.3-0.3-2.4-0.6-3.7-1.1c-0.1,0.2-0.2,0.5-0.3,0.9c3.3,1.2,6.6,1.8,10,2.2
	c0.7,0.1,1.4,0.2,2.1,0.2c3.7,0.3,7.3,0.4,11.1,0.1c2.4-0.2,5-0.5,7.4-1c2.1-0.4,4.3-1.1,6.3-1.6c0.1,0,0.1,0,0.2-0.1
	c0.4-0.1,0.9-0.3,1.3-0.4c0.4-0.2,0.9-0.3,1.3-0.5l0,0l0,0c0.1-0.1,0.2-0.1,0.3-0.2l0,0c0.3,0.1,0.2,0.2,0,0.4
	c-0.6,0.5-1.3,1-1.9,1.5c-0.3,0.2-0.5,0.5-0.9,0.9l0,0c-1.2,0.3-2.1,1-3.1,1.6c0,0,0,0,0,0.1c-2.4,1.3-5.1,2.1-7.8,2.9
	c-0.9,0.2-1.7,0.4-2.6,0.5c-0.1,0-0.2,0-0.3,0s-0.2,0-0.3,0c-0.3,0-0.6,0.1-0.9,0.1c-2.2,0-4.4,0.2-6.6,0.1
	c-4.7-0.2-9.1-1.5-13.3-3.5c-0.9-0.4-1.7-0.9-2.6-1.3c0,0,0,0,0-0.1l-0.1-0.1l0,0c0.3-1.3-0.2-2.4-1.1-3.3c-1.2-1.4-2.8-1.5-4.5-1.1
	c-0.1,0-0.2,0.2-0.2,0.3c-0.1,0-0.2-0.1-0.3-0.1c-0.6-0.7-1.4-1.4-2-2.1C5.1,40.2,5,40,4.9,39.9l-0.1-0.1l0,0c0-0.1-0.1-0.1-0.1-0.2
	l0,0c-0.1-0.2-0.3-0.4-0.4-0.6l0,0c-0.2-0.3-0.4-0.6-0.5-1.1l0,0c0-0.1,0-0.3,0-0.4c-0.2-0.9-0.6-1.6,0.1-2.3c0.1-0.1,0-0.3,0-0.4
	l0,0C4,34.6,4,34.5,4.1,34.5l0,0l0.1-0.1l0,0l0,0c0.6-0.1,1.1-0.3,1.1-0.9c0.1,0,0.1-0.1,0.2-0.1l0.1-0.1l0,0c0.1,0,0.1-0.1,0.2-0.1
	l0,0c0.1,0,0.1-0.1,0.2-0.1l0,0l0,0c0.4,0.1,0.6-0.1,0.7-0.4l0,0c0.1,0,0.1-0.1,0.2-0.1l0,0C7,32.7,7.1,32.9,7.4,33l0,0
	c-0.1,0.1-0.1,0.1-0.2,0.2l0,0c-0.4,0.1-0.6,0.3-0.5,0.9l0,0c0,0.1-0.1,0.1-0.1,0.2l0,0c-0.1,0.1-0.3,0.2-0.3,0.3
	c-0.3,1-0.4,1.9-0.1,2.9c0.1,0.3,0.3,0.5,0.5,0.9l0,0c0,0.1,0.1,0.1,0.1,0.2l0,0C6.8,38.6,6.9,38.8,7,39l0,0
	c0.1,0.1,0.1,0.2,0.2,0.2l0,0l0,0c0.2,0.2,0.4,0.4,0.6,0.7l0,0L8,40l0,0l0.1,0.1l0,0l0,0c0.1,0.1,0.1,0.1,0.2,0.2l0,0
	c0.1,0.1,0.3,0.2,0.4,0.3l0,0C8.8,40.8,9,40.9,9.2,41c2.3,1.5,5,2.4,7.7,3.1c3.4,0.9,6.9,1.4,10.4,1.6c3.5,0.2,7.1,0.2,10.6-0.1
	c2.1-0.2,4.3-0.6,6.4-1c0.4-0.1,0.7-0.1,1.2-0.2c0.1,0,0.3-0.1,0.4-0.1c2.9-0.6,5.6-1.5,8.2-3C54.3,41.1,54.3,41,54.4,40.9z"/>
<path class="st5" d="M33.2,42.7c-1.1,0.9-1.9,0.9-2.8,0.2c-0.9-0.7-1-1.8-0.2-2.8c0.1,0,0.1,0,0.2,0c1.6-0.3,2.8,0.6,2.7,2.2
	C33.1,42.5,33.2,42.6,33.2,42.7z"/>
<path class="st9" d="M45.9,42.3c0.1,0,0.1,0.1,0.2,0.1v0.1c-1,0.2-1.9,0.3-2.9,0.5c-1,0.1-1.9,0.3-2.8,0.4c-0.2-0.4-0.3-0.7-0.5-1
	c-0.1-0.1-0.5,0-0.5,0.1c-0.1,0.2-0.1,0.5-0.1,1c-1.5,0.1-3.1,0.2-4.8,0.2c0.2-0.5,0.4-1,0.6-1.4c0.4-1.6-0.2-3.2-1.6-4
	c-1.4-0.9-3.1-0.6-4.3,0.4c-0.1,0.1-0.2,0.2-0.4,0.3c0,0,0,0-0.1-0.1c0.7-1.2,2.7-1.9,4-1.3c0.4,0.2,0.9,0.4,1.2,0.6
	c0.4,0.3,0.9,0.6,1,1c0.3,0.9,0.5,1.7,0.3,2.6c0,0.1,0.1,0.2,0.2,0.4c0,0.6,0.3,1,0.7,0.7c0.3-0.1,0.4-0.4,0.3-0.7
	c-0.2-0.4-0.6-0.3-1-0.1c0.3-0.6,0.5-0.6,1.5,0.3c-0.1,0.2-0.3,0.4-0.5,0.7c0.6,0,1.3-0.1,1.8-0.1c0.5,0,0.6-0.2,0.9-0.6
	c0.1-0.3,0.5-0.6,0.9-0.7c0.1-0.1,0.5,0.4,0.7,0.6v0.1c0.1,0.1,0.1,0.3,0.2,0.4c0,0,0.1,0,0.1-0.1l-0.1-0.1c0.4,0,0.9,0.1,1.3,0.1
	c1-0.1,1.9-0.3,2.9-0.4c0.1,0,0.2-0.3,0.2-0.4C45.6,42.2,45.7,42.2,45.9,42.3z"/>
<path class="st7" d="M26.3,42.8c-0.1,0.2-0.3,0.4-0.5,0.7c-1.1-0.1-2.2-0.1-3.4-0.3c-1.9-0.3-3.9-0.6-5.8-1.2
	c-1.5-0.3-2.8-1-3.9-1.9c-0.3-0.2-0.5-0.6-0.9-1l0,0c0.2,0,0.4,0.2,0.5-0.1c0.2-0.4,0.7-0.5,1.2-0.3c0.4,0.2,0.3,0.6,0.2,1
	c0,0.2-0.2,0.3-0.3,0.5c0.1,0.1,0.2,0.2,0.3,0.3c0.6,0.3,1.3,0.7,1.9,1c1.2,0.4,2.4,1,3.7,0.9c0.1,0,0.3,0,0.4,0
	c0.7,0.5,1.7,0.4,2.7,0.6c0.9,0.2,1.8,0.1,2.7,0.3c0.4,0.1,0.7,0,0.9-0.4h0.2C26.2,42.8,26.2,42.8,26.3,42.8z M12.4,39.3
	c0,0.1,0,0.2,0,0.2c0.2,0.1,0.4,0.4,0.6,0.4c0.2,0,0.5-0.3,0.5-0.4c0.1-0.3-0.2-0.6-0.5-0.5C12.7,39,12.6,39.2,12.4,39.3z"/>
<path class="st7" d="M45.9,42.3c-0.2-0.1-0.3-0.1-0.5-0.2c-0.6-0.2-0.9-0.6-0.4-1.4c0.1-0.1,0.1-0.2,0.2-0.3c1.1,0,1.7,0.6,1.7,1.7
	c0.1-0.2,0.2-0.3,0.3-0.4c0.2-0.5-0.1-0.9-0.4-1.1c-0.2-0.1-0.3-0.4-0.4-0.6c0.4,0.4,0.9,1,1.6,1.1c0.4,0,0.9,0,1.3,0
	c0.1,0.1,0.2,0.2,0.3,0.3c-0.1,0.1-0.2,0.2-0.2,0.3c-0.1,0.1-0.2,0.2-0.3,0.3c-0.2,0-0.3,0.1-0.5,0.1h-0.1l-0.1,0.1l0,0
	c-0.1,0-0.3,0.1-0.4,0.1c-0.2,0-0.4,0.1-0.6,0.1c-0.1,0-0.2,0-0.3,0c0-0.1,0-0.3,0-0.4c0.1-0.3,0-0.5-0.3-0.7
	c-0.2,0.1-0.6,0-0.7,0.2c-0.2,0.3-0.1,0.6,0.3,0.7C45.9,42.2,45.9,42.2,45.9,42.3z"/>
<path class="st8" d="M33.2,42.7c0-0.1-0.1-0.2-0.1-0.3c0-1.6-1.1-2.6-2.7-2.2c-0.1,0-0.1,0-0.2,0c0.9-0.9,1.9-1,2.7-0.3
	C33.8,40.6,33.9,41.6,33.2,42.7z"/>
<path class="st6" d="M9.4,33.2c0.5-0.4,1.1-0.9,1.7-1.2l0.1,0.1c-1.4,2.1-2.4,4.4-1.6,7c-0.3-0.3-0.7-0.7-1.1-1.1l0,0
	c0.2,0,0.4,0.1,0.6,0.1c0.1-1,0-1.8,0.2-2.7c0.2-0.9,0.5-1.6,0.9-2.6C9.8,33.1,9.6,33.2,9.4,33.2L9.4,33.2z"/>
<path class="st9" d="M26.3,42.8h-0.1c0.2,0,0.4-0.1,0.5-0.1s0.3,0.2,0.4,0.2c0.6-0.3,0.7,0,0.9,0.5c0.1-0.3,0.2-0.5,0.2-0.7
	c-0.1-0.6-0.2-1.2-0.3-1.8c0-0.2-0.1-0.4,0-0.5c0.2-0.4,0.4-0.9,0.7-1.2c0.1-0.1,0.2-0.1,0.3-0.2c0,0,0,0,0.1,0.1
	c-1.1,1.5-1.1,3,0,4.6c-0.6,0-1.3,0-1.8,0C27,43.1,26.8,42.8,26.3,42.8z"/>
<path class="st7" d="M11.6,39.3c-0.7-1-1-2-0.6-3.1c0.3-1,0.7-1.8,1.2-2.8l0,0c0,0.2,0,0.4-0.1,0.5c-0.3,0.9-0.9,1.6-1,2.4
	C11.2,37.4,11.5,38.3,11.6,39.3L11.6,39.3z"/>
<path class="st6" d="M8.1,37.6c-0.7-1-0.7-1.9-0.1-3c0.3-0.5,0.9-1,1.4-1.4l0,0c-0.2,0.2-0.3,0.5-0.6,0.7c-0.5,0.5-1,1.1-0.9,1.9
	C7.9,36.4,8,36.9,8.1,37.6L8.1,37.6z"/>
<path class="st13" d="M45.9,44.1c-0.1,0-0.3,0.1-0.4,0.1c-0.3-0.3-0.6-0.6-0.9-1c0.3-0.2,0.6-0.3,1-0.4c0.1,0,0.2,0.1,0.4,0.1
	c-0.2,0.2-0.3,0.4-0.6,0.6C45.6,43.8,45.8,44,45.9,44.1z"/>
<path class="st6" d="M4.1,34.7c0,0.1,0.1,0.3,0,0.4c-0.7,0.7-0.3,1.6-0.1,2.3c0,0.1,0,0.2,0,0.4C3.3,36.6,3.3,35.7,4.1,34.7z"/>
<path class="st6" d="M6.6,38.1c-0.2-0.3-0.4-0.5-0.5-0.9c-0.3-1-0.2-1.9,0.1-2.9c0-0.1,0.2-0.2,0.3-0.3C5.9,35.5,5.9,36.8,6.6,38.1z
	"/>
<path class="st11" d="M45.8,42.2c-0.4-0.1-0.4-0.5-0.3-0.7c0.1-0.1,0.4-0.1,0.7-0.2C46.4,41.5,46.3,41.8,45.8,42.2z"/>
<path class="st6" d="M7.5,32.9c-0.1-0.1-0.2-0.3-0.4-0.4c0.5-0.2,1.1-0.5,1.6-0.7l0,0C8.2,32.2,7.9,32.5,7.5,32.9z"/>
<path class="st13" d="M46.6,42.3c0.1,0,0.2,0,0.3,0c0.2,0.2,0.4,0.4,0.6,0.6l0.1,0.1l0,0c-0.1,0.1-0.2,0.1-0.3,0.2
	c-0.1-0.1-0.3-0.3-0.4-0.4l-0.1-0.1c0,0,0,0-0.1-0.1C46.6,42.5,46.6,42.4,46.6,42.3z"/>
<path class="st11" d="M6.3,32.2c-0.3,0.3-0.6,0.6-0.9,1.1C5.3,33.1,5.2,33,5.2,33C5.5,32.7,5.9,32.4,6.3,32.2
	C6.3,32.1,6.3,32.2,6.3,32.2z"/>
<path class="st6" d="M5.2,33.5c0,0.5-0.4,0.6-0.9,0.7C4.7,34.1,5,33.9,5.2,33.5z"/>
<path class="st6" d="M4,37.9c0.2,0.3,0.4,0.6,0.5,1.1C4.4,38.6,4.2,38.2,4,37.9z"/>
<path class="st6" d="M7.9,39.7c-0.2-0.2-0.4-0.4-0.6-0.7C7.5,39.3,7.7,39.5,7.9,39.7z"/>
<path class="st6" d="M6.6,34c-0.1-0.4,0.2-0.6,0.5-0.9C7,33.4,6.8,33.7,6.6,34z"/>
<path class="st6" d="M6.8,32.6c-0.1,0.3-0.4,0.5-0.7,0.4C6.3,32.9,6.5,32.8,6.8,32.6z"/>
<path class="st6" d="M4.6,39c0.1,0.2,0.3,0.4,0.4,0.6C4.8,39.4,4.7,39.2,4.6,39z"/>
<path class="st6" d="M8.8,40.5c-0.1-0.1-0.3-0.2-0.4-0.3C8.5,40.2,8.7,40.4,8.8,40.5z"/>
<path class="st6" d="M9.3,40.8c-0.1-0.1-0.2-0.2-0.4-0.3C9,40.6,9.2,40.7,9.3,40.8z"/>
<path class="st6" d="M8.3,37.9c-0.1-0.1-0.1-0.2-0.2-0.3l0,0C8.2,37.7,8.3,37.8,8.3,37.9L8.3,37.9z"/>
<path class="st6" d="M7,38.8c-0.1-0.1-0.2-0.2-0.3-0.4C6.8,38.5,6.9,38.6,7,38.8z"/>
<path class="st6" d="M8.4,40.1C8.3,40,8.3,40,8.2,39.9C8.2,40,8.3,40,8.4,40.1z"/>
<path class="st6" d="M4.3,34.5c-0.1,0.1-0.1,0.2-0.2,0.2C4.2,34.6,4.3,34.5,4.3,34.5z"/>
<path class="st6" d="M7.2,33.1C7.4,33,7.4,33,7.5,32.9C7.4,33,7.2,33,7.2,33.1z"/>
<path class="st6" d="M7.2,39.1C7.1,39,7.1,38.9,7,38.9C7.1,38.9,7.1,39,7.2,39.1z"/>
<path class="st11" d="M6.3,32.1c0-0.1,0-0.2,0.1-0.2L6.5,32C6.4,32.1,6.4,32.1,6.3,32.1C6.3,32.2,6.3,32.1,6.3,32.1z"/>
<path class="st6" d="M5,39.5c0,0.1,0.1,0.1,0.1,0.2C5.1,39.7,5,39.6,5,39.5z"/>
<path class="st6" d="M6.7,38.3c0-0.1-0.1-0.1-0.1-0.2C6.6,38.2,6.7,38.3,6.7,38.3z"/>
<path class="st6" d="M6.5,34.2c0-0.1,0.1-0.1,0.1-0.2C6.6,34,6.5,34.1,6.5,34.2z"/>
<path class="st6" d="M5.8,33.2c-0.1,0-0.1,0.1-0.2,0.1C5.7,33.3,5.8,33.2,5.8,33.2z"/>
<path class="st6" d="M6,33.1c-0.1,0-0.1,0.1-0.2,0.1C5.9,33.2,6,33.1,6,33.1z"/>
<path class="st6" d="M7,32.5c-0.1,0-0.1,0.1-0.2,0.1C6.8,32.6,6.9,32.6,7,32.5z"/>
<path class="st6" d="M8.6,31.7c0,0,0.1,0,0.1-0.1C8.7,31.7,8.7,31.7,8.6,31.7L8.6,31.7z"/>
<path class="st1" d="M46.3,42.6C46.3,42.6,46.3,42.5,46.3,42.6C46.4,42.5,46.4,42.6,46.3,42.6C46.4,42.6,46.4,42.6,46.3,42.6
	C46.4,42.6,46.4,42.6,46.3,42.6z"/>
<path class="st6" d="M8.1,39.9L8,39.8C8.1,39.8,8.1,39.9,8.1,39.9z"/>
<path class="st6" d="M8,39.8l-0.1-0.1L8,39.8z"/>
<path class="st6" d="M5.1,39.7l0.1,0.1C5.2,39.8,5.1,39.8,5.1,39.7z"/>
<path class="st6" d="M8.4,38l-0.1-0.1l0,0C8.4,37.9,8.4,38,8.4,38L8.4,38z"/>
<path class="st6" d="M4.4,34.4l-0.1,0.1C4.4,34.4,4.4,34.4,4.4,34.4z"/>
<path class="st6" d="M5.5,33.3l-0.1,0.1C5.4,33.4,5.5,33.4,5.5,33.3z"/>
<path class="st3" d="M57.5,40.4c0.2-0.4,0.5-0.9,0.7-1.3c0.3-0.7,0.7-1.6,1-2.4c0.2-0.9-0.1-1.7-0.6-2.4c-0.5-0.7-1.2-1.2-1.9-1.7
	c-0.1,0-0.2,0-0.3,0c-0.2-0.1-0.4-0.3-0.6-0.4c-0.1-0.1-0.2-0.2-0.4-0.3c0,0,0,0,0-0.1c0.3,0.1,0.6,0.2,0.9,0.3
	c1.2,0.6,2.3,1.3,3.4,2.2c1.3,1.3,1.2,2.9,0.1,4.1C59.1,39.2,58.3,39.7,57.5,40.4z"/>
<path class="st2" d="M50.7,44.8c-2.1,0.5-4.1,1.2-6.3,1.6c-2.4,0.4-5,0.7-7.4,1c-3.7,0.3-7.3,0.2-11.1-0.1c-0.7-0.1-1.4-0.2-2.1-0.2
	c0.1,0,0.2-0.1,0.3-0.1c1.8,0.1,3.6,0.3,5.4,0.4c3.4,0.1,6.9,0.1,10.3-0.3c0.9-0.1,1.8,0.1,2.4-0.7c-0.2,0-0.4-0.1-0.6-0.1
	c1-0.2,1.8-0.3,2.8-0.5c1.1-0.2,2-0.4,3.1-0.6c-0.5,0.2-1.1,0.3-1.6,0.5c-0.2,0.1-0.5,0.2-0.7,0.3c0,0.1,0,0.1,0,0.2
	c0.3,0,0.5,0,0.9,0c1.5-0.4,2.9-0.7,4.4-1.2C50.3,44.8,50.5,44.8,50.7,44.8z"/>
<path class="st3" d="M51.3,46.3c0.3-0.3,0.5-0.6,0.9-0.9c0.6-0.5,1.3-1.1,1.9-1.5c0.2-0.1,0.3-0.3,0-0.4c0.3-0.2,0.6-0.3,1-0.5l0,0
	l0,0c0.1,0,0.1-0.1,0.2-0.1l0,0c0.2-0.1,0.4-0.2,0.6-0.4l0,0c0,0,0.1,0,0.1-0.1c0,0,0,0,0.1,0c0.3-0.1,0.5-0.2,0.9-0.4
	c-0.7,0.6-1.4,1.4-2.1,1.9C53.6,44.8,52.4,45.6,51.3,46.3z"/>
<path class="st3" d="M48.2,48C48.2,48,48.2,47.9,48.2,48c1-0.7,1.9-1.4,3.1-1.7C50.2,46.8,49.2,47.4,48.2,48z"/>
<path class="st4" d="M51.9,47.4c-0.4,0.6-0.9-0.3-1.3,0C50.9,46.5,51.2,46.5,51.9,47.4z"/>
<path class="st2" d="M55,43c-0.3,0.2-0.6,0.3-1,0.5l0,0c-0.1,0.1-0.2,0.1-0.3,0.2l0,0l0,0c-0.2,0.1-0.5,0.2-0.7,0.3c0,0,0,0,0-0.1
	C53.4,43.5,54,43,55,43z"/>
<path class="st2" d="M52.2,44.3c-0.4,0.1-0.9,0.3-1.3,0.4c0.5-0.2,1.1-0.4,1.6-0.6l0,0C52.4,44.2,52.3,44.3,52.2,44.3z"/>
<path class="st2" d="M56.8,42.1c-0.3,0.1-0.5,0.2-0.9,0.4C56.3,41.9,56.5,41.8,56.8,42.1z"/>
<path class="st2" d="M55.8,42.5c-0.2,0.1-0.4,0.2-0.6,0.4C55.4,42.8,55.6,42.7,55.8,42.5z"/>
<path class="st3" d="M57.3,40.6C57.2,40.6,57.2,40.5,57.3,40.6c0-0.1,0.1-0.1,0.1-0.1C57.3,40.5,57.3,40.6,57.3,40.6z"/>
<path class="st2" d="M52.5,44.1c0.1,0,0.1-0.1,0.2-0.1c0,0,0,0,0,0.1C52.6,44.1,52.6,44.1,52.5,44.1L52.5,44.1z"/>
<path class="st2" d="M55.2,42.9c-0.1,0-0.1,0.1-0.2,0.1C55,43,55.1,42.9,55.2,42.9z"/>
<path class="st2" d="M55.9,42.5c0,0-0.1,0-0.1,0.1C55.8,42.5,55.9,42.5,55.9,42.5z"/>
<path class="st3" d="M57.4,40.5l0.1-0.1C57.5,40.4,57.4,40.5,57.4,40.5z"/>
<path class="st4" d="M30.4,13c0.1,0.2,0.2,0.3,0.2,0.5c0,0.9-0.1,1.6-0.1,2.4c0,0-0.2-0.1-0.3-0.2c-0.1-0.1-0.1-0.2-0.1-0.4
	c0-0.9,0-1.6,0.1-2.4C30.3,13.1,30.3,13,30.4,13z"/>
<path class="st4" d="M31,17.9c-0.2-0.3-0.7-0.6-0.1-1.2c0.1,0.4,0.1,0.7,0.2,1.2C31.1,17.9,31.1,17.9,31,17.9z"/>
<path class="st4" d="M30.6,12.9c-0.1-0.1-0.1-0.1-0.1-0.1c0.1-0.2,0.2-0.5,0.3-0.7c0.1,0,0.1,0.1,0.2,0.1
	C30.8,12.4,30.7,12.7,30.6,12.9z"/>
<path class="st4" d="M31,11.5c0.1,0,0.1,0.1,0.1,0.1L31,11.8l-0.1-0.1C30.8,11.6,31,11.6,31,11.5z"/>
<path class="st4" d="M31.4,11.3C31.3,11.3,31.3,11.4,31.4,11.3c-0.1,0-0.1,0-0.1-0.1C31.3,11.3,31.3,11.2,31.4,11.3
	C31.3,11.3,31.4,11.3,31.4,11.3z"/>
<path class="st12" d="M13,46.4c-0.2-0.1-0.4-0.2-0.6-0.2l0,0v-0.1c-0.7-0.5-1.5-1-2.1-1.5c-0.2-0.2-0.5-0.4-0.7-0.5
	c-0.2-0.2-0.4-0.3-0.6-0.5c0.1-0.1,0.2-0.2,0.3-0.2c1.4-0.1,3.3,0.6,3.7,2.3C13,45.8,13,46.1,13,46.4z"/>
<path class="st1" d="M12.2,46.1C12.4,46.1,12.4,46.1,12.2,46.1C12.4,46.1,12.2,46.1,12.2,46.1L12.2,46.1z"/>
<path class="st4" d="M-261.6-282c-0.3-0.3-0.7-0.7-1-1C-262.3-282.7-262-282.4-261.6-282z"/>
<path class="st1" d="M37.2,51.5c0.1,0,0.2,0,0.3,0c0.1,0.1,0.2,0.2,0.3,0.4c0.1,0.2,0.1,0.4,0,0.6c0,0.1-0.4,0.2-0.5,0.1
	c-0.2-0.1-0.2-0.3-0.3-0.5C37,51.8,37.1,51.6,37.2,51.5z"/>
<path class="st14" d="M13.6,46.7l0.1,0.1C13.7,46.8,13.7,46.7,13.6,46.7z"/>
<path class="st13" d="M50.4,40.1c-0.1,0.1-0.1,0.2-0.2,0.3c-0.1,0-0.2,0-0.2,0c-0.1-0.1-0.3-0.1-0.4-0.2c-0.4-0.3-0.4-1.2,0-1.5
	c0.1,0,0.2-0.1,0.2-0.1c0.5,0.3,0.6,0.6,0.3,1.3c-0.1-0.2-0.1-0.4-0.2-0.5c-0.3,0.3-0.3,0.6,0.1,0.7C50.1,40.1,50.2,40.1,50.4,40.1z
	"/>
<path class="st8" d="M49.8,38.6c-0.1,0-0.2,0.1-0.2,0.1c0.6-1.1,1.2-2.2,1.3-3.5l0,0c0-0.1,0-0.1,0.1-0.2
	C50.9,36.4,50.6,37.6,49.8,38.6z"/>
<path class="st8" d="M49,41.5c0.1-0.1,0.2-0.2,0.2-0.3c0.3-0.2,0.6-0.4,1-0.6c0.1,0.1,0.1,0.2,0.2,0.4C50,41.1,49.6,41.3,49,41.5z"
	/>
<path class="st15" d="M50.3,40.6c-0.3,0.2-0.6,0.4-1,0.6c-0.1-0.1-0.2-0.2-0.3-0.3c0,0,0.1-0.1,0.2-0.1c0.2-0.1,0.5-0.2,0.7-0.3
	c0.1,0,0.2,0,0.2,0C50.2,40.5,50.3,40.5,50.3,40.6z"/>
<path class="st0" d="M47.2,43.2c0.1-0.1,0.2-0.1,0.3-0.2c0.1,0,0.3,0,0.4,0c0,0.4,0,0.4-0.7,0.4l0,0C47.2,43.3,47.2,43.3,47.2,43.2z
	"/>
<path class="st0" d="M48.6,43.1c-0.1,0-0.2,0.1-0.4,0.1v-0.1c0.1,0,0.2-0.1,0.4-0.1C48.6,43.1,48.6,43.1,48.6,43.1z"/>
<path class="st0" d="M47.4,42.2c0.1,0,0.3-0.1,0.4-0.1C47.9,42.4,47.6,42.3,47.4,42.2z"/>
<path class="st0" d="M45.9,43.4c0.1,0,0.2,0.1,0.3,0.1v0.1c-0.1,0-0.2,0-0.3-0.1V43.4z"/>
<path class="st0" d="M48.2,41.9c0.2,0,0.4-0.1,0.5-0.1C48.5,41.8,48.4,41.9,48.2,41.9z"/>
<path class="st0" d="M47.2,43.4c-0.1,0.1-0.1,0.1-0.2,0.2l-0.1-0.1C47.1,43.5,47.1,43.4,47.2,43.4L47.2,43.4z"/>
<path class="st0" d="M48.6,42.6h-0.1l0,0H48.6L48.6,42.6z"/>
<path class="st0" d="M46.7,42.7l0.1,0.1C46.8,42.8,46.7,42.8,46.7,42.7z"/>
<path class="st0" d="M47.5,43l-0.1-0.1C47.5,43,47.5,43,47.5,43z"/>
<path class="st0" d="M48,42.1l0.1-0.1C48,41.9,48,41.9,48,42.1z"/>
<path class="st16" d="M11.6,39.3c-0.1-1-0.5-1.9-0.4-2.8c0.1-0.9,0.6-1.6,1-2.4c0.1-0.2,0-0.3,0.1-0.5c0.4-0.5,1.2-0.7,1.3-1.5
	c0.1-0.5,0.7-0.9,1.2-0.6c0.4,0.1,0.7,0.1,1-0.2c0.2-0.3,0.2-0.6,0.1-1c0-0.1,0-0.2-0.1-0.3c0.1-0.1,0.1-0.1,0.2-0.2
	c0.3-0.2,0.6-0.4,1-0.6c0.1-0.1,0.3-0.2,0.4-0.3c0.2,0,0.4-0.1,0.5-0.1c0.2,0.6,0.4,1.4,0.7,2c0.2,0,0.4,0,0.6,0
	c0.2,0.7,0.9,0.6,1.4,0.5c1.4-0.2,2.6-1.7,2.3-3.1c0-0.1-0.1-0.2-0.1-0.3c-0.2-0.4-0.4-1-0.6-1.4c0.4-0.1,0.9-0.1,1.3-0.2
	c-0.1,0.4-0.1,0.9,0.4,0.9c0.2,0,0.4-0.2,0.6-0.4c0.1-0.1-0.1-0.3-0.1-0.5c0-0.1,0-0.2,0-0.3c0.1,0,0.3-0.1,0.4-0.1
	c0,0.2,0.1,0.4,0.1,0.5c0,0.1-0.1,0.1-0.1,0.2c0.2,0.5,0.4,1.1,0.6,1.5c0,0.1,0.1,0.2,0.1,0.3c-0.1,0.4,0.1,0.7,0.5,1
	c-0.2,0.2-0.3,0.5-0.5,0.7c-0.1,0.1-0.3,0.2-0.5,0.2c0.1,0.1,0.1,0.2,0.2,0.2c0.3-0.2,0.7-0.4,1.1-0.6c0.9,0.7,1.8,1.2,2.9,1.1
	c0.7-0.1,1.5-0.4,2.2-0.6c0.1,0,0.1-0.3,0.2-0.4c0.6-0.3,1-0.9,1.1-1.6c0.4,0.2,0.7,0.3,1.2,0.5c0.1,0,0.1,0.1,0.2,0.1
	c0.7-0.1,1.5-0.1,2.1-0.2c0,0,0-0.1,0-0.2c0.7,0,1.3-0.4,1.7-1c0.3-0.3,0.4-0.7,0.7-1.1c0.2-0.3,0.5-0.2,0.7,0.1
	c0.2,0.3,0.3,0.9,0.6,1.1c0.5,0.5,1.1,1,1.6,1.5c-0.1,0.1-0.4,0.3-0.5,0.6c-0.1,0.3,0,0.6,0,1c0.3,0,0.5,0,0.9,0.1
	c0.5,0.1,0.1,0.4,0.2,0.7l0,0c-0.2,0-0.4,0-0.5,0c-0.2,0.5-0.3,0.9-0.5,1.3c-0.5,1.4-0.7,2.8-0.3,4.3c0.4,1.4,1.4,2,2.7,2.2
	c0.2,0,0.4,0.1,0.6,0.1c0,0.1-0.1,0.2-0.1,0.3c0,0.4-0.1,0.9,0,1.3c0,0.1,0.6,0,1.1,0c0.1,0,0.1,0,0.2,0l0,0
	c-0.4,0.7-0.2,1.2,0.4,1.4c-0.1,0.1-0.1,0.4-0.2,0.4c-1,0.2-1.9,0.3-2.9,0.4c-0.4,0-0.9,0-1.3-0.1c0,0.1,0.1,0.1,0.1,0.1
	s-0.1,0-0.1,0.1c-0.1-0.1-0.1-0.3-0.2-0.4l0,0l0,0c0,0,0,0,0-0.1l0,0c-0.2-0.2-0.5-0.6-0.7-0.6c-0.3,0.1-0.7,0.4-0.9,0.7
	c-0.1,0.4-0.3,0.6-0.9,0.6s-1.1,0.1-1.8,0.1c0.2-0.3,0.4-0.5,0.5-0.7c-1-1-1.2-1.1-1.5-0.3c0,0,0,0.1-0.1,0.1
	c-0.1-0.1-0.2-0.3-0.2-0.4c0.2-1,0-1.8-0.3-2.6c-0.1-0.4-0.6-0.7-1-1c-0.3-0.2-0.7-0.4-1.2-0.6c-1.4-0.6-3.3,0.1-4,1.3
	c-0.1,0.1-0.3,0.1-0.3,0.2c-0.2,0.4-0.5,0.7-0.7,1.2c-0.1,0.1,0,0.3,0,0.5c0.1,0.6,0.2,1.2,0.3,1.8c0,0.2,0,0.5-0.2,0.7
	c0-0.6-0.2-0.9-0.9-0.5c-0.1,0-0.3-0.2-0.4-0.2c-0.2,0-0.4,0-0.5,0.1c-0.1,0-0.2,0-0.2,0c-0.1,0.5-0.4,0.5-0.9,0.4
	c-0.9-0.1-1.8-0.1-2.7-0.3s-1.8-0.1-2.7-0.6c-0.1-0.1-0.2,0-0.4,0c-1.4,0.2-2.6-0.4-3.7-0.9c-0.6-0.2-1.3-0.6-1.9-1
	c-0.1-0.1-0.2-0.2-0.3-0.3c0.1-0.2,0.3-0.3,0.3-0.5c0.1-0.3,0.2-0.7-0.2-1s-1.1-0.1-1.2,0.3C12,39.5,11.8,39.3,11.6,39.3z
	 M21.6,41.1l0.1-0.1c0.6,0,1-0.5,1-1.1c0.1-0.5,0.1-0.5,0.6-0.3c1.2,0.4,2.3,0.6,3.4,0c0.1-0.1,0.3-0.1,0.6-0.1
	c0.1-0.2,0.2-0.4,0.2-0.6c0.1-0.1,0.3-0.1,0.3-0.2c0.9-1.1,1.1-2.2,0.9-3.5c-0.2-0.9-0.6-1.7-1-2.4c0-0.1-0.2-0.1-0.2-0.2
	c-0.1-0.1-0.2-0.2-0.3-0.2c-0.6-0.4-0.9-1.2-1.6-1.4c-0.4-0.1-0.9-0.4-1.4-0.5c-0.4-0.1-1.1-0.4-1.4-0.2c-0.5,0.3-1,1-1.4,1.4
	c-0.1,0.1-0.3,0.2-0.3,0.3c-0.2,0.6-0.3,1.3-0.5,2c-0.6-0.6-1.4-1.2-2.3-1.3c-1-0.4-1.8-0.3-2.7,0.4l0,0l0,0
	c-0.1,0.2-0.3,0.5-0.4,0.7c-0.4,1.1-0.4,2.2-0.4,3.3c-0.3,0.9,0.3,2.9,1.2,3.4c0.3,0.7,1,1,1.6,1.3c1,0.5,1.8,0.3,2.8,0.1
	c0.2-0.1,0.4-0.3,0.6-0.4C21.3,41.4,21.4,41.2,21.6,41.1z M37.7,41c-0.3,0.3-0.2,0.6,0.1,0.9c0.3,0.2,0.6,0.2,1-0.2
	c0.6-0.3,0.7-0.5,0.3-1l-0.1-0.1c0-0.4-0.4-0.5-0.6-0.6c-0.2,0.3-0.3,0.6-0.4,0.9C37.8,40.9,37.7,40.9,37.7,41z M38.9,29
	c0.3,0.1,0.4-0.1,0.3-0.4c-0.2-0.2-0.4-0.5-0.7-0.6c-0.4-0.2-0.6,0-0.9,0.4c-0.2,0.5-0.1,1,0.4,1.1C38.4,29.5,38.8,29.5,38.9,29
	L38.9,29z M12.8,35.4c-0.3,0-0.5,0-0.9,0c-0.1,0.2-0.3,0.4-0.3,0.6c0.1,0.3,0.2,0.6,0.6,0.5c0.7-0.1,1-0.4,0.9-1.2
	C13,35.4,12.9,35.4,12.8,35.4z M17.9,30.4c0-0.1,0-0.1,0-0.1c-0.2,0-0.5-0.1-0.7,0c-0.3,0.1-0.4,0.5-0.2,0.9
	c0.1,0.2,0.3,0.6,0.5,0.5c0.3,0,0.5-0.3,0.9-0.4l-0.1-0.1C18,30.8,18,30.6,17.9,30.4z M23.1,42.4c0.1-0.1,0.2-0.3,0.2-0.4
	c-0.2-0.3-0.5-0.6-0.7-1c-0.7,0.5-0.9,1.1-0.7,1.8c0.5,0,1.1,0,1.6,0C23.3,42.6,23.2,42.5,23.1,42.4L23.1,42.4z M38.8,37.7
	c0.4-0.1,0.6-0.4,0.5-0.9c0-0.4,0-1-0.2-1.4c-0.2-0.6-0.4-1.3-1.3-1.4C37.3,34,36.8,34,36.3,34c-0.4,0-0.6,0.2-0.6,0.5
	c-0.2,0.1-0.5,0.1-0.6,0.3c-0.3,0.6-0.7,1.3-0.4,2.1c0.1,0.2,0.1,0.5,0.2,0.9c0.1,0,0.2,0.1,0.3,0.1c0.9,0.9,1.8,1,2.9,0.5
	C38.5,38.3,38.7,38.1,38.8,37.7z M15.1,31.4c-0.5,0.3-1,0.5-1.2,0.9c-0.3,0.4,0.1,0.7,0.3,1.3c0.4-0.2,1-0.3,1.1-0.6
	C15.5,32.5,15.2,32,15.1,31.4z M42.4,41.1c-0.1,0-0.2,0-0.2,0c-0.1,0.2-0.4,0.4-0.4,0.6c0,0.2,0.3,0.5,0.5,0.5
	c0.3,0.1,0.6-0.2,0.5-0.5C42.8,41.5,42.5,41.3,42.4,41.1z M26.1,40.8c-0.1,0-0.1,0-0.2,0c-0.1,0.2-0.4,0.4-0.4,0.6
	c0,0.3,0.2,0.6,0.5,0.5c0.2,0,0.5-0.3,0.5-0.5C26.5,41.2,26.2,41,26.1,40.8z M13.7,38.2c0.2,0,0.5-0.2,0.5-0.6c0-0.5-0.3-1-0.7-1
	s-0.9,0.3-0.9,0.9C12.8,38,13.1,38.2,13.7,38.2z"/>
<path class="st4" d="M50,40.5c-0.2,0.1-0.5,0.2-0.7,0.3c-0.3-0.2-0.5-0.4-0.9-0.5c-0.1,0-0.3,0.4-0.5,0.6c-0.7,0-1.2-0.5-1.6-1.1
	l0,0c-0.2-0.4-0.4-0.9-0.6-1.4c-0.1,0.1-0.3,0.1-0.4,0.2c-1.4,0.4-2.9,0.1-3.7-1s-1.2-2.3-0.7-3.6c0.3-1,0.9-1.9,1.3-2.9l0,0
	c0.5-0.6,1.2-1.3,1.7-1.9c0.1-0.1,0.3-0.1,0.5-0.1c0.2,0.2,0.4,0.3,0.5,0.5l0.1,0.1c0.1,0.1,0.3,0.2,0.4,0.3c0.3,0.3,0.6,0.6,1,1
	c0.6,0.6,1.2,1.3,1.8,1.9c0.2,0.2,0.4,0.3,0.6,0.4c0.2,0.2,0.4,0.4,0.6,0.6l0.1,0.1l0.1,0.1c0.1,0,0.1,0.1,0.2,0.1
	c0,0.1,0.1,0.1,0.1,0.2c0.1,0.1,0.2,0.2,0.3,0.3c0.1,0.3,0.2,0.4,0.5,0.2c-0.1,1.3-0.6,2.4-1.3,3.5c-0.4,0.3-0.4,1.2,0,1.5
	C49.7,40.2,49.8,40.4,50,40.5z M42.3,35.9c0.2-0.7,0.3-1.5,0.6-2.2c0.3-0.7,0.7-1.4,1.2-2.2C42.6,32.6,41.7,34.8,42.3,35.9z"/>
<path class="st0" d="M42.3,29.9c-0.1,0.1-0.2,0.3-0.3,0.3c-0.2,0-0.5,0-0.6-0.2c-0.1-0.1-0.1-0.5,0-0.6s0.5-0.2,0.6-0.1
	C42.2,29.3,42.2,29.6,42.3,29.9C42.3,29.8,42.3,29.8,42.3,29.9z"/>
<path class="st16" d="M42.3,29.9C42.3,29.8,42.3,29.8,42.3,29.9c0.1-0.3,0.1-0.5,0.2-0.7c0.2,0,0.5,0,0.7,0c0,0,0,0.1,0.1,0.1
	c-0.3,0.2-0.6,0.5-0.9,0.7C42.5,30.1,42.3,29.9,42.3,29.9z"/>
<path class="st7" d="M24.3,25.5c0,0.1,0,0.2,0,0.3c-0.3,0-0.5,0.1-0.9,0.1C23,26,22.6,26,22.1,26.1H22
	C22.8,25.9,23.5,25.7,24.3,25.5z"/>
<path class="st1" d="M41.5,46c0.2,0,0.4,0.1,0.6,0.1c-0.6,0.9-1.6,0.6-2.4,0.7c-3.4,0.5-6.9,0.4-10.3,0.3c-1.8,0-3.6-0.2-5.4-0.4
	c-0.1,0-0.2,0.1-0.3,0.1c-3.4-0.3-6.7-1.1-10-2.2c0.1-0.3,0.2-0.5,0.3-0.9c1.3,0.3,2.4,0.7,3.7,1.1c5.7,1.4,11.6,1.8,17.5,1.5
	C37.3,46.4,39.5,46.2,41.5,46z"/>
<path class="st3" d="M52.5,44.1c0.1,0,0.2-0.1,0.2-0.1c0.2-0.1,0.5-0.2,0.7-0.3c-0.4,0.2-0.9,0.3-1.3,0.5
	C52.3,44.3,52.4,44.2,52.5,44.1z"/>
<path class="st3" d="M53.6,43.8c0.1-0.1,0.2-0.1,0.3-0.2C53.8,43.6,53.7,43.6,53.6,43.8z"/>
<path class="st0" d="M35.5,42.5C35.6,42.4,35.6,42.4,35.5,42.5c0.4-0.3,0.7-0.4,1,0c0.2,0.3,0,0.6-0.3,0.7
	C35.8,43.4,35.5,43,35.5,42.5z"/>
<path class="st16" d="M40.7,42.6v-0.1l0,0C40.7,42.5,40.7,42.6,40.7,42.6L40.7,42.6z"/>
<path class="st0" d="M12.4,39.3c0.2-0.1,0.4-0.3,0.6-0.3c0.3-0.1,0.6,0.2,0.5,0.5c0,0.2-0.3,0.4-0.5,0.4c-0.2,0-0.4-0.2-0.6-0.4
	C12.4,39.5,12.4,39.4,12.4,39.3z"/>
<path class="st16" d="M46.3,39.8c0.1,0.2,0.2,0.5,0.4,0.6c0.4,0.3,0.6,0.6,0.4,1.1c0,0.1-0.1,0.2-0.3,0.4c0-1.1-0.6-1.7-1.7-1.7
	c-0.3-0.4-0.5-0.9-0.7-1.3c0.3,0,0.7-0.1,1.2-0.1c0,0.1,0,0.1-0.1,0.2C45.7,39.4,45.9,39.6,46.3,39.8L46.3,39.8z"/>
<path class="st13" d="M47.9,40.9c0.2-0.2,0.4-0.6,0.5-0.6c0.3,0.1,0.5,0.3,0.9,0.5c-0.1,0-0.1,0.1-0.2,0.1
	C48.6,40.9,48.2,40.9,47.9,40.9z"/>
<path class="st16" d="M45.2,40.4c-0.1,0.1-0.1,0.2-0.2,0.3l0,0C45,40.6,45.1,40.5,45.2,40.4z"/>
<path class="st12" d="M8.4,38l-0.1-0.1c-0.1-0.1-0.1-0.2-0.2-0.3c-0.1-0.5-0.2-1.2-0.2-1.7c0-0.7,0.3-1.4,0.9-1.9
	c0.2-0.2,0.4-0.5,0.6-0.7c0.2-0.1,0.4-0.1,0.7-0.3c-0.3,1-0.6,1.7-0.9,2.6c-0.2,0.9-0.1,1.7-0.2,2.7C8.8,38.1,8.6,38,8.4,38z"/>
<path class="st7" d="M45.2,40.4c-0.1,0.1-0.1,0.2-0.2,0.3c-0.1,0-0.1,0-0.2,0c-0.3,0-1,0.1-1.1,0c-0.1-0.3,0-0.9,0-1.3
	c0-0.1,0.1-0.2,0.1-0.3c-0.2,0-0.4-0.1-0.6-0.1c-1.3-0.2-2.2-1-2.7-2.2c-0.4-1.5-0.2-2.9,0.3-4.3c0.1-0.4,0.3-0.7,0.5-1.3
	c0.1,0,0.3,0,0.5,0c-0.4,1-1.1,1.8-1.3,2.9c-0.3,1.3-0.1,2.6,0.7,3.6s2.3,1.5,3.7,1c0.1-0.1,0.3-0.1,0.4-0.2c0.2,0.4,0.4,1,0.6,1.4
	c-0.2-0.2-0.4-0.5-0.7-0.7c0-0.1,0-0.1,0.1-0.2c-0.4,0-0.9,0.1-1.2,0.1C44.7,39.5,44.9,39.9,45.2,40.4z M45.1,40
	c-0.3-0.2-0.6-0.5-0.7-0.5c-0.2,0-0.3,0.3-0.5,0.5c0.2,0.2,0.4,0.4,0.5,0.4C44.5,40.6,44.7,40.4,45.1,40z"/>
<path class="st9" d="M21.6,31.4C22,31,22.5,30.4,23,30c0.3-0.2,1,0.1,1.4,0.2c0.4,0.1,0.9,0.4,1.4,0.5c0.7,0.2,1,1.1,1.6,1.4
	c0.1,0.1,0.2,0.2,0.3,0.2c0.1,0.1,0.2,0.1,0.2,0.2c0.3,0.9,0.7,1.6,1,2.4c0.2,1.3,0.1,2.4-0.9,3.5c-0.1,0.1-0.2,0.1-0.3,0.2l0,0
	c1.1-1.3,1.5-2.7,0.9-4.3c-0.6-1.7-1.9-3.1-3.6-3.8C23.5,30,22.7,30.3,21.6,31.4L21.6,31.4z"/>
<path class="st9" d="M27.7,38.9c-0.1,0.2-0.2,0.5-0.2,0.6c-0.2,0-0.4,0-0.6,0.1c-1.2,0.6-2.3,0.4-3.4,0c-0.5-0.2-0.5-0.2-0.6,0.3
	c-0.1,0.5-0.3,1.1-1,1.1l0,0c0.4-0.6,0.7-1.3,1.2-1.9C24.5,40,26.1,40,27.7,38.9C27.6,38.9,27.7,38.9,27.7,38.9z"/>
<path class="st9" d="M38.8,37.7c0,0.4-0.3,0.6-0.6,0.9c-1.1,0.4-2,0.3-2.9-0.5c-0.1-0.1-0.2-0.1-0.3-0.1c-0.1-0.2-0.1-0.5-0.2-0.9
	c-0.3-0.9,0-1.5,0.4-2.1c0.1-0.1,0.4-0.2,0.6-0.3l0,0c-1.3,1.3-1.1,3,0.4,3.7C37,38.8,37.9,38.5,38.8,37.7L38.8,37.7z"/>
<path class="st9" d="M35.7,34.6c0-0.4,0.2-0.5,0.6-0.5c0.5,0,1.1,0,1.6,0.1c0.7,0.1,1.1,0.7,1.3,1.4c0.1,0.4,0.1,0.9,0.2,1.4
	c0,0.4-0.1,0.6-0.5,0.9l0,0c0.5-0.9,0.5-1.7,0-2.6C38.1,34.2,37,34,35.7,34.6L35.7,34.6z"/>
<path class="st9" d="M14.9,37.2c0-1.2,0-2.2,0.4-3.3c0.1-0.3,0.3-0.5,0.4-0.7l0,0c0.7-0.7,1.6-1,2.7-0.4h-0.1c-1.7-0.1-2.6,0.4-3,2
	C15.1,35.5,15.1,36.3,14.9,37.2C15,37.2,15,37.2,14.9,37.2z"/>
<path class="st7" d="M18.2,32.6h0.1c1,0.1,1.7,0.6,2.3,1.3c0.2-0.7,0.3-1.4,0.5-2c0-0.1,0.2-0.2,0.3-0.3h0.1
	c-0.4,0.9-0.6,1.8-0.6,2.8l-0.1,0.1C20.1,33.4,19.3,32.9,18.2,32.6z"/>
<path class="st9" d="M23.1,42.4c0.1,0.1,0.2,0.2,0.3,0.4c-0.5,0-1.1,0-1.6,0c-0.1-0.6,0-1.3,0.7-1.8c0.2,0.3,0.5,0.6,0.7,1
	C23.4,42.1,23.2,42.3,23.1,42.4c0-0.1,0-0.3,0-0.4c-0.1-0.3-0.4-0.5-0.7-0.3c-0.2,0.1-0.3,0.4-0.3,0.6c0,0.3,0.3,0.5,0.6,0.4
	C22.9,42.6,23,42.5,23.1,42.4z"/>
<path class="st7" d="M15.1,31.4c0.1,0.5,0.4,1.1,0.2,1.4c-0.1,0.3-0.7,0.4-1.1,0.6c-0.2-0.4-0.6-0.7-0.3-1.3
	C14.2,32,14.6,31.7,15.1,31.4z M14.6,33.1c0.1,0,0.2,0,0.2,0c0.1-0.2,0.3-0.4,0.4-0.6c0.1-0.3-0.2-0.6-0.5-0.5
	c-0.2,0-0.4,0.3-0.5,0.5C14.2,32.7,14.4,32.9,14.6,33.1z"/>
<path class="st9" d="M37.8,40.8c0.1-0.2,0.3-0.5,0.4-0.9c0.3,0.1,0.6,0.2,0.6,0.6c0,0,0,0.1,0.1,0.1c0.4,0.4,0.3,0.6-0.3,1l0,0
	c0-0.3,0.1-0.6,0-0.7C38.5,40.7,38.1,40.8,37.8,40.8L37.8,40.8z"/>
<path class="st0" d="M42.4,41.1c0.1,0.2,0.3,0.4,0.4,0.6c0,0.3-0.2,0.6-0.5,0.5c-0.2,0-0.5-0.3-0.5-0.5s0.3-0.4,0.4-0.6
	C42.2,41.1,42.3,41.1,42.4,41.1z"/>
<path class="st0" d="M26.1,40.8c0.1,0.2,0.4,0.4,0.4,0.6c0,0.2-0.3,0.4-0.5,0.5c-0.3,0.1-0.6-0.2-0.5-0.5c0-0.2,0.2-0.4,0.4-0.6
	C25.9,40.8,26,40.8,26.1,40.8z"/>
<path class="st0" d="M17.9,30.4c0.1,0.2,0.1,0.5,0.2,0.7c-0.2,0.1-0.5,0.3-0.6,0.2c-0.2-0.1-0.4-0.4-0.3-0.6
	C17.1,30.3,17.6,30.3,17.9,30.4z"/>
<path class="st0" d="M11.9,35.4c0.3,0,0.5,0,0.9,0c0,0.2,0.1,0.4,0.1,0.6c-0.1,0.3-0.3,0.5-0.7,0.3C11.7,36.1,11.7,35.7,11.9,35.4z"
	/>
<path class="st0" d="M23.4,26c0.3,0,0.5-0.1,0.9-0.1c0.1,0.2,0.2,0.4,0.1,0.5c-0.1,0.2-0.4,0.4-0.6,0.4C23.4,26.7,23.3,26.3,23.4,26
	z"/>
<path class="st7" d="M13.7,38.2c-0.6,0-1-0.2-1-0.7c0-0.5,0.3-1,0.9-0.9c0.4,0,0.7,0.4,0.7,1C14.3,38,13.9,38.2,13.7,38.2z
	 M13.4,38.1c0.1,0,0.2,0,0.3,0c0.1-0.2,0.4-0.4,0.4-0.6c0-0.2-0.3-0.5-0.5-0.5c-0.2,0-0.5,0.3-0.5,0.4C13,37.6,13.2,37.9,13.4,38.1z
	"/>
<path class="st7" d="M38.9,29c-0.1,0.4-0.4,0.5-0.9,0.4s-0.6-0.5-0.4-1.1c0.1-0.4,0.4-0.5,0.9-0.4c0.3,0.1,0.5,0.3,0.7,0.6
	C39.4,28.9,39.2,29,38.9,29c0-0.2,0-0.4,0-0.5c-0.1-0.1-0.4-0.3-0.6-0.3c-0.1,0-0.4,0.2-0.4,0.3c0,0.2,0.1,0.6,0.2,0.6
	C38.3,29.2,38.6,29.1,38.9,29z"/>
<path class="st7" d="M14.9,37.2C15,37.2,15,37.2,14.9,37.2c0.2,1.2,0.5,2.3,1.2,3.4l0,0C15.3,39.9,14.7,38,14.9,37.2z"/>
<path class="st9" d="M17.9,30.4c-0.4-0.1-0.7-0.1-0.9,0.3c0,0.2,0.2,0.5,0.3,0.6c0.1,0.1,0.4-0.1,0.6-0.2l0.1,0.1
	c-0.3,0.1-0.5,0.4-0.9,0.4c-0.2,0-0.4-0.3-0.5-0.5c-0.2-0.3-0.1-0.7,0.2-0.9c0.2-0.1,0.5,0,0.7,0C17.9,30.1,17.9,30.3,17.9,30.4z"/>
<path class="st9" d="M21.1,41.5c-0.2,0.1-0.4,0.3-0.6,0.4c-1,0.3-1.9,0.4-2.8-0.1l0.1-0.1C18.9,42.1,20,41.9,21.1,41.5
	C21.1,41.4,21.1,41.4,21.1,41.5z"/>
<path class="st7" d="M11.9,35.4c-0.2,0.4-0.2,0.7,0.2,1c0.3,0.1,0.6,0,0.7-0.3c0-0.2-0.1-0.4-0.1-0.6c0.1,0,0.2,0,0.4,0
	c0.1,0.7-0.1,1.1-0.9,1.2c-0.4,0.1-0.6-0.2-0.6-0.5C11.6,35.8,11.8,35.6,11.9,35.4z"/>
<path class="st7" d="M17.8,41.7l-0.1,0.1c-0.6-0.2-1.4-0.5-1.6-1.3l0,0C16.7,40.9,17.2,41.3,17.8,41.7z"/>
<path class="st9" d="M38.7,41.7c-0.2,0.4-0.6,0.4-1,0.2s-0.4-0.5-0.1-0.9l0,0C37.8,41.7,38,41.9,38.7,41.7
	C38.6,41.6,38.7,41.7,38.7,41.7z"/>
<path class="st9" d="M21.6,41.1c-0.1,0.1-0.3,0.2-0.4,0.3l0,0C21.3,41.3,21.4,41.2,21.6,41.1L21.6,41.1z"/>
<path class="st9" d="M37.7,41c0-0.1,0.1-0.1,0.1-0.2l0,0C37.8,40.9,37.8,41,37.7,41L37.7,41z"/>
<path class="st9" d="M40.7,42.6v-0.1C40.7,42.5,40.7,42.6,40.7,42.6L40.7,42.6z"/>
<path class="st9" d="M21.7,41l-0.1,0.1l0,0C21.6,41.1,21.6,41,21.7,41L21.7,41z"/>
<path class="st9" d="M15.8,33L15.8,33L15.8,33L15.8,33z"/>
<path class="st8" d="M42.3,35.9c-0.6-1.1,0.3-3.3,1.8-4.5c-0.4,0.9-1,1.5-1.2,2.2C42.6,34.4,42.5,35.2,42.3,35.9z"/>
<path class="st0" d="M45.1,40c-0.3,0.3-0.5,0.5-0.7,0.5s-0.4-0.3-0.5-0.4c0.2-0.2,0.3-0.5,0.5-0.5C44.5,39.5,44.7,39.8,45.1,40z"/>
<path class="st4" d="M21.7,41l-0.1,0.1c-0.1,0.1-0.3,0.2-0.4,0.3c-1.1,0.5-2.1,0.6-3.3,0.3c-0.5-0.4-1.2-0.7-1.7-1.2
	c-0.6-1.1-1-2.2-1.1-3.4c0.1-0.9,0.1-1.7,0.3-2.6c0.4-1.6,1.3-2.1,3-2c1,0.3,1.9,1,2.7,1.7c-0.2,0.3-0.4,0.6-0.7,0.9
	c-0.4,0.4-0.9,1-1.2,1.4L19,36.6c-0.2,0.1-0.4,0.2-0.6,0.3c-0.2-0.2-0.4-0.4-0.6-0.6l-0.1-0.1c0-0.1-0.1-0.1-0.1-0.2l0,0
	c0.1,0,0.1,0.1,0.2,0.1l0.1,0.1c0.2,0.2,0.4,0.4,0.6,0.6c0,0.1,0,0.2,0,0.3c0.2,0.1,0.3,0.2,0.5,0.3c0.2,0.1,0.4,0.3,0.5,0.4
	c0.2,0.2,0.4,0.4,0.6,0.6c0.1,0.1,0.1,0.1,0.2,0.2c0.1,0.1,0.1,0.2,0.2,0.3l0.1-0.1c-0.1-0.1-0.2-0.1-0.3-0.2
	c-0.1-0.1-0.1-0.1-0.2-0.2c-0.2-0.2-0.4-0.4-0.6-0.6c-0.2-0.3-0.4-0.5-0.6-0.9c0.1-0.1,0.2-0.3,0.3-0.5l0.1-0.1
	c0.1,0,0.2-0.1,0.3-0.1c1.4-1.4,2.8-2.8,4.1-4.1c0.1-0.1,0.1-0.2,0.1-0.2c-0.1,0-0.1-0.1-0.2-0.1c-0.5,0.6-1.1,1.2-1.7,1.8
	c-0.2,0.2-0.4,0.3-0.6,0.4c0-1,0.2-1.9,0.6-2.8c1-1.2,1.8-1.4,3.2-0.7c1.7,0.9,2.9,2.1,3.6,3.8c0.6,1.6,0.2,3-0.9,4.3
	c-1.6,1.3-3.2,1.3-4.8,0.2C22.5,39.7,22,40.4,21.7,41z M26.8,37.2c0.9-1.6-0.6-4.5-2.4-4.9C25.5,33.7,26.8,35,26.8,37.2z M16.9,34.9
	c-1,1.9,0.1,5.1,1.7,5.3C17.1,38.8,17,36.9,16.9,34.9z"/>
<path class="st0" d="M35.7,34.6c1.3-0.6,2.3-0.4,3,0.4c0.6,0.9,0.5,1.7,0,2.6c-0.9,0.9-1.8,1.1-2.7,0.6
	C34.7,37.6,34.5,35.9,35.7,34.6z M37.1,35.9c-0.1,0-0.1,0-0.2,0c-0.1,0.2-0.3,0.4-0.3,0.6c0,0.2,0.3,0.3,0.5,0.4
	c0.1,0,0.4-0.3,0.4-0.3C37.4,36.3,37.2,36.1,37.1,35.9z"/>
<path class="st11" d="M21,34.2c0.2-0.1,0.4-0.3,0.6-0.4c0.5-0.5,1.1-1.2,1.7-1.8c0.1,0,0.1,0.1,0.2,0.1c0,0.1,0,0.2-0.1,0.2
	c-1.4,1.4-2.8,2.8-4.1,4.1c-0.1,0.1-0.2,0.1-0.3,0.1l0,0c0.4-0.4,0.9-1,1.2-1.4c0.2-0.3,0.5-0.6,0.7-0.9C21,34.2,21,34.2,21,34.2z"
	/>
<path class="st0" d="M23.1,42.4c-0.1,0.1-0.2,0.2-0.3,0.2c-0.3,0.1-0.6,0-0.6-0.4c0-0.2,0.2-0.5,0.3-0.6c0.3-0.1,0.6,0,0.7,0.3
	C23.2,42.1,23.1,42.3,23.1,42.4L23.1,42.4z"/>
<path class="st0" d="M14.6,33.1c-0.1-0.2-0.4-0.4-0.4-0.6c0-0.2,0.3-0.5,0.5-0.5c0.3-0.1,0.6,0.2,0.5,0.5c0,0.2-0.2,0.4-0.4,0.6
	C14.7,33.1,14.6,33.1,14.6,33.1z"/>
<path class="st0" d="M37.7,41c0-0.1,0.1-0.1,0.1-0.2c0.3,0,0.6-0.1,0.7,0.1c0.1,0.1,0,0.5,0,0.7C38,41.9,37.8,41.7,37.7,41z"/>
<path class="st0" d="M13.4,38.1c-0.1-0.2-0.4-0.4-0.3-0.6c0-0.2,0.3-0.5,0.5-0.4c0.2,0,0.5,0.3,0.5,0.5s-0.2,0.4-0.4,0.6
	C13.5,38.1,13.5,38.1,13.4,38.1z"/>
<path class="st0" d="M38.9,29c-0.3,0.1-0.5,0.2-0.9,0.1c-0.1,0-0.2-0.4-0.2-0.6c0-0.1,0.3-0.3,0.4-0.3c0.2,0,0.4,0.2,0.6,0.3
	C38.9,28.6,38.8,28.8,38.9,29L38.9,29z"/>
<path class="st8" d="M26.8,37.2c0-2.1-1.2-3.5-2.4-4.9C26.2,32.8,27.7,35.7,26.8,37.2z"/>
<path class="st8" d="M16.9,34.9c0,1.9,0.2,3.8,1.7,5.3C17,40,16,36.9,16.9,34.9z"/>
<path class="st11" d="M18.8,36.6c-0.1,0.2-0.2,0.3-0.3,0.5c0.2,0.3,0.4,0.5,0.6,0.9l0,0c-0.2-0.1-0.4-0.3-0.5-0.4
	c-0.1-0.1-0.3-0.2-0.5-0.3c0,0,0-0.1,0-0.3l0,0C18.4,36.8,18.6,36.7,18.8,36.6L18.8,36.6z"/>
<path class="st11" d="M17.5,36.3c0.2,0.2,0.4,0.4,0.6,0.6l0,0C17.9,36.8,17.7,36.5,17.5,36.3L17.5,36.3z"/>
<path class="st11" d="M19.9,38.8c-0.2-0.2-0.4-0.4-0.6-0.6l0,0C19.4,38.2,19.6,38.5,19.9,38.8L19.9,38.8z"/>
<path class="st11" d="M20.1,39c0.1,0.1,0.2,0.1,0.3,0.2l-0.1,0.1C20.2,39.2,20.1,39.1,20.1,39L20.1,39z"/>
<path class="st11" d="M19.9,38.8c0.1,0.1,0.1,0.1,0.2,0.2l0,0C20,38.9,19.9,38.8,19.9,38.8L19.9,38.8z"/>
<path class="st11" d="M17.3,36.2c-0.1,0-0.1-0.1-0.2-0.1l0,0C17.2,36.1,17.3,36.2,17.3,36.2L17.3,36.2z"/>
<path class="st11" d="M18.8,36.6l0.1-0.1l0,0C18.9,36.6,18.8,36.6,18.8,36.6L18.8,36.6z"/>
<path class="st11" d="M17.5,36.3l-0.1-0.1l0,0L17.5,36.3L17.5,36.3z"/>
<path class="st10" d="M37.1,35.9c0.1,0.2,0.3,0.4,0.4,0.6c0,0.1-0.3,0.3-0.4,0.3c-0.2,0-0.5-0.2-0.5-0.4s0.2-0.4,0.3-0.6
	C36.9,35.9,37,35.9,37.1,35.9z"/>
<path class="st0" d="M13.8,46.9c0,0-5.5-3.3-7.3-5.6c-1.9-2.3,0.2,2.1,0.2,2.1s3.8,3.4,7.4,5.3C17.8,50.7,13.8,46.9,13.8,46.9z"/>
<path class="st1" d="M35.2,51.6c0,0,3-0.2,4.5-0.6c1.5-0.4-0.3,1.6-0.3,1.6s-3.7,0.7-4.4,0.6C34.4,53.1,35.2,51.6,35.2,51.6z"/>
<path class="st12" d="M7.6,41.5l4.3,0.7l1.2,1.3l1,2.1l-0.2,1.3c0,0-6.5-3.9-6.8-5.4C6.8,40.1,7.6,41.5,7.6,41.5z"/>
</svg>
