<?xml version="1.0" encoding="utf-8"?>
<!-- Generator: Adobe Illustrator 24.1.3, SVG Export Plug-In . SVG Version: 6.00 Build 0)  -->
<svg version="1.1" id="Layer_1" xmlns="http://www.w3.org/2000/svg" xmlns:xlink="http://www.w3.org/1999/xlink" x="0px" y="0px"
	 width="64" height="64" viewBox="0 0 64 64" style="enable-background:new 0 0 64 64;" xml:space="preserve">
<style type="text/css">
	.st0{fill:#040303;}
	.st1{fill:#F9F9F9;}
	.st2{fill:#0B0B0C;}
	.st3{fill:#F8D3A4;}
	.st4{fill:#87C7EC;}
	.st5{fill:#FC4751;}
	.st6{fill:#FC9600;}
	.st7{fill:#C39691;}
	.st8{fill:#FAD5A5;}
	.st9{fill:#81BEE2;}
	.st10{fill:#8ECFF7;}
	.st11{fill:#FEE2AF;}
	.st12{fill:#050709;}
</style>
<g id="bYGTRs.tif">
	<g>
		<path class="st0" d="M8.7,28.1c0-1.2,0-2.5,0-3.7C9.8,22.2,10.8,20,12,18c0.9-1.6,1.3-3.2,1.2-5.1c-0.1-1.5,0.1-1.5,1.6-1.5
			c11.3,0,22.7,0,34,0c1.5,0,1.7,0.1,1.6,1.6c-0.1,1.8,0.3,3.3,1.2,4.9c1.1,1.9,2,3.8,2.9,5.8c0.2,0.3,0.3,0.7,0.4,1
			c0.5,4-0.8,6.1-4.4,7.5c0,6.3,0,12.6,0,19c0.3,0,0.7-0.1,0.9,0c0.3,0.2,0.8,0.6,0.8,0.8c0,0.3-0.5,0.6-0.8,0.8
			c-0.2,0.1-0.5,0-0.7,0c-12.6,0-25.1,0-37.7,0c-0.3,0-0.6,0.1-0.8,0c-0.3-0.2-0.7-0.5-0.7-0.8c0-0.3,0.4-0.7,0.7-0.9
			c0.2-0.1,0.6-0.1,1-0.1c0-6.4,0-12.7,0-18.7c-1.1-0.7-2.2-1.3-3-2C9.5,29.8,9.2,28.9,8.7,28.1z M24.1,36.6c-1.8,0-3.6,0-5.5,0
			c0,2.1,0,4.1,0,5.9c1.8-1.8,3.7-3.5,5.5-5.3c0.1-0.2,0.3-0.4,0.4-0.5C24.4,36.7,24.2,36.7,24.1,36.6z M15.1,14.9
			c0.1,0,0.1,0,0.2,0c6.6,0,13.1,0,19.7,0c4.4,0,8.9,0,13.3,0l0.1,0l0.1,0c0.1-0.6,0.1-1.1,0.2-1.7c-11.4,0-22.5,0-33.8,0
			C14.9,13.8,15,14.3,15.1,14.9z M46.9,50.9c0.6,0.1,1.1,0.2,1.7,0.3c0-6.5,0-12.8,0-18.8c-1.3-0.8-2.5-1.6-3.7-2.4
			c-1,1.3-2.5,2.1-4.3,2.1c-1.8,0-3.3-0.9-4.4-2.3c-2.1,2.6-5.8,3.5-8.9,0.1c-2.6,3-6.3,3-8.7,0.1c-1.2,0.8-2.4,1.5-3.6,2.3
			c0,6.1,0,12.4,0,18.7c7.6,0,15.2,0,22.9,0c-0.1-0.6-0.2-1.2-0.3-1.8c-0.1,0-0.1,0-0.2,0c-6.6,0-13.3,0-19.9,0c-0.1,0-0.1,0-0.2,0
			c-0.2-0.2-0.4-0.4-0.6-0.6c0-0.1,0-0.1-0.1-0.2c0-4.3,0-8.5,0-12.8c0-0.1,0-0.1,0-0.2c0.4-0.2,0.8-0.6,1.2-0.6
			c9.2,0,18.4,0,27.6,0c0.4,0,0.8,0.4,1.2,0.6c0,0.1,0,0.1,0,0.2c0,5,0,10,0,15C46.9,50.8,46.9,50.9,46.9,50.9z M37.8,47.4
			c0-3.6,0-7.2,0-10.8c-2.7-0.4-5.4-0.5-7.1,2.2c-0.1,0.1-0.2,0.2-0.4,0.4c-0.5,0.5-1,0.9-1.6,0.3c-0.5-0.6-0.2-1.1,0.3-1.5
			c0.4-0.4,0.9-0.9,1.5-1.5c-0.7,0-1.2,0.1-1.6,0c-1.1-0.2-1.9,0.3-2.7,1.1c-2.2,2.3-4.4,4.6-6.7,6.7c-1,0.9-1.1,1.8-0.9,3
			C25,47.4,31.4,47.4,37.8,47.4z M29,16.7c-0.2,3.4-0.6,6.7-0.7,10c-0.1,2.1,1.5,3.6,3.5,3.7c2,0,3.6-1.5,3.6-3.6
			c0-1.4-0.1-2.7-0.2-4.1c-0.2-2-0.4-3.9-0.6-5.9C32.7,16.7,30.9,16.7,29,16.7z M27.2,16.7c-1.7,0-3.3,0-4.9,0
			c-0.2,0-0.6,0.3-0.7,0.6c-0.7,2.3-1.5,4.7-2.1,7.1c-0.3,1.1-0.2,2.3,0,3.4c0.3,1.8,2,2.8,3.8,2.6c1.7-0.2,3-1.7,3.1-3.6
			c0.1-1.4,0.1-2.8,0.2-4.2C26.9,20.6,27.1,18.8,27.2,16.7z M36.3,16.7c0.1,1.1,0.2,2,0.3,3c0.2,2.6,0.3,5.1,0.6,7.7
			c0.2,1.7,1.6,2.9,3.3,3c1.7,0.1,3.3-1,3.6-2.7c0.2-1,0.3-2.2,0-3.2c-0.6-2.4-1.4-4.8-2.2-7.2c-0.1-0.2-0.5-0.5-0.7-0.5
			C39.6,16.7,38.1,16.7,36.3,16.7z M20,16.7c-1.7,0-3.1,0-4.6,0c-0.6,0-0.9,0.2-1.1,0.8c-1,2-1.9,3.9-3,5.8c-0.6,1-0.8,2.1-0.7,3.2
			c0.1,2.3,1.5,3.8,3.5,3.8c2.1,0,3.4-1.5,3.6-3.8c0.1-1.4,0.3-2.8,0.7-4.2C18.7,20.5,19.3,18.7,20,16.7z M43.8,16.7
			c0,0.2,0,0.3,0,0.4c0.1,0.2,0.1,0.5,0.2,0.7c0.8,3.2,2.3,6.2,2.1,9.6c-0.1,1.5,1.6,2.8,3.1,2.9c3.5,0.1,4.6-3,3.6-5.9
			c-0.9-2.5-2.3-4.8-3.6-7.2c-0.1-0.2-0.4-0.5-0.7-0.5C47,16.7,45.4,16.7,43.8,16.7z M39.6,44.8c0,2.1,0,4.2,0,6.2
			c1.8,0,3.5,0,5.3,0c0-4.8,0-9.6,0-14.4c-1.8,0-3.5,0-5.3,0c0,2.1,0,4.2,0,6.3c0.7,0.2,1.7-0.1,1.7,1C41.3,45,40.4,44.7,39.6,44.8z
			"/>
		<path class="st1" d="M8.7,28.1c0.5,0.8,0.8,1.7,1.4,2.3c0.8,0.8,1.9,1.3,3,2c0,6,0,12.3,0,18.7c-0.3,0-0.7-0.1-1,0.1
			c-0.3,0.2-0.7,0.6-0.7,0.9c0,0.2,0.4,0.6,0.7,0.8c0.2,0.1,0.5,0,0.8,0c12.6,0,25.1,0,37.7,0c0.2,0,0.5,0.1,0.7,0
			c0.3-0.2,0.8-0.6,0.8-0.8c0-0.3-0.4-0.7-0.8-0.8c-0.2-0.1-0.6,0-0.9,0c0-6.4,0-12.7,0-19c3.6-1.4,4.9-3.6,4.4-7.5
			c0-0.4-0.2-0.7-0.4-1c-1-1.9-1.9-3.9-2.9-5.8c-0.9-1.5-1.3-3.1-1.2-4.9c0.1-1.6,0-1.6-1.6-1.6c-11.3,0-22.7,0-34,0
			c-1.5,0-1.7,0.1-1.6,1.5c0.1,1.8-0.3,3.5-1.2,5.1c-1.2,2.1-2.2,4.3-3.3,6.4c0-5.2,0-10.4,0-15.6c15.4,0,30.9,0,46.3,0
			c0,15.5,0,31,0,46.5c-15.4,0-30.9,0-46.3,0c0-1,0-1.9,0-2.9c0.2,0.1,0.4,0.4,0.5,0.4c0.4,0,0.8-0.1,1.1-0.3c0.2-0.2,0.2-0.8,0-1
			c-0.2-0.2-0.7-0.3-1-0.3c-0.2,0-0.4,0.2-0.6,0.3C8.7,43.7,8.7,35.9,8.7,28.1z M55.3,52.1c-0.6-0.4-1-0.9-1.3-0.9
			c-0.3,0-0.6,0.5-0.9,0.8c0.3,0.3,0.5,0.8,0.8,0.8C54.2,52.8,54.6,52.4,55.3,52.1z"/>
		<path class="st2" d="M8.7,51.6c0.2-0.1,0.4-0.4,0.6-0.3c0.4,0,0.8,0.1,1,0.3c0.2,0.2,0.2,0.8,0,1c-0.2,0.2-0.7,0.3-1.1,0.3
			c-0.2,0-0.4-0.3-0.5-0.4C8.7,52.1,8.7,51.8,8.7,51.6z"/>
		<path class="st3" d="M16.8,48.7c0.2,0.2,0.4,0.4,0.6,0.6c0.1,0,0.1,0,0.2,0c6.6,0,13.3,0,19.9,0c0.1,0,0.1,0,0.2,0
			c0.1,0.6,0.2,1.1,0.3,1.8c-7.7,0-15.3,0-22.9,0c0-6.3,0-12.6,0-18.7c1.2-0.8,2.4-1.5,3.6-2.3c2.4,2.9,6.1,2.9,8.7-0.1
			c3,3.4,6.8,2.6,8.9-0.1c1.1,1.4,2.6,2.3,4.4,2.3c1.8,0,3.3-0.8,4.3-2.1c1.2,0.8,2.4,1.5,3.7,2.4c0,6,0,12.3,0,18.8
			c-0.6-0.1-1.2-0.2-1.7-0.3c0,0,0.1,0,0.1-0.1c0,0,0-0.1-0.1-0.1c0-5,0-10,0-15c0,0,0.1-0.1,0.1-0.1c0,0-0.1-0.1-0.1-0.1
			c-0.4-0.2-0.8-0.6-1.2-0.6c-9.2,0-18.4,0-27.6,0c-0.4,0-0.8,0.4-1.2,0.6c0,0-0.1,0-0.1,0c0,0.1,0,0.1,0.1,0.2c0,4.3,0,8.5,0,12.8
			C16.7,48.5,16.8,48.6,16.8,48.7z"/>
		<path class="st4" d="M37.8,47.4c-6.4,0-12.8,0-19.1,0c-0.2-1.2-0.1-2.1,0.9-3c2.3-2.2,4.5-4.4,6.7-6.7c0.8-0.8,1.6-1.2,2.7-1.1
			c0.4,0.1,0.9,0,1.6,0c-0.6,0.6-1,1-1.5,1.5c-0.5,0.4-0.8,0.9-0.3,1.5c0.6,0.6,1.1,0.2,1.6-0.3c0.1-0.1,0.3-0.2,0.4-0.4
			c1.7-2.7,4.3-2.6,7.1-2.2C37.8,40.2,37.8,43.8,37.8,47.4z M27.6,42.1c0.4-0.6,0.8-1,0.8-1.3c0-0.3-0.5-0.5-0.8-0.8
			c-0.3,0.3-0.7,0.6-0.8,1C26.7,41.2,27.2,41.5,27.6,42.1z"/>
		<path class="st5" d="M29,16.7c2,0,3.7,0,5.6,0c0.2,2,0.5,3.9,0.6,5.9c0.1,1.4,0.2,2.7,0.2,4.1c0,2.1-1.6,3.7-3.6,3.6
			c-2,0-3.6-1.6-3.5-3.7C28.4,23.4,28.7,20.1,29,16.7z"/>
		<path class="st6" d="M27.2,16.7c-0.2,2-0.4,3.9-0.5,5.8c-0.1,1.4-0.1,2.8-0.2,4.2c-0.1,2-1.4,3.5-3.1,3.6
			c-1.8,0.2-3.5-0.9-3.8-2.6c-0.2-1.1-0.3-2.3,0-3.4c0.6-2.4,1.4-4.7,2.1-7.1c0.1-0.2,0.4-0.6,0.7-0.6
			C23.9,16.7,25.5,16.7,27.2,16.7z"/>
		<path class="st6" d="M36.3,16.7c1.7,0,3.3,0,4.9,0c0.2,0,0.6,0.3,0.7,0.5c0.8,2.4,1.6,4.8,2.2,7.2c0.2,1,0.2,2.1,0,3.2
			c-0.3,1.7-1.9,2.8-3.6,2.7c-1.6-0.1-3.1-1.3-3.3-3c-0.3-2.5-0.4-5.1-0.6-7.7C36.5,18.8,36.4,17.8,36.3,16.7z"/>
		<path class="st5" d="M20,16.7c-0.6,2-1.2,3.8-1.7,5.6c-0.3,1.4-0.6,2.8-0.7,4.2c-0.1,2.3-1.5,3.8-3.6,3.8c-2.1,0-3.4-1.5-3.5-3.8
			c0-1.2,0.2-2.2,0.7-3.2c1-1.9,2-3.9,3-5.8c0.3-0.5,0.5-0.8,1.1-0.8C16.8,16.8,18.3,16.7,20,16.7z"/>
		<path class="st5" d="M43.8,16.7c1.6,0,3.2,0,4.8,0c0.2,0,0.5,0.3,0.7,0.5c1.2,2.4,2.7,4.7,3.6,7.2c1,2.8-0.1,6-3.6,5.9
			c-1.5-0.1-3.2-1.4-3.1-2.9c0.1-3.4-1.3-6.5-2.1-9.6c-0.1-0.2-0.1-0.5-0.2-0.7C43.7,17,43.8,16.9,43.8,16.7z"/>
		<path class="st7" d="M39.6,44.8c0.8-0.1,1.7,0.1,1.7-1c0-1.1-1-0.8-1.7-1c0-2.1,0-4.1,0-6.3c1.8,0,3.5,0,5.3,0c0,4.8,0,9.6,0,14.4
			c-1.8,0-3.5,0-5.3,0C39.6,49,39.6,46.9,39.6,44.8z"/>
		<path class="st8" d="M48.3,14.9c-4.4,0-8.9,0-13.3,0c-6.6,0-13.1,0-19.7,0c-0.1,0-0.1,0-0.2,0c-0.1-0.5-0.2-1.1-0.2-1.7
			c11.3,0,22.5,0,33.8,0c-0.1,0.6-0.1,1.1-0.2,1.7C48.4,14.9,48.4,14.9,48.3,14.9z"/>
		<path class="st9" d="M24.1,37.3c-1.8,1.8-3.7,3.6-5.5,5.3c0-1.9,0-3.9,0-5.9c1.8,0,3.6,0,5.5,0C24.1,36.8,24.1,37.1,24.1,37.3z"/>
		<path class="st10" d="M24.1,37.3c0-0.2,0-0.4,0-0.6c0.2,0,0.3,0.1,0.5,0.1C24.4,36.9,24.3,37.1,24.1,37.3z"/>
		<path class="st11" d="M15.1,14.9c0.1,0,0.1,0,0.2,0C15.2,14.9,15.2,14.9,15.1,14.9z"/>
		<path class="st11" d="M48.3,14.9c0.1,0,0.1,0,0.2,0C48.5,14.9,48.4,14.9,48.3,14.9L48.3,14.9z"/>
		<path class="st11" d="M16.7,35.7c0,0,0-0.1-0.1-0.2c0,0,0.1,0,0.1,0C16.7,35.6,16.7,35.6,16.7,35.7z"/>
		<path class="st11" d="M46.8,35.5c0,0,0.1,0.1,0.1,0.1c0,0,0,0-0.1,0.1C46.8,35.6,46.8,35.6,46.8,35.5z"/>
		<path class="st11" d="M16.8,48.7c0-0.1,0-0.1-0.1-0.2C16.8,48.5,16.8,48.6,16.8,48.7z"/>
		<path class="st11" d="M17.5,49.3c-0.1,0-0.1,0-0.2,0C17.4,49.3,17.5,49.3,17.5,49.3z"/>
		<path class="st11" d="M37.6,49.3c-0.1,0-0.1,0-0.2,0C37.5,49.3,37.6,49.3,37.6,49.3z"/>
		<path class="st11" d="M46.9,50.7c0,0,0.1,0.1,0.1,0.1c0,0,0,0-0.1,0.1C46.9,50.9,46.9,50.8,46.9,50.7z"/>
		<path class="st2" d="M55.3,52.1c-0.7,0.4-1,0.8-1.4,0.8c-0.3,0-0.6-0.5-0.8-0.8c0.3-0.3,0.6-0.8,0.9-0.8
			C54.3,51.2,54.6,51.6,55.3,52.1z"/>
		<path class="st12" d="M27.6,42.1c-0.4-0.6-0.9-0.9-0.8-1.2c0.1-0.4,0.5-0.6,0.8-1c0.3,0.3,0.8,0.5,0.8,0.8
			C28.4,41.1,28,41.5,27.6,42.1z"/>
	</g>
</g>
</svg>
