<?xml version="1.0" encoding="utf-8"?>
<!-- Generator: Adobe Illustrator 24.1.2, SVG Export Plug-In . SVG Version: 6.00 Build 0)  -->
<svg version="1.1" id="Layer_1" xmlns="http://www.w3.org/2000/svg" xmlns:xlink="http://www.w3.org/1999/xlink" x="0px" y="0px"
	 width="64" height="64" viewBox="0 0 64 64" style="enable-background:new 0 0 64 64;" xml:space="preserve">
<style type="text/css">
	.st0{fill:#FFFFFF;}
	.st1{fill:#214B24;}
	.st2{fill:#818182;}
	.st3{fill:#70491D;}
	.st4{fill:#3A1F0E;}
	.st5{fill:#743419;}
	.st6{fill:#6C4C1E;}
	.st7{fill:#120C05;}
	.st8{fill:#009D4A;}
	.st9{fill:#1C371A;}
	.st10{fill:#231204;}
	.st11{fill:#F9C06E;}
	.st12{fill:#00B04C;}
	.st13{fill:#FEFEFE;}
	.st14{fill:#C8C8C8;}
	.st15{fill:#DB2026;}
	.st16{fill:#3D2F1B;}
	.st17{fill:#F4A525;}
	.st18{fill:#132212;}
	.st19{fill:#F6A625;}
	.st20{fill:#F2A425;}
	.st21{fill:#F7A726;}
	.st22{fill:#FAD7A8;}
	.st23{fill:#FAD6A8;}
</style>
<path class="st0" d="M15.7,57.6c-3,0-6,0-9.1,0c0-3.4,0-6.7,0-10.1c0,0,0,0,0,0.1c0,0.3,0.4,0.7,0.8,0.7c0.6,0,1.1,0,1.7,0
	c0,0,0.1,0,0.1,0.1c0,0.6,0,1.2,0,1.9c0,0.5,0.1,1,0.1,1.6c0.1,0.5,0.2,1,0.4,1.5c0.2,0.7,0.5,1.3,1,1.9c0.4,0.5,0.8,0.9,1.3,1.2
	c0.3,0.2,0.7,0.4,1,0.6c0.4,0.2,0.9,0.3,1.3,0.4C14.8,57.5,15.2,57.5,15.7,57.6C15.7,57.5,15.7,57.6,15.7,57.6z"/>
<path class="st1" d="M9.2,48.3c0,0-0.1-0.1-0.1-0.1c-0.6,0-1.1,0-1.7,0c-0.3,0-0.7-0.4-0.8-0.7c0,0,0,0,0-0.1c0-0.1,0-0.1,0-0.2
	c0.1-0.1,0.1-0.3,0.2-0.4C6.9,46.7,7,46.7,7,46.6c0.4-0.4,0.7-0.8,1.1-1.2c0.3-0.4,0.6-0.7,0.9-1c0.1-0.1,0.2-0.3,0.4-0.4
	c0,0,0-0.1,0-0.1c0.1,0,0.1-0.1,0.2-0.1c0.1,0,0.2,0.1,0.3,0.1c0.3,0,0.7,0.1,1,0.1c0.2,0,0.4,0.1,0.6,0.1c-0.2,0.3-0.5,0.5-0.7,0.8
	c-0.3,0.3-0.5,0.6-0.8,0.9c-0.2,0.2-0.4,0.5-0.7,0.8c0,0-0.1,0.1-0.1,0.1c1.6,0,3.1,0,4.6,0c0.3,0,0.6,0,0.8-0.1
	c0.4-0.1,0.7-0.2,1.1-0.3c0.1,0,0.2,0,0.3-0.1c0.2-0.1,0.4-0.1,0.7-0.1c0.1,0,0.3,0,0.4,0.1c0.3,0.3,0.4,0.6,0.3,1.1
	c-0.1,0.5-0.2,1.1-0.3,1.6c0,0,0.1,0,0.1,0c0.1,0,0.3-0.1,0.4-0.1c0.2,0,0.2-0.1,0.3-0.2c0,0.1,0,0.3,0,0.4c0,0.2,0,0.3-0.1,0.5
	c-0.3,0.3-0.6,0.7-0.8,1.1c-0.1,0.1-0.1,0.2-0.2,0.2c-0.3,0.2-0.9,0.1-1.1-0.2c0,0,0-0.1,0-0.1c0-0.2,0-0.4,0-0.6
	c0-0.4,0-0.9-0.1-1.3c0-0.1,0-0.3,0.1-0.4c-0.4,0.1-0.8,0.2-1.1,0.3c-0.3,0-0.7-0.1-1-0.1c-0.1,0-0.3-0.1-0.3,0.1c0,0,0,0,0,0
	c-0.1,0-0.2-0.1-0.3-0.1c-0.2,0-0.5,0-0.7,0c-0.3,0-0.7,0-1,0c-0.5,0-1,0-1.5,0C9.5,48.2,9.4,48.2,9.2,48.3z"/>
<path class="st2" d="M15.7,57.6C15.7,57.6,15.7,57.5,15.7,57.6c0.3-0.1,0.7-0.1,1-0.1c0,0,0,0,0,0.1C16.4,57.6,16,57.6,15.7,57.6z"
	/>
<path class="st3" d="M16.7,57.5c-0.3,0-0.7,0-1,0c-0.5,0-0.9,0-1.4-0.1c-0.5-0.1-0.9-0.2-1.3-0.4c-0.4-0.1-0.7-0.4-1-0.6
	c-0.5-0.3-0.9-0.8-1.3-1.2c-0.4-0.6-0.7-1.2-1-1.9c-0.2-0.5-0.3-1-0.4-1.5c-0.1-0.5-0.1-1-0.1-1.6c0-0.6,0-1.2,0-1.9
	c0.1-0.2,0.3-0.1,0.4-0.2c0.5,0,1,0,1.5,0c0.3,0,0.7,0,1,0c0.2,0,0.5,0,0.7,0c0.1,0,0.2,0,0.3,0.1c0,0,0,0,0,0c0,0.1,0,0.1,0,0.2
	c0,0.3,0,0.6,0,0.9c0,0.1,0,0.1,0,0.2c0,0,0,0,0,0c0-0.4,0-0.8,0-1.3c0.4,0,0.9,0,1.3,0c0,0,0.1,0,0.1,0c0.4-0.1,0.7-0.2,1.1-0.3
	c0,0.2,0,0.3-0.1,0.4c0,0.2-0.1,0.4-0.1,0.5c0,0.3,0.1,0.5,0.1,0.8c0,0.2,0,0.4,0,0.6c0,0,0,0.1,0,0.1c0.2,0.3,0.8,0.4,1.1,0.2
	c0.1-0.1,0.1-0.2,0.2-0.2c0.3-0.4,0.6-0.7,0.8-1.1c0.1-0.2,0.1-0.3,0.1-0.5c0-0.1,0-0.3,0-0.4c0.3-1,0.5-1.9,0.8-2.9
	c0,0,0.1-0.1,0.1-0.1c0.1-0.3,0.1-0.6,0.2-0.9c0-0.3,0.2-0.5,0.1-0.8c0,0,0,0,0,0c-0.2-0.1-0.4-0.1-0.5-0.2c-0.1,0-0.2-0.1-0.2-0.1
	c-0.1-0.1-0.2-0.2-0.3-0.3c-0.3-0.2-0.6-0.5-0.9-0.7c-0.2-0.1-0.3-0.2-0.5-0.1c-0.3,0.1-0.5,0.3-0.8,0.5c-0.3,0.2-0.6,0.4-0.9,0.6
	c0,0-0.1,0-0.1,0c-0.1-0.1-0.2-0.1-0.3-0.2c-0.2-0.2-0.3-0.4-0.4-0.6c-0.2-0.3-0.4-0.5-0.7-0.7c-0.3-0.2-0.6-0.3-0.9-0.5
	c-0.1,0-0.1-0.1-0.2-0.1c-0.5,0-1.1,0-1.6,0c-0.1,0-0.2,0-0.3-0.1C10,41.2,9.9,41,9.7,40.9c-0.2-0.1-0.3-0.3-0.3-0.5
	c0-0.1,0-0.2-0.1-0.3c0-0.3-0.1-0.6,0-0.9c0-0.1,0.1-0.3,0.1-0.5c0.1-0.4,0.2-0.7,0.5-1c0.2-0.2,0.4-0.3,0.5-0.5
	c0.2-0.1,0.4-0.3,0.6-0.4c0.3-0.1,0.5-0.2,0.8-0.2c0.4-0.1,0.9-0.2,1.4-0.2c0.1,0,0.2,0,0.3,0c0.3,0,0.6-0.1,0.8-0.4
	c0.1-0.1,0.2-0.3,0.5-0.3c0.3,0,0.6,0.1,1,0.1c0.2,0,0.4,0,0.6,0c0.5,0,1,0,1.5,0c0.3,0,0.7,0,1,0c0.3,0,0.7-0.1,1,0
	c0.2,0,0.3,0.1,0.5,0.2c0-0.1,0-0.3,0-0.4c0-0.4,0.1-0.8,0.1-1.2c0-0.1,0-0.2-0.2-0.2c-0.2-0.1-0.4-0.1-0.6-0.2
	c0.3,0.1,0.5,0.1,0.8,0.2c0-0.1,0-0.1,0-0.2c0.1-0.5,0.1-1.1,0.2-1.6c0-0.3,0-0.6,0.1-0.9c0-0.6,0.1-1.2,0.1-1.8c0,0,0,0,0-0.1
	c0-0.3,0-0.6,0.1-0.9c0-0.4,0-0.8,0.1-1.2c0.1-0.6,0.2-1.1,0.3-1.7c0.1-0.4,0.2-0.8,0.2-1.2c0,0,0,0,0-0.1c0.2-1.1,0.6-2.1,1-3.1
	c0.2-0.5,0.4-1,0.6-1.5c0.2-0.4,0.4-0.8,0.6-1.3c0-0.1,0-0.1,0-0.1c0.1-0.1,0.2-0.3,0.3-0.4c0.3-0.3,0.5-0.6,0.8-1
	c0.1-0.1,0-0.1,0-0.2c0.2-0.2,0.3-0.4,0.5-0.6c0.2-0.3,0.5-0.6,0.7-0.9c0.4-0.4,0.7-0.8,1.1-1.1c0.2-0.2,0.5-0.4,0.8-0.6
	c0.3-0.3,0.7-0.5,1-0.7c0.2-0.2,0.5-0.3,0.7-0.5c0.4-0.2,0.8-0.5,1.2-0.7c0.3-0.2,0.6-0.3,1-0.5c0,0-0.1-0.1-0.1-0.1
	c0.3-0.1,0.5-0.2,0.8-0.2c0.2-0.1,0.4-0.1,0.6-0.2c0-0.1,0-0.1,0-0.1c-0.2-0.3-0.4-0.5-0.5-0.8c-0.2-0.3-0.3-0.5-0.5-0.8
	c0.7,0,1.4,0,2.1,0.1c0.3,0,0.7,0.1,1,0.2c0.4,0.1,0.8,0.2,1.2,0.4c0.2,0.1,0.3,0.1,0.4,0.1c0.4-0.1,0.9-0.1,1.3-0.2
	c0.3,0,0.5-0.1,0.8-0.1c0.3,0,0.6,0,0.9,0c0.3,0,0.6,0,0.9,0c0.5,0.1,1,0.1,1.6,0.2c0.2,0,0.4,0.1,0.7,0.2c0.4,0.1,0.8,0.3,1.2,0.4
	c0.3,0.1,0.6,0.2,0.8,0.4c0.4,0.2,0.8,0.4,1.2,0.6c0.4,0.2,0.8,0.5,1.1,0.8c0.4,0.3,0.8,0.7,1.2,1.1c0.3,0.3,0.6,0.6,0.9,0.9
	c0.3,0.3,0.5,0.6,0.7,0.9c0.3,0.4,0.6,0.7,0.8,1.1c0.3,0.4,0.5,0.7,0.7,1.1c0.2,0.4,0.5,0.7,0.7,1.1c0.3,0.5,0.6,1,0.8,1.5
	c0.3,0.5,0.5,1,0.7,1.5c0.3,0.5,0.5,1.1,0.7,1.7c0.2,0.5,0.4,1,0.6,1.5c0.2,0.7,0.4,1.3,0.6,2c0.2,0.6,0.3,1.1,0.4,1.7
	c0.2,0.9,0.3,1.7,0.5,2.6c0.1,0.6,0.2,1.1,0.2,1.7c0.1,0.5,0.1,1,0.1,1.5c0,1.1,0.1,2.1,0.1,3.2c0,0.6-0.1,1.1-0.1,1.7
	c0,0.5-0.1,1.1-0.1,1.6c-0.1,0.5-0.1,1.1-0.2,1.6c0,0.3-0.1,0.6-0.1,0.9c-0.1,0.3-0.2,0.5-0.5,0.6c-0.3,0.1-0.6,0.3-0.8,0.5
	c-0.2,0.1-0.3,0.2-0.5,0.2c-0.3,0.2-0.6,0.3-1,0.5c-0.4,0.2-0.8,0.4-1.2,0.6c-0.3,0.1-0.5,0.3-0.8,0.4c-0.4,0.2-0.8,0.4-1.2,0.6
	c-0.3,0.1-0.6,0.3-0.8,0.4c-0.3,0.1-0.6,0.3-0.9,0.4c-0.4,0.2-0.8,0.4-1.2,0.6c-0.3,0.1-0.6,0.3-1,0.4c-0.5,0.2-0.9,0.4-1.4,0.6
	c-0.4,0.2-0.9,0.4-1.3,0.6c-0.3,0.1-0.7,0.3-1,0.4c-0.5,0.2-1,0.4-1.5,0.6c-0.3,0.1-0.6,0.2-0.9,0.4c-0.4,0.1-0.7,0.3-1.1,0.4
	c-0.3,0.1-0.7,0.2-1,0.4c-0.4,0.1-0.8,0.3-1.2,0.4c-0.3,0.1-0.7,0.2-1,0.4c-0.4,0.1-0.8,0.3-1.2,0.4c-0.4,0.1-0.8,0.3-1.1,0.4
	c-0.4,0.1-0.8,0.3-1.3,0.4c-0.4,0.1-0.8,0.3-1.2,0.4c-0.4,0.1-0.9,0.3-1.3,0.4c-0.4,0.1-0.8,0.3-1.3,0.4c-0.5,0.1-0.9,0.3-1.4,0.4
	c-0.2,0.1-0.5,0.1-0.7,0.2c-0.4,0.1-0.8,0.2-1.3,0.4c-0.3,0.1-0.6,0.2-0.9,0.2c-0.5,0.1-0.9,0.3-1.4,0.4c-0.5,0.1-1.1,0.3-1.6,0.4
	c-0.5,0.1-1,0.3-1.5,0.4c-0.3,0.1-0.5,0.1-0.8,0.2c-0.4,0.1-0.8,0.1-1.2,0.2C17.9,57.5,17.3,57.5,16.7,57.5z M16.7,55.8
	c0.1,0,0.3-0.1,0.4-0.1c0.6-0.1,1.1-0.1,1.7-0.2c0.3-0.1,0.6-0.1,0.9-0.2c0.5-0.1,1-0.3,1.5-0.4c0.5-0.1,1.1-0.3,1.6-0.4
	c0.5-0.1,0.9-0.3,1.4-0.4c0.5-0.1,1-0.3,1.5-0.4c0.5-0.1,0.9-0.3,1.4-0.4c0.2-0.1,0.5-0.1,0.7-0.2c0.4-0.1,0.9-0.3,1.3-0.4
	c0.5-0.1,0.9-0.3,1.4-0.4c0.4-0.1,0.8-0.3,1.2-0.4c0.4-0.1,0.8-0.3,1.3-0.4c0.4-0.1,0.7-0.3,1.1-0.4c0.4-0.1,0.8-0.3,1.2-0.4
	c0.4-0.1,0.7-0.3,1.1-0.4c0.4-0.1,0.8-0.3,1.1-0.4c0.3-0.1,0.7-0.3,1-0.4c0.4-0.1,0.7-0.3,1.1-0.4c0.3-0.1,0.6-0.3,0.9-0.4
	c0.4-0.1,0.7-0.3,1.1-0.4c0.3-0.1,0.6-0.3,0.9-0.4c0.5-0.2,1-0.4,1.5-0.6c0.3-0.1,0.5-0.2,0.8-0.4c0.5-0.2,0.9-0.4,1.4-0.6
	c0.4-0.2,0.8-0.3,1.2-0.5c0.2-0.1,0.3-0.1,0.5-0.2c0.5-0.2,1-0.5,1.4-0.7c0.2-0.1,0.5-0.2,0.7-0.3c0.4-0.2,0.7-0.4,1.1-0.5
	c0.2-0.1,0.4-0.2,0.5-0.3c0.5-0.3,1-0.5,1.5-0.8c0.1-0.1,0.3-0.1,0.4-0.2c0.3-0.2,0.6-0.3,0.9-0.5c0.3-0.1,0.5-0.3,0.8-0.4
	c0,0,0.1-0.1,0.1-0.1c0.1-0.5,0.1-1.1,0.2-1.6c0.1-0.7,0.1-1.3,0.2-2c0-0.6,0-1.2,0.1-1.7c0,0,0-0.1,0-0.1c0-0.3,0-0.5,0-0.8
	c0-0.3,0-0.6,0-0.9c0-0.5,0-1-0.1-1.5c0-0.6-0.1-1.1-0.2-1.6c-0.1-0.6-0.2-1.3-0.3-1.9c-0.2-0.8-0.3-1.5-0.5-2.3
	c-0.2-0.9-0.5-1.8-0.8-2.7c-0.3-0.9-0.7-1.8-1.1-2.7c-0.4-0.9-0.9-1.8-1.4-2.7c-0.4-0.7-0.9-1.4-1.3-2.1c-0.5-0.6-1-1.3-1.5-1.9
	c-0.4-0.4-0.8-0.8-1.2-1.2c-0.4-0.4-0.9-0.7-1.3-1c-0.4-0.3-0.8-0.5-1.3-0.8c-0.4-0.2-0.9-0.4-1.3-0.6c-0.3-0.1-0.7-0.2-1-0.3
	c-0.4-0.1-0.8-0.2-1.2-0.3c-0.3-0.1-0.7-0.1-1-0.1c0,0-0.1,0-0.1,0c-0.3,0-0.5,0-0.8,0c-0.1,0-0.1,0-0.2,0c-0.4,0-0.7,0.1-1.1,0.1
	c-0.4,0.1-0.8,0.1-1.1,0.2c-0.5,0.1-0.9,0.2-1.3,0.4c-0.5,0.2-1,0.3-1.4,0.4c-0.4,0.1-0.7,0.2-1.1,0.4c-0.3,0.1-0.7,0.3-1,0.4
	c-0.3,0.1-0.5,0.3-0.8,0.4c-0.4,0.2-0.8,0.4-1.2,0.7c-0.2,0.1-0.4,0.3-0.6,0.4c-0.3,0.2-0.6,0.5-0.9,0.7c-0.3,0.2-0.5,0.4-0.8,0.7
	c-0.4,0.4-0.7,0.7-1,1.1c-0.3,0.3-0.6,0.7-0.9,1.1c-0.3,0.4-0.5,0.7-0.7,1.1c-0.2,0.4-0.5,0.9-0.7,1.3c-0.2,0.5-0.4,0.9-0.6,1.4
	c-0.2,0.6-0.5,1.3-0.7,1.9c-0.2,0.6-0.3,1.2-0.4,1.8c-0.2,0.9-0.4,1.9-0.4,2.8c0,0.7-0.1,1.3-0.1,2c0,0.5-0.1,1-0.1,1.5
	c0,0.4-0.1,0.7-0.1,1.1c0,0.5-0.1,0.9-0.1,1.4c0,0.3,0,0.7-0.1,1c0,0.3-0.1,0.6-0.1,1c-0.1,0.5-0.1,1-0.2,1.4
	c-0.1,0.5-0.1,1-0.2,1.4c0,0.4-0.1,0.8-0.1,1.2c-0.1,0.6-0.2,1.3-0.4,1.9c-0.1,0.8-0.3,1.6-0.4,2.3c-0.2,0.9-0.4,1.8-0.7,2.7
	c-0.2,0.7-0.4,1.4-0.6,2c-0.3,0.9-0.8,1.7-1.4,2.5c-0.3,0.4-0.7,0.8-1.1,1c-0.5,0.3-1,0.6-1.6,0.7c0,0-0.1,0-0.1,0
	c-0.3,0.1-0.9,0.1-1.2,0c-0.4-0.1-0.7-0.3-0.9-0.6c-0.3-0.3-0.5-0.7-0.7-1.2c-0.3-0.8-0.4-1.7-0.4-2.6c0-0.4,0-0.8,0-1.3
	c0,0,0,0,0,0c0,0,0,0,0,0c-0.3,0-0.6,0-0.9,0c0,0,0,0,0,0c0,0.1,0,0.2,0,0.3c0,1-0.1,1.9,0.1,2.9c0.2,1,0.5,1.9,1.1,2.7
	c0.3,0.3,0.6,0.6,1,0.9c0.4,0.3,0.9,0.4,1.3,0.5c0.5,0.1,1,0.2,1.5,0.2c0.2,0,0.4,0,0.5,0C16.4,55.8,16.5,55.8,16.7,55.8z"/>
<path class="st4" d="M19.7,34c0.2,0.1,0.4,0.2,0.6,0.2c0.1,0,0.2,0.1,0.2,0.2c0,0.4-0.1,0.8-0.1,1.2c0,0.1,0,0.3,0,0.4
	c-0.2-0.1-0.3-0.1-0.5-0.2c-0.3,0-0.7,0-1,0c-0.3,0-0.7,0-1,0c-0.5,0-1,0-1.5,0c-0.2,0-0.4,0-0.6,0c-0.3,0-0.6-0.1-1-0.1
	c-0.2,0-0.3,0.1-0.5,0.3c-0.2,0.2-0.5,0.3-0.8,0.4c-0.1,0-0.2,0-0.3,0c-0.5-0.1-0.9,0.1-1.4,0.2c-0.3,0.1-0.6,0.1-0.8,0.2
	c-0.2,0.1-0.4,0.2-0.6,0.4c-0.2,0.1-0.4,0.3-0.5,0.5c-0.3,0.3-0.5,0.6-0.5,1c0,0.2,0,0.3-0.1,0.5c-0.1,0.3,0,0.6,0,0.9
	c0,0.1,0,0.2,0.1,0.3c0,0.2,0.1,0.4,0.3,0.5c0.2,0.1,0.4,0.3,0.6,0.4c0.1,0.1,0.2,0.1,0.3,0.1c0.5,0,1.1,0,1.6,0
	c0.1,0,0.1,0,0.2,0.1c0.3,0.2,0.6,0.3,0.9,0.5c0.3,0.2,0.6,0.4,0.7,0.7c0.1,0.2,0.3,0.4,0.4,0.6c0.1,0.1,0.2,0.2,0.3,0.2
	c0,0,0.1,0,0.1,0c0.3-0.2,0.6-0.5,0.9-0.6c0.3-0.2,0.5-0.4,0.8-0.5c0.2,0,0.4,0,0.5,0.1c0.3,0.2,0.6,0.5,0.9,0.7
	c0.1,0.1,0.2,0.2,0.3,0.3c0.1,0.1,0.2,0.1,0.2,0.1c0.2,0.1,0.4,0.1,0.5,0.2c0,0,0,0,0,0c0.1,0.3,0,0.5-0.1,0.8
	c0,0.3-0.1,0.6-0.2,0.9c0,0-0.1,0.1-0.1,0.1c-0.2-0.1-0.3-0.1-0.5-0.2c-0.3-0.1-0.7-0.2-0.9-0.5c-0.2-0.2-0.5-0.4-0.7-0.7
	c-0.2,0.1-0.3,0.2-0.5,0.3c-0.2,0.1-0.3,0.2-0.5,0.3c-0.2,0.1-0.4,0.3-0.6,0.4c-0.3,0.1-0.6,0.1-0.9,0c-0.4-0.1-0.7-0.3-1-0.6
	c-0.2-0.2-0.3-0.4-0.5-0.6c-0.1-0.2-0.2-0.5-0.5-0.6c0-0.1-0.1-0.2-0.2-0.2c-0.4,0-0.7,0-1.1,0c-0.4,0-0.7,0-1.1,0
	c-0.1,0-0.3,0-0.4,0c0,0,0-0.1,0-0.1c0-0.2,0-0.4-0.3-0.5c-0.2-0.1-0.4-0.3-0.6-0.5C8.3,42,8.1,41.7,8,41.4
	c-0.1-0.2-0.2-0.5-0.2-0.8c0-0.3-0.1-0.7,0-1.1c0-0.7,0.2-1.5,0.5-2.2C8.5,37,8.7,36.6,9,36.3c0.2-0.2,0.4-0.4,0.6-0.5
	c0.2-0.2,0.5-0.3,0.7-0.4c0,0,0-0.1,0.1-0.1c0.1,0,0.2-0.1,0.3-0.1c0.2-0.1,0.4-0.2,0.6-0.2c0.2,0,0.5,0,0.7,0c0.2,0,0.3,0,0.5,0
	c0,0,0,0,0.1-0.1c0,0,0.1,0,0.1,0c0,0,0.1,0,0.1,0c0.2,0,0.3,0,0.5,0c0,0,0.1,0,0.1-0.1c0.2-0.1,0.4-0.2,0.6-0.4
	c0.2-0.1,0.3-0.2,0.5-0.3c0.1,0,0.2,0,0.3-0.1c0,0,0,0,0.1,0c0,0,0,0,0.1,0c0.1,0,0.1,0,0.2,0c0.3,0,0.6,0.1,0.8,0.1
	c0.3,0,0.7,0,1,0c0.4,0,0.7-0.1,1.1-0.1c0.2,0,0.3,0,0.5,0C18.8,34,19.2,34,19.7,34z"/>
<path class="st5" d="M32.2,9c0.2,0.3,0.3,0.5,0.5,0.8c0.2,0.3,0.3,0.5,0.5,0.8c0,0,0,0.1,0,0.1c-0.2,0.1-0.4,0.1-0.6,0.2
	c-0.3,0.1-0.5,0.2-0.8,0.2c-0.1-0.1-0.2-0.2-0.3-0.3c-0.2-0.2-0.3-0.3-0.5-0.5c-0.2-0.2-0.4-0.3-0.5-0.5c-0.3-0.2-0.5-0.4-0.8-0.5
	c-0.1,0-0.2-0.1-0.3,0.1c-0.4,0.6-0.8,1.2-1.2,1.9c-0.2,0.3-0.3,0.6-0.6,0.8c-0.2,0.3-0.5,0.6-0.8,0.9c-0.2,0.2-0.4,0.4-0.7,0.5
	c-0.3,0.1-0.6,0.3-0.9,0.5c-0.3,0.3-0.6,0.6-0.8,0.9c-0.2,0.3-0.4,0.6-0.6,0.9c-0.2,0.3-0.3,0.7-0.4,1c-0.2,0.1-0.4,0.2-0.7,0.3
	c-0.4,0.1-0.7,0.3-1,0.6c-0.1,0.1-0.3,0.2-0.4,0.3c0,0,0-0.1,0-0.1c0.2-0.5,0.4-1.1,0.7-1.6c0.3-0.8,0.7-1.5,1.1-2.3
	c0.3-0.5,0.7-1,1.2-1.4c0.1-0.1,0.2-0.2,0.3-0.3c0,0,0,0,0,0c0,0,0,0,0,0c0,0,0,0-0.1,0c-0.2,0.1-0.4,0.2-0.6,0.3
	c-0.3,0.2-0.7,0.3-1,0.5c-0.1,0.1-0.3,0.2-0.4,0.2c-0.3,0.2-0.7,0.5-1,0.7c-0.2,0.2-0.5,0.3-0.7,0.5c-0.4,0.4-0.8,0.7-1.2,1.1
	c-0.3,0.3-0.6,0.6-0.9,0.9c-0.4,0.4-0.7,0.9-1.1,1.3c-0.1,0-0.2,0.1-0.3,0.1c-0.5,0.2-0.9,0.3-1.4,0.4c-0.2,0.1-0.4,0.1-0.6,0.2
	c0.2-0.3,0.4-0.6,0.6-0.9c0.2-0.3,0.4-0.6,0.6-0.9c0.2-0.3,0.4-0.6,0.7-0.8c0.3-0.3,0.5-0.6,0.8-0.9c0.2-0.2,0.5-0.5,0.7-0.7
	c0.3-0.3,0.6-0.6,1-0.9c0.2-0.2,0.4-0.3,0.6-0.5c0.3-0.3,0.7-0.5,1-0.8c0.1-0.1,0.2-0.2,0.4-0.2c0.3-0.2,0.6-0.3,0.9-0.5
	c0.3-0.1,0.5-0.3,0.8-0.4c0.3-0.1,0.6-0.3,0.8-0.4c0.4-0.1,0.7-0.3,1.1-0.4c0.4-0.1,0.8-0.3,1.2-0.4c0.2-0.1,0.5-0.1,0.7-0.2
	c0.1,0,0.1-0.1,0.2-0.1c0.2-0.3,0.4-0.7,0.7-1c0.3-0.4,0.6-0.7,1-1c0.1,0,0.2-0.1,0.3-0.1c0.4,0,0.8,0,1.1,0.2
	c0.3,0.1,0.5,0.3,0.8,0.5c0.3,0.2,0.5,0.4,0.7,0.6C31.9,9,32.1,9,32.2,9z"/>
<path class="st1" d="M15.2,18.7c0.2-0.1,0.4-0.1,0.6-0.2c0.5-0.1,0.9-0.3,1.4-0.4c0.1,0,0.2-0.1,0.3-0.1c0.2,0,0.3,0,0.5,0
	c0.3,0.1,0.5,0.2,0.8,0.3c0.2,0.1,0.5,0.2,0.7,0.3c0.2,0.1,0.3,0.1,0.5,0.2c0.3,0.2,0.4,0.2,0.7,0c0,0,0,0,0,0
	c0.2-0.2,0.4-0.3,0.4-0.5c0,0,0,0,0-0.1c0,0,0,0,0,0c0.1-0.1,0.3-0.2,0.4-0.3c0.3-0.2,0.6-0.4,1-0.6c0.2-0.1,0.5-0.2,0.7-0.3
	c0.2,0,0.4-0.1,0.6-0.1c0.3,0,0.7,0.1,1,0.1c0.1,0,0.1,0.1,0,0.2c-0.3,0.3-0.5,0.6-0.8,1c-0.1,0.1-0.2,0.3-0.3,0.4c0,0,0,0.1,0,0.1
	c0,0-0.1,0-0.1,0c-0.2,0.1-0.4,0.1-0.5,0.2c-0.3,0.1-0.6,0.3-0.9,0.6c-0.2,0.2-0.3,0.5-0.5,0.7c-0.1,0.2-0.3,0.4-0.6,0.5
	c-0.2,0.1-0.5,0.1-0.7,0.2c-0.3,0-0.5-0.1-0.7-0.2c-0.4-0.1-0.7-0.3-1.1-0.5c-0.3-0.1-0.6-0.2-0.9-0.3c-0.1,0-0.3-0.1-0.4,0
	c-0.2,0-0.3,0.1-0.5,0.2c-0.1,0-0.3,0.1-0.4,0.1c-0.4,0.1-0.7,0.2-1,0.4c-0.3,0.2-0.6,0.3-1,0.5c-0.1,0.1-0.2,0.1-0.3,0.2
	c-0.3,0.2-0.5,0.4-0.7,0.6c-0.3,0.3-0.6,0.5-0.9,0.8c-0.2,0.2-0.5,0.4-0.6,0.6c-0.1,0.1-0.1,0.3-0.2,0.4c-0.1,0.3,0,0.5,0,0.8
	c0.1,0.9,0.6,1.6,1.3,2.2c0.3,0.3,0.7,0.5,1.1,0.7c0.1,0.1,0.3,0.1,0.4,0.2c0.2,0.2,0.5,0.5,0.7,0.7c0.2,0.2,0.3,0.4,0.4,0.6
	c0,0-0.1,0-0.1,0c-0.4,0.1-0.7,0.2-1.1,0.3c-0.2,0-0.3,0.1-0.5,0.1c-0.1-0.1-0.2-0.2-0.4-0.3c-0.1-0.1-0.2-0.2-0.4-0.3
	c-0.3-0.2-0.5-0.4-0.8-0.6c-0.1-0.1-0.3-0.2-0.4-0.3c-0.1,0-0.1-0.1-0.2-0.1c-0.2-0.2-0.4-0.4-0.6-0.6c-0.2-0.3-0.4-0.6-0.6-1
	c-0.2-0.5-0.4-0.9-0.4-1.5c0-0.3-0.1-0.6-0.1-0.9c0-0.6,0.2-1.2,0.6-1.7c0.3-0.4,0.6-0.7,1-1c0.4-0.4,0.8-0.7,1.3-1.1
	c0.2-0.2,0.4-0.4,0.7-0.5c0.4-0.2,0.7-0.4,1.1-0.6C15.1,18.8,15.1,18.7,15.2,18.7z"/>
<path class="st6" d="M11.9,27.7c0.1,0,0.2,0,0.2,0.1c0.1,0.1,0.3,0.2,0.4,0.3c0.3,0.2,0.5,0.4,0.8,0.6c-0.1,0.2-0.1,0.3-0.2,0.5
	c-0.1,0.3-0.2,0.6-0.2,0.9c0,0.1-0.1,0.2-0.1,0.3c-0.1,0.3-0.1,0.7-0.1,1c-0.2,1.1-0.4,2.2-0.6,3.4c0.2,0,0.4,0,0.6,0
	c0,0,0,0-0.1,0.1c-0.2,0-0.3,0-0.5,0c-0.2,0-0.5,0-0.7,0c-0.2,0-0.4,0.1-0.6,0.2c-0.1,0-0.2,0.1-0.3,0.1c0.1-0.5,0.2-1,0.2-1.5
	c0.1-0.5,0.2-1,0.3-1.4c0.2-0.8,0.3-1.7,0.5-2.5c0.1-0.6,0.3-1.3,0.5-1.9C11.9,27.8,11.9,27.7,11.9,27.7z"/>
<path class="st7" d="M9.5,43.3c0.1,0,0.3,0,0.4,0c0,0.1-0.1,0.1-0.1,0.2c-0.1,0.1-0.1,0.1-0.2,0.2c-0.1,0-0.1,0.1-0.2,0.1
	C9.5,43.6,9.5,43.5,9.5,43.3z"/>
<path class="st8" d="M12.4,43.5c0.2,0.1,0.4,0.4,0.5,0.6c0.1,0.2,0.3,0.4,0.5,0.6c0.3,0.3,0.6,0.5,1,0.6c0.3,0.1,0.6,0.1,0.9,0
	c0.2-0.1,0.4-0.2,0.6-0.4c0.2-0.1,0.3-0.2,0.5-0.3c0.2-0.1,0.3-0.2,0.5-0.3c0.2,0.2,0.5,0.4,0.7,0.7c0.3,0.3,0.6,0.4,0.9,0.5
	c0.2,0,0.3,0.1,0.5,0.2c-0.3,1-0.5,1.9-0.8,2.9c0,0.1-0.1,0.2-0.3,0.2c-0.1,0-0.3,0.1-0.4,0.1c0,0-0.1,0-0.1,0
	c0.1-0.5,0.2-1.1,0.3-1.6c0.1-0.4,0-0.8-0.3-1.1c-0.1-0.1-0.3-0.1-0.4-0.1c-0.2,0-0.5,0.1-0.7,0.1c-0.1,0-0.2,0-0.3,0.1
	c-0.4,0.1-0.7,0.2-1.1,0.3c-0.3,0.1-0.6,0.1-0.8,0.1c-1.5,0-3,0-4.6,0c0-0.1,0.1-0.1,0.1-0.1c0.2-0.3,0.4-0.5,0.7-0.8
	c0.3-0.3,0.5-0.6,0.8-0.9c0.2-0.3,0.5-0.5,0.7-0.8c0.1-0.1,0.1-0.1,0.2-0.2c0,0,0.1-0.1,0.1-0.1c0.1-0.1,0.2-0.3,0.4-0.2
	C12.3,43.4,12.3,43.5,12.4,43.5z"/>
<path class="st9" d="M11.7,43.7c-0.1,0.1-0.1,0.1-0.2,0.2c-0.2,0-0.4-0.1-0.6-0.1c-0.3,0-0.7-0.1-1-0.1c-0.1,0-0.2-0.1-0.3-0.1
	c0.1-0.1,0.1-0.1,0.2-0.2c0.4,0,0.9,0.1,1.3,0.1C11.3,43.6,11.5,43.7,11.7,43.7z"/>
<path class="st7" d="M13.2,48.3C13.2,48.3,13.2,48.3,13.2,48.3C13.2,48.2,13.2,48.3,13.2,48.3c0.1-0.2,0.3-0.1,0.4-0.1
	c0.3,0,0.7,0.1,1,0.1c0,0-0.1,0-0.1,0C14,48.3,13.6,48.3,13.2,48.3L13.2,48.3z"/>
<path class="st10" d="M15.7,49.7c0-0.3-0.1-0.5-0.1-0.8c0-0.2,0-0.4,0.1-0.5C15.7,48.8,15.7,49.2,15.7,49.7z"/>
<path class="st11" d="M55.9,36.5c0,0.6,0,1.2-0.1,1.7c0,0.7-0.1,1.3-0.2,2c-0.1,0.5-0.1,1.1-0.2,1.6c0,0,0,0.1-0.1,0.1
	c-0.3,0.1-0.5,0.3-0.8,0.4c-0.3,0.2-0.6,0.3-0.9,0.5c-0.1,0.1-0.3,0.1-0.4,0.2c-0.5,0.3-1,0.5-1.5,0.8c-0.2,0.1-0.4,0.2-0.5,0.3
	c-0.4,0.2-0.7,0.4-1.1,0.5c-0.2,0.1-0.5,0.2-0.7,0.3c-0.5,0.2-1,0.5-1.4,0.7c-0.1,0.1-0.3,0.1-0.5,0.2c-0.4,0.2-0.8,0.3-1.2,0.5
	c-0.5,0.2-0.9,0.4-1.4,0.6c-0.3,0.1-0.5,0.2-0.8,0.4c-0.5,0.2-1,0.4-1.5,0.6c-0.3,0.1-0.6,0.3-0.9,0.4c-0.4,0.1-0.7,0.3-1.1,0.4
	c-0.3,0.1-0.6,0.3-0.9,0.4c-0.4,0.1-0.7,0.3-1.1,0.4c-0.3,0.1-0.7,0.3-1,0.4c-0.4,0.1-0.8,0.3-1.1,0.4c-0.4,0.1-0.7,0.3-1.1,0.4
	c-0.4,0.1-0.8,0.3-1.2,0.4c-0.4,0.1-0.7,0.3-1.1,0.4c-0.4,0.1-0.8,0.3-1.3,0.4c-0.4,0.1-0.8,0.3-1.2,0.4c-0.5,0.1-0.9,0.3-1.4,0.4
	c-0.4,0.1-0.9,0.3-1.3,0.4c-0.2,0.1-0.5,0.1-0.7,0.2c-0.5,0.1-0.9,0.3-1.4,0.4c-0.5,0.1-1,0.3-1.5,0.4c-0.5,0.1-0.9,0.3-1.4,0.4
	c-0.5,0.1-1.1,0.3-1.6,0.4c-0.5,0.1-1,0.3-1.5,0.4c-0.3,0.1-0.6,0.1-0.9,0.2c-0.5,0.2-1.1,0.2-1.7,0.2c-0.1,0-0.3,0-0.4,0.1
	c-0.3,0-0.6,0-0.9,0c-0.5-0.1-1-0.1-1.5-0.2c-0.5-0.1-0.9-0.3-1.3-0.5c-0.4-0.2-0.7-0.5-1-0.9c-0.6-0.8-0.9-1.7-1.1-2.7
	c-0.2-1-0.1-1.9-0.1-2.9c0-0.1,0-0.2,0-0.3c0.3,0,0.6,0,0.9,0c0,0.4,0,0.8,0,1.3c0,0.9,0.1,1.8,0.4,2.6c0.2,0.4,0.4,0.8,0.7,1.2
	c0.2,0.3,0.5,0.5,0.9,0.6c0.3,0.1,0.9,0.1,1.2,0c0,0,0.1,0,0.1,0c0.6-0.1,1.1-0.4,1.6-0.7c0.4-0.3,0.8-0.6,1.1-1
	c0.6-0.8,1-1.6,1.4-2.5c0.3-0.7,0.5-1.3,0.6-2c0.2-0.9,0.5-1.8,0.7-2.7c0.2-0.8,0.3-1.6,0.4-2.3c0.1-0.6,0.3-1.3,0.4-1.9
	c0.1-0.4,0.1-0.8,0.1-1.2c0.1-0.5,0.1-1,0.2-1.4c0.1-0.5,0.1-1,0.2-1.4c0-0.3,0.1-0.6,0.1-1c0-0.3,0-0.7,0.1-1
	c0-0.5,0.1-0.9,0.1-1.4c0-0.4,0.1-0.7,0.1-1.1c0-0.5,0.1-1,0.1-1.5c0-0.7,0.1-1.3,0.1-2c0-1,0.3-1.9,0.4-2.8
	c0.1-0.6,0.3-1.2,0.4-1.8c0.2-0.7,0.4-1.3,0.7-1.9c0.2-0.5,0.4-1,0.6-1.4c0.2-0.4,0.4-0.9,0.7-1.3c0.2-0.4,0.5-0.8,0.7-1.1
	c0.3-0.4,0.6-0.7,0.9-1.1c0.3-0.4,0.7-0.7,1-1.1c0.2-0.2,0.5-0.5,0.8-0.7c0.3-0.2,0.6-0.5,0.9-0.7c0.2-0.1,0.4-0.3,0.6-0.4
	c0.4-0.2,0.8-0.5,1.2-0.7c0.3-0.1,0.5-0.3,0.8-0.4c0.3-0.2,0.7-0.3,1-0.4c0.3-0.1,0.7-0.2,1.1-0.4c0.5-0.2,1-0.3,1.4-0.4
	c0.4-0.2,0.9-0.3,1.3-0.4c0.4-0.1,0.8-0.1,1.1-0.2c0.4-0.1,0.7-0.1,1.1-0.1c0.4,0,0.8,0,1.1,0c0.3,0,0.7,0,1,0.1
	c0.4,0.1,0.8,0.2,1.2,0.3c0.3,0.1,0.7,0.2,1,0.3c0.5,0.2,0.9,0.4,1.3,0.6c0.4,0.2,0.9,0.5,1.3,0.8c0.5,0.3,0.9,0.7,1.3,1
	c0.4,0.4,0.8,0.8,1.2,1.2c0.5,0.6,1,1.2,1.5,1.9c0.5,0.7,0.9,1.4,1.3,2.1c0.5,0.9,0.9,1.8,1.4,2.7c0.4,0.9,0.8,1.8,1.1,2.7
	c0.3,0.9,0.6,1.8,0.8,2.7c0.2,0.7,0.4,1.5,0.5,2.3c0.1,0.6,0.2,1.3,0.3,1.9c0.1,0.5,0.1,1.1,0.2,1.6c0,0.5,0.1,1,0.1,1.5
	c0,0.3,0,0.6,0,0.9C55.9,35.9,55.9,36.2,55.9,36.5z M50.4,41.9C50.4,41.9,50.4,42,50.4,41.9c0.2,0.3,0.3,0.6,0.5,0.8
	c0.1,0.2,0.3,0.3,0.5,0.3c0.4,0,0.6-0.3,0.8-0.5c0.2-0.2,0.1-0.5,0.1-0.8c0.2,0.1,0.3,0.3,0.5,0.2c0.1,0,0.2-0.1,0.3-0.1
	c0.2-0.1,0.3-0.3,0.4-0.5c0.1-0.4-0.1-0.8-0.3-1.1C53.1,40.1,53,40,52.8,40c-0.3,0-0.5,0.2-0.7,0.5C52.1,40.6,52,40.9,52,41
	c-0.4-0.4-0.4-0.4-0.7-0.5c0,0,0,0,0-0.1c0.1-0.2,0.2-0.4,0.2-0.6c0-0.4-0.1-0.7-0.3-1c-0.1-0.2-0.3-0.4-0.6-0.5
	c-0.4-0.1-0.7,0-0.9,0.3c-0.2,0.2-0.4,0.4-0.3,0.7c0.1,0.5,0.4,0.9,0.7,1.2c0.1,0.1,0.3,0.2,0.4,0.4c-0.2,0.2-0.2,0.4-0.2,0.6
	c-0.2,0-0.5,0-0.7,0c-0.3,0-0.5,0-0.7,0.2c0,0.1-0.1,0.1-0.1,0.2c-0.2,0.4,0,0.8,0.4,0.8c0.1,0,0.3,0,0.4,0c0.1,0,0.2,0,0.3-0.1
	C50.2,42.5,50.3,42.2,50.4,41.9z M44.4,41.4c0.1,0.1,0.1,0.2,0.2,0.3c0.1,0.1,0.1,0.2,0.2,0.2c0.1,0.1,0.4,0.3,0.6,0.2
	c0.3-0.1,0.6-0.3,0.8-0.5c0.3-0.3,0.4-0.7,0.4-1.1c-0.1-0.3-0.2-0.6-0.4-0.9c-0.1-0.2-0.5-0.3-0.7-0.2c-0.3,0.1-0.6,0.3-0.8,0.6
	c-0.1,0.1-0.2,0.2-0.3,0.3c-0.2,0.1-0.5,0.1-0.7,0.2c-0.2,0-0.3,0.1-0.5,0.3c-0.2,0.3-0.3,0.6-0.1,0.9c0,0,0.1,0.1,0.1,0.1
	c0.3,0,0.6,0,0.9,0C44.1,41.7,44.2,41.6,44.4,41.4C44.3,41.5,44.4,41.4,44.4,41.4z M40.9,28.5c-0.1,0.1-0.1,0.1-0.1,0.1
	c-0.1,0.1-0.2,0.2-0.3,0.4c-0.2,0.4,0.1,1,0.4,1.2c0.1,0.1,0.2,0.1,0.3,0.1c0.2,0,0.3-0.1,0.5-0.2c0.4-0.3,0.4-1,0.1-1.3
	c-0.1-0.1-0.2-0.2-0.3-0.3c-0.1-0.1-0.1-0.1,0-0.1c0,0,0.1-0.1,0.1-0.1c0.3-0.3,0.5-0.6,0.5-1c0-0.4-0.2-0.8-0.4-1.1
	c-0.1-0.2-0.3-0.3-0.6-0.3c-0.3,0-0.5,0.1-0.7,0.3c-0.2,0.2-0.4,0.5-0.4,0.9c0,0.4,0.2,0.8,0.4,1.1C40.4,28.3,40.6,28.5,40.9,28.5z
	 M31.7,33.1c-0.1,0-0.1,0-0.1,0c-0.4-0.1-0.7-0.1-1,0.1c-0.3,0.2-0.5,0.6-0.3,1c0.1,0.3,0.3,0.6,0.5,0.8c0.1,0.2,0.3,0.3,0.5,0.4
	c0.3,0.2,0.7,0,0.8-0.3c0.1-0.2,0.2-0.4,0.2-0.5c0.1-0.3,0.2-0.3,0.5-0.4c0.3-0.1,0.6-0.4,0.6-0.7c0-0.4-0.1-0.7-0.3-0.9
	c-0.1-0.1-0.3-0.3-0.5-0.2c-0.4,0.1-0.6,0.3-0.7,0.7C31.7,33,31.7,33,31.7,33.1z M45.3,31.7c0.1,0.2,0.3,0.4,0.4,0.6
	c0.1,0.1,0.2,0.2,0.4,0.3c0.4,0.2,0.8-0.2,0.9-0.5c0.1-0.4,0-0.8-0.3-1.1c-0.2-0.4-0.6-0.4-1-0.3c-0.3,0.1-0.5,0.3-0.5,0.7
	c-0.1-0.1-0.1-0.2-0.1-0.2c-0.2-0.3-0.4-0.5-0.8-0.3c-0.1,0-0.2,0.1-0.3,0.2c-0.1,0.2-0.2,0.3-0.3,0.5c0,0.3,0.1,0.5,0.3,0.8
	c0.1,0.2,0.3,0.3,0.5,0.3c0.2,0,0.4-0.2,0.5-0.3C45.3,32.2,45.3,31.9,45.3,31.7z M33.7,16.2c0-0.1,0-0.2-0.1-0.3
	c-0.2-0.4-0.4-0.8-0.7-1.1c-0.3-0.2-0.6-0.2-0.9,0c-0.2,0.1-0.4,0.3-0.5,0.5c-0.2,0.3-0.3,0.6-0.2,0.9c0.1,0.3,0.2,0.6,0.4,0.8
	c0.2,0.2,0.5,0.4,0.8,0.3c0.3-0.1,0.5-0.2,0.7-0.4C33.5,16.8,33.7,16.5,33.7,16.2z M37.8,46.6c0,0.5,0.2,0.9,0.5,1.2
	c0.2,0.3,0.5,0.3,0.8,0.2c0.4-0.2,0.7-0.5,0.9-0.9c0.1-0.1,0.1-0.3,0.1-0.5c0-0.3-0.1-0.6-0.3-0.8c-0.1-0.2-0.3-0.4-0.6-0.4
	c-0.3,0-0.5,0.1-0.8,0.3C38,46,37.8,46.3,37.8,46.6z M37.6,47.3c0-0.4-0.2-0.8-0.5-1.1C37,46,36.6,45.8,36.3,46
	c-0.2,0.1-0.4,0.3-0.6,0.5c-0.2,0.2-0.3,0.5-0.2,0.9c0,0.3,0.2,0.5,0.3,0.8c0.1,0.2,0.3,0.4,0.6,0.5c0.1,0,0.2,0,0.2,0
	c0.2-0.1,0.3-0.2,0.5-0.3C37.5,48.1,37.6,47.8,37.6,47.3z M39,14.3c0.1,0.1,0.3,0.2,0.4,0.3c0.4,0.1,0.7-0.1,1-0.3
	c0.2-0.1,0.2-0.3,0.2-0.5c0-0.4-0.2-0.7-0.5-0.9c-0.1-0.1-0.3-0.2-0.4-0.2c-0.2,0-0.4,0.1-0.5,0.3c0,0.1-0.1,0.1-0.1,0.2
	c-0.2,0-0.3-0.1-0.5-0.1c-0.1,0-0.2,0-0.3,0.1c-0.2,0.1-0.5,0.3-0.5,0.6c-0.1,0.3,0.1,0.6,0.2,0.8c0.1,0.1,0.4,0.2,0.5,0.1
	C38.6,14.5,38.8,14.4,39,14.3z M24.9,43.8c0-0.3-0.1-0.6-0.2-0.8c-0.1-0.3-0.3-0.5-0.6-0.6c-0.5-0.2-1,0.1-1.2,0.5
	c-0.2,0.3-0.2,0.6,0,0.9c0.1,0.2,0.2,0.4,0.3,0.6c0.2,0.2,0.4,0.4,0.6,0.6c0.1,0,0.3,0.1,0.4,0C24.7,44.7,24.9,44.3,24.9,43.8z
	 M44,44.6c0,0.5,0.2,0.9,0.5,1.2c0.2,0.2,0.4,0.3,0.7,0.1c0.1-0.1,0.3-0.2,0.4-0.3c0.2-0.2,0.4-0.5,0.4-0.8c0-0.4-0.1-0.8-0.4-1.1
	c-0.2-0.3-0.5-0.4-0.9-0.2c-0.1,0.1-0.2,0.1-0.3,0.2C44.2,44,44,44.3,44,44.6z M35.2,35.2c0,0.1,0,0.2,0.1,0.4
	c0.1,0.2,0.2,0.4,0.3,0.6c0.2,0.2,0.4,0.4,0.7,0.4c0.1,0,0.3-0.1,0.4-0.2c0.3-0.2,0.5-0.5,0.5-0.9c0-0.4-0.1-0.7-0.3-1
	c-0.3-0.5-0.6-0.5-1.1-0.2C35.4,34.5,35.2,34.8,35.2,35.2z M45.3,28.6c0.4,0,0.4,0,0.7-0.3c0,0,0,0,0,0c0.3-0.4,0.4-0.8,0.2-1.3
	c0-0.1-0.1-0.1-0.2-0.1c-0.3,0-0.7,0-1,0c-0.3,0-0.5,0-0.7,0.2c-0.1,0.1-0.1,0.1-0.2,0.2c-0.3,0.3-0.3,1,0,1.3c0,0,0.1,0.1,0.1,0.1
	C44.6,28.6,44.9,28.6,45.3,28.6z M29.6,17.7c0,0.3,0.1,0.5,0.2,0.7c0.1,0.2,0.3,0.4,0.6,0.3c0.3,0,0.5-0.2,0.8-0.4
	c0.1-0.1,0.2-0.3,0.3-0.4c0.2-0.4,0-0.8-0.2-1.2c-0.1-0.2-0.3-0.3-0.5-0.3c-0.2,0-0.4,0.1-0.5,0.2C29.9,16.9,29.6,17.3,29.6,17.7z
	 M27.6,23.1c0.3,0,0.5-0.1,0.7-0.2c0.2-0.1,0.3-0.4,0.3-0.6c-0.1-0.4-0.3-0.8-0.6-1.1c-0.1-0.1-0.4-0.2-0.6-0.2
	c-0.2,0.1-0.4,0.2-0.6,0.3c-0.2,0.1-0.3,0.4-0.3,0.6c0,0.3,0.1,0.5,0.3,0.7C27,22.9,27.2,23.2,27.6,23.1z M29,45
	c0-0.3-0.1-0.5-0.2-0.7c-0.1-0.3-0.4-0.4-0.7-0.3c-0.1,0-0.3,0.1-0.4,0.2c-0.2,0.2-0.4,0.4-0.5,0.7c-0.1,0.4,0,0.7,0.3,1.1
	c0.2,0.3,0.5,0.4,0.8,0.3C28.6,46,29.1,45.5,29,45z M38.3,29.3c-0.3,0.1-0.6,0.2-0.8,0.4c-0.1,0.1-0.2,0.3-0.1,0.5
	c0.1,0.4,0.3,0.7,0.6,1c0.1,0.1,0.3,0.2,0.4,0.2c0.3,0,0.7-0.3,0.8-0.7c0.1-0.4-0.1-0.8-0.3-1.1C38.8,29.5,38.6,29.3,38.3,29.3z
	 M25.4,49.3c-0.2,0-0.4,0.1-0.5,0.2c-0.4,0.2-0.4,0.5-0.3,0.8c0.1,0.4,0.3,0.7,0.6,0.9c0.2,0.2,0.4,0.3,0.6,0.2
	c0.3-0.1,0.5-0.3,0.5-0.6c0.1-0.4,0-0.8-0.3-1.1C25.9,49.5,25.7,49.3,25.4,49.3z M39.5,35.2c0-0.2-0.1-0.6-0.2-0.8
	c-0.1-0.2-0.3-0.4-0.5-0.4c-0.3,0-0.5,0-0.7,0.2c-0.4,0.3-0.4,0.5-0.3,0.9c0.1,0.4,0.4,0.7,0.6,0.9c0.2,0.1,0.5,0.2,0.6,0.1
	C39.3,35.8,39.5,35.6,39.5,35.2z M34.6,44.5c0.2,0,0.4,0.1,0.5-0.1c0-0.1,0.1-0.1,0.1-0.2c0.2-0.3,0.3-0.7,0.1-1.1
	c0-0.1-0.1-0.1-0.2-0.1c-0.2,0-0.4,0-0.6,0c-0.3,0-0.6-0.1-0.9,0.2c-0.3,0.3-0.4,0.8-0.2,1.2c0,0.1,0.1,0.2,0.2,0.2
	C34,44.5,34.3,44.5,34.6,44.5z M25.2,24c0,0.3,0.1,0.5,0.3,0.7c0.1,0.2,0.3,0.3,0.5,0.3c0.3,0,0.6-0.2,0.8-0.4
	c0.2-0.2,0.3-0.5,0.2-0.8c0-0.1-0.1-0.2-0.1-0.3c-0.1-0.2-0.2-0.3-0.4-0.4c-0.2-0.1-0.5-0.2-0.8,0.1C25.4,23.5,25.2,23.7,25.2,24z
	 M45,35.8c-0.4,0-0.9,0.4-0.9,0.7c-0.1,0.5,0.1,0.8,0.4,1.1c0.1,0.2,0.3,0.2,0.5,0.1c0.2-0.1,0.3-0.2,0.4-0.3
	c0.3-0.3,0.4-0.7,0.3-1.2C45.5,36,45.3,35.7,45,35.8z M33.7,41.3c0-0.3-0.1-0.5-0.2-0.7c-0.2-0.3-0.4-0.5-0.7-0.4
	c-0.2,0-0.3,0.1-0.4,0.2c-0.2,0.1-0.3,0.4-0.3,0.7c0.1,0.4,0.3,0.7,0.5,0.9c0.3,0.3,0.5,0.3,0.7,0.2C33.6,41.9,33.7,41.7,33.7,41.3z
	 M28.6,19.5c-0.2,0-0.4,0.1-0.6,0.2c-0.2,0.1-0.4,0.5-0.3,0.7c0.1,0.2,0.1,0.4,0.3,0.6c0.1,0.2,0.2,0.3,0.4,0.3
	c0.3,0.1,0.8-0.3,0.9-0.5c0.2-0.3,0.1-0.6-0.1-0.9C29.1,19.6,28.9,19.4,28.6,19.5z M43.8,45.2c0-0.3-0.1-0.5-0.3-0.7
	c-0.2-0.3-0.4-0.4-0.7-0.4c-0.5,0-0.8,0.4-0.7,0.9c0.1,0.4,0.3,0.7,0.6,1c0.2,0.1,0.3,0.2,0.5,0.1C43.6,45.9,43.8,45.6,43.8,45.2z
	 M41.2,38.4c0-0.4-0.1-0.6-0.3-0.9c-0.1-0.2-0.3-0.3-0.5-0.3c-0.5-0.1-1.1,0.4-0.8,1c0.1,0.3,0.2,0.5,0.4,0.7
	c0.3,0.3,0.5,0.3,0.7,0.2C41,39,41.2,38.7,41.2,38.4z M32.1,43c-0.1,0-0.2,0.1-0.3,0.1c-0.2,0.1-0.4,0.3-0.4,0.6
	c0,0.3,0.1,0.6,0.3,0.8c0.1,0.1,0.2,0.3,0.4,0.4c0.2,0.1,0.5,0.1,0.7,0c0.3-0.2,0.4-0.5,0.3-0.9c-0.1-0.2-0.2-0.5-0.3-0.7
	C32.6,43.1,32.4,43,32.1,43z M42.2,42c0-0.3-0.1-0.5-0.3-0.8c-0.2-0.3-0.5-0.4-0.8-0.3c-0.5,0.1-0.7,0.6-0.5,1
	c0.1,0.3,0.3,0.5,0.5,0.7c0.2,0.2,0.6,0.2,0.8,0.1C42.1,42.5,42.3,42.3,42.2,42z M34.8,36.5c0-0.1,0-0.3-0.1-0.4
	c-0.2-0.4-0.3-0.6-0.7-0.5c-0.2,0-0.3,0.1-0.4,0.2c-0.2,0.1-0.3,0.3-0.4,0.5c-0.1,0.4,0.1,0.7,0.3,0.9c0.2,0.2,0.4,0.3,0.6,0.2
	c0.1,0,0.2-0.1,0.2-0.1C34.6,37.2,34.8,36.9,34.8,36.5z M53.4,39.2c0,0.3,0.1,0.5,0.2,0.8c0.2,0.3,0.5,0.3,0.8,0.2
	c0.4-0.2,0.7-0.7,0.6-1.2c-0.1-0.4-0.5-0.8-0.9-0.6C53.7,38.5,53.4,38.9,53.4,39.2z M43.5,26.3C43.6,26.3,43.6,26.3,43.5,26.3
	c0-0.2-0.1-0.4-0.2-0.6c-0.1-0.2-0.2-0.3-0.4-0.4c-0.3-0.1-0.6,0-0.9,0.2c-0.2,0.2-0.2,0.5-0.1,0.8c0.1,0.3,0.3,0.5,0.6,0.7
	c0.2,0.1,0.4,0.1,0.6,0C43.4,26.8,43.6,26.6,43.5,26.3z M49.5,36.6c0.3,0,0.5-0.2,0.6-0.4c0.2-0.4,0.1-0.7-0.1-1.1
	c-0.2-0.2-0.4-0.4-0.7-0.4c-0.1,0-0.2,0.1-0.3,0.1c-0.2,0.1-0.5,0.4-0.4,0.7c0.1,0.4,0.3,0.6,0.5,0.9C49.2,36.5,49.3,36.6,49.5,36.6
	z M41.8,22c0,0.1,0.1,0.3,0.2,0.5c0.1,0.2,0.3,0.4,0.6,0.4c0.1,0,0.3-0.1,0.4-0.2c0.4-0.3,0.6-0.8,0.3-1.3c-0.1-0.2-0.3-0.4-0.6-0.4
	c-0.1,0-0.2,0.1-0.3,0.1C42,21.2,41.8,21.5,41.8,22z M39.5,26.6c0-0.1,0-0.2-0.1-0.3c-0.1-0.4-0.3-0.5-0.7-0.5
	c-0.3,0-0.5,0.2-0.6,0.4c-0.3,0.4-0.2,0.9,0,1.2c0.1,0.2,0.3,0.3,0.6,0.3c0.1,0,0.2-0.1,0.4-0.2C39.3,27.3,39.5,27,39.5,26.6z
	 M42.9,27.2c-0.2,0-0.5,0.1-0.7,0.3c-0.3,0.4-0.3,0.9,0,1.3c0.1,0.2,0.3,0.3,0.5,0.3c0.2,0,0.3-0.1,0.4-0.2c0.3-0.3,0.5-0.7,0.3-1.2
	C43.4,27.5,43.3,27.2,42.9,27.2z M27.5,42.2c0,0.2,0.1,0.3,0.1,0.5c0.1,0.2,0.2,0.3,0.4,0.4c0.2,0.1,0.5,0,0.7-0.3
	c0.3-0.4,0.4-0.7,0.1-1.2c-0.1-0.2-0.2-0.3-0.5-0.3C27.9,41.3,27.4,41.8,27.5,42.2z M37.9,39.4c0-0.3-0.1-0.5-0.2-0.7
	c-0.1-0.1-0.2-0.2-0.3-0.2c-0.3-0.1-0.7,0.1-0.9,0.4c-0.2,0.4-0.1,0.8,0.1,1.1c0.1,0.2,0.3,0.3,0.5,0.2c0.2,0,0.3-0.2,0.4-0.3
	C37.8,39.8,37.9,39.6,37.9,39.4z M41.5,13.1c0,0.1,0,0.2,0.1,0.3c0.1,0.2,0.2,0.3,0.3,0.5c0.1,0.2,0.3,0.3,0.6,0.2
	c0.1,0,0.2-0.1,0.3-0.1c0.2-0.1,0.4-0.4,0.3-0.6c-0.1-0.2-0.2-0.5-0.4-0.7c-0.1-0.1-0.3-0.3-0.5-0.2c-0.2,0.1-0.4,0.2-0.5,0.3
	C41.6,12.8,41.5,12.9,41.5,13.1z M30.5,42.1C30.5,42.2,30.6,42.2,30.5,42.1c0.1,0,0.2,0,0.3-0.1c0.2-0.2,0.3-0.4,0.3-0.7
	c0-0.3-0.1-0.5-0.4-0.5c-0.1,0-0.2,0-0.3,0c-0.1,0-0.2,0-0.3,0c-0.2-0.1-0.3,0-0.5,0.1c-0.3,0.3-0.4,0.7-0.1,1.1c0,0,0.1,0,0.1,0
	C30,42.1,30.3,42.1,30.5,42.1z M24,51.7C24,51.7,24,51.7,24,51.7c0.1,0,0.3,0,0.4,0c0.2-0.3,0.4-0.6,0.2-1c0-0.1-0.1-0.1-0.2-0.1
	c-0.2,0-0.4,0-0.6,0c-0.3-0.1-0.5,0-0.7,0.2c-0.2,0.3-0.3,0.6-0.1,0.9c0,0,0.1,0.1,0.1,0.1C23.5,51.7,23.7,51.7,24,51.7z M36.5,31.9
	c0.4,0,0.3,0.1,0.5-0.2c0.2-0.2,0.2-0.6,0.1-0.9c0,0-0.1-0.1-0.2-0.1c-0.2,0-0.4,0-0.6,0c-0.2,0-0.4-0.1-0.6,0.1
	c-0.2,0.2-0.3,0.4-0.3,0.7c0,0.1,0,0.3,0.2,0.3C35.9,31.9,36.2,31.9,36.5,31.9z M33.8,39.9c0,0.2,0.1,0.5,0.2,0.6
	c0.2,0.3,0.4,0.4,0.7,0.2c0.1,0,0.1-0.1,0.2-0.1c0.1-0.1,0.2-0.3,0.2-0.4c0-0.2,0-0.5-0.1-0.7c-0.2-0.3-0.4-0.5-0.8-0.3
	C33.9,39.4,33.7,39.6,33.8,39.9z M43.7,37.3c0-0.1,0-0.3-0.1-0.4c-0.1-0.2-0.2-0.4-0.4-0.5c-0.2-0.1-0.5,0-0.7,0.2
	c-0.1,0.1-0.2,0.3-0.2,0.4c-0.1,0.4,0.1,0.7,0.4,1c0.1,0,0.2,0.1,0.3,0c0.1,0,0.2-0.1,0.3-0.2C43.6,37.8,43.7,37.6,43.7,37.3z
	 M47.1,43.8c0,0.3,0.1,0.5,0.3,0.7c0.1,0.1,0.3,0.2,0.3,0.2c0.3-0.1,0.5-0.3,0.7-0.6c0.1-0.3,0-0.6-0.2-0.9
	c-0.1-0.2-0.3-0.3-0.5-0.2c-0.1,0-0.2,0.1-0.3,0.2C47.3,43.3,47.1,43.5,47.1,43.8z M37.5,42.5c0-0.2-0.1-0.3-0.2-0.5
	c-0.1-0.1-0.1-0.3-0.3-0.3c-0.4-0.1-0.7,0.2-0.8,0.5c-0.2,0.4,0,0.7,0.2,0.9c0.2,0.2,0.4,0.2,0.6,0c0,0,0.1,0,0.1-0.1
	C37.4,43,37.5,42.8,37.5,42.5z M31.1,49.3c0-0.2-0.1-0.5-0.2-0.6c-0.2-0.2-0.4-0.3-0.6-0.2c-0.5,0.3-0.7,0.7-0.4,1.3
	c0.1,0.3,0.3,0.4,0.6,0.3C30.7,50.1,31.2,49.7,31.1,49.3z M33.5,48.3c0,0,0-0.1,0-0.1c0-0.2-0.1-0.3-0.3-0.3c-0.2,0-0.4,0-0.6,0
	c-0.1,0-0.3,0-0.4,0.1c-0.3,0.2-0.5,0.6-0.2,1c0,0.1,0.1,0.1,0.2,0.1c0.2,0,0.4,0,0.6,0c0.1,0,0.2,0,0.3,0
	C33.3,48.9,33.5,48.6,33.5,48.3z M51.8,31.6c-0.3,0-0.6,0.3-0.7,0.6c-0.1,0.3,0,0.6,0.2,0.9c0.1,0.1,0.2,0.2,0.3,0.2
	c0.2-0.1,0.3-0.2,0.5-0.3c0.1-0.1,0.2-0.3,0.2-0.4c0.1-0.2-0.1-0.5-0.2-0.7C52.1,31.6,52,31.6,51.8,31.6z M27.1,43.6
	c0-0.2-0.1-0.5-0.2-0.7c-0.1-0.1-0.2-0.2-0.3-0.2c-0.4-0.1-0.8,0.4-0.7,0.7c0,0.3,0.2,0.6,0.4,0.8c0.1,0.1,0.2,0.1,0.4,0.1
	C26.9,44.2,27.1,43.9,27.1,43.6z M43.4,33.1C43.4,33.1,43.4,33.1,43.4,33.1c0-0.2-0.1-0.4-0.2-0.5c-0.1-0.2-0.2-0.2-0.3-0.2
	c-0.2,0-0.4,0.1-0.5,0.2c-0.2,0.2-0.3,0.4-0.2,0.6c0,0.2,0.1,0.3,0.2,0.5c0.1,0.1,0.2,0.2,0.4,0.2C43,33.9,43.4,33.5,43.4,33.1z
	 M31.5,36c-0.2-0.1-0.3,0.1-0.4,0.2c-0.2,0.2-0.2,0.5-0.1,0.8c0,0.1,0.1,0.2,0.2,0.2c0.2,0,0.3,0,0.5,0c0.1,0,0.3,0,0.4,0
	c0.2-0.1,0.4-0.6,0.3-0.9c0-0.1,0-0.2-0.2-0.2C32,36,31.7,36,31.5,36z M34.9,32.1C35,32,35,32,34.9,32.1c0-0.2-0.1-0.4-0.2-0.6
	c-0.1-0.2-0.3-0.3-0.4-0.2c-0.1,0-0.2,0.1-0.3,0.2c-0.3,0.2-0.4,0.5-0.3,0.8c0,0.1,0.1,0.3,0.2,0.4c0,0.1,0.1,0.1,0.2,0.1
	c0.2,0.1,0.4-0.1,0.6-0.3C34.9,32.4,35,32.3,34.9,32.1z M34.3,15.8c0.1,0,0.2-0.1,0.4-0.1c0.1-0.1,0.3-0.3,0.2-0.5
	c-0.1-0.2-0.1-0.3-0.2-0.5c-0.1-0.2-0.3-0.4-0.5-0.3c-0.1,0-0.2,0.1-0.4,0.1c-0.3,0.2-0.4,0.5-0.3,0.7
	C33.7,15.6,33.9,15.8,34.3,15.8z M41,46.5c0.3,0.1,0.5,0,0.6-0.2c0.1-0.2,0.2-0.5,0.1-0.7c0,0-0.1-0.1-0.1-0.1c-0.2,0-0.4,0-0.6,0
	c-0.1,0-0.3,0-0.4,0c-0.3,0.2-0.5,0.6-0.3,1c0,0,0.1,0.1,0.1,0.1C40.6,46.5,40.9,46.5,41,46.5z M35.3,48c-0.1-0.2-0.1-0.3-0.2-0.5
	c-0.1-0.1-0.1-0.2-0.2-0.3c-0.2-0.1-0.5,0-0.8,0.2c-0.2,0.2-0.1,0.4-0.1,0.5c0.1,0.2,0.2,0.4,0.3,0.6c0.1,0.1,0.2,0.2,0.3,0.2
	C35,48.6,35.2,48.4,35.3,48z M29.3,50.1c0-0.2-0.1-0.3-0.1-0.5c-0.1-0.1-0.2-0.2-0.3-0.3C28.4,49.2,28,49.7,28,50
	c0,0.3,0.2,0.6,0.4,0.8c0.1,0.1,0.2,0.1,0.3,0C29,50.6,29.2,50.4,29.3,50.1z M39.7,42.7c0-0.1,0-0.2,0-0.3c-0.1-0.2-0.2-0.4-0.4-0.5
	c-0.2-0.1-0.5,0.1-0.7,0.3c-0.2,0.3-0.1,0.6,0.1,0.9c0.1,0.1,0.2,0.2,0.4,0.2C39.4,43.4,39.7,43.1,39.7,42.7z M36.3,13.4
	c-0.2,0-0.5,0.2-0.6,0.4c-0.1,0.3,0.1,0.7,0.3,0.9c0.1,0.1,0.3,0.2,0.4,0.1c0.4-0.2,0.6-0.5,0.4-1C36.7,13.6,36.5,13.4,36.3,13.4z
	 M37.7,38.2c0,0.3,0.1,0.4,0.3,0.4c0.2,0,0.4,0,0.6,0c0.1,0,0.1,0,0.2-0.1c0.2-0.2,0.3-0.5,0.2-0.7c-0.1-0.2-0.3-0.4-0.5-0.4
	c-0.1,0-0.2,0.1-0.4,0.2C38,37.8,37.7,37.9,37.7,38.2z M40.7,33.8c0,0,0-0.1,0-0.1c0-0.3-0.3-0.5-0.5-0.4c-0.3,0.1-0.5,0.3-0.7,0.5
	c-0.1,0.2-0.1,0.4,0,0.6c0.1,0.2,0.2,0.1,0.4,0.1c0.2,0,0.3,0,0.5,0.1c0,0,0.1,0,0.1,0C40.6,34.3,40.7,34.1,40.7,33.8z M44.8,22.4
	C44.8,22.4,44.8,22.4,44.8,22.4c0.1,0,0.3,0,0.3-0.1c0.2-0.2,0.3-0.5,0.1-0.8c-0.1-0.2-0.2-0.2-0.3-0.2c-0.3,0-0.5,0.1-0.7,0.4
	c-0.2,0.2-0.2,0.4-0.1,0.6c0,0.1,0.1,0.1,0.1,0.1C44.4,22.3,44.6,22.3,44.8,22.4z M48.4,40.8C48.4,40.8,48.4,40.8,48.4,40.8
	c0-0.2-0.1-0.4-0.2-0.6C48.1,40.1,48,40,47.8,40c-0.2,0-0.3,0.1-0.4,0.2c-0.2,0.2-0.3,0.4-0.2,0.6c0.1,0.1,0.1,0.3,0.2,0.4
	c0.1,0.1,0.2,0.1,0.3,0.2C48.1,41.5,48.4,41.1,48.4,40.8z M49.5,30.6c0-0.4-0.1-0.4-0.4-0.4c-0.1,0-0.1,0-0.2,0
	c-0.2,0-0.4-0.1-0.5,0.1c-0.1,0.1-0.2,0.3-0.3,0.4c-0.1,0.2,0.1,0.5,0.3,0.5c0.2,0,0.5,0,0.7,0c0,0,0.1,0,0.1-0.1
	C49.3,31,49.5,30.8,49.5,30.6z M52.8,38.7c0-0.2,0-0.3-0.1-0.3c-0.2,0-0.4,0-0.6,0c-0.2,0-0.4,0.1-0.4,0.3c-0.1,0.3,0,0.5,0.2,0.7
	c0.1,0.1,0.3,0.1,0.4,0.1c0.1-0.1,0.1-0.1,0.2-0.2C52.7,39.2,52.8,39,52.8,38.7z M38.8,23.2c-0.3,0-0.6,0.3-0.5,0.5
	c0,0.2,0.2,0.4,0.4,0.6c0.3,0.3,0.6,0.1,0.7-0.2c0.1-0.3-0.1-0.5-0.2-0.7C39,23.3,38.9,23.2,38.8,23.2z M25.7,46.3
	C25.7,46.3,25.7,46.3,25.7,46.3c0.1,0,0.2,0,0.2-0.1c0.1-0.1,0.2-0.3,0.2-0.4c0-0.2,0-0.4-0.2-0.5c-0.1-0.1-0.3-0.1-0.4,0
	c-0.2,0.1-0.3,0.2-0.4,0.3c-0.1,0.1-0.1,0.2-0.1,0.3c0,0.1,0.1,0.4,0.2,0.4C25.3,46.3,25.5,46.3,25.7,46.3z M52.1,34.9
	c0-0.2-0.1-0.4-0.2-0.6c0-0.1-0.1-0.1-0.2-0.1c-0.2,0-0.3,0.1-0.4,0.2c-0.2,0.2-0.2,0.4-0.1,0.6c0,0.1,0.1,0.1,0.1,0.2
	c0.1,0.1,0.2,0.2,0.3,0.2C51.9,35.5,52.1,35.2,52.1,34.9z M41,22.6c0-0.1,0-0.2-0.1-0.3c-0.1-0.3-0.4-0.4-0.6-0.2
	c-0.3,0.3-0.3,0.6,0,1c0.1,0.2,0.3,0.2,0.4,0.1C40.9,23.1,41,22.9,41,22.6z M46.6,36.3c0,0.1,0,0.2,0.1,0.3c0.1,0.1,0.3,0.2,0.3,0.2
	c0.2-0.1,0.4-0.3,0.5-0.5c0.1-0.2,0-0.3-0.1-0.3c-0.1,0-0.2,0-0.3,0C46.9,35.8,46.7,36,46.6,36.3z M38,25.5c0-0.1,0-0.2-0.1-0.2
	c-0.2,0-0.4-0.1-0.6,0c-0.2,0-0.2,0.2-0.2,0.4c0,0.2,0.1,0.3,0.3,0.4c0.1,0,0.2,0,0.2,0c0.1-0.1,0.2-0.2,0.4-0.3
	C37.9,25.7,37.9,25.6,38,25.5z M30,44.8c0.2,0,0.3-0.1,0.4-0.3c0-0.2-0.1-0.5-0.2-0.5c-0.2-0.1-0.3-0.1-0.5,0.2
	c-0.1,0.1-0.1,0.3,0,0.4C29.8,44.6,29.8,44.8,30,44.8z"/>
<path class="st12" d="M12,23.1c0.1-0.3,0.4-0.4,0.6-0.6c0.3-0.3,0.6-0.5,0.9-0.8c0.2-0.2,0.5-0.4,0.7-0.6c0.1-0.1,0.2-0.1,0.3-0.2
	c0.3-0.2,0.7-0.3,1-0.5c0.3-0.2,0.7-0.3,1-0.4c0.1,0,0.3-0.1,0.4-0.1c0.2-0.1,0.3-0.1,0.5-0.2c0.1,0,0.3,0,0.4,0
	c0.3,0.1,0.6,0.2,0.9,0.3c0.4,0.2,0.7,0.3,1.1,0.5c0.2,0.1,0.4,0.3,0.7,0.2c0.2,0,0.5-0.1,0.7-0.2c0.2-0.1,0.4-0.3,0.6-0.5
	c0.1-0.3,0.3-0.5,0.5-0.7c0.2-0.3,0.5-0.5,0.9-0.6c0.2-0.1,0.4-0.1,0.5-0.2c0,0,0.1,0,0.1,0c-0.2,0.4-0.4,0.8-0.6,1.3
	c-0.2,0.5-0.4,1-0.6,1.5c-0.4,1-0.7,2.1-1,3.1c0,0,0,0,0,0.1c-0.3,0-0.5,0.1-0.8,0.1c-0.4,0.1-0.8,0.1-1.2,0.2
	c-0.5,0.1-0.9,0.1-1.4,0.2c-0.5,0.1-1,0.2-1.5,0.2c-0.6,0.1-1.2,0.1-1.8-0.1c-0.3-0.1-0.6-0.1-0.9-0.3c-0.3-0.1-0.6-0.3-0.8-0.5
	c-0.3-0.3-0.6-0.6-0.9-0.9C12.2,23.5,12.1,23.3,12,23.1z"/>
<path class="st8" d="M12,23.1c0.1,0.2,0.1,0.4,0.3,0.5c0.3,0.3,0.6,0.7,0.9,0.9c0.2,0.2,0.5,0.4,0.8,0.5c0.3,0.1,0.6,0.2,0.9,0.3
	c0.6,0.2,1.2,0.2,1.8,0.1c0.5-0.1,1-0.2,1.5-0.2c0.5-0.1,0.9-0.1,1.4-0.2c0.4-0.1,0.8-0.1,1.2-0.2c0.3,0,0.5-0.1,0.8-0.1
	c-0.1,0.4-0.1,0.8-0.2,1.2c-0.1,0.6-0.2,1.1-0.3,1.7c-0.1,0.4-0.1,0.8-0.1,1.2c0,0.3,0,0.6-0.1,0.9c0,0,0,0,0,0.1
	c-0.2-0.1-0.5-0.1-0.7-0.2c-0.3-0.1-0.5-0.1-0.8-0.2c-0.4-0.1-0.7-0.1-1.1-0.2c-0.4-0.1-0.9-0.1-1.3-0.2c-0.4-0.1-0.8-0.1-1.2,0
	c-0.1-0.2-0.3-0.4-0.4-0.6c-0.2-0.3-0.5-0.5-0.7-0.7c-0.1-0.1-0.2-0.2-0.4-0.2c-0.4-0.2-0.7-0.4-1.1-0.7c-0.7-0.6-1.1-1.3-1.3-2.2
	c0-0.3-0.1-0.5,0-0.8C11.9,23.4,12,23.3,12,23.1z"/>
<path class="st13" d="M19.7,34c-0.4,0-0.8,0-1.3,0c-0.2,0-0.3,0-0.5,0c-0.4,0-0.7,0.1-1.1,0.1c-0.3,0-0.7,0-1,0
	c-0.3,0-0.6-0.1-0.8-0.1c-0.1,0-0.1,0-0.2,0c0,0,0,0-0.1,0c0,0,0,0-0.1,0c0,0,0-0.1,0-0.1c-0.2-0.3-0.4-0.6-0.4-0.9
	c-0.1-0.3-0.1-0.6-0.1-0.9c0-0.3,0-0.5,0.1-0.7c0.3-0.4,0.7-0.5,1.1-0.6c0.2,0,0.3,0,0.5-0.1c0.2,0,0.4-0.1,0.6,0
	c0.3,0,0.6,0.1,0.9,0.2c0.3,0.1,0.7,0.1,1,0.2c0.4,0.1,0.8,0.1,1.2,0.2c0.4,0.1,0.8,0.2,1.2,0.3c0,0.3,0,0.6-0.1,0.9
	c0,0.5-0.1,1.1-0.2,1.6c0,0.1,0,0.1,0,0.2C20.2,34.1,19.9,34.1,19.7,34z"/>
<path class="st14" d="M20.7,31.5c-0.4-0.1-0.8-0.2-1.2-0.3c-0.4-0.1-0.8-0.1-1.2-0.2c-0.3-0.1-0.7-0.1-1-0.2
	c-0.3-0.1-0.6-0.1-0.9-0.2c-0.2,0-0.4,0-0.6,0c-0.2,0-0.3,0-0.5,0.1c-0.4,0.1-0.8,0.2-1.1,0.6c-0.2,0.2-0.1,0.5-0.1,0.7
	c0,0.3,0.1,0.6,0.1,0.9c0.1,0.3,0.2,0.7,0.4,0.9c0,0,0,0.1,0,0.1c-0.1,0-0.2,0-0.3,0.1c-0.2,0.1-0.3,0.2-0.5,0.3
	c-0.2,0.1-0.4,0.2-0.6,0.4c-0.1-0.3-0.3-0.6-0.4-0.9c-0.2-0.6-0.2-1.1-0.2-1.7c0-0.2,0-0.4,0-0.7c0-0.3,0.1-0.7,0.1-1
	c0-0.1,0.1-0.2,0.1-0.3c0,0.1,0,0.2,0,0.3c0.2-0.3,0.4-0.6,0.6-0.8c0.2-0.1,0.3-0.2,0.5-0.3c0.2,0,0.3-0.1,0.5-0.1
	c0.4-0.1,0.7-0.2,1.1-0.3c0,0,0.1,0,0.1,0c0.4-0.1,0.8-0.1,1.2,0c0.4,0.1,0.9,0.1,1.3,0.2c0.4,0.1,0.7,0.1,1.1,0.2
	c0.3,0.1,0.5,0.1,0.8,0.2c0.2,0.1,0.5,0.1,0.7,0.2C20.8,30.3,20.7,30.9,20.7,31.5z"/>
<path class="st15" d="M24.9,17c-0.3,0-0.7-0.1-1-0.1c-0.2,0-0.4,0-0.6,0.1c0.1-0.3,0.3-0.7,0.4-1c0.2-0.3,0.3-0.6,0.6-0.9
	c0.2-0.3,0.5-0.7,0.8-0.9c0.3-0.2,0.6-0.4,0.9-0.5c0.3-0.1,0.5-0.3,0.7-0.5c0.3-0.3,0.5-0.6,0.8-0.9c0.2-0.3,0.4-0.6,0.6-0.8
	c0.4-0.6,0.8-1.2,1.2-1.9c0.1-0.1,0.2-0.1,0.3-0.1c0.3,0.1,0.6,0.3,0.8,0.5c0.2,0.2,0.4,0.3,0.5,0.5c0.2,0.2,0.3,0.3,0.5,0.5
	c0.1,0.1,0.2,0.2,0.3,0.3c0,0,0.1,0.1,0.1,0.1c-0.3,0.2-0.7,0.3-1,0.5c-0.4,0.2-0.8,0.5-1.2,0.7c-0.2,0.1-0.5,0.3-0.7,0.5
	c-0.3,0.2-0.7,0.5-1,0.7c-0.3,0.2-0.5,0.4-0.8,0.6c-0.4,0.4-0.8,0.7-1.1,1.1c-0.3,0.3-0.5,0.6-0.7,0.9C25.2,16.5,25.1,16.8,24.9,17z
	"/>
<path class="st4" d="M13.2,48.3c0,0.4,0,0.8,0,1.3c0,0,0,0,0,0c0-0.1,0-0.1,0-0.2c0-0.3,0-0.6,0-0.9C13.1,48.4,13.2,48.3,13.2,48.3
	C13.2,48.3,13.2,48.3,13.2,48.3z"/>
<path class="st16" d="M40.3,11.2c-0.4,0-0.8,0-1.1,0c0.1,0,0.1,0,0.2,0c0.3,0,0.5,0,0.8,0C40.2,11.1,40.3,11.2,40.3,11.2z"/>
<path class="st16" d="M11.7,48.3c-0.3,0-0.6,0-0.9,0c0,0,0,0,0,0C11,48.2,11.4,48.2,11.7,48.3C11.7,48.2,11.7,48.3,11.7,48.3
	C11.7,48.3,11.7,48.3,11.7,48.3z"/>
<path class="st16" d="M15.7,55.8c0.3,0,0.6,0,0.9,0c-0.1,0-0.3,0-0.4,0C16.1,55.8,15.9,55.8,15.7,55.8z"/>
<path class="st16" d="M55.9,36.5c0-0.3,0-0.6,0-0.9c0,0.3,0,0.5,0,0.8C55.9,36.4,55.9,36.5,55.9,36.5z"/>
<path class="st17" d="M12.6,31.4c0,0.2,0,0.4,0,0.7c0,0.6,0.1,1.1,0.2,1.7c0.1,0.3,0.3,0.6,0.4,0.9c0,0-0.1,0.1-0.1,0.1
	c-0.2,0-0.3,0-0.5,0c0,0-0.1,0-0.1,0c0,0-0.1,0-0.1,0c-0.2,0-0.4,0-0.6,0C12.2,33.6,12.4,32.5,12.6,31.4z"/>
<path class="st18" d="M11.7,43.7c-0.2-0.1-0.4-0.1-0.6-0.2c-0.4,0-0.9-0.1-1.3-0.1c0-0.1,0.1-0.1,0.1-0.2c0.4,0,0.7,0,1.1,0
	c0.4,0,0.7,0,1.1,0c0.1,0,0.2,0,0.2,0.2c-0.1,0-0.1,0-0.2-0.1C12,43.4,11.9,43.6,11.7,43.7C11.8,43.7,11.7,43.7,11.7,43.7z"/>
<path class="st6" d="M12.7,34.8C12.7,34.8,12.7,34.8,12.7,34.8C12.7,34.8,12.7,34.8,12.7,34.8z"/>
<path class="st14" d="M14.8,34C14.8,34,14.8,34,14.8,34C14.8,34,14.8,34,14.8,34z"/>
<path class="st19" d="M21.2,18.2c-0.1,0.2-0.3,0.4-0.4,0.5c0,0,0,0,0,0c-0.3,0.3-0.3,0.2-0.7,0c-0.2-0.1-0.3-0.2-0.5-0.2
	c-0.2-0.1-0.5-0.2-0.7-0.3c-0.3-0.1-0.5-0.2-0.8-0.3c-0.1,0-0.3,0-0.5,0c0.4-0.4,0.7-0.9,1.1-1.3c0.3-0.3,0.6-0.6,0.9-0.9
	c0.4-0.4,0.8-0.7,1.2-1.1c0.2-0.2,0.4-0.3,0.7-0.5c0.3-0.2,0.7-0.5,1-0.7c0.1-0.1,0.3-0.2,0.4-0.2c0.3-0.2,0.7-0.3,1-0.5
	c0.2-0.1,0.4-0.2,0.6-0.3c0,0,0,0,0,0c-0.1,0.1-0.2,0.2-0.3,0.3c-0.5,0.4-0.9,0.9-1.2,1.4c-0.5,0.7-0.8,1.5-1.1,2.3
	c-0.2,0.5-0.4,1.1-0.7,1.6C21.2,18,21.2,18.1,21.2,18.2C21.2,18.1,21.2,18.1,21.2,18.2C21.2,18.1,21.2,18.2,21.2,18.2z"/>
<path class="st19" d="M24.5,12.4C24.5,12.4,24.5,12.4,24.5,12.4C24.6,12.4,24.6,12.4,24.5,12.4C24.6,12.4,24.5,12.4,24.5,12.4
	C24.5,12.4,24.5,12.4,24.5,12.4z"/>
<path class="st20" d="M14,29.3c-0.2,0.1-0.3,0.2-0.5,0.3c-0.3,0.2-0.5,0.4-0.6,0.8c0-0.1,0-0.2,0-0.3c0.1-0.3,0.1-0.6,0.2-0.9
	c0-0.2,0.1-0.3,0.2-0.5c0.1,0.1,0.2,0.2,0.4,0.3C13.8,29.1,13.9,29.2,14,29.3z"/>
<path class="st5" d="M21.2,18.2C21.2,18.2,21.2,18.1,21.2,18.2C21.2,18.1,21.2,18.2,21.2,18.2z"/>
<path class="st21" d="M50.4,41.9c0,0.3-0.2,0.6-0.4,0.8c-0.1,0.1-0.2,0.1-0.3,0.1c-0.1,0-0.3,0-0.4,0c-0.4,0-0.6-0.4-0.4-0.8
	c0-0.1,0.1-0.1,0.1-0.2c0.2-0.2,0.4-0.3,0.7-0.2c0.2,0,0.5,0,0.7,0c0-0.2,0-0.4,0.2-0.6c-0.1-0.1-0.3-0.2-0.4-0.4
	c-0.3-0.3-0.6-0.7-0.7-1.2c0-0.3,0.1-0.6,0.3-0.7c0.3-0.2,0.6-0.3,0.9-0.3c0.3,0.1,0.4,0.2,0.6,0.5c0.2,0.3,0.3,0.6,0.3,1
	c0,0.2-0.1,0.4-0.2,0.6c0,0,0,0,0,0.1c0.3,0.1,0.4,0.1,0.7,0.5c0-0.2,0.1-0.4,0.2-0.5c0.2-0.2,0.3-0.5,0.7-0.5
	c0.2,0,0.3,0.1,0.3,0.2c0.2,0.3,0.4,0.7,0.3,1.1c-0.1,0.2-0.2,0.4-0.4,0.5c-0.1,0.1-0.2,0.1-0.3,0.1c-0.2,0-0.3-0.1-0.5-0.2
	c0,0.3,0,0.6-0.1,0.8C52,42.7,51.8,43,51.4,43c-0.2,0-0.4-0.1-0.5-0.3C50.7,42.5,50.6,42.2,50.4,41.9C50.4,42,50.4,41.9,50.4,41.9z"
	/>
<path class="st21" d="M44.4,41.4C44.4,41.4,44.3,41.5,44.4,41.4c-0.2,0.2-0.3,0.3-0.4,0.3c-0.3,0-0.6,0-0.9,0c-0.1,0-0.1,0-0.1-0.1
	c-0.2-0.3-0.2-0.7,0.1-0.9c0.1-0.1,0.3-0.2,0.5-0.3c0.3,0,0.5-0.1,0.7-0.2c0.1,0,0.2-0.2,0.3-0.3c0.2-0.3,0.4-0.5,0.8-0.6
	c0.2-0.1,0.6,0.1,0.7,0.2c0.2,0.3,0.4,0.6,0.4,0.9c0.1,0.5-0.1,0.8-0.4,1.1c-0.2,0.2-0.5,0.4-0.8,0.5c-0.1,0.1-0.5-0.1-0.6-0.2
	c-0.1-0.1-0.1-0.2-0.2-0.2C44.5,41.6,44.5,41.5,44.4,41.4z"/>
<path class="st21" d="M40.9,28.5c-0.3,0-0.5-0.2-0.6-0.4c-0.2-0.3-0.4-0.7-0.4-1.1c0-0.4,0.2-0.6,0.4-0.9c0.2-0.2,0.4-0.3,0.7-0.3
	c0.3,0,0.5,0.1,0.6,0.3c0.2,0.3,0.4,0.7,0.4,1.1c0,0.4-0.2,0.7-0.5,1c0,0-0.1,0.1-0.1,0.1c-0.1,0.1-0.1,0.1,0,0.1
	c0.1,0.1,0.2,0.2,0.3,0.3c0.3,0.3,0.3,1-0.1,1.3c-0.1,0.1-0.3,0.2-0.5,0.2c-0.1,0-0.2,0-0.3-0.1c-0.3-0.2-0.6-0.8-0.4-1.2
	c0.1-0.1,0.2-0.3,0.3-0.4C40.8,28.6,40.8,28.6,40.9,28.5z"/>
<path class="st21" d="M31.7,33.1c0,0,0-0.1,0-0.1c0.1-0.4,0.4-0.6,0.7-0.7c0.2-0.1,0.4,0.1,0.5,0.2c0.2,0.3,0.3,0.6,0.3,0.9
	c0,0.4-0.3,0.7-0.6,0.7c-0.2,0-0.4,0.1-0.5,0.4c0,0.2-0.1,0.4-0.2,0.5c-0.1,0.3-0.5,0.5-0.8,0.3c-0.2-0.1-0.3-0.2-0.5-0.4
	c-0.2-0.3-0.4-0.5-0.5-0.8c-0.2-0.4,0-0.8,0.3-1c0.3-0.2,0.7-0.3,1-0.1C31.6,33,31.7,33.1,31.7,33.1z"/>
<path class="st21" d="M45.3,31.7c0,0.2,0,0.4-0.2,0.6c-0.1,0.1-0.3,0.3-0.5,0.3c-0.3,0.1-0.4-0.1-0.5-0.3c-0.2-0.2-0.3-0.5-0.3-0.8
	c0-0.2,0.1-0.4,0.3-0.5c0.1-0.1,0.2-0.2,0.3-0.2c0.4-0.2,0.5,0,0.8,0.3c0,0.1,0.1,0.1,0.1,0.2c0-0.4,0.3-0.6,0.5-0.7
	c0.4-0.1,0.7-0.1,1,0.3c0.2,0.3,0.4,0.7,0.3,1.1c-0.1,0.4-0.5,0.7-0.9,0.5c-0.1-0.1-0.3-0.2-0.4-0.3C45.6,32.1,45.4,31.9,45.3,31.7z
	"/>
<path class="st22" d="M33.7,16.2c0,0.3-0.2,0.6-0.4,0.7c-0.2,0.2-0.4,0.3-0.7,0.4c-0.3,0.1-0.6-0.1-0.8-0.3
	c-0.2-0.2-0.3-0.5-0.4-0.8c-0.1-0.3,0-0.6,0.2-0.9c0.1-0.2,0.3-0.4,0.5-0.5c0.3-0.2,0.6-0.2,0.9,0c0.4,0.3,0.6,0.6,0.7,1.1
	C33.7,16,33.7,16.1,33.7,16.2z"/>
<path class="st21" d="M37.8,46.6c0-0.3,0.2-0.7,0.5-0.9c0.2-0.2,0.5-0.3,0.8-0.3c0.3,0,0.5,0.2,0.6,0.4c0.1,0.3,0.3,0.5,0.3,0.8
	c0,0.2,0,0.3-0.1,0.5c-0.2,0.4-0.5,0.7-0.9,0.9c-0.3,0.2-0.5,0.1-0.8-0.2C38,47.5,37.8,47.2,37.8,46.6z"/>
<path class="st21" d="M37.6,47.3c0,0.5-0.2,0.8-0.5,1.1c-0.2,0.1-0.3,0.2-0.5,0.3c-0.1,0-0.2,0-0.2,0c-0.3-0.1-0.4-0.3-0.6-0.5
	c-0.1-0.2-0.2-0.5-0.3-0.8c-0.1-0.3,0-0.6,0.2-0.9c0.2-0.2,0.4-0.4,0.6-0.5c0.3-0.2,0.7,0,0.9,0.2C37.4,46.5,37.6,46.9,37.6,47.3z"
	/>
<path class="st22" d="M39,14.3c-0.2,0.1-0.4,0.3-0.6,0.4c-0.1,0.1-0.4,0-0.5-0.1c-0.2-0.3-0.3-0.5-0.2-0.8c0.1-0.3,0.3-0.4,0.5-0.6
	c0.1,0,0.2-0.1,0.3-0.1c0.1,0,0.3,0.1,0.5,0.1c0,0,0.1-0.1,0.1-0.2c0.1-0.2,0.3-0.3,0.5-0.3c0.1,0,0.3,0.1,0.4,0.2
	c0.3,0.2,0.5,0.5,0.5,0.9c0,0.2-0.1,0.4-0.2,0.5c-0.3,0.2-0.6,0.4-1,0.3C39.3,14.5,39.1,14.4,39,14.3z"/>
<path class="st21" d="M24.9,43.8c0,0.5-0.2,0.9-0.7,1.1c-0.1,0.1-0.3,0-0.4,0c-0.3-0.1-0.5-0.3-0.6-0.6c-0.1-0.2-0.2-0.4-0.3-0.6
	c-0.1-0.3-0.2-0.6,0-0.9c0.3-0.4,0.8-0.6,1.2-0.5c0.3,0.1,0.5,0.3,0.6,0.6C24.8,43.2,24.9,43.5,24.9,43.8z"/>
<path class="st21" d="M44,44.6c0-0.3,0.2-0.6,0.5-0.8c0.1-0.1,0.2-0.2,0.3-0.2c0.4-0.2,0.6-0.1,0.9,0.2c0.2,0.3,0.4,0.7,0.4,1.1
	c0,0.3-0.2,0.6-0.4,0.8c-0.1,0.1-0.2,0.2-0.4,0.3c-0.3,0.1-0.5,0.1-0.7-0.1C44.2,45.5,44,45.1,44,44.6z"/>
<path class="st21" d="M35.2,35.2c0-0.4,0.2-0.8,0.6-1c0.5-0.3,0.7-0.2,1.1,0.2c0.2,0.3,0.3,0.6,0.3,1c0,0.4-0.2,0.7-0.5,0.9
	c-0.1,0.1-0.3,0.2-0.4,0.2c-0.3,0.1-0.5-0.1-0.7-0.4c-0.1-0.2-0.2-0.4-0.3-0.6C35.2,35.5,35.2,35.3,35.2,35.2z"/>
<path class="st21" d="M45.3,28.6c-0.3,0-0.7,0-1,0c0,0-0.1,0-0.1-0.1c-0.3-0.3-0.3-1,0-1.3c0.1-0.1,0.1-0.1,0.2-0.2
	c0.2-0.2,0.4-0.2,0.7-0.2c0.3,0,0.7,0,1,0c0.1,0,0.2,0,0.2,0.1c0.2,0.5,0.1,0.9-0.2,1.3c0,0,0,0,0,0C45.7,28.6,45.7,28.6,45.3,28.6z
	"/>
<path class="st22" d="M29.6,17.7c0-0.5,0.3-0.8,0.7-1.1c0.2-0.1,0.3-0.2,0.5-0.2c0.3,0,0.4,0.1,0.5,0.3c0.2,0.4,0.4,0.8,0.2,1.2
	c-0.1,0.2-0.2,0.3-0.3,0.4c-0.2,0.2-0.5,0.3-0.8,0.4c-0.3,0-0.5-0.1-0.6-0.3C29.6,18.2,29.6,18,29.6,17.7z"/>
<path class="st22" d="M27.6,23.1c-0.4,0-0.6-0.2-0.8-0.5c-0.1-0.2-0.3-0.5-0.3-0.7c0-0.3,0.1-0.5,0.3-0.6c0.2-0.1,0.4-0.2,0.6-0.3
	c0.2-0.1,0.4,0.1,0.6,0.2c0.3,0.3,0.5,0.7,0.6,1.1c0,0.2-0.1,0.5-0.3,0.6C28.1,23,27.8,23.1,27.6,23.1z"/>
<path class="st21" d="M29,45c0.1,0.5-0.4,1-0.8,1.1c-0.3,0.1-0.6,0.1-0.8-0.3c-0.2-0.3-0.4-0.7-0.3-1.1c0.1-0.3,0.3-0.5,0.5-0.7
	c0.1-0.1,0.3-0.2,0.4-0.2c0.3-0.1,0.5,0.1,0.7,0.3C28.9,44.5,29.1,44.8,29,45z"/>
<path class="st21" d="M38.3,29.3c0.3,0,0.5,0.2,0.6,0.4c0.2,0.3,0.4,0.7,0.3,1.1c-0.1,0.3-0.5,0.7-0.8,0.7c-0.1,0-0.3-0.1-0.4-0.2
	c-0.3-0.3-0.5-0.6-0.6-1c-0.1-0.2,0-0.4,0.1-0.5C37.7,29.5,38,29.4,38.3,29.3z"/>
<path class="st21" d="M25.4,49.3c0.3,0,0.5,0.1,0.6,0.3c0.2,0.3,0.4,0.7,0.3,1.1c-0.1,0.3-0.3,0.5-0.5,0.6c-0.3,0.1-0.5,0-0.6-0.2
	c-0.3-0.3-0.5-0.6-0.6-0.9c-0.1-0.4,0-0.6,0.3-0.8C25.1,49.4,25.2,49.3,25.4,49.3z"/>
<path class="st21" d="M39.5,35.2c0,0.4-0.2,0.7-0.5,0.8c-0.2,0.1-0.5,0.1-0.6-0.1c-0.3-0.3-0.5-0.6-0.6-0.9
	c-0.2-0.4-0.1-0.6,0.3-0.9c0.2-0.2,0.4-0.2,0.7-0.2c0.3,0,0.4,0.2,0.5,0.4C39.4,34.6,39.5,34.9,39.5,35.2z"/>
<path class="st21" d="M34.6,44.5c-0.3,0-0.6,0-0.9,0c-0.1,0-0.2-0.1-0.2-0.2c-0.2-0.4-0.1-0.9,0.2-1.2c0.3-0.3,0.6-0.2,0.9-0.2
	c0.2,0,0.4,0,0.6,0c0.1,0,0.2,0,0.2,0.1c0.1,0.4,0.1,0.7-0.1,1.1c0,0.1-0.1,0.1-0.1,0.2C35,44.5,34.8,44.5,34.6,44.5z"/>
<path class="st22" d="M25.2,24c0-0.3,0.2-0.6,0.4-0.8c0.3-0.3,0.6-0.3,0.8-0.1c0.2,0.1,0.3,0.3,0.4,0.4c0.1,0.1,0.1,0.2,0.1,0.3
	c0.1,0.3,0.1,0.6-0.2,0.8C26.6,24.8,26.4,25,26,25c-0.2,0-0.4-0.1-0.5-0.3C25.4,24.5,25.2,24.3,25.2,24z"/>
<path class="st21" d="M45,35.8c0.3,0,0.5,0.2,0.6,0.6c0.2,0.4,0,0.8-0.3,1.2c-0.1,0.1-0.3,0.2-0.4,0.3c-0.2,0.1-0.4,0-0.5-0.1
	c-0.3-0.3-0.5-0.7-0.4-1.1C44.1,36.2,44.6,35.7,45,35.8z"/>
<path class="st21" d="M33.7,41.3c0,0.4-0.2,0.6-0.5,0.8c-0.2,0.1-0.5,0.1-0.7-0.2c-0.2-0.3-0.4-0.6-0.5-0.9
	c-0.1-0.3,0.1-0.5,0.3-0.7c0.1-0.1,0.3-0.2,0.4-0.2c0.3,0,0.6,0.2,0.7,0.4C33.6,40.8,33.7,41.1,33.7,41.3z"/>
<path class="st22" d="M28.6,19.5c0.3,0,0.5,0.2,0.6,0.4c0.2,0.3,0.3,0.6,0.1,0.9c-0.1,0.3-0.6,0.6-0.9,0.5c-0.2,0-0.3-0.2-0.4-0.3
	c-0.1-0.2-0.2-0.4-0.3-0.6c-0.1-0.2,0.1-0.6,0.3-0.7C28.2,19.5,28.4,19.4,28.6,19.5z"/>
<path class="st21" d="M43.8,45.2c0,0.4-0.2,0.7-0.5,0.8c-0.2,0.1-0.3,0.1-0.5-0.1c-0.3-0.3-0.5-0.6-0.6-1c-0.1-0.5,0.2-0.9,0.7-0.9
	c0.3,0,0.5,0.1,0.7,0.4C43.7,44.7,43.8,45,43.8,45.2z"/>
<path class="st21" d="M41.2,38.4c0,0.3-0.2,0.5-0.4,0.7c-0.2,0.1-0.5,0.1-0.7-0.2c-0.2-0.2-0.3-0.4-0.4-0.7c-0.2-0.6,0.3-1.1,0.8-1
	c0.2,0,0.3,0.1,0.5,0.3C41.1,37.8,41.2,38,41.2,38.4z"/>
<path class="st21" d="M32.1,43c0.3,0,0.5,0.1,0.6,0.3c0.2,0.2,0.3,0.4,0.3,0.7c0.1,0.4-0.1,0.6-0.3,0.9c-0.2,0.1-0.5,0.2-0.7,0
	c-0.1-0.1-0.3-0.3-0.4-0.4c-0.2-0.2-0.3-0.5-0.3-0.8c0-0.3,0.1-0.5,0.4-0.6C31.9,43.1,32,43,32.1,43z"/>
<path class="st21" d="M42.2,42c0,0.3-0.1,0.5-0.3,0.7c-0.2,0.2-0.6,0.1-0.8-0.1c-0.2-0.2-0.4-0.4-0.5-0.7c-0.2-0.4,0-0.9,0.5-1
	c0.4-0.1,0.6,0,0.8,0.3C42.1,41.5,42.2,41.7,42.2,42z"/>
<path class="st21" d="M34.8,36.5c0,0.4-0.2,0.7-0.5,0.9c-0.1,0.1-0.1,0.1-0.2,0.1c-0.2,0.1-0.5,0-0.6-0.2c-0.2-0.3-0.3-0.6-0.3-0.9
	c0-0.2,0.2-0.4,0.4-0.5c0.1-0.1,0.3-0.2,0.4-0.2c0.4-0.1,0.5,0.1,0.7,0.5C34.8,36.2,34.8,36.4,34.8,36.5z"/>
<path class="st21" d="M53.4,39.2c0-0.3,0.3-0.7,0.6-0.9c0.5-0.2,0.8,0.2,0.9,0.6c0.1,0.5-0.2,1-0.6,1.2c-0.3,0.2-0.5,0.1-0.8-0.2
	C53.5,39.7,53.4,39.5,53.4,39.2z"/>
<path class="st21" d="M43.5,26.3c0,0.3-0.1,0.5-0.3,0.7c-0.2,0.1-0.4,0.1-0.6,0c-0.2-0.2-0.5-0.4-0.6-0.7c-0.1-0.3-0.1-0.5,0.1-0.8
	c0.2-0.3,0.5-0.4,0.9-0.2c0.2,0.1,0.3,0.2,0.4,0.4C43.5,25.8,43.5,26.1,43.5,26.3C43.6,26.3,43.6,26.3,43.5,26.3z"/>
<path class="st21" d="M49.5,36.6c-0.1,0-0.2-0.1-0.3-0.2c-0.3-0.2-0.5-0.5-0.5-0.9c-0.1-0.3,0.2-0.6,0.4-0.7c0.1,0,0.2-0.1,0.3-0.1
	c0.3,0,0.5,0.1,0.7,0.4c0.2,0.3,0.3,0.7,0.1,1.1C49.9,36.3,49.8,36.6,49.5,36.6z"/>
<path class="st21" d="M41.8,22c0-0.5,0.2-0.7,0.5-0.9c0.1,0,0.2-0.1,0.3-0.1c0.3-0.1,0.5,0.1,0.6,0.4c0.3,0.5,0.1,1-0.3,1.3
	c-0.1,0.1-0.2,0.2-0.4,0.2c-0.3,0.1-0.4-0.2-0.6-0.4C41.8,22.3,41.8,22.1,41.8,22z"/>
<path class="st21" d="M39.5,26.6c0,0.4-0.2,0.6-0.4,0.8c-0.1,0.1-0.2,0.2-0.4,0.2c-0.3,0.1-0.4-0.1-0.6-0.3c-0.2-0.3-0.3-0.8,0-1.2
	c0.2-0.2,0.4-0.4,0.6-0.4c0.4,0,0.5,0.2,0.7,0.5C39.5,26.4,39.5,26.5,39.5,26.6z"/>
<path class="st21" d="M42.9,27.2c0.4,0,0.5,0.2,0.6,0.5c0.2,0.4,0.1,0.9-0.3,1.2c-0.1,0.1-0.3,0.2-0.4,0.2c-0.2,0-0.4-0.1-0.5-0.3
	c-0.2-0.4-0.3-0.9,0-1.3C42.4,27.4,42.7,27.2,42.9,27.2z"/>
<path class="st21" d="M27.5,42.2c0-0.4,0.4-0.9,0.9-0.9c0.2,0,0.4,0.2,0.5,0.3c0.3,0.4,0.2,0.8-0.1,1.2c-0.2,0.3-0.5,0.4-0.7,0.3
	c-0.2-0.1-0.3-0.3-0.4-0.4C27.5,42.5,27.5,42.4,27.5,42.2z"/>
<path class="st21" d="M37.9,39.4c0,0.3-0.1,0.5-0.3,0.6c-0.1,0.1-0.3,0.2-0.4,0.3c-0.2,0.1-0.4,0-0.5-0.2c-0.2-0.4-0.3-0.7-0.1-1.1
	c0.2-0.3,0.5-0.5,0.9-0.4c0.1,0,0.2,0.1,0.3,0.2C37.8,38.9,37.9,39.1,37.9,39.4z"/>
<path class="st22" d="M41.5,13.1c0-0.2,0.1-0.4,0.2-0.5c0.2-0.1,0.3-0.2,0.5-0.3c0.2-0.1,0.4,0.1,0.5,0.2c0.2,0.2,0.3,0.5,0.4,0.7
	c0.1,0.2-0.1,0.5-0.3,0.6c-0.1,0-0.2,0.1-0.3,0.1c-0.2,0-0.4,0-0.6-0.2c-0.1-0.1-0.2-0.3-0.3-0.5C41.6,13.3,41.6,13.2,41.5,13.1z"/>
<path class="st21" d="M30.5,42.1c-0.3,0-0.6,0-0.9,0c0,0-0.1,0-0.1,0c-0.3-0.4-0.2-0.8,0.1-1.1c0.1-0.1,0.3-0.2,0.5-0.1
	c0.1,0,0.2,0,0.3,0c0.1,0,0.2,0,0.3,0c0.3,0,0.4,0.1,0.4,0.5c0,0.3-0.2,0.5-0.3,0.7C30.8,42.2,30.6,42.2,30.5,42.1
	C30.6,42.2,30.5,42.2,30.5,42.1z"/>
<path class="st21" d="M24,51.7c-0.3,0-0.5,0-0.8,0c0,0-0.1,0-0.1-0.1c-0.2-0.3-0.1-0.6,0.1-0.9c0.2-0.2,0.4-0.3,0.7-0.2
	c0.2,0,0.4,0,0.6,0c0.1,0,0.1,0,0.2,0.1c0.2,0.4,0,0.8-0.2,1C24.3,51.7,24.1,51.7,24,51.7C24,51.7,24,51.7,24,51.7z"/>
<path class="st21" d="M36.5,31.9c-0.3,0-0.5,0-0.8,0c-0.2,0-0.2-0.2-0.2-0.3c0-0.3,0.1-0.5,0.3-0.7c0.2-0.2,0.4-0.2,0.6-0.1
	c0.2,0,0.4,0,0.6,0c0.1,0,0.1,0,0.2,0.1c0.2,0.3,0.1,0.6-0.1,0.9C36.7,31.9,36.8,31.9,36.5,31.9z"/>
<path class="st21" d="M33.8,39.9c0-0.3,0.2-0.5,0.4-0.7c0.4-0.2,0.6-0.1,0.8,0.3c0.1,0.2,0.2,0.4,0.1,0.7c0,0.2-0.1,0.3-0.2,0.4
	c-0.1,0-0.1,0.1-0.2,0.1c-0.3,0.2-0.5,0.1-0.7-0.2C33.8,40.4,33.8,40.1,33.8,39.9z"/>
<path class="st21" d="M43.7,37.3c0,0.3-0.2,0.5-0.4,0.6c-0.1,0.1-0.2,0.1-0.3,0.2c-0.1,0-0.2,0-0.3,0c-0.3-0.2-0.5-0.6-0.4-1
	c0-0.1,0.1-0.3,0.2-0.4c0.2-0.3,0.5-0.4,0.7-0.2c0.2,0.1,0.3,0.3,0.4,0.5C43.7,37,43.7,37.2,43.7,37.3z"/>
<path class="st21" d="M47.1,43.8c0-0.3,0.1-0.5,0.3-0.6c0.1-0.1,0.2-0.1,0.3-0.2c0.2-0.1,0.4,0,0.5,0.2c0.2,0.3,0.3,0.5,0.2,0.9
	c-0.1,0.3-0.4,0.5-0.7,0.6c-0.1,0-0.3-0.1-0.3-0.2C47.2,44.3,47.1,44.1,47.1,43.8z"/>
<path class="st21" d="M37.5,42.5c0,0.3-0.2,0.5-0.4,0.6c0,0-0.1,0-0.1,0.1c-0.2,0.2-0.4,0.2-0.6,0c-0.2-0.3-0.4-0.6-0.2-0.9
	c0.1-0.3,0.4-0.6,0.8-0.5c0.2,0,0.3,0.2,0.3,0.3C37.4,42.2,37.5,42.4,37.5,42.5z"/>
<path class="st21" d="M31.1,49.3c0.1,0.3-0.4,0.7-0.6,0.8c-0.2,0.1-0.4,0-0.6-0.3c-0.3-0.6-0.1-1,0.4-1.3c0.2-0.1,0.4,0,0.6,0.2
	C31,48.9,31.1,49.1,31.1,49.3z"/>
<path class="st21" d="M33.5,48.3c0,0.3-0.2,0.6-0.4,0.8c-0.1,0-0.2,0-0.3,0c-0.2,0-0.4,0-0.6,0C32.1,49,32,49,32,48.9
	c-0.3-0.4-0.1-0.8,0.2-1c0.1-0.1,0.2-0.1,0.4-0.1c0.2,0,0.4,0,0.6,0c0.2,0,0.3,0,0.3,0.3C33.5,48.2,33.5,48.2,33.5,48.3z"/>
<path class="st21" d="M51.8,31.6c0.2,0,0.3,0.1,0.4,0.2c0.1,0.2,0.2,0.4,0.2,0.7c0,0.2-0.1,0.3-0.2,0.4c-0.1,0.1-0.3,0.2-0.5,0.3
	c-0.2,0.1-0.3-0.1-0.3-0.2c-0.2-0.3-0.3-0.5-0.2-0.9C51.2,31.8,51.5,31.6,51.8,31.6z"/>
<path class="st21" d="M27.1,43.6c0,0.4-0.3,0.6-0.5,0.7c-0.1,0.1-0.3,0-0.4-0.1c-0.2-0.2-0.4-0.5-0.4-0.8c0-0.3,0.4-0.8,0.7-0.7
	c0.1,0,0.2,0.1,0.3,0.2C27,43.1,27.1,43.4,27.1,43.6z"/>
<path class="st21" d="M43.4,33.1c0,0.3-0.4,0.7-0.7,0.8c-0.2,0-0.3-0.1-0.4-0.2c-0.1-0.2-0.1-0.3-0.2-0.5c-0.1-0.2,0-0.4,0.2-0.6
	c0.2-0.1,0.3-0.3,0.5-0.2c0.2,0,0.3,0.1,0.3,0.2C43.3,32.7,43.4,32.9,43.4,33.1C43.4,33.1,43.4,33.1,43.4,33.1z"/>
<path class="st21" d="M31.5,36c0.3,0,0.5,0,0.7,0c0.2,0,0.1,0.1,0.2,0.2c0.1,0.3-0.1,0.7-0.3,0.9c-0.1,0.1-0.3,0-0.4,0
	c-0.2,0-0.3,0-0.5,0c-0.1,0-0.2-0.1-0.2-0.2c-0.1-0.2-0.1-0.5,0.1-0.8C31.1,36.1,31.3,36,31.5,36z"/>
<path class="st21" d="M34.9,32.1c0,0.2-0.1,0.4-0.2,0.5c-0.2,0.1-0.3,0.3-0.6,0.3c-0.1,0-0.2-0.1-0.2-0.1c-0.1-0.1-0.2-0.3-0.2-0.4
	c-0.1-0.4,0-0.6,0.3-0.8c0.1-0.1,0.2-0.1,0.3-0.2c0.1,0,0.4,0.1,0.4,0.2C34.8,31.7,34.9,31.9,34.9,32.1C35,32,35,32,34.9,32.1z"/>
<path class="st23" d="M34.3,15.8c-0.4,0-0.6-0.2-0.7-0.6c-0.1-0.2-0.1-0.5,0.3-0.7c0.1-0.1,0.2-0.1,0.4-0.1c0.2,0,0.4,0.2,0.5,0.3
	c0.1,0.1,0.2,0.3,0.2,0.5c0.1,0.2-0.1,0.4-0.2,0.5C34.5,15.8,34.4,15.8,34.3,15.8z"/>
<path class="st21" d="M41,46.5c-0.2,0-0.4,0-0.6,0c0,0-0.1,0-0.1-0.1c-0.2-0.4,0-0.8,0.3-1c0.1-0.1,0.3,0,0.4,0c0.2,0,0.4,0,0.6,0
	c0.1,0,0.1,0.1,0.1,0.1c0.1,0.2,0.1,0.5-0.1,0.7C41.5,46.5,41.4,46.6,41,46.5z"/>
<path class="st21" d="M35.3,48c0,0.4-0.3,0.7-0.6,0.6c-0.1,0-0.2-0.1-0.3-0.2c-0.1-0.2-0.2-0.4-0.3-0.6c-0.1-0.2-0.1-0.4,0.1-0.5
	c0.2-0.2,0.6-0.3,0.8-0.2c0.1,0.1,0.2,0.2,0.2,0.3C35.1,47.6,35.2,47.8,35.3,48z"/>
<path class="st21" d="M29.3,50.1c0,0.4-0.2,0.6-0.5,0.7c-0.1,0.1-0.2,0.1-0.3,0C28.2,50.6,28,50.3,28,50c0-0.3,0.4-0.8,0.8-0.6
	c0.1,0,0.3,0.2,0.3,0.3C29.2,49.7,29.2,49.9,29.3,50.1z"/>
<path class="st21" d="M39.7,42.7c0,0.4-0.3,0.7-0.6,0.7c-0.2,0-0.3-0.1-0.4-0.2c-0.2-0.3-0.3-0.6-0.1-0.9c0.1-0.2,0.4-0.4,0.7-0.3
	c0.2,0.1,0.3,0.3,0.4,0.5C39.7,42.5,39.7,42.6,39.7,42.7z"/>
<path class="st23" d="M36.3,13.4c0.2,0,0.4,0.2,0.5,0.4c0.2,0.5-0.1,0.8-0.4,1c-0.2,0.1-0.3,0-0.4-0.1c-0.2-0.2-0.4-0.6-0.3-0.9
	C35.7,13.7,36,13.4,36.3,13.4z"/>
<path class="st21" d="M37.7,38.2c0-0.2,0.2-0.4,0.5-0.6c0.1-0.1,0.2-0.1,0.4-0.2c0.2,0,0.4,0.1,0.5,0.4c0.1,0.3,0,0.5-0.2,0.7
	c0,0-0.1,0.1-0.2,0.1c-0.2,0-0.4,0-0.6,0C37.8,38.6,37.7,38.5,37.7,38.2z"/>
<path class="st21" d="M40.7,33.8c0,0.3-0.1,0.5-0.3,0.7c0,0-0.1,0-0.1,0c-0.2,0-0.3,0-0.5-0.1c-0.1,0-0.3,0-0.4-0.1
	c-0.1-0.2-0.1-0.4,0-0.6c0.2-0.2,0.4-0.4,0.7-0.5c0.2-0.1,0.5,0.2,0.5,0.4C40.7,33.8,40.7,33.8,40.7,33.8z"/>
<path class="st21" d="M44.8,22.4c-0.2,0-0.4,0-0.6,0c-0.1,0-0.1-0.1-0.1-0.1c-0.1-0.2-0.1-0.5,0.1-0.6c0.2-0.2,0.4-0.4,0.7-0.4
	c0.2,0,0.3,0.1,0.3,0.2c0.1,0.3,0,0.6-0.1,0.8C45.1,22.3,44.9,22.4,44.8,22.4C44.8,22.4,44.8,22.4,44.8,22.4z"/>
<path class="st21" d="M48.4,40.8c0,0.3-0.3,0.7-0.6,0.6c-0.1,0-0.2-0.1-0.3-0.2c-0.1-0.1-0.2-0.3-0.2-0.4c-0.1-0.2,0-0.4,0.2-0.6
	c0.1-0.1,0.2-0.2,0.4-0.2c0.2,0,0.3,0.1,0.3,0.2C48.3,40.4,48.3,40.6,48.4,40.8C48.4,40.8,48.4,40.8,48.4,40.8z"/>
<path class="st21" d="M49.5,30.6c0,0.2-0.1,0.4-0.3,0.5c0,0-0.1,0.1-0.1,0.1c-0.2,0-0.5,0-0.7,0c-0.2,0-0.4-0.3-0.3-0.5
	c0.1-0.2,0.2-0.3,0.3-0.4c0.1-0.1,0.3-0.1,0.5-0.1c0.1,0,0.1,0,0.2,0C49.4,30.2,49.4,30.2,49.5,30.6z"/>
<path class="st21" d="M52.8,38.7c0,0.3-0.2,0.4-0.3,0.6c-0.1,0.1-0.1,0.1-0.2,0.2c-0.1,0.1-0.3,0-0.4-0.1c-0.2-0.2-0.3-0.4-0.2-0.7
	c0.1-0.2,0.2-0.3,0.4-0.3c0.2,0,0.4,0,0.6,0C52.8,38.4,52.8,38.5,52.8,38.7z"/>
<path class="st21" d="M38.8,23.2c0.2,0,0.3,0.1,0.3,0.2c0.1,0.2,0.3,0.4,0.2,0.7c-0.1,0.3-0.4,0.5-0.7,0.2c-0.2-0.2-0.3-0.4-0.4-0.6
	C38.2,23.5,38.5,23.2,38.8,23.2z"/>
<path class="st21" d="M25.7,46.3c-0.2,0-0.4,0-0.6,0c-0.1,0-0.2-0.2-0.2-0.4c0-0.1,0.1-0.2,0.1-0.3c0.1-0.1,0.3-0.2,0.4-0.3
	c0.1-0.1,0.3-0.1,0.4,0c0.1,0.1,0.2,0.3,0.2,0.5c0,0.1-0.1,0.3-0.2,0.4C25.9,46.3,25.8,46.3,25.7,46.3
	C25.7,46.3,25.7,46.3,25.7,46.3z"/>
<path class="st21" d="M52.1,34.9c0,0.4-0.2,0.6-0.5,0.6c-0.1,0-0.2-0.1-0.3-0.2c-0.1,0-0.1-0.1-0.1-0.2c-0.1-0.2-0.1-0.5,0.1-0.6
	c0.1-0.1,0.2-0.3,0.4-0.2c0.1,0,0.2,0,0.2,0.1C52,34.5,52.1,34.6,52.1,34.9z"/>
<path class="st21" d="M41,22.6c0,0.3-0.1,0.5-0.3,0.6c-0.1,0.1-0.3,0-0.4-0.1c-0.3-0.4-0.3-0.6,0-1c0.2-0.2,0.5-0.1,0.6,0.2
	C41,22.4,41,22.5,41,22.6z"/>
<path class="st21" d="M46.6,36.3c0-0.3,0.2-0.4,0.5-0.4c0.1,0,0.2,0,0.3,0c0.2,0.1,0.2,0.2,0.1,0.3c-0.1,0.2-0.3,0.4-0.5,0.5
	c-0.1,0-0.3-0.1-0.3-0.2C46.7,36.4,46.7,36.4,46.6,36.3z"/>
<path class="st21" d="M38,25.5c0,0.1-0.1,0.2-0.1,0.2c-0.1,0.1-0.2,0.2-0.4,0.3c0,0-0.2,0-0.2,0C37.1,26,37,25.8,37,25.6
	c0-0.2,0.1-0.3,0.2-0.4c0.2,0,0.4,0,0.6,0C37.9,25.3,38,25.4,38,25.5z"/>
<path class="st21" d="M30,44.8c-0.2,0-0.2-0.1-0.3-0.3c-0.1-0.1-0.1-0.3,0-0.4c0.2-0.2,0.3-0.3,0.5-0.2c0.1,0.1,0.2,0.4,0.2,0.5
	C30.3,44.7,30.2,44.8,30,44.8z"/>
</svg>
