<?xml version="1.0" encoding="utf-8"?>
<!-- Generator: Adobe Illustrator 24.1.3, SVG Export Plug-In . SVG Version: 6.00 Build 0)  -->
<svg version="1.1" id="Layer_1" xmlns="http://www.w3.org/2000/svg" xmlns:xlink="http://www.w3.org/1999/xlink" x="0px" y="0px"
	 width="64" height="64" viewBox="0 0 512 512" style="enable-background:new 0 0 512 512;" xml:space="preserve">
<style type="text/css">
	.st0{fill:#53568F;}
</style>
<path class="st0" d="M408.4,128.9c3.9-3.9,3.9-10.2,0-14.1c-3.9-3.9-10.2-3.9-14.1,0c-3.9,3.9-3.9,10.2,0,14.1
	C398.1,132.8,404.5,132.8,408.4,128.9z"/>
<path class="st0" d="M130.5,149.6c3.9-3.9,3.9-10.2,0-14.1c-3.9-3.9-10.2-3.9-14.1,0c-3.9,3.9-3.9,10.2,0,14.1
	C120.2,153.5,126.6,153.5,130.5,149.6z"/>
<path class="st0" d="M71.6,207.2l29.9-29.9c3.9-3.9,3.9-10.2,0-14.1c-3.9-3.9-10.2-3.9-14.1,0l-29.9,29.9c-3.9,3.9-3.9,10.2,0,14.1
	C61.4,211.1,67.7,211.1,71.6,207.2z"/>
<path class="st0" d="M441.4,178.2c3.9,3.9,10.2,3.9,14.1,0c3.9-3.9,3.9-10.2,0-14.1l-19.9-19.9c-3.9-3.9-10.2-3.9-14.1,0
	c-3.9,3.9-3.9,10.2,0,14.1L441.4,178.2z"/>
<path class="st0" d="M509.1,167.1L395.9,53.9c-3.8-3.8-10-3.9-13.9-0.2c-8.8,8.3-50.1,47.2-50.7,47.7c0,0-0.1,0.1-0.1,0.1
	c-9.8,9.8-19.4,14.1-31.2,14.1c-24.1,0-42.6,6.8-58,21.4c-12.6-11.9-26.9-18.1-46.8-20.2l-50-50c-3.9-3.9-10.2-3.9-14.1,0L2.9,195.1
	C-0.9,198.9-1,205,2.7,209c0.1,0.1,0.1,0.2,0.2,0.2c0,0,83.4,83.3,83.5,83.4l-3.5,3.5c-13.7,13.7-13.7,35.8,0,49.5
	c6.5,6.5,15.4,10.3,25.1,10.2c-0.1,9.6,3.6,18.5,10.2,25.1c6.7,6.7,15.8,10.3,25.1,10.2c-0.1,9.6,3.6,18.5,10.2,25.1
	c6.5,6.5,15.4,10.3,25.1,10.2c-0.1,9.6,3.6,18.5,10.2,25.1c13.6,13.6,35.8,13.6,49.5,0l3.5-3.5l3.5,3.5c13.6,13.6,35.8,13.6,49.5,0
	c6.6-6.6,10.3-15.5,10.2-25.1c9.6,0.1,18.4-3.6,25.1-10.2c6.9-6.9,10.3-16,10.2-25.1c9.7,0.1,18.6-3.7,25.1-10.2
	c6.7-6.6,10.4-15.6,10.2-25.1c9.3,0.1,18.3-3.4,25.1-10.2c13.7-13.7,13.7-35.8,0-49.5l-3.5-3.5c69.7-69.6-18.5,18.6,111.5-111.4
	C513,177.3,513,171,509.1,167.1z M24.1,202.1l114-114l38.4,38.4l-114,114L24.1,202.1z M97,331.5c-5.9-5.9-5.9-15.3,0-21.2l35.4-35.4
	c5.9-5.8,15.4-5.8,21.2,0c5.9,5.9,5.9,15.3,0,21.2l-35.3,35.3C112.4,337.3,102.9,337.3,97,331.5z M132.4,366.8
	c-5.9-5.9-5.9-15.4,0-21.2l35.4-35.4c5.9-5.9,15.3-5.9,21.2,0c5.8,5.8,5.9,15.3,0,21.2c0,0,0,0,0,0l-35.4,35.4
	C147.8,372.7,138.2,372.7,132.4,366.8z M167.8,402.2c-5.9-5.9-5.9-15.3,0-21.2l35.4-35.4c5.8-5.8,15.4-5.8,21.2,0
	c5.8,5.8,5.9,15.3,0,21.2c0,0,0,0,0,0L189,402.2C183.1,408,173.6,408,167.8,402.2z M203.1,437.5c-5.9-5.9-5.9-15.4,0-21.2l35.4-35.4
	c5.9-5.9,15.3-5.9,21.2,0c5.9,5.9,5.8,15.4,0,21.2l-35.4,35.4C218.5,443.4,209,443.4,203.1,437.5z M280.9,437.5
	c-5.8,5.8-15.4,5.8-21.2,0l-3.5-3.5l17.7-17.7c1.2-1.2,2.3-2.5,3.3-3.8l3.8,3.8c0,0,0,0,0,0l0,0
	C286.8,422.2,286.8,431.7,280.9,437.5z M387,331.5c-5.9,5.8-15.4,5.8-21.2,0l-46-46c-3.9-3.9-10.2-3.9-14.1,0
	c-3.9,3.9-3.9,10.2,0,14.1l46,46c5.9,5.9,5.9,15.3,0,21.2s-15.4,5.8-21.2,0l-46-46c-3.9-3.9-10.2-3.9-14.1,0
	c-3.9,3.9-3.9,10.2,0,14.1l46,46c5.8,5.8,5.8,15.4,0,21.2c-2.8,2.8-6.6,4.4-10.6,4.4c-9.5,0-12.6-7.5-21.6-15.4
	c-0.1-9.2-3.7-17.9-10.2-24.4c-6.6-6.6-15.5-10.3-25.1-10.3c0.1-9.6-3.6-18.5-10.2-25.1c-6.9-6.9-16-10.3-25.1-10.2
	c0.2-19.7-15.8-35.6-35.4-35.4c0.1-9.7-3.7-18.6-10.2-25.1c-13.6-13.6-35.8-13.6-49.5,0l-17.7,17.7l-23.8-23.8L194.4,137
	c14.6,1.7,24.4,5.9,33.4,14.2l-28.3,28.2c-15.6,15.6-15.6,41,0,56.6c15.6,15.6,41,15.6,56.6,0l28.3-28.3
	c18.3,18.3,89.2,89.2,102.5,102.5C392.8,316.1,392.8,325.6,387,331.5z M383.4,278.4l-84.9-84.9l7.1-7.1c3.9-3.9,3.9-10.2,0-14.1
	c-3.9-3.9-10.2-3.9-14.1,0L242,221.9c-7.8,7.8-20.5,7.8-28.3,0c-7.8-7.8-7.8-20.5,0-28.3c10.3-10.3,30.5-30.5,40.7-40.7
	c11.9-11.9,25.9-17.2,45.6-17.2c14.1,0,26.4-4.2,37.8-13.2l99.6,102.2C372.3,289.5,385.1,276.7,383.4,278.4z M451.5,210.5l-99-101.5
	l36.1-34l99.2,99.2L451.5,210.5z"/>
</svg>
