<?xml version="1.0" encoding="utf-8"?>
<!-- Generator: Adobe Illustrator 24.1.2, SVG Export Plug-In . SVG Version: 6.00 Build 0)  -->
<svg version="1.1" id="Layer_1" xmlns="http://www.w3.org/2000/svg" xmlns:xlink="http://www.w3.org/1999/xlink" x="0px" y="0px"
	 width="64" height="64" viewBox="0 0 64 64" style="enable-background:new 0 0 64 64;" xml:space="preserve">
<style type="text/css">
	.st0{fill:#FFA000;}
	.st1{fill:#FFE082;}
	.st2{fill:#FFB300;}
	.st3{fill:#EF5350;}
	.st4{fill:#D32F2F;}
</style>
<path class="st0" d="M7.9,32c-0.9,0-1.6,0.8-1.6,1.7c0.5,8.4,5,15.6,11.6,20c0.8,0.5,1.8,0.3,2.2-0.5L32.4,32H7.9z"/>
<path class="st0" d="M44.6,53.2L32.4,32L20.1,53.2C19.7,54,20,55,20.8,55.4c3.5,1.7,7.4,2.7,11.6,2.7c4.2,0,8.1-1,11.6-2.7
	C44.7,55,45,54,44.6,53.2z"/>
<path class="st0" d="M20.1,10.9c-0.5-0.8-1.5-1-2.2-0.5c-6.6,4.4-11,11.7-11.6,20C6.3,31.3,7,32,7.9,32h24.4L20.1,10.9z"/>
<path class="st0" d="M43.9,8.7C40.4,6.9,36.5,6,32.4,6c-4.2,0-8.1,1-11.6,2.7c-0.8,0.4-1.1,1.4-0.7,2.2L32.4,32l12.2-21.2
	C45,10.1,44.7,9.1,43.9,8.7z"/>
<path class="st0" d="M58.4,30.4c-0.5-8.4-5-15.6-11.6-20c-0.8-0.5-1.8-0.3-2.2,0.5L32.4,32h10.6l0,5.2c0,1.1,0.9,1.9,1.9,1.9h0
	c1.1,0,2-0.9,2-2v-0.7c0-0.7,0.6-1.2,1.2-1.2c0.7,0,1.2,0.6,1.2,1.2v5.6c0,0.8,0.7,1.5,1.5,1.5s1.5-0.7,1.5-1.5V32h4.3
	C57.7,32,58.4,31.3,58.4,30.4z"/>
<path class="st1" d="M10.6,32c0,1.3-0.3,2.6-0.1,3.8c0.2,1.3,1,2.4,1.4,3.6c0.4,1.2,0.6,2.5,1.2,3.6c0.6,1.1,1.7,1.9,2.5,2.9
	c0.8,1,1.4,2.2,2.4,3c1,0.8,2.3,1.2,3.4,1.9L32.4,32H10.6z"/>
<path class="st2" d="M26.9,32l-9.4,16.4c1.2,1.4,2.5,1.6,4,2.5L32.4,32H26.9z"/>
<path class="st1" d="M21.5,50.8c1.1,0.6,2.1,1.6,3.3,2c1.2,0.4,2.5,0.4,3.8,0.6c1.2,0.2,2.5,0.7,3.8,0.7c1.3,0,2.5-0.5,3.8-0.7
	c1.3-0.2,2.6-0.2,3.8-0.6c1.2-0.4,2.2-1.4,3.3-2c0,0,0,0,0,0L32.4,32L21.5,50.8z"/>
<path class="st2" d="M32.4,32l-1.5,2.6L39,48.7c0,0,0,0,0,0c-1.1,0.6-2.1,1.6-3.3,2c-1.2,0.4-2.5,0.4-3.8,0.6
	c-1.2,0.2-2.5,0.7-3.8,0.7c-1.3,0-2.5-0.5-3.8-0.7c-0.9-0.1-1.7-0.2-2.6-0.3c1,0.6,1.9,1.4,3,1.8c1.2,0.4,2.5,0.4,3.8,0.6
	c1.2,0.2,2.5,0.7,3.8,0.7c1.3,0,2.5-0.5,3.8-0.7c1.3-0.2,2.6-0.2,3.8-0.6c1.2-0.4,2.2-1.4,3.3-2c0,0,0,0,0,0L32.4,32z"/>
<path class="st1" d="M21.5,13.2c-1.1,0.6-2.4,1-3.4,1.9c-1,0.8-1.6,2-2.4,3c-0.8,1-1.9,1.8-2.5,2.9c-0.6,1.1-0.8,2.4-1.2,3.6
	c-0.4,1.2-1.2,2.3-1.4,3.6c-0.2,1.2,0.1,2.5,0.1,3.8h21.7L21.5,13.2z"/>
<path class="st2" d="M21.5,13.2c-0.7,0.4-1.6,0.7-2.3,1.2l7.2,12.4c0.8,1.4-0.2,3.1-1.8,3.1h-14c0,0.7,0.1,1.4,0.1,2.1h21.7
	L21.5,13.2z"/>
<path class="st1" d="M39.9,11.2c-1.2-0.4-2.5-0.4-3.8-0.6c-1.2-0.2-2.5-0.7-3.8-0.7c-1.3,0-2.5,0.5-3.8,0.7
	c-1.3,0.2-2.6,0.2-3.8,0.6c-1.1,0.4-1.9,1.1-3.3,2L32.4,32l10.9-18.8C42.1,12.6,41.1,11.6,39.9,11.2z"/>
<path class="st2" d="M39.9,11.2c-0.4-0.1-0.8-0.2-1.2-0.3c0.1,0.1,0.2,0.1,0.3,0.2l-9.4,16.2l2.7,4.7l10.9-18.8
	C42.1,12.6,41.1,11.6,39.9,11.2z"/>
<path class="st1" d="M52.5,32h1.6c0-1.3,0.3-2.6,0.1-3.8c-0.2-1.3-1-2.4-1.4-3.6c-0.4-1.2-0.6-2.5-1.2-3.6c-0.6-1.1-1.7-1.9-2.5-2.9
	c-0.8-1-1.4-2.2-2.4-3c-1-0.8-2.3-1.2-3.4-1.9L32.4,32h10.6l0,5.2c0,1.1,0.9,1.9,1.9,1.9h0c1.1,0,2-0.9,2-2v-0.7
	c0-0.7,0.6-1.2,1.2-1.2c0.7,0,1.2,0.6,1.2,1.2v5.6c0,0.8,0.7,1.5,1.5,1.5s1.5-0.7,1.5-1.5V32z"/>
<path class="st2" d="M54.2,28.2c-0.2-1.3-1-2.4-1.4-3.6c-0.4-1.2-0.6-2.5-1.2-3.6c-0.6-1.1-1.7-1.9-2.5-2.9c-0.8-1-1.4-2.2-2.4-3
	c-1-0.8-2.3-1.2-3.4-1.9L43,13.6c0.7,0.7,1.2,1.6,1.8,2.4c0.8,1,1.9,1.8,2.5,2.9c0.6,1.1,0.8,2.4,1.2,3.6c0.4,1.2,1.2,2.3,1.4,3.6
	c0,0,0,0,0,0c0.3,2-1.2,3.8-3.3,3.8H33.6L32.4,32h16v3.2c0.6,0.1,1.1,0.6,1.1,1.2v5.6c0,0.8,0.7,1.5,1.5,1.5s1.5-0.7,1.5-1.5V32h1.6
	C54.1,30.7,54.4,29.4,54.2,28.2z"/>
<path class="st3" d="M33.1,47.1c0,1.7-1.4,3.1-3.1,3.1c-1.7,0-3.1-1.4-3.1-3.1S28.3,44,30,44C31.7,44,33.1,45.4,33.1,47.1z"/>
<path class="st3" d="M23.4,42.2c0,1.7-1.4,3.1-3.1,3.1c-1.7,0-3.1-1.4-3.1-3.1s1.4-3.1,3.1-3.1C22,39.1,23.4,40.5,23.4,42.2z"/>
<path class="st3" d="M26,26.1c0,1.7-1.4,3.1-3.1,3.1c-1.7,0-3.1-1.4-3.1-3.1c0-1.7,1.4-3.1,3.1-3.1C24.6,23,26,24.4,26,26.1z"/>
<path class="st3" d="M32.5,15.6c0,1.7-1.4,3.1-3.1,3.1c-1.7,0-3.1-1.4-3.1-3.1s1.4-3.1,3.1-3.1C31.1,12.5,32.5,13.9,32.5,15.6z"/>
<g>
	<path class="st0" d="M46.2,19.4c0,0.9-0.7,1.6-1.6,1.6c-0.9,0-1.6-0.7-1.6-1.6c0-0.9,0.7-1.6,1.6-1.6
		C45.5,17.9,46.2,18.6,46.2,19.4z"/>
	<path class="st0" d="M41.2,27.5c0,0.9-0.7,1.6-1.6,1.6c-0.9,0-1.6-0.7-1.6-1.6c0-0.9,0.7-1.6,1.6-1.6C40.5,26,41.2,26.7,41.2,27.5z
		"/>
	<path class="st0" d="M39.4,14.8c0,0.9-0.7,1.6-1.6,1.6c-0.9,0-1.6-0.7-1.6-1.6s0.7-1.6,1.6-1.6C38.7,13.2,39.4,13.9,39.4,14.8z"/>
	<path class="st0" d="M33.9,23.4c0,0.9-0.7,1.6-1.6,1.6c-0.9,0-1.6-0.7-1.6-1.6c0-0.9,0.7-1.6,1.6-1.6
		C33.2,21.8,33.9,22.5,33.9,23.4z"/>
	<path class="st0" d="M16.4,28.2c0,0.9-0.7,1.6-1.6,1.6c-0.9,0-1.6-0.7-1.6-1.6s0.7-1.6,1.6-1.6C15.7,26.6,16.4,27.3,16.4,28.2z"/>
	<path class="st0" d="M25.4,35.5c0,0.9-0.7,1.6-1.6,1.6c-0.9,0-1.6-0.7-1.6-1.6c0-0.9,0.7-1.6,1.6-1.6C24.7,34,25.4,34.7,25.4,35.5z
		"/>
	<path class="st0" d="M21.8,18.3c-0.2-0.8-1.1-1.3-1.9-1.1c-0.8,0.2-1.3,1.1-1.1,1.9c0.2,0.8,1.1,1.3,1.9,1.1
		C21.6,19.9,22,19.1,21.8,18.3z"/>
	<path class="st0" d="M17,36.7c0,0.9-0.7,1.6-1.6,1.6c-0.9,0-1.6-0.7-1.6-1.6s0.7-1.6,1.6-1.6C16.3,35.1,17,35.8,17,36.7z"/>
	<path class="st0" d="M39,48.7c0,0.9-0.7,1.6-1.6,1.6c-0.9,0-1.6-0.7-1.6-1.6c0-0.9,0.7-1.6,1.6-1.6C38.3,47.1,39,47.8,39,48.7z"/>
	<path class="st0" d="M33.9,39.8c0,0.9-0.7,1.6-1.6,1.6c-0.9,0-1.6-0.7-1.6-1.6c0-0.9,0.7-1.6,1.6-1.6C33.2,38.3,33.9,39,33.9,39.8z
		"/>
</g>
<path class="st3" d="M50.4,26.3c0,1.7-1.4,3.1-3.1,3.1c-1.7,0-3.1-1.4-3.1-3.1c0-1.7,1.4-3.1,3.1-3.1C49,23.2,50.4,24.6,50.4,26.3z"
	/>
<path class="st4" d="M30.7,44.1c1.2,2.3-0.8,5.1-3.4,4.5c0.5,1,1.6,1.6,2.7,1.6c1.7,0,3.1-1.4,3.1-3.1
	C33.1,45.6,32.1,44.4,30.7,44.1z"/>
<path class="st4" d="M20.9,39.1c1.2,2.3-0.8,5.1-3.4,4.5c0.5,1,1.6,1.6,2.7,1.6c1.7,0,3.1-1.4,3.1-3.1
	C23.4,40.7,22.4,39.4,20.9,39.1z"/>
<path class="st4" d="M23.5,23.1c1.2,2.3-0.8,5.1-3.4,4.5c0.5,1,1.6,1.6,2.7,1.6c1.7,0,3.1-1.4,3.1-3.1C26,24.6,24.9,23.4,23.5,23.1z
	"/>
<path class="st4" d="M30.1,12.5c1.2,2.3-0.8,5.1-3.4,4.5c0.5,1,1.6,1.6,2.7,1.6c1.7,0,3.1-1.4,3.1-3.1
	C32.5,14.1,31.5,12.8,30.1,12.5z"/>
<path class="st4" d="M48,23.3c1.2,2.3-0.8,5.1-3.4,4.5c0.5,1,1.6,1.6,2.7,1.6c1.7,0,3.1-1.4,3.1-3.1C50.4,24.8,49.4,23.6,48,23.3z"
	/>
<path d="M33.9,47.1c0-2.2-1.8-3.9-3.9-3.9c-2.2,0-3.9,1.8-3.9,3.9S27.9,51,30,51S33.9,49.3,33.9,47.1z M27.7,47.1
	c0-1.3,1-2.3,2.3-2.3s2.3,1,2.3,2.3c0,1.3-1,2.3-2.3,2.3S27.7,48.4,27.7,47.1z"/>
<path d="M20.3,38.3c-2.2,0-3.9,1.8-3.9,3.9s1.8,3.9,3.9,3.9c2.2,0,3.9-1.8,3.9-3.9S22.4,38.3,20.3,38.3z M20.3,44.5
	c-1.3,0-2.3-1-2.3-2.3c0-1.3,1-2.3,2.3-2.3c1.3,0,2.3,1,2.3,2.3C22.6,43.5,21.6,44.5,20.3,44.5z"/>
<path d="M22.9,22.2c-2.2,0-3.9,1.8-3.9,3.9s1.8,3.9,3.9,3.9c2.2,0,3.9-1.8,3.9-3.9S25,22.2,22.9,22.2z M22.9,28.5
	c-1.3,0-2.3-1-2.3-2.3s1-2.3,2.3-2.3c1.3,0,2.3,1,2.3,2.3S24.1,28.5,22.9,28.5z"/>
<path d="M33.3,15.6c0-2.2-1.8-3.9-3.9-3.9s-3.9,1.8-3.9,3.9s1.8,3.9,3.9,3.9S33.3,17.7,33.3,15.6z M27.1,15.6c0-1.3,1-2.3,2.3-2.3
	s2.3,1,2.3,2.3s-1,2.3-2.3,2.3S27.1,16.9,27.1,15.6z"/>
<path d="M47,19.4c0-1.3-1.1-2.3-2.3-2.3c-1.3,0-2.3,1.1-2.3,2.3c0,1.3,1.1,2.3,2.3,2.3C45.9,21.8,47,20.7,47,19.4z M43.9,19.4
	c0-0.4,0.3-0.8,0.8-0.8s0.8,0.3,0.8,0.8c0,0.4-0.3,0.8-0.8,0.8S43.9,19.9,43.9,19.4z"/>
<path d="M39.6,25.2c-1.3,0-2.3,1.1-2.3,2.3c0,1.3,1.1,2.3,2.3,2.3s2.3-1.1,2.3-2.3C42,26.2,40.9,25.2,39.6,25.2z M39.6,28.3
	c-0.4,0-0.8-0.3-0.8-0.8c0-0.4,0.3-0.8,0.8-0.8c0.4,0,0.8,0.3,0.8,0.8C40.4,28,40.1,28.3,39.6,28.3z"/>
<path d="M37.8,17.1c1.3,0,2.3-1.1,2.3-2.3s-1.1-2.3-2.3-2.3c-1.3,0-2.3,1.1-2.3,2.3S36.5,17.1,37.8,17.1z M37.8,14
	c0.4,0,0.8,0.3,0.8,0.8c0,0.4-0.3,0.8-0.8,0.8c-0.4,0-0.8-0.3-0.8-0.8C37,14.3,37.4,14,37.8,14z"/>
<path d="M30,23.4c0,1.3,1.1,2.3,2.3,2.3c1.3,0,2.3-1.1,2.3-2.3S33.6,21,32.4,21C31.1,21,30,22.1,30,23.4z M33.1,23.4
	c0,0.4-0.3,0.8-0.8,0.8c-0.4,0-0.8-0.3-0.8-0.8c0-0.4,0.3-0.8,0.8-0.8C32.8,22.6,33.1,23,33.1,23.4z"/>
<path d="M14.9,25.8c-1.3,0-2.3,1.1-2.3,2.3s1.1,2.3,2.3,2.3s2.3-1.1,2.3-2.3S16.2,25.8,14.9,25.8z M14.9,28.9
	c-0.4,0-0.8-0.3-0.8-0.8c0-0.4,0.3-0.8,0.8-0.8c0.4,0,0.8,0.3,0.8,0.8C15.7,28.6,15.3,28.9,14.9,28.9z"/>
<path d="M23.8,37.9c1.3,0,2.3-1.1,2.3-2.3s-1.1-2.3-2.3-2.3c-1.3,0-2.3,1.1-2.3,2.3S22.5,37.9,23.8,37.9z M23.8,34.8
	c0.4,0,0.8,0.3,0.8,0.8c0,0.4-0.3,0.8-0.8,0.8c-0.4,0-0.8-0.3-0.8-0.8C23.1,35.1,23.4,34.8,23.8,34.8z"/>
<path d="M20.3,21c0.2,0,0.4,0,0.7-0.1c1.2-0.4,2-1.7,1.6-2.9c-0.2-0.6-0.6-1.1-1.1-1.4c-0.5-0.3-1.2-0.4-1.8-0.2
	c-1.2,0.4-2,1.7-1.6,2.9c0.2,0.6,0.6,1.1,1.1,1.4C19.5,20.9,19.9,21,20.3,21z M20.1,17.9c0.1,0,0.1,0,0.2,0c0.1,0,0.3,0,0.4,0.1
	c0.2,0.1,0.3,0.3,0.4,0.5c0.1,0.4-0.1,0.8-0.5,1c-0.2,0.1-0.4,0-0.6-0.1c-0.2-0.1-0.3-0.3-0.4-0.5C19.4,18.5,19.7,18.1,20.1,17.9z"
	/>
<path d="M17.8,36.7c0-1.3-1.1-2.3-2.3-2.3s-2.3,1.1-2.3,2.3c0,1.3,1.1,2.3,2.3,2.3C16.7,39,17.8,38,17.8,36.7z M15.4,37.5
	c-0.4,0-0.8-0.3-0.8-0.8c0-0.4,0.3-0.8,0.8-0.8c0.4,0,0.8,0.3,0.8,0.8C16.2,37.1,15.9,37.5,15.4,37.5z"/>
<path d="M37.4,51c1.3,0,2.3-1.1,2.3-2.3c0-1.3-1.1-2.3-2.3-2.3c-1.3,0-2.3,1.1-2.3,2.3C35.1,50,36.1,51,37.4,51z M37.4,47.9
	c0.4,0,0.8,0.3,0.8,0.8c0,0.4-0.3,0.8-0.8,0.8c-0.4,0-0.8-0.3-0.8-0.8C36.6,48.3,37,47.9,37.4,47.9z"/>
<path d="M32.4,42.2c1.3,0,2.3-1.1,2.3-2.3s-1.1-2.3-2.3-2.3c-1.3,0-2.3,1.1-2.3,2.3S31.1,42.2,32.4,42.2z M32.4,39
	c0.4,0,0.8,0.3,0.8,0.8c0,0.4-0.3,0.8-0.8,0.8c-0.4,0-0.8-0.3-0.8-0.8C31.6,39.4,31.9,39,32.4,39z"/>
<path d="M47.3,22.4c-2.2,0-3.9,1.8-3.9,3.9s1.8,3.9,3.9,3.9c2.2,0,3.9-1.8,3.9-3.9S49.5,22.4,47.3,22.4z M47.3,28.7
	c-1.3,0-2.3-1-2.3-2.3s1-2.3,2.3-2.3c1.3,0,2.3,1,2.3,2.3S48.6,28.7,47.3,28.7z"/>
<path d="M59.1,30.3c-0.5-8.4-5-16-11.9-20.6c-0.5-0.3-1.2-0.5-1.8-0.3c-0.2-0.6-0.6-1.1-1.2-1.4c-3.7-1.8-7.7-2.8-11.9-2.8
	c-4.2,0-8.2,0.9-11.9,2.8c-0.6,0.3-1,0.8-1.2,1.4c-0.6-0.1-1.3,0-1.8,0.3C10.5,14.3,6.1,21.9,5.6,30.3c0,0.6,0.2,1.2,0.6,1.7
	c-0.4,0.5-0.6,1.1-0.6,1.7c0.5,8.4,5,16,11.9,20.6c0.5,0.3,1.1,0.5,1.8,0.3c0.2,0.6,0.6,1.1,1.2,1.4c3.7,1.8,7.7,2.8,11.9,2.8
	c4.2,0,8.2-0.9,11.9-2.8c1.2-0.6,1.7-2.1,1-3.3l-11.5-20h8.4v4.5c0,1.4,1.1,2.7,2.8,2.7c1.5,0,2.8-1.3,2.8-2.8v-0.7
	c0-0.3,0.2-0.5,0.5-0.5s0.5,0.2,0.5,0.5v5.6c0,1.3,1,2.3,2.3,2.3c1.3,0,2.3-1,2.3-2.3v-9.3h3.5C58.1,32.8,59.2,31.7,59.1,30.3z
	 M18.6,48.4c-0.9-0.7-1.5-1.9-2.3-2.9c-0.8-1-1.9-1.8-2.5-2.8c-0.6-1-0.7-2.3-1.2-3.5c-0.4-1.2-1.2-2.3-1.4-3.5
	c-0.2-0.9,0-1.9,0.1-2.9H31l-9.8,17C20.2,49.3,19.3,49,18.6,48.4z M11.3,28.3c0.2-1.1,0.9-2.2,1.4-3.5c0.5-1.2,0.6-2.5,1.2-3.5
	c0.6-1,1.6-1.8,2.5-2.8c0.8-1,1.4-2.2,2.3-2.9c0.7-0.6,1.6-0.9,2.6-1.4l4.1,7.2c0.2,0.4,0.7,0.5,1.1,0.3c0.4-0.2,0.5-0.7,0.3-1.1
	l-4.1-7.2c0.9-0.6,1.6-1.2,2.5-1.5c1.1-0.4,2.4-0.3,3.7-0.5c1.3-0.2,2.5-0.7,3.6-0.7c1.2,0,2.4,0.5,3.6,0.7c1.3,0.2,2.6,0.2,3.7,0.5
	c0.9,0.3,1.6,0.9,2.5,1.5l-9.8,17l-3.8-6.6c-0.2-0.4-0.7-0.5-1.1-0.3c-0.4,0.2-0.5,0.7-0.3,1.1l3.8,6.6H11.4
	C11.3,30.2,11.2,29.2,11.3,28.3z M21.1,9.4c3.5-1.7,7.3-2.6,11.2-2.6c3.9,0,7.7,0.9,11.2,2.6c0.4,0.2,0.5,0.7,0.3,1.1L43,12.1
	c-0.9-0.6-1.7-1.3-2.8-1.6c-1.3-0.5-2.7-0.4-3.9-0.6c-1.2-0.2-2.5-0.8-3.9-0.8c-1.4,0-2.7,0.5-3.9,0.8c-1.2,0.2-2.6,0.1-3.9,0.6
	c-1,0.4-1.9,1-2.8,1.6c0,0-0.9-1.6-0.9-1.6c0,0,0,0,0,0C20.6,10.1,20.7,9.6,21.1,9.4z M7.1,30.4c0.5-7.8,4.7-15.1,11.2-19.4
	c0.4-0.2,0.9-0.1,1.1,0.3l0.9,1.6c-0.9,0.5-1.9,0.9-2.8,1.6c-1.1,0.9-1.7,2.1-2.5,3.1c-0.8,0.9-1.9,1.8-2.6,3
	c-0.7,1.2-0.9,2.6-1.3,3.8c-0.4,1.2-1.2,2.3-1.4,3.7c-0.2,1.1,0,2.1,0,3.2H7.9C7.5,31.2,7.1,30.9,7.1,30.4z M18.3,53.1
	C11.8,48.7,7.6,41.4,7.1,33.6c0-0.4,0.3-0.8,0.8-0.8h1.9c-0.1,1.1-0.2,2.1,0,3.2c0.2,1.4,1,2.6,1.4,3.7c0.4,1.2,0.6,2.6,1.3,3.8
	c0.7,1.2,1.8,2.1,2.6,3c0.8,0.9,1.4,2.2,2.5,3.1c0.8,0.7,1.8,1.1,2.8,1.6l-0.9,1.6C19.2,53.2,18.7,53.3,18.3,53.1z M43.6,54.7
	c-3.5,1.7-7.3,2.6-11.2,2.6s-7.7-0.9-11.2-2.6c-0.4-0.2-0.5-0.7-0.3-1.1l0.9-1.6c0.9,0.6,1.7,1.3,2.8,1.6c0.4,0.1,0.9-0.1,1-0.5
	c0.1-0.4-0.1-0.9-0.5-1c-0.9-0.3-1.6-0.9-2.5-1.5l9.8-17l9.8,17c-0.9,0.6-1.6,1.2-2.5,1.5c-1.1,0.4-2.4,0.3-3.7,0.5
	c-1.3,0.2-2.5,0.7-3.6,0.7c-1.2,0-2.5-0.6-3.9-0.8c-0.4-0.1-0.8,0.2-0.9,0.7c-0.1,0.4,0.2,0.8,0.7,0.9c1.4,0.2,2.6,0.8,4.2,0.8
	c1.4,0,2.7-0.5,3.9-0.8c1.2-0.2,2.6-0.1,3.9-0.6c1-0.4,1.9-1,2.8-1.6l0.9,1.6C44.1,54,44,54.5,43.6,54.7z M52.5,31.2
	c-0.4,0-0.8,0.4-0.8,0.8v10.1c0,0.4-0.3,0.7-0.7,0.7s-0.7-0.3-0.7-0.7v-5.6c0-1.1-0.9-2-2-2c-1.1,0-2,0.9-2,2v0.7
	c0,0.6-0.5,1.2-1.3,1.2c-0.6,0-1.2-0.5-1.2-1.2l0-4.5h5.9c0.4,0,0.8-0.4,0.8-0.8c0-0.4-0.4-0.8-0.8-0.8h-16l9.8-17
	c0.9,0.5,1.9,0.8,2.6,1.4c0.9,0.7,1.5,1.9,2.3,2.9c0.8,1,1.9,1.8,2.5,2.8c0.6,1,0.7,2.3,1.2,3.5c0.4,1.2,1.2,2.3,1.4,3.5
	c0.2,0.9,0,1.9-0.1,2.9H52.5z M56.8,31.2h-1.9c0.1-1.1,0.2-2.1,0-3.2c-0.2-1.4-1-2.6-1.4-3.7c-0.4-1.2-0.6-2.6-1.3-3.8
	c-0.7-1.2-1.8-2.1-2.6-3c-0.8-0.9-1.4-2.2-2.5-3.1c-0.8-0.7-1.8-1.1-2.8-1.6l0.9-1.6c0.2-0.4,0.7-0.5,1.1-0.3
	c6.5,4.4,10.7,11.6,11.2,19.4C57.6,30.9,57.2,31.2,56.8,31.2z"/>
</svg>
