<?xml version="1.0" encoding="utf-8"?>
<!-- Generator: Adobe Illustrator 24.1.2, SVG Export Plug-In . SVG Version: 6.00 Build 0)  -->
<svg version="1.1" id="Capa_1" xmlns="http://www.w3.org/2000/svg" xmlns:xlink="http://www.w3.org/1999/xlink" x="0px" y="0px"
	 width="64" height="64" viewBox="0 0 512 512" style="enable-background:new 0 0 512 512;" xml:space="preserve">
<style type="text/css">
	.st0{fill:#B3E59F;}
	.st1{fill:#95D6A4;}
	.st2{fill:#E17F85;}
	.st3{fill:#DE646E;}
	.st4{fill:#CBE2FF;}
	.st5{fill:#BED8FB;}
	.st6{fill:#ECF4FF;}
	.st7{fill:#DDEAFB;}
</style>
<g>
	<g>
		<g>
			<g>
				<path class="st0" d="M302.5,198c-5.9,11.5,4.1,28.9,1,40.3c-3.5,12.7-20.6,23.1-20.7,34.7c-0.1,13.6,17.1,23.1,21.4,33.6
					c5.1,12.3,2.3,31.9,13.2,37.5c10.9,5.6,25.2-8.1,38.1-11.2c11.1-2.6,28.9,5.7,39.8-2.3c9.4-6.9,7.8-26.8,16.1-37.1
					c7.5-9.2,27.4-11.2,33.3-22.8c5.9-11.5-4.1-28.9-1-40.3c3.5-12.7,20.6-23.1,20.7-34.7c0.1-13.6-17.1-23.1-21.4-33.6
					c-5.1-12.3-2.3-31.9-13.2-37.5c-10.9-5.6-25.2,8.1-38.1,11.2c-11.1,2.6-28.9-5.7-39.8,2.3c-9.4,6.9-7.8,26.8-16.1,37.1
					C328.3,184.4,308.4,186.4,302.5,198L302.5,198z"/>
			</g>
			<g>
				<path class="st1" d="M443.8,230.5c3.5-12.7,20.6-23.1,20.7-34.7c0.1-13.6-17.1-23.1-21.4-33.6c-5.1-12.3-2.3-31.9-13.2-37.5
					c-6-3.1-13.1-0.3-20.4,3.4c6.2,7.9,4.9,23.6,9.2,34.1c4.3,10.5,21.5,20.1,21.4,33.6c-0.1,11.6-17.2,22-20.7,34.7
					c-3.1,11.5,6.9,28.8,1,40.3c-5.9,11.5-25.8,13.5-33.3,22.8c-8.3,10.2-6.7,30.2-16.1,37.1c-1.3,0.9-2.6,1.6-4,2.1
					c9.7,1,20.8,3.5,28.4-2.1c9.4-6.9,7.8-26.8,16.1-37.1c7.5-9.2,27.4-11.2,33.3-22.8C450.6,259.3,440.6,242,443.8,230.5z"/>
				<path class="st1" d="M331.1,333c-5.8,1.4-11.8,4.9-17.7,7.8c1.1,1.4,2.4,2.5,4,3.4c10,5.1,22.8-5.9,34.8-10.2
					C344.6,333.3,336.9,331.6,331.1,333L331.1,333z"/>
			</g>
		</g>
		<g>
			<g>
				<path class="st0" d="M369.1,161.1c6.4,12.5-4.4,31.2-1.1,43.6c3.7,13.8,22.3,25,22.4,37.5c0.1,14.7-18.5,25-23.1,36.4
					c-5.5,13.3-2.5,34.5-14.3,40.5c-11.8,6-27.2-8.7-41.2-12.1c-11.9-2.9-31.2,6.2-43-2.5c-10.2-7.4-8.4-29-17.4-40.1
					c-8.1-10-29.6-12.1-36-24.6c-6.4-12.5,4.4-31.2,1.1-43.6c-3.7-13.8-22.3-25-22.4-37.5c-0.1-14.7,18.5-25,23.1-36.4
					c5.5-13.3,2.5-34.5,14.3-40.5c11.8-6,27.2,8.7,41.2,12.1c11.9,2.9,31.2-6.2,43,2.5c10.2,7.4,8.4,29,17.4,40.1
					C341.2,146.5,362.7,148.7,369.1,161.1L369.1,161.1z"/>
			</g>
			<g>
				<path class="st1" d="M260.4,118.4c11.9,2.9,31.2-6.2,43,2.5c10.2,7.4,8.4,29,17.4,40.1c8.1,10,29.6,12.1,36,24.6
					c6.4,12.5-4.4,31.2-1.1,43.6c3.5,13,20.2,23.7,22.2,35.4c6.2-6.7,12.5-13.8,12.4-22.3c-0.1-12.6-18.6-23.8-22.4-37.5
					c-3.4-12.4,7.4-31.1,1.1-43.6c-6.4-12.5-27.9-14.6-36-24.6c-9-11.1-7.3-32.6-17.4-40.1c-11.8-8.7-31.1,0.4-43-2.5
					c-14-3.3-29.4-18.1-41.2-12.1c-7.4,3.8-9,13.6-10.5,23.7C232.5,101.7,247.1,115.2,260.4,118.4L260.4,118.4z"/>
			</g>
			<g>
				<path class="st0" d="M234.7,124.5c6.4,12.5-4.4,31.2-1.1,43.6c3.7,13.8,22.3,25,22.4,37.5c0.1,14.7-18.5,25-23.1,36.4
					c-5.5,13.3-2.5,34.5-14.3,40.5s-27.2-8.7-41.2-12.1c-11.9-2.9-31.2,6.2-43-2.5c-10.2-7.4-8.4-29-17.4-40.1
					c-8.1-10-29.6-12.1-36-24.6c-6.4-12.5,4.4-31.2,1.1-43.6c-3.7-13.8-22.3-25-22.4-37.5c-0.1-14.7,18.5-25,23.1-36.4
					c5.5-13.3,2.5-34.5,14.3-40.5c11.8-6,27.2,8.7,41.2,12.1c11.9,2.9,31.2-6.2,43,2.5c10.2,7.4,8.4,29,17.4,40.1
					C206.8,109.9,228.3,112,234.7,124.5L234.7,124.5z"/>
			</g>
			<path class="st1" d="M233.7,168.1c-3.4-12.4,7.4-31.1,1.1-43.6c-6.4-12.5-27.9-14.6-36-24.6c-9-11.1-7.3-32.6-17.4-40.1
				c-11.8-8.7-31.1,0.4-43-2.5c-14-3.3-29.4-18.1-41.2-12.1c-4.7,2.4-7.1,7.2-8.5,13c8.2,3.3,17,9.3,25.3,11.3
				c11.9,2.9,31.2-6.2,43,2.5c10.2,7.4,8.4,29,17.4,40.1c8.1,10,29.6,12.1,36,24.6c6.4,12.5-4.4,31.2-1.1,43.6
				c3.7,13.8,22.3,25,22.4,37.5c0.1,14.7-18.5,25-23.1,36.4c-3.3,8-3.5,18.8-5.7,27.5c5.7,2.3,11.1,3.3,15.9,0.8
				c11.8-6,8.8-27.2,14.3-40.5c4.7-11.4,23.2-21.7,23.1-36.4C255.9,193,237.4,181.9,233.7,168.1L233.7,168.1z"/>
		</g>
		<g>
			<circle class="st2" cx="256" cy="224.2" r="46"/>
			<circle class="st2" cx="298.7" cy="224.2" r="46"/>
			<g>
				<path class="st3" d="M298.7,178.2c-4.2,0-8.3,0.6-12.2,1.7c19.5,5.4,33.8,23.2,33.8,44.4s-14.3,39-33.8,44.4
					c3.9,1.1,8,1.7,12.2,1.7c25.4,0,46-20.6,46-46S324.1,178.2,298.7,178.2z"/>
				<path class="st3" d="M256,178.2c-4.2,0-8.3,0.6-12.2,1.7c19.5,5.4,33.8,23.2,33.8,44.4s-14.3,39-33.8,44.4
					c3.9,1.1,8,1.7,12.2,1.7c25.4,0,46-20.6,46-46S281.4,178.2,256,178.2L256,178.2z"/>
			</g>
		</g>
		<g>
			<path class="st4" d="M357.8,378.1v34.2c0,20.1-16.3,36.3-36.3,36.3H202.6c-20.1,0-36.3-16.3-36.3-36.3v-34.2H357.8z"/>
			<path class="st5" d="M333.4,378.1v34.2c0,20.1-16.3,36.3-36.3,36.3h24.4c20.1,0,36.3-16.3,36.3-36.3v-34.2H333.4z"/>
			<path class="st6" d="M456.3,248.2c4.7,0,8.4,3.9,8.1,8.6c-2.1,37.4-18.2,71.2-43.1,96.1c-26.8,26.8-63.8,43.3-104.6,43.3H207.4
				c-78.8,0-143.3-61.7-147.7-139.4c-0.3-4.7,3.5-8.6,8.1-8.6H456.3z"/>
			<path class="st7" d="M456.3,248.2h-24.4c4.7,0,8.4,3.9,8.1,8.6c-2.1,37.4-18.2,71.2-43.1,96.1c-26.8,26.8-63.8,43.3-104.6,43.3
				h24.4c40.9,0,77.8-16.6,104.6-43.3c24.9-24.9,40.9-58.6,43.1-96.1C464.7,252.1,460.9,248.2,456.3,248.2z"/>
		</g>
	</g>
	<path d="M456.3,242h-6.4c-0.6-3.8-0.9-7.3-0.2-9.9c1.3-4.6,5.4-9.5,9.4-14.2c5.6-6.7,11.5-13.6,11.5-22.1
		c0.1-10.6-7.2-18.5-13.7-25.5c-3.5-3.8-6.8-7.4-8.1-10.5c-1.5-3.8-2.3-8.8-3-13.7c-1.5-10.2-3.3-21.8-13-26.8
		c-9.8-5-20.2,0.4-29.4,5.1c-4.4,2.3-9,4.6-12.9,5.6c-2.9,0.7-7.3,0.3-11.2-0.2c-3.3-0.4-6.4,2-6.8,5.3c-0.4,3.3,2,6.4,5.3,6.8
		c5.2,0.6,10.6,1.1,15.5,0c5.4-1.3,10.6-4,15.7-6.6c7.2-3.7,14.1-7.2,18.3-5.1c4.2,2.1,5.3,9.7,6.5,17.8c0.8,5.6,1.7,11.4,3.8,16.6
		c2.1,5.2,6.4,9.8,10.5,14.2c5.2,5.6,10.5,11.3,10.5,17.1c0,4-4.4,9.3-8.7,14.3c-4.8,5.7-9.8,11.7-11.8,18.9
		c-1.1,4.2-0.9,8.7-0.3,13.1h-41c-0.1-5.4-2.4-10.2-5.5-14.7c4.1-11.4,7.7-23.1,10.8-34.8c0.9-3.3-1.1-6.6-4.4-7.5
		c-3.3-0.9-6.6,1.1-7.5,4.4c-2.4,9-5,17.9-8,26.7c-3.6-4.3-6.9-8.7-8-12.9c-1.1-4.2,0-10.2,1.3-16.6c1.8-9.1,3.8-19.5-0.7-28.2
		c-4.5-8.8-14.1-13.2-22.5-17.1c-5.9-2.7-11.5-5.3-14.2-8.6c-3.3-4.1-5-10.8-6.7-17.4c-2.3-9.1-4.7-18.5-11.9-23.8
		c-9.1-6.7-20.6-5.2-30.7-4c-5.6,0.7-10.9,1.4-14.5,0.5c-4.3-1-9.3-3.6-14.1-6.1c-9.8-5.1-21-10.8-31.3-5.5c-9.8,5-12,16.5-13.6,27
		c-4.9-2.3-9.3-4.6-11.6-7.4c-3.3-4.1-5-10.8-6.7-17.4c-2.3-9.1-4.7-18.5-11.9-23.8c-9.1-6.7-20.6-5.2-30.7-4
		c-5.6,0.7-10.9,1.4-14.5,0.5c-4.3-1-9.3-3.6-14.1-6.1c-9.8-5.1-21-10.8-31.3-5.5c-10.3,5.3-12.2,17.7-13.8,28.6
		c-0.8,5.3-1.6,10.9-3.3,15c-1.4,3.5-5,7.4-8.9,11.5c-6.9,7.5-14.8,15.9-14.7,27.2c0.1,9,6.3,16.4,12.4,23.5
		c4.3,5.1,8.8,10.5,10.2,15.6c1.1,4.2,0,10.2-1.3,16.5c-1.8,9.1-3.8,19.5,0.7,28.2c4.5,8.8,14.1,13.2,22.5,17.1
		c5.9,2.7,11.5,5.3,14.2,8.6c2.1,2.6,3.6,6.3,4.8,10.3H67.8c-8.1,0-14.7,7-14.2,15c1.3,22.5,7.3,44,18,63.8c1.6,3,5.3,4.1,8.3,2.5
		c3-1.6,4.1-5.3,2.5-8.3c-9.8-18.2-15.3-38-16.5-58.7c-0.1-1.2,0.7-2.1,2-2.1h388.5c1.3,0,2.1,0.9,2,2.1
		c-2,34.7-16.7,67.4-41.3,92.1c-27.4,27.4-62.2,41.4-100.3,41.5H207.4c-43,0-82.6-18.6-110-52.3c-2.1-2.6-6-3-8.6-0.9
		c-2.6,2.1-3,6-0.9,8.6c19.1,23.5,44.3,40.4,72.3,49.4v17.4c0,23.4,19,42.4,42.4,42.4h118.9c23.4,0,42.4-19,42.4-42.4v-17.4
		c23-7.4,44.1-20.2,61.7-37.8c26.8-26.8,42.7-62.3,44.9-100C471,249,464.3,242,456.3,242L456.3,242z M196.3,242
		c-15.2-23.1-28.3-47.6-38.7-72.9c-7.1-17.4-13.2-35.5-18-53.8c-0.9-3.3-4.2-5.2-7.5-4.4c-3.3,0.9-5.2,4.2-4.4,7.5
		c4.9,18.8,11.2,37.4,18.5,55.3c9.7,23.6,21.6,46.5,35.4,68.3h-52.1c-1.7-6.5-3.8-12.9-8-18c-4.5-5.6-11.7-8.9-18.6-12
		c-7-3.2-14.2-6.5-16.7-11.5c-2.6-5-1-12.8,0.4-20.3c1.5-7.5,3-15.2,1.1-22.1c-2.1-7.7-7.5-14.1-12.7-20.2
		c-4.6-5.5-9.5-11.2-9.5-15.8c-0.1-6.4,5.8-12.7,11.4-18.8c4.4-4.7,9-9.7,11.2-15.2c2.3-5.5,3.2-11.8,4.1-17.8
		c1.3-8.8,2.6-17.1,7.3-19.6c4.8-2.4,12.2,1.4,20.2,5.5c5.4,2.8,11.1,5.7,16.8,7.1c5.8,1.4,12.4,0.6,18.9-0.3c8.2-1,16.8-2.1,22,1.7
		c3.7,2.7,5.5,9.9,7.3,16.9c2,7.8,4,15.9,9,22.1c4.5,5.6,11.7,8.8,18.6,12c7,3.2,14.2,6.5,16.7,11.5c2.6,5,1,12.8-0.4,20.3
		c-1.5,7.5-3,15.2-1.1,22.1c0.8,3.1,2.2,6,3.8,8.5c-16.4,8.8-27.7,26.1-27.7,46c0,6.1,1.1,12.1,3.1,17.8L196.3,242L196.3,242z
		 M291.7,242h-71.4c-2.8-5.5-4.2-11.6-4.2-17.8c0-22,17.9-39.9,39.9-39.9s39.9,17.9,39.9,39.9C295.9,230.4,294.5,236.5,291.7,242z
		 M334.4,242H305c2.1-5.7,3.1-11.7,3.1-17.8c0-15.5-6.8-29.5-17.7-39.1c2.7-0.6,5.4-0.9,8.2-0.9c22,0,39.9,17.9,39.9,39.9
		C338.6,230.4,337.2,236.5,334.4,242L334.4,242z M347.7,242c2.1-5.7,3.1-11.7,3.1-17.8c0-28.7-23.4-52.1-52.1-52.1
		c-7.4,0-14.7,1.6-21.4,4.6c-6.5-2.9-13.7-4.6-21.3-4.6c-4.4,0-8.7,0.6-12.8,1.6c-1.5-2.2-2.9-4.7-3.6-7.2c-1.1-4.2,0-10.2,1.3-16.6
		c1.8-9.1,3.8-19.5-0.7-28.2c-2.9-5.7-8-9.6-13.6-12.7c1.3-8.7,2.5-19.1,7.6-21.7c4.8-2.4,12.2,1.4,20.2,5.5
		c5.4,2.8,11.1,5.7,16.8,7.1c5.8,1.4,12.4,0.6,18.9-0.3c8.2-1,16.8-2.1,22,1.7c3.7,2.7,5.5,9.9,7.3,16.9c2,7.8,4,15.9,9,22.1
		c4.5,5.6,11.7,8.8,18.6,12c7,3.2,14.2,6.5,16.7,11.5c2.6,5,1,12.8-0.4,20.3c-1.5,7.5-3,15.2-1.1,22.1c2.1,7.7,7.5,14.1,12.7,20.2
		c4.6,5.4,9.2,11,9.5,15.5H347.7z M351.7,412.3c0,16.7-13.6,30.2-30.2,30.2H202.6c-16.7,0-30.2-13.6-30.2-30.2v-14.1
		c11.3,2.6,23.1,4,35,4h109.4c11.9,0,23.6-1.4,35-4L351.7,412.3L351.7,412.3z"/>
</g>
</svg>
