<?xml version="1.0" encoding="utf-8"?>
<!-- Generator: Adobe Illustrator 24.1.2, SVG Export Plug-In . SVG Version: 6.00 Build 0)  -->
<svg version="1.1" id="Layer_1" xmlns="http://www.w3.org/2000/svg" xmlns:xlink="http://www.w3.org/1999/xlink" x="0px" y="0px"
	 width="64" height="64" viewBox="0 0 64 64" style="enable-background:new 0 0 64 64;" xml:space="preserve">
<style type="text/css">
	.st0{fill:#007F7B;}
	.st1{fill:#FBAA1A;}
	.st2{fill:#009BA6;}
	.st3{fill:#004E70;}
	.st4{fill:#FDCD57;}
	.st5{fill:#B85927;}
	.st6{fill:#5E3112;}
	.st7{fill:#B85726;}
	.st8{fill:#FDCC55;}
	.st9{fill:#EFAA2A;}
	.st10{fill:#D8915C;}
	.st11{fill:#4A1A1A;}
	.st12{fill:#FCCD0F;}
	.st13{fill:#CFC8C2;}
	.st14{fill:#FFFAEC;}
	.st15{fill:#FBE5B5;}
	.st16{fill:#195B2E;}
	.st17{fill:#9B201F;}
	.st18{fill:#8E1A1B;}
	.st19{fill:#1B3A1E;}
	.st20{fill:#009E4C;}
	.st21{fill:#F7A899;}
	.st22{fill:#F49480;}
	.st23{fill:#321212;}
	.st24{fill:#DA3D26;}
	.st25{fill:#A0DBEB;}
	.st26{fill:#F6F6F6;}
	.st27{fill:#F8E5AC;}
	.st28{fill:#BF9755;}
	.st29{fill:#B5E1E3;}
</style>
<path class="st0" d="M34.1,22.3c0.7,0.6,1.6,1.2,2.2,1.9c1,1.2,1.8,2.4,2.7,3.7c0.1,0.1,0.2,0.3,0.3,0.4c0.4,1.2,0.8,2.3,1.3,3.5
	c0,0,0,0.1,0,0.1c0,0.3,0.1,0.7,0.1,1c0,1,0,2.1,0,3.1c-0.3,1-0.7,2-1,3l0,0c-0.2,0.4-0.5,0.8-0.7,1.2l0,0c0,0.1-0.1,0.1-0.1,0.2
	l0,0c0,0-0.1,0.1-0.1,0.1l0,0c-0.1,0.1-0.2,0.2-0.2,0.4c0,0,0,0,0,0c-0.2,0.2-0.3,0.4-0.5,0.6c0,0,0,0,0,0c0,0-0.1,0.1-0.1,0.1l0,0
	c-0.1,0.2-0.3,0.3-0.4,0.5l0,0c0,0-0.1,0.1-0.1,0.1c0,0.1-0.1,0.1-0.1,0.2c0,0-0.1,0.1-0.1,0.1c-0.1,0-0.1,0.1-0.2,0.1
	c0,0-0.1,0.1-0.1,0.1c0,0-0.1,0.1-0.1,0.1c0,0-0.1,0.1-0.1,0.1l0,0c0,0-0.1,0.1-0.1,0.1l0,0c-0.3,0.3-0.6,0.6-1,0.9c0,0,0,0,0,0
	c-0.2,0.1-0.3,0.2-0.5,0.4l0,0c0,0-0.1,0.1-0.1,0.1c0,0,0,0,0,0c-0.2,0.1-0.3,0.2-0.5,0.4c0,0,0,0,0,0c-0.1,0.1-0.2,0.2-0.3,0.3
	c0,0,0,0,0,0c0,0-0.1,0.1-0.1,0.1c0,0,0,0,0,0c-0.2,0.2-0.5,0.3-0.7,0.5l0,0c-0.1,0.1-0.2,0.2-0.4,0.2l0,0c-0.1,0-0.2,0.1-0.2,0.1
	l0,0c-0.9,0.4-1.8,0.8-2.7,1.2c0,0,0,0,0,0c-1.5,0.3-3,0.7-4.4,0.9c-2.1,0.3-4.3,0.2-6.4-0.2c-0.2-0.1-0.3-0.1-0.5-0.2
	c-0.1-0.2-0.1-0.5-0.3-0.7c-0.7-1.2-1.4-2.5-2.1-3.7c0.5,0.1,1.1,0.3,1.6,0.4c0,0.5,0.3,0.7,0.8,0.7c0.7,0,1.3,0,2,0
	c1.5,0.2,3,0.1,4.5-0.2c0.2,0,0.3-0.1,0.5-0.1c0.1,0,0.1,0,0.2,0c0.5,0,0.9-0.1,1.4-0.1c0.7-0.1,1.4-0.3,1.8-1
	c0.7-0.3,1.4-0.7,2.2-1c0.4-0.2,0.9-0.4,1.3-0.5c0.8,0.1,1.7,0.2,2.5,0.3c0.6,0.1,1-0.2,0.9-0.8c0.1-0.5,0.5-1,0-1.5
	c-0.2-0.2-0.5-0.3-0.7-0.5c0.6-0.9,1.1-1.9,1.1-3c0.3-0.6,0.7-1.2,1-1.8c0.1-0.2,0.2-0.3,0.2-0.5c0.7-2.3-0.2-4.2-1.7-5.9
	c-0.1-0.2-0.2-0.4-0.4-0.5c-0.9-0.8-1.9-1.5-2.8-2.3c0.8-0.9,0.8-0.9,0.3-1.9c-0.5-0.9-0.5-0.9-1.5-0.5c-0.6,0.3-1.3,0.5-1.9,0.8
	c-0.7-0.2-1.3-0.5-2-0.7c-0.1-0.2-0.2-0.4-0.3-0.6c-0.2,0.2-0.3,0.3-0.5,0.4c-1.1-0.1-2.2-0.1-3.3-0.2c0.5-0.1,1-0.1,1.6-0.2
	c-0.6-0.5-1-1-1.5-1.4c-0.5-0.4-1.1-0.8-1.6-1.2c0.2,0,0.4,0,0.6-0.1c1.6,0.1,3.2,0.3,4.7,0.4c0.2,0.1,0.3,0.1,0.5,0.2
	c1.2,0.3,2.3,0.5,3.5,0.8c0.7,0.2,1.4,0.5,2.1,0.8C33.3,21.9,33.7,22.1,34.1,22.3z M38.1,27.7c-0.9-1-1.2-1.1-2.6-1.5
	c0-0.5,0.1-1,0-1.4c-0.2-0.4-0.7-0.7-1-1c-0.1,0-0.1,0-0.2,0.1c0.1,0.8,0.1,1.6,0.3,2.4c0.1,0.4,0.5,0.8,0.8,0.9
	C36.3,27.5,37.2,27.5,38.1,27.7z M29.1,45.6c0.9-0.4,2-0.5,2.2-1.9c1,0.9,1.8,0.7,2.7,0c-0.8-0.3-1.6-0.6-2.4-0.7
	c-0.4-0.1-1,0.2-1.2,0.5C30,44.1,29.6,44.9,29.1,45.6z"/>
<path class="st1" d="M36.6,43c0,0,0.1-0.1,0.1-0.1c0,0,0.1-0.1,0.1-0.1c0.1,0,0.1-0.1,0.2-0.1c0,0,0.1-0.1,0.1-0.1
	c0-0.1,0.1-0.1,0.1-0.2c0,0,0.1-0.1,0.1-0.1c0,0,0,0,0,0c0.1-0.2,0.3-0.3,0.4-0.5c0,0,0,0,0,0c0,0,0.1-0.1,0.1-0.1c0,0,0,0,0,0
	c0.2-0.2,0.3-0.4,0.5-0.6c0,0,0,0,0,0c0.1-0.1,0.2-0.2,0.2-0.4c0,0,0,0,0,0c0,0,0.1-0.1,0.1-0.1c0,0,0,0,0,0c0-0.1,0.1-0.1,0.1-0.2
	c0,0,0,0,0,0c0.2-0.4,0.5-0.8,0.7-1.2c0,0,0,0,0,0c0.1-0.2,0.3-0.4,0.4-0.6c0.3-0.7,0.6-1.4,0.8-2.1c2.2,1.5,4.7,2.4,7.4,2
	c-0.2,0.4-0.3,0.9-0.5,1.3c-0.4,0-0.8,0.1-1.1,0c-0.9-0.1-1.8-0.2-2.7-0.3c0,0-0.1,0.1-0.1,0.1c0.7,0.7,1.5,1.5,2.3,2.3
	c-2.3-0.4-4.4-0.7-6.5-1.1c0,0-0.1,0.1-0.1,0.1c1.5,1.3,3.1,2.5,4.6,3.8c0,0,0,0.1-0.1,0.1c-1.8-0.3-3.5-0.6-5.3-0.9
	c0,0.1,0,0.1-0.1,0.2c1.3,0.9,2.6,1.9,3.9,2.8c0,0.1,0,0.1-0.1,0.2c-1.5,0.1-3.1,0.1-4.6,0.2c0,0,0,0.1,0,0.1c0.6,0.3,1.1,0.6,1.7,1
	c-0.1,0.1-0.1,0.2-0.2,0.2c-0.7,0.3-1.4,0.2-2.1-0.1c-1.1-0.5-2.2-0.7-3.4-0.7c-1,0-2,0.2-3,0.4c-0.7,0.2-1.2,0.6-1.9,0.8
	c0,0,0,0,0,0c-0.3,0.2-0.5,0.3-0.8,0.5l0,0c-0.1,0.1-0.2,0.2-0.4,0.3l0,0c-0.1,0.1-0.2,0.2-0.3,0.3c0,0,0,0,0,0
	c-0.1,0.2-0.3,0.3-0.4,0.5c0,0,0,0,0,0c-0.1,0.1-0.1,0.2-0.2,0.3l0,0c0,0.1-0.1,0.2-0.1,0.2l0,0c0,0.1-0.1,0.2-0.1,0.2l0,0
	c-0.6,0.6-0.7,1.6-0.1,2.4l0,0c0.1,0.1,0.2,0.3,0.2,0.4l0,0c0.1,0.5,0.4,0.8,0.9,0.9l0,0c0,0,0.1,0.1,0.1,0.1l0,0
	c0.1,0,0.2,0.1,0.2,0.1l0,0c0,0,0.1,0.1,0.1,0.1l0,0c0.1,0,0.2,0.1,0.2,0.1l0,0c0.2,0.1,0.3,0.2,0.5,0.3l0,0
	c0.2,0.1,0.4,0.3,0.6,0.4c0.2,0.1,0.3,0.3,0.4,0.4c0,0-0.1,0-0.1,0c-0.1,0-0.2,0.1-0.3,0.1l0,0c0,0-0.1,0-0.1,0
	c-0.1,0-0.2,0-0.2-0.1c-0.4-0.1-0.7-0.2-1.1-0.3c-0.1,0-0.2,0-0.3,0c-0.2-0.1-0.4-0.1-0.6-0.2c-0.1,0-0.2,0-0.3-0.1
	c-0.2-0.1-0.4-0.1-0.6-0.2c-0.1,0-0.2,0-0.3-0.1c-0.2-0.1-0.4-0.1-0.6-0.2c-0.1,0-0.2,0-0.3-0.1c-0.2-0.1-0.3-0.1-0.5-0.2
	c-0.1,0-0.2,0-0.2-0.1c-0.5-0.2-1-0.3-1.5-0.5c-0.1,0-0.2,0-0.3-0.1c-0.4-0.2-0.9-0.3-1.3-0.5c-0.1,0-0.3-0.1-0.4-0.1
	c-0.2-0.8-0.3-1.7-0.7-2.4c-0.5-1.1-1.1-2-1.6-3c0.7,0.1,1.4,0.2,2.1,0.2c2.2,0.1,4.4-0.1,6.5-0.5c0.7-0.2,1.4-0.5,2.1-0.7
	c0,0,0,0,0,0c0.9,0.1,1.6-0.5,2.3-0.9c0.2-0.1,0.3-0.3,0.4-0.4c0,0,0,0,0,0c0.1,0,0.2-0.1,0.2-0.1c0,0,0,0,0,0
	c0.1-0.1,0.2-0.2,0.4-0.2c0,0,0,0,0,0c0.2-0.2,0.5-0.3,0.7-0.5c0,0,0,0,0,0c0,0,0.1-0.1,0.1-0.1c0,0,0,0,0,0
	c0.1-0.1,0.2-0.2,0.3-0.3c0,0,0,0,0,0c0.2-0.1,0.3-0.2,0.5-0.4c0,0,0,0,0,0c0,0,0.1-0.1,0.1-0.1c0,0,0,0,0,0
	c0.2-0.1,0.3-0.2,0.5-0.4c0,0,0,0,0,0c0.3-0.3,0.6-0.6,1-0.9c0,0,0,0,0,0c0,0,0.1-0.1,0.1-0.1c0,0,0,0,0,0
	C36.5,43.1,36.6,43.1,36.6,43z"/>
<path class="st2" d="M15.9,43.6c0.7,1.2,1.4,2.5,2.1,3.7c0.1,0.2,0.2,0.4,0.3,0.7c-2.4-0.4-4.6-1.4-6.7-2.8c-1.7-1.1-3-2.6-4.3-4.2
	c-0.3-0.5-0.6-0.9-1-1.4c-0.4-1.2-0.9-2.5-1.1-3.8c-0.7-5.6,1.6-10.6,6.7-13.5c1.6-0.9,3.2-1.7,5-2.1c0.1,0,0.1-0.1,0.2-0.1
	c0.7-0.1,1.4-0.3,2-0.4c0.4-0.1,0.7-0.2,1.1-0.2c0.3,0,0.5,0.1,0.8,0.1c0.1,0,0.2,0,0.3,0c0.1,0,0.2,0,0.2,0
	c0.5,0.4,1.1,0.7,1.6,1.2c0.5,0.4,0.9,0.9,1.5,1.4c-0.6,0.1-1.1,0.1-1.6,0.2c-0.8,0.2-1.6,0.4-2.5,0.5c-1.5,0-3,0-4.4,0.5
	c-1.3,0.1-2.4,0.6-3.5,1.3c-0.1,0-0.1,0.1-0.2,0.1l0,0C10.1,26,9,27.9,8.9,30.4c-0.4,1.5-0.2,3,0.3,4.4c-0.7,1.8-0.1,3.4,1.1,4.8
	c1.4,1.6,3,3,5.1,3.7C15.5,43.4,15.7,43.5,15.9,43.6z M20.7,20.4c-0.9,0.3-1.9,0.4-2.3,1.5c-0.5-0.3-0.9-0.7-1.3-0.7
	c-0.4-0.1-0.9,0.2-1.4,0.3c0,0.1,0,0.1,0,0.2c0.8,0.3,1.5,0.7,2.3,1c0.3,0.1,0.8,0,1-0.2C19.7,21.8,20.2,21.1,20.7,20.4
	C20.8,20.4,20.8,20.4,20.7,20.4C20.8,20.4,20.8,20.4,20.7,20.4C20.8,20.4,20.8,20.4,20.7,20.4z M15.6,46.2c-0.3-0.9-0.6-1.6-0.9-2.4
	c-0.1-0.3-0.6-0.6-0.8-0.6c-0.9,0-1.8,0.1-2.7,0.2c0.4,0.3,0.8,0.6,1.3,0.7c0.4,0.1,0.9,0.1,1.5,0.1C13.9,45.3,14.4,45.9,15.6,46.2z
	 M6.9,36.7c0.5-0.8,0.9-1.4,1.2-2.1c0.1-0.3,0.1-0.9,0-1.1c-0.5-0.7-1.2-1.3-1.8-2c0.1,1,0,2,1.2,2.5C6.5,34.8,6.3,35.6,6.9,36.7z"
	/>
<path class="st3" d="M44.9,46.1c2.6-1.2,5.2-2.3,7.8-3.5c2-0.9,4-1,6-0.1c0.6,0.3,1.1,0.7,1.2,1.4c0,0.7-0.6,0.8-1.1,0.9
	c-0.7,0.1-1.4,0.1-2.1,0.1c-0.7,0-1.5-0.1-2.2,0.1c-3.3,0.9-6.5,1.8-9.8,2.8c-1.3,0.4-2.6,1-3.8,1.7c-0.6,0.3-1.1,0.8-1.1,1.6
	c0,0.1,0,0.1,0,0.2c-0.1,0.1-0.2,0.2-0.2,0.4c-0.7,2.8-3.8,5.1-7,4.7c-1.2-0.1-2.3-0.6-3.4-0.8c0,0,0,0,0,0
	c-0.2-0.1-0.3-0.2-0.5-0.3c0,0,0,0,0,0c-0.1,0-0.2-0.1-0.2-0.1c0,0,0,0,0,0c0,0-0.1-0.1-0.1-0.1c0,0,0,0,0,0c-0.1,0-0.2-0.1-0.2-0.1
	c0,0,0,0,0,0c0,0-0.1-0.1-0.1-0.1c0,0,0,0,0,0c-0.2-0.2-0.3-0.4-0.5-0.6c0.2,0,0.4,0.1,0.6,0.1c0-0.3,0-0.7,0-1
	c0.1-1.3,1-1.9,2.2-1.5c0.5,0.2,1,0.4,1.5,0.7c0.9,0.6,1.8,1.2,2.8,1.7c1.3,0.7,2.8,0.3,3.4-0.7c0.9-1.6,0.9-3.8-1.5-4.6
	c-3-1-5.8-0.2-8.3,1.6c-1,0.7-1.3,1.8-0.9,3c0.1,0.2,0.1,0.4,0.1,0.5c-0.1,0-0.2-0.1-0.2-0.1c0,0,0,0,0,0c-0.1-0.1-0.2-0.3-0.2-0.4
	c0,0,0,0,0,0c-0.2-0.8-0.2-1.6,0.1-2.4c0,0,0,0,0,0c0-0.1,0.1-0.2,0.1-0.2c0,0,0,0,0,0c0-0.1,0.1-0.2,0.1-0.2c0,0,0,0,0,0
	c0.1-0.1,0.1-0.2,0.2-0.3c0,0,0,0,0,0c0.1-0.2,0.3-0.3,0.4-0.5c0,0,0,0,0,0c0.1-0.1,0.2-0.2,0.3-0.3c0,0,0,0,0,0
	c0.1-0.1,0.2-0.2,0.4-0.3c0,0,0,0,0,0c0.3-0.2,0.5-0.3,0.8-0.5c0,0,0,0,0,0c0.1,0,0.2-0.1,0.4-0.1c2.6-1,5.2-1.4,7.9-0.2
	c1,0.4,1.9,0.3,2.8-0.2C41.8,47.7,43.4,46.9,44.9,46.1z"/>
<path class="st4" d="M7.3,41c1.3,1.6,2.6,3.1,4.3,4.2c2,1.3,4.3,2.3,6.7,2.8c0.2,0.1,0.3,0.1,0.5,0.2c0.1,0.1,0.2,0.2,0.2,0.3
	c0.5,1,1.2,2,1.6,3c0.3,0.8,0.4,1.6,0.7,2.4c-1.4-0.5-2.8-0.8-4.1-1.4c-4.9-2.3-9.8-4.6-14.7-6.9c-0.2-0.1-0.3-0.2-0.6-0.4
	c0.3-0.3,0.5-0.6,0.7-0.9c1.6,0.7,3.2,1.4,4.8,2.1c0.7,0.3,1.4,0.6,2.1,0.9c0-0.1,0.1-0.1,0.1-0.2c-1.6-1.1-3.1-2.1-4.7-3.2
	c0-0.1,0.1-0.1,0.1-0.2c2,0.7,4,1.4,6,2.2c0,0,0.1-0.1,0.1-0.1c-1.8-1.5-3.6-3.1-5.5-4.6c0-0.1,0.1-0.1,0.1-0.2
	c0.2,0,0.3,0.1,0.5,0.1C6.6,41.2,6.9,41.1,7.3,41z"/>
<path class="st5" d="M19.1,19.8c-0.7,0.1-1.4,0.3-2,0.4c-1-1.8-2-3.6-2.3-5.6c-0.3-2.2,0.9-3.5,3.1-3.2c0.7,0.1,1.3,0.3,1.9,0.5
	c0.3,0.2,0.4,0.1,0.4-0.2c0-0.5,0-0.9,0-1.5c0.9,1.4,2.2,1.9,3.5,2.3c1.9,0.5,3.8,0.6,5.7,0.2c1.6-0.3,3.2-0.7,4.2-2.2
	c0.1-0.1,0.2-0.1,0.3-0.2c0,0.5,0,0.9,0,1.4c-0.5,0.3-0.9,0.7-1.4,0.9c-0.9,0.3-1.9,0.6-2.8,0.9c-0.4,0.1-0.5,0.3-0.5,0.7
	c0.1,0.6,0.1,1.1,0.1,1.7c-2.1,0.5-4.1,0.2-6.1-0.2c-1.3-0.3-2.3-1-3.1-2c-0.3-0.1-0.6-0.3-0.9-0.4c-0.6-0.3-1.3-0.6-1.9-0.1
	c-0.7,0.5-0.6,1.3-0.3,2C17.7,16.6,18.4,18.2,19.1,19.8z"/>
<path class="st6" d="M40.5,31.8c-0.4-1.2-0.8-2.3-1.3-3.5c0.5-0.5,0.9-0.9,1.4-1.4c-0.3,1.8,0.6,2.8,2.1,3.4c3.1,1.3,6.2,1.4,9.2,0
	c1.9-0.9,2.3-1.7,1.9-3.7c0.7,0.7,1.4,1.5,2,2.2c-0.6,0.3-1.2,0.7-1.7,1c0,0,0,0.1,0.1,0.1c0.5,0.1,1,0.1,1.7,0.2
	c-1.7,1-3.4,2-5,2.9c0,0.1,0,0.1,0.1,0.2c1.7-0.3,3.4-0.5,5-0.8c-0.8,0.7-1.7,1.2-2.6,1.8c-0.9,0.6-1.8,1.2-2.6,1.7
	c0,0,0,0.1,0.1,0.1c1.2-0.1,2.3-0.1,3.5-0.2c-1.5,1.3-3.3,2-5.3,2.1c0.1-0.4,0.2-0.7,0.2-1.1c-0.1-1.4-0.6-2.7-1.9-3.5
	c-2-1.2-4.2-1.6-6.4-2C40.8,31.5,40.6,31.7,40.5,31.8z"/>
<path class="st5" d="M42.7,25.1c0.8-0.3,1.7-0.6,2.5-0.8c0.2,0.3,0.2,0.8,0.5,1c0.7,0.6,1.6,0.6,2.5,0.3c0.6-0.2,0.9-0.6,1-1.2
	c0.9,0.2,1.8,0.2,2.5,0.8c0,0.1-0.1,0.2,0,0.3c0.4,1.3,0.2,2.3-1,3c-2.3,1.5-5,1.7-7.4-0.2C42.3,27.4,42,26.3,42.7,25.1z"/>
<path class="st7" d="M40.5,31.8c0.2-0.1,0.3-0.3,0.5-0.2c2.2,0.4,4.5,0.8,6.4,2c1.3,0.8,1.8,2,1.9,3.5c0,0.4-0.1,0.7-0.2,1.1
	c0,0,0,0,0,0c-0.1,0-0.2,0.1-0.2,0.1c-0.1,0-0.1,0-0.2,0.1c-0.1,0-0.2,0-0.3,0.1c-2.8,0.4-5.2-0.4-7.4-2c0,0,0-0.1,0-0.1
	c0.6,0.2,1.3,0.4,1.9,0.6c0,0,0-0.1,0.1-0.1c-0.5-0.5-1-1.1-1.6-1.7c1.4,0,2.6,0,3.7,0c-0.6-0.4-1.3-0.6-1.9-0.8
	c-0.6-0.2-1.3-0.5-1.9-0.7c0,0,0-0.1,0-0.1c0.4-0.1,0.9-0.1,1.3-0.2c-0.3-0.2-0.6-0.3-0.8-0.5c-0.4-0.2-0.8-0.4-1.2-0.7
	C40.5,31.9,40.5,31.8,40.5,31.8z"/>
<path class="st8" d="M44.9,46.1c-1.5,0.8-3.1,1.5-4.6,2.3c-0.2-0.1-0.4-0.1-0.5-0.2c-0.6-0.3-1.1-0.6-1.7-1c0,0,0-0.1,0-0.1
	c1.5-0.1,3.1-0.1,4.6-0.2c0-0.1,0-0.1,0.1-0.2c-1.3-0.9-2.6-1.9-3.9-2.8c0-0.1,0-0.1,0.1-0.2c1.8,0.3,3.5,0.6,5.3,0.9
	c0,0,0-0.1,0.1-0.1c-1.5-1.3-3.1-2.5-4.6-3.8c0,0,0.1-0.1,0.1-0.1c2.1,0.3,4.2,0.7,6.5,1.1c-0.9-0.9-1.6-1.6-2.3-2.3
	c0,0,0.1-0.1,0.1-0.1c0.9,0.1,1.8,0.2,2.7,0.3c0.4,0,0.8,0,1.1,0c0,0,0.1,0,0.1,0l0.1,0c-0.1,0.3-0.1,0.5-0.2,0.8
	c-0.9,1.8-1.7,3.6-2.6,5.4C45,45.8,45,46,44.9,46.1z"/>
<path class="st9" d="M29.3,55.5c1.1,0.3,2.3,0.7,3.4,0.8c3.2,0.4,6.3-2,7-4.7c0-0.1,0.1-0.2,0.2-0.4c0.3,0,0.5,0,0.8,0.1
	c0.4,0.1,0.8,0.4,1.2,0.6c0,0.1,0,0.2,0,0.3c-0.1,0.2-0.2,0.4-0.3,0.6c-0.1,0.1-0.1,0.2-0.2,0.4c0,0,0,0,0,0.1
	c-0.2,0.5-0.4,1-0.7,1.4c-0.1,0.1-0.1,0.3-0.2,0.4c-0.1,0.2-0.2,0.4-0.3,0.7c0,0,0,0,0,0.1c-0.2,0.4-0.3,0.7-0.5,1.1
	c-0.1,0.2-0.2,0.4-0.3,0.6c-0.1,0.1-0.1,0.2-0.2,0.4c0,0,0,0,0,0.1c-0.1,0.1-0.1,0.3-0.2,0.4c0,0,0,0,0,0.1
	c-0.1,0.2-0.2,0.4-0.3,0.6c0,0,0,0,0,0c-0.8-0.2-1.7-0.4-2.5-0.6c-0.1,0-0.2,0-0.2,0c-0.5-0.2-1.1-0.3-1.6-0.5c0,0-0.1,0-0.1,0
	c0,0,0,0,0,0c-0.1-0.2-0.2-0.3-0.2-0.5c0-0.1,0-0.2,0-0.3c0,0-0.1-0.1-0.1-0.1c0,0,0,0,0,0c-0.2,0-0.3,0-0.5,0c0,0,0,0,0,0
	c0,0-0.1,0-0.1,0c-0.1,0-0.1,0.1-0.2,0.1c-0.3-0.1-0.5-0.1-0.8-0.2c-0.3-0.1-0.6-0.1-0.9-0.1c0,0,0-0.1,0-0.1c0,0,0,0,0,0
	C31.1,57,31,57,30.8,56.8c-0.1-0.1-0.3-0.2-0.5-0.3c-0.1-0.2-0.3-0.3-0.4-0.5C29.7,55.8,29.5,55.7,29.3,55.5z M36.6,57.1
	C36.7,57.1,36.6,57,36.6,57.1c-0.3,0-0.7-0.1-0.8,0c-0.1,0.1-0.1,0.5,0,0.7c0,0.1,0.4,0,0.6,0c0.2,0,0.4-0.1,0.6-0.1
	c0.1-0.2,0.2-0.4,0.3-0.6c0.1,0,0.1,0,0.2,0.1c0,0.2,0.1,0.4,0.1,0.7c0,0,0.1,0,0.1,0c0.1-0.3,0.2-0.6,0.4-1
	C37.5,56.9,37.1,57,36.6,57.1z"/>
<path class="st10" d="M34,10.2c-0.1,0-0.3,0.1-0.3,0.2c-1,1.4-2.6,1.9-4.2,2.2c-1.9,0.4-3.8,0.3-5.7-0.2c-1.4-0.4-2.6-0.9-3.5-2.3
	c0,0.6,0,1.1,0,1.5c0,0.3-0.1,0.5-0.4,0.2c0.1-0.1,0.2-0.3,0.3-0.4c0-0.4,0-0.7,0-1.1C20,8.6,20.9,7.6,22.4,7
	c2.8-1.1,5.7-1.1,8.6-0.3c0.8,0.2,1.5,0.8,2.2,1.2C33.9,8.5,34.1,9.3,34,10.2z M32.1,10.7c1.3-0.8,1.3-1.8,0-2.6
	c-0.3-0.2-0.6-0.3-0.9-0.4c-2.2-0.9-4.5-0.8-6.7-0.4c-0.9,0.2-1.9,0.4-2.6,1C21,9,21,9.6,21.8,10.4c0.6,0.3,1.1,0.8,1.7,0.9
	c1.7,0.5,3.4,0.7,5.1,0.4C29.8,11.6,31.1,11.4,32.1,10.7z"/>
<path class="st11" d="M52.6,25.3c1.8-3.7,3.6-7.4,6.1-10.8c0.4-0.6,1.1-1,1.7-1.4c0.5-0.3,1.1,0,1.4,0.4c0.3,0.5,0,0.9-0.3,1.3
	c-2.4,2.3-4.4,5-6.1,7.8c-0.7,1.1-1.2,2.3-1.8,3.5C53.2,25.9,52.9,25.6,52.6,25.3z"/>
<path class="st5" d="M52.6,25.3c0.3,0.3,0.6,0.6,0.9,0.9c0.1,0.1,0.2,0.3,0.4,0.4c0.4,2-0.1,2.9-1.9,3.7c-3.1,1.4-6.2,1.4-9.2,0
	c-1.5-0.6-2.4-1.7-2.1-3.4c0.4-0.4,0.8-0.8,1.3-1.3c-0.4,1.6,0.3,2.7,1.6,3.5c1.5,1,3.2,1.4,5,1c0.6-0.1,1.1-0.3,1.7-0.5
	c2-0.9,2.6-2.3,1.8-4.4C52.2,25.2,52.4,25.2,52.6,25.3z"/>
<path class="st2" d="M39.9,51.1c0-0.8,0.5-1.3,1.1-1.6c1.2-0.6,2.5-1.3,3.8-1.7c3.2-1,6.5-1.9,9.8-2.8c0.7-0.2,1.5-0.1,2.2-0.1
	c0.7,0,1.4,0,2.1-0.1c0.5-0.1,1.1-0.2,1.1-0.9c0.3,0.8,0,1.5-0.6,2.1c-0.1,0.1-0.4,0.2-0.6,0.2c-5.1,0.4-10.1,1.3-15,2.6
	c-0.2,0-0.3,0.1-0.5,0.2C42,49.3,40.9,50.1,39.9,51.1z"/>
<path class="st1" d="M7.3,41c-0.4,0.1-0.7,0.2-1.1,0.2c-0.2,0-0.3,0-0.5-0.1c0,0.1-0.1,0.1-0.1,0.2c1.8,1.5,3.6,3.1,5.5,4.6
	C11,46,11,46,11,46c-2-0.7-4-1.4-6-2.2c0,0.1-0.1,0.1-0.1,0.2c1.6,1.1,3.1,2.1,4.7,3.2c0,0.1-0.1,0.1-0.1,0.2
	c-0.7-0.3-1.4-0.6-2.1-0.9c-1.6-0.7-3.2-1.4-4.8-2.1c0.9-1.2,1.8-2.4,2.7-3.6c0.3-0.4,0.7-0.8,1-1.2C6.6,40.1,6.9,40.6,7.3,41z"/>
<path class="st5" d="M54.3,35.9C53.2,36,52,36,50.8,36.1c0,0,0-0.1-0.1-0.1c0.9-0.6,1.7-1.2,2.6-1.7c0.9-0.6,1.8-1.1,2.6-1.8
	c-1.7,0.3-3.4,0.5-5,0.8c0-0.1,0-0.1-0.1-0.2c1.6-1,3.2-1.9,5-2.9c-0.7-0.1-1.2-0.1-1.7-0.2c0,0,0-0.1-0.1-0.1
	c0.6-0.3,1.2-0.7,1.7-1c1.1,1.6,1.1,3.9-0.1,5.7C55.4,35.1,54.8,35.5,54.3,35.9z"/>
<path class="st6" d="M33,21.7c-0.7-0.3-1.4-0.6-2.1-0.8c-1.2-0.3-2.3-0.5-3.5-0.8c-0.2,0-0.3-0.1-0.5-0.2c0.2-0.1,0.5-0.2,0.6-0.4
	c0.4-0.6,0.9-1.2,1.2-1.8c0.2-0.4,0.3-0.9,0.4-1.4c1.7-0.4,3.4-0.9,4.9-2c0,0.3,0,0.7,0,1c-0.7,0.2-1.4,0.4-2.2,0.7
	c0.7,0.2,1.2,0.4,1.8,0.5c0,0,0,0.1,0,0.1c-1.2,0.3-2.4,0.6-3.7,1c1.2,0.5,2.3,1,3.4,1.4c0,0,0,0.1,0,0.1c-1.2,0.2-2.4,0.3-3.6,0.5
	c0,0,0,0.1,0,0.1c1.3,0.5,2.6,0.9,4,1.4C33.3,21.5,33.1,21.6,33,21.7z"/>
<path class="st5" d="M33,21.7c0.2-0.1,0.4-0.2,0.7-0.3c-1.4-0.5-2.7-1-4-1.4c0,0,0-0.1,0-0.1c1.2-0.2,2.4-0.3,3.6-0.5
	c0,0,0-0.1,0-0.1c-1.1-0.4-2.2-0.9-3.4-1.4c1.3-0.4,2.5-0.7,3.7-1c0,0,0-0.1,0-0.1c-0.6-0.2-1.1-0.3-1.8-0.5
	c0.8-0.3,1.5-0.5,2.2-0.7c0,2.3,0,4.6,0.1,6.9C33.7,22.1,33.3,21.9,33,21.7z"/>
<path class="st6" d="M29.4,15.6c0-0.6,0-1.1-0.1-1.7c0-0.4,0.1-0.6,0.5-0.7c0.9-0.3,1.9-0.5,2.8-0.9c0.5-0.2,0.9-0.6,1.4-0.9
	c0,0.7,0,1.5,0,2.2C32.5,14.6,31,15.3,29.4,15.6z"/>
<path class="st12" d="M29.4,15.6c1.7-0.3,3.2-1,4.6-1.8c0,0.2,0,0.4,0,0.7c-1.5,1.1-3.1,1.6-4.9,2c-1.4,0-2.9,0.1-4.3,0
	c-1.7-0.2-3.3-0.8-4.6-2.2c0,0.6,0,1,0,1.4c0-0.7,0-1.5-0.1-2.2c0.8,1,1.9,1.7,3.1,2C25.3,15.9,27.3,16.1,29.4,15.6z"/>
<path class="st12" d="M52,25.2c0.8,2.1,0.2,3.6-1.8,4.4c-0.5,0.2-1.1,0.4-1.7,0.5c-1.8,0.4-3.5,0-5-1c-1.3-0.8-2-1.9-1.6-3.5
	c0,0,0,0,0,0c0-0.1,0.1-0.1,0.1-0.2c0.2-0.1,0.5-0.3,0.7-0.4c-0.7,1.2-0.5,2.3,0.6,3.2c2.4,1.9,5.1,1.7,7.4,0.2c1.1-0.7,1.4-1.7,1-3
	c0-0.1,0-0.2,0-0.3C51.9,25.2,51.9,25.2,52,25.2z"/>
<path class="st6" d="M49.2,24.3c-0.1,0.6-0.4,1-1,1.2c-0.9,0.3-1.7,0.3-2.5-0.3c-0.3-0.2-0.3-0.6-0.5-1c0.3-0.8,1-1,1.7-1.1
	C47.9,23.1,48.8,23.4,49.2,24.3z"/>
<path class="st4" d="M39.9,51.1c1-1,2.1-1.7,3.5-2.1c0,0.1,0,0.1,0,0.2c-0.1,0.1-0.1,0.3-0.2,0.4c-0.1,0.2-0.2,0.4-0.2,0.6
	c-0.1,0.2-0.2,0.4-0.3,0.6c0,0.1,0,0.1-0.1,0.2c-0.2,0.3-0.5,0.7-0.7,1c-0.4-0.2-0.8-0.4-1.2-0.6c-0.2-0.1-0.5-0.1-0.8-0.1
	C39.9,51.2,39.9,51.1,39.9,51.1z"/>
<path class="st13" d="M31.2,56.8c0.3,0,0.6,0.1,0.9,0.1c0.3,0,0.5,0.1,0.8,0.2c0.1,0.1,0.2,0.3,0.3,0.4c0.2,0.1,0.4,0.2,0.6,0.4
	c-0.3,0.4-0.6,0.2-0.9,0c0,0,0,0,0-0.1c0,0,0,0-0.1,0c-0.3,0.2-0.6,0.3-0.9,0.4c-0.2-0.1-0.4-0.2-0.6-0.3c0-0.3,0.1-0.5,0.1-0.8
	c-0.1,0-0.1,0-0.2,0c-0.1,0.2-0.1,0.5-0.2,0.7c0-0.2,0-0.4,0-0.6C31.2,57.1,31.2,57,31.2,56.8z"/>
<path class="st13" d="M29.5,56.5c0.1,0,0.2,0,0.2,0.1c0,0,0,0.1,0,0.1c0,0.1,0.1,0.2,0.1,0.2c0,0.4,0.1,0.7,0.1,1.1c0,0-0.1,0-0.1,0
	c-0.1-0.1-0.1-0.2-0.2-0.3c-0.1,0.1-0.3,0.2-0.4,0.3c0-0.5,0-1,0-1.5C29.3,56.5,29.4,56.5,29.5,56.5z"/>
<path class="st13" d="M28.3,56.9c-0.1,0.3-0.1,0.7-0.2,1.2c-0.4-0.4-0.7-0.7-0.9-1c0,0,0-0.2,0.1-0.3c0,0,0.2,0,0.2,0
	C27.6,57.4,28,56.9,28.3,56.9z"/>
<path class="st14" d="M29.9,56.9c0-0.1-0.1-0.2-0.1-0.2c0,0,0.1-0.1,0.1-0.1c0,0,0,0,0,0c0.1,0,0.2-0.1,0.3-0.1c0,0,0.1,0,0.1,0
	c0.2,0.1,0.3,0.2,0.5,0.3c0.2,0.2,0.3,0.3,0.4-0.1c0,0,0,0,0,0c0,0,0,0.1,0,0.1c0,0.2,0,0.3,0,0.5C30.8,57.2,30.3,57,29.9,56.9z"/>
<path class="st15" d="M36.1,58.5c0.8,0.2,1.7,0.4,2.5,0.6c-0.1,0.1-0.2,0.2-0.3,0.2c-0.7-0.2-1.4-0.4-2.1-0.6
	C36.2,58.6,36.2,58.5,36.1,58.5z"/>
<path class="st13" d="M26.6,56.9c-0.3,0-0.6,0-1-0.1c0,0,0-0.3,0.1-0.4C26.2,56.1,26.4,56.7,26.6,56.9z"/>
<path class="st15" d="M34.3,57.9c0.5,0.2,1.1,0.3,1.6,0.5c-0.5-0.1-1.1-0.2-1.6-0.4C34.3,58,34.3,58,34.3,57.9z"/>
<path class="st9" d="M23.2,54.6c0.5,0.2,1,0.3,1.5,0.5C24.2,55,23.7,54.8,23.2,54.6z"/>
<path class="st15" d="M40.8,54.7c0.2-0.5,0.5-1,0.7-1.4C41.2,53.7,41,54.2,40.8,54.7z"/>
<path class="st9" d="M47.9,39.5L47.9,39.5c-0.1,0-0.1,0-0.1,0c0.2-0.4,0.3-0.9,0.5-1.3c0.1,0,0.2,0,0.3-0.1
	C48.3,38.6,48.1,39.1,47.9,39.5z"/>
<path class="st15" d="M41.9,51.9c0.2-0.3,0.5-0.7,0.7-1c-0.2,0.4-0.4,0.9-0.7,1.3C41.9,52.1,41.9,52,41.9,51.9z"/>
<path class="st9" d="M21.6,54.1c0.4,0.2,0.9,0.3,1.3,0.5C22.5,54.4,22.1,54.3,21.6,54.1z"/>
<path class="st9" d="M29.5,56.5c-0.1,0-0.2,0.1-0.2,0.1c-0.3-0.1-0.6-0.3-0.9-0.4C28.7,56.3,29.1,56.4,29.5,56.5z"/>
<path class="st15" d="M33.9,57.9c-0.2-0.1-0.4-0.2-0.6-0.4c0.1-0.1,0.2-0.1,0.3-0.2l0,0c0,0,0,0,0,0c0.1,0,0.2,0,0.2,0
	c0.1,0.2,0.2,0.3,0.2,0.5C34,57.9,34,57.9,33.9,57.9z"/>
<path class="st15" d="M39.7,56.9c0.2-0.4,0.3-0.7,0.5-1.1C40,56.2,39.8,56.6,39.7,56.9z"/>
<path class="st14" d="M31.3,57.9c0.1-0.2,0.1-0.5,0.2-0.7c0.1,0,0.1,0,0.2,0c0,0.3-0.1,0.5-0.1,0.8C31.4,58,31.3,58,31.3,57.9z"/>
<path class="st9" d="M25.8,55.4c0.2,0.1,0.4,0.1,0.6,0.2C26.2,55.5,26,55.5,25.8,55.4z"/>
<path class="st9" d="M27.5,55.9c0.2,0.1,0.4,0.1,0.6,0.2C27.9,56,27.7,56,27.5,55.9z"/>
<path class="st9" d="M26.6,55.7c0.2,0.1,0.4,0.1,0.6,0.2C27,55.8,26.8,55.7,26.6,55.7z"/>
<path class="st15" d="M40.2,55.8c0.1-0.2,0.2-0.4,0.3-0.7C40.4,55.3,40.3,55.5,40.2,55.8z"/>
<path class="st15" d="M38.6,59c0.1-0.2,0.2-0.4,0.3-0.6C38.8,58.7,38.7,58.8,38.6,59z"/>
<path class="st9" d="M25,55.2c0.2,0.1,0.3,0.1,0.5,0.2C25.3,55.3,25.2,55.2,25,55.2z"/>
<path class="st15" d="M42.6,50.7c0.1-0.2,0.2-0.4,0.3-0.6C42.8,50.3,42.7,50.5,42.6,50.7z"/>
<path class="st15" d="M43.2,49.6c0.1-0.1,0.1-0.3,0.2-0.4C43.3,49.3,43.2,49.4,43.2,49.6z"/>
<path class="st15" d="M41.5,53.1c0.1-0.1,0.1-0.2,0.2-0.4C41.6,52.9,41.5,53,41.5,53.1z"/>
<path class="st15" d="M39,58.4c0.1-0.1,0.1-0.3,0.2-0.4C39.1,58.1,39,58.2,39,58.4z"/>
<path class="st15" d="M39.2,57.9c0.1-0.1,0.1-0.2,0.2-0.4C39.3,57.7,39.3,57.8,39.2,57.9z"/>
<path class="st6" d="M48.8,38.1c0.1,0,0.2-0.1,0.2-0.1C48.9,38.1,48.9,38.1,48.8,38.1z"/>
<path class="st5" d="M42,25.5c0,0.1-0.1,0.1-0.1,0.2C41.9,25.6,42,25.6,42,25.5z"/>
<path class="st13" d="M34.3,57.9c0,0,0,0.1,0,0.1c-0.1,0-0.1-0.1-0.2-0.1C34.2,57.9,34.2,57.9,34.3,57.9z"/>
<path class="st16" d="M32.2,25c0.9,0.8,1.9,1.5,2.8,2.3c0.2,0.1,0.3,0.4,0.4,0.5c-0.6,0.1-1.2,0.3-1.8,0.4c0,0.1,0,0.1,0,0.2
	c0.6,0.2,1.1,0.3,1.9,0.5c-1,0.2-1.8,0.4-2.7,0.6c0,0.1,0,0.1,0,0.2c1.2,0.4,2.4,0.9,3.7,1.4c-0.8,0.1-1.5,0.2-2.1,0.2
	c0,0,0,0.1,0,0.1c0.7,0.4,1.4,0.9,2.1,1.4c-0.4,0.2-0.6,0.3-1,0.5c0.5,0.4,0.8,0.7,1.2,1c-0.3,0.6-0.7,1.2-1,1.8c0-0.2,0-0.4,0-0.7
	c-0.1-0.8-0.3-1.6-1-2.2c-0.1-0.1-0.1-0.3-0.2-0.4c-1.3-1.6-3.1-2.4-4.9-3.1c0,0-0.1-0.1-0.1-0.1c0,0-0.1-0.1-0.1-0.1
	c-0.4-0.9-0.8-1.8-1.1-2.6c0.2-0.1,0.5-0.3,0.7-0.4c-0.2-0.2-0.4-0.5-0.6-0.7c-0.1-0.1-0.2-0.2-0.3-0.3c-0.8-0.7-1.2-1.6-1.1-2.7
	c0.7,0.2,1.3,0.5,2,0.7c-0.4,0.2-0.7,0.3-1.1,0.5c0,0.7,0.5,1,1.1,1.2c0.6,0.2,1,0.9,0.9,1.5c-0.1,0.4-0.1,0.9,0.5,0.9
	c0.6,0.1,1.4-0.4,1.4-0.8c-0.1-0.5-0.2-1.1-0.3-1.6c0.1,0,0.2-0.1,0.4-0.1C32,25,32.1,25.1,32.2,25z"/>
<path class="st5" d="M20.2,15.6c0-0.4,0-0.8,0-1.4c1.4,1.4,2.9,2,4.6,2.2c1.4,0.1,2.9,0,4.3,0c-0.1,0.5-0.2,1-0.4,1.4
	c-0.3,0.6-0.8,1.2-1.2,1.8c-0.1,0.2-0.4,0.3-0.6,0.4c-1.6-0.1-3.2-0.3-4.7-0.4c-0.5-0.2-1-0.4-1.5-0.7c0-0.1,0-0.1,0-0.2
	c1.3-0.2,2.6-0.5,3.9-0.7c0,0,0-0.1,0-0.1c-1.2-0.2-2.4-0.4-3.6-0.6c0,0,0-0.1,0-0.1c0.5-0.2,1-0.3,1.5-0.5c0,0,0-0.1,0-0.1
	c-0.7-0.2-1.5-0.4-2.2-0.7C20.2,15.7,20.2,15.7,20.2,15.6z"/>
<path class="st17" d="M24.7,44.4c-1.5,0.3-3,0.5-4.5,0.2c-0.1-0.1-0.1-0.1-0.2-0.2c0.2-0.1,0.3-0.1,0.4-0.2c0.2-0.2,0.4-0.5,0.6-0.7
	c-0.2-0.2-0.5-0.5-0.8-0.6c-1-0.5-1.8-0.1-2.6,0.5c-0.7-0.1-1.4-0.1-2-0.2c0,0,0-0.1,0-0.1c0.8-0.4,1.6-0.8,2.4-1.2
	c0-0.1,0-0.1-0.1-0.2c-1.5,0-2.9,0-4.4,0c0,0,0-0.1,0-0.1c0.9-0.4,1.7-0.9,2.6-1.3c0,0,0-0.1,0-0.1c-0.7,0.1-1.4,0.1-2.1,0.2
	c0.1-0.1,0.3-0.3,0.4-0.4c0.7-0.5,1.4-0.9,2.2-1.3c0,0,0,0,0.1,0c0.1,0.2,0.1,0.4,0.2,0.5c0.9,1.4,2.2,2.3,3.7,3
	c1.1,0.5,2.3,0.7,3.5,1.1c0.3,0.3,0.7,0.6,1,0.9c0.1,0.1,0.2,0.2,0.2,0.3c-0.1,0-0.1,0-0.2,0C25,44.4,24.9,44.4,24.7,44.4z"/>
<path class="st18" d="M14.1,40.3c0.7-0.1,1.4-0.1,2.1-0.2c0,0,0,0.1,0,0.1c-0.9,0.4-1.7,0.9-2.6,1.3c0,0,0,0.1,0,0.1
	c1.5,0,2.9,0,4.4,0c0,0.1,0,0.1,0.1,0.2c-0.8,0.4-1.6,0.8-2.4,1.2c0,0,0,0.1,0,0.1c0.7,0.1,1.4,0.1,2,0.2c-0.1,0.2-0.2,0.4-0.3,0.6
	c-0.5-0.1-1.1-0.3-1.6-0.4c-0.2-0.1-0.3-0.2-0.5-0.3c-2.1-0.7-3.7-2.1-5.1-3.7c-1.2-1.4-1.8-3-1.1-4.8c0.1-0.1,0.1-0.1,0.2-0.2
	c0,0.2,0,0.4-0.1,0.5c-0.3,1,0,1.5,0.8,1.6c0,0,0,0.1,0.1,0.1c-0.2,0.2-0.3,0.3-0.7,0.6c0.9,0,1.6,0,2.4,0c0,0.2,0.1,0.3,0.1,0.5
	c0,0.1,0.1,0.2,0.1,0.3c0.1,0.7,0.1,1.4,0.3,2c0.2,0.7,0.6,0.7,1.1,0.3C13.6,40.5,13.9,40.4,14.1,40.3z"/>
<path class="st19" d="M28.4,26.8c0.4,0.9,0.8,1.8,1.1,2.6c-0.2-0.1-0.4-0.1-0.6-0.2c-0.7-0.2-1.3-0.3-2-0.5
	c-0.2-0.2-0.4-0.3-0.7-0.5c-0.1-2-0.7-3.7-2.6-4.6c-0.9-0.5-2-0.6-3.1-0.9c0.8-0.2,1.6-0.4,2.5-0.5c1.1,0.1,2.2,0.1,3.3,0.2
	c-0.1,0.2-0.1,0.4-0.2,0.5C25.6,25,26.5,26.6,28.4,26.8z"/>
<path class="st20" d="M32.2,25c-0.1,0-0.2,0-0.3,0c-0.1,0-0.3,0.1-0.4,0.1c0.1,0.6,0.3,1.1,0.3,1.6c0,0.4-0.8,0.9-1.4,0.8
	c-0.6-0.1-0.6-0.5-0.5-0.9c0.1-0.6-0.3-1.3-0.9-1.5C28.5,24.9,28,24.6,28,24c0.4-0.2,0.8-0.4,1.1-0.5c0.6-0.3,1.3-0.5,1.9-0.8
	c0.9-0.4,1-0.4,1.5,0.5C33,24.1,33,24.1,32.2,25z"/>
<path class="st19" d="M36.9,34.3c-0.4-0.3-0.8-0.6-1.2-1c0.4-0.2,0.6-0.3,1-0.5c-0.8-0.5-1.5-0.9-2.1-1.4c0,0,0-0.1,0-0.1
	c0.7-0.1,1.3-0.2,2.1-0.2c-1.3-0.5-2.5-0.9-3.7-1.4c0-0.1,0-0.1,0-0.2c0.8-0.2,1.7-0.3,2.7-0.6c-0.8-0.2-1.3-0.4-1.9-0.5
	c0-0.1,0-0.1,0-0.2c0.6-0.1,1.2-0.3,1.8-0.4c1.5,1.7,2.4,3.6,1.7,5.9C37.1,34,37,34.1,36.9,34.3z"/>
<path class="st17" d="M34.9,33.1c0.6,0.6,0.9,1.4,1,2.2c0,0.2,0,0.4,0,0.7c0,1.1-0.5,2.1-1.1,3c-0.5-0.3-1-0.5-1.5-0.8
	c0.3-0.1,0.6-0.1,0.9-0.2c0,0,0-0.1,0-0.1c-0.9-0.3-1.8-0.6-2.7-0.8c0,0,0-0.1,0-0.1c1.2-0.3,2.5-0.5,3.7-0.8c0-0.1,0-0.1,0-0.2
	c-0.9-0.3-1.8-0.5-2.7-0.8c0,0,0-0.1,0-0.1c0.8-0.2,1.6-0.5,2.4-0.7c0-0.1,0-0.1,0-0.2c-0.5-0.3-1-0.5-1.5-0.9
	C34,33.3,34.5,33.2,34.9,33.1z"/>
<path class="st21" d="M35.5,39.6c0.5,0.5,0.1,1,0,1.5c-2.5,0.2-4.8-0.5-7.2-1.1c0.3-0.6,0.2-1.3,0.9-1.7c1.2,1.2,2.6,1.7,4.3,1.5
	c0.8-0.1,1.5,0.2,2.1,0.9C35.5,40.1,35.5,39.9,35.5,39.6z"/>
<path class="st22" d="M35.5,39.6c0,0.3,0,0.6,0,1c-0.6-0.7-1.3-1-2.1-0.9c-1.7,0.2-3.1-0.3-4.3-1.5c1.1-0.7,2.3-0.9,3.5-0.2
	c0.2,0.1,0.5,0.2,0.7,0.3c0.5,0.3,1,0.5,1.5,0.8C35,39.2,35.3,39.4,35.5,39.6z"/>
<path class="st23" d="M25.3,44.3c-0.1-0.1-0.1-0.2-0.2-0.3c-0.3-0.3-0.7-0.6-1-0.9c0-0.5,0.3-0.8,0.8-0.9c1.1-0.3,2.1-0.1,3.1,0.3
	c0.2,0.3,0.4,0.5,0.5,0.8c-0.4,0.7-1.1,0.9-1.8,1C26.2,44.2,25.8,44.2,25.3,44.3z"/>
<path class="st6" d="M40.5,31.9c0.4,0.2,0.8,0.5,1.2,0.7c0.3,0.1,0.6,0.2,0.8,0.5c-0.4,0.1-0.9,0.1-1.3,0.2c0,0,0,0.1,0,0.1
	c0.6,0.2,1.3,0.5,1.9,0.7c0.6,0.2,1.3,0.5,1.9,0.8c-1.2,0-2.4,0-3.7,0c0.6,0.7,1.1,1.2,1.6,1.7c0,0,0,0.1-0.1,0.1
	c-0.6-0.2-1.3-0.4-1.9-0.6c-0.1,0-0.1-0.1-0.2-0.1c0-1,0-2.1,0-3.1C40.6,32.6,40.6,32.3,40.5,31.9z"/>
<path class="st17" d="M28.5,43.2c-0.2-0.3-0.4-0.5-0.5-0.8c0.3-0.1,0.7-0.2,1.2-0.3c-1.9-0.4-3.6-0.8-5.4-1.2c0-0.1,0-0.1,0-0.2
	c0.5,0,0.9,0,1.4,0c0.8,0.4,1,0.4,1.6-0.2c0.4,0,0.8,0,1.3,0c0.2,0.5,0.6,0.9,1.2,0.9c0.9,0,1.7,0.2,2.6,0.3
	c-0.4,0.2-0.9,0.3-1.3,0.5C30,42.5,29.3,42.8,28.5,43.2z"/>
<path class="st20" d="M28.4,26.8c-1.9-0.2-2.8-1.8-2.2-3.7c0.1-0.2,0.1-0.4,0.2-0.5c0.1-0.1,0.3-0.2,0.5-0.4
	c0.1,0.2,0.2,0.4,0.3,0.6c-0.1,1.1,0.3,2,1.1,2.7c0.1,0.1,0.2,0.2,0.3,0.3c0.2,0.2,0.4,0.5,0.6,0.7C28.9,26.5,28.6,26.7,28.4,26.8z"
	/>
<path class="st6" d="M20.2,15.8c0.7,0.2,1.5,0.4,2.2,0.7c0,0,0,0.1,0,0.1c-0.5,0.2-1,0.3-1.5,0.5c0,0,0,0.1,0,0.1
	c1.2,0.2,2.4,0.4,3.6,0.6c0,0,0,0.1,0,0.1c-1.3,0.2-2.6,0.5-3.9,0.7c0,0.1,0,0.1,0,0.2c0.5,0.2,1,0.4,1.5,0.7c-0.2,0-0.4,0-0.6,0.1
	c-0.1,0-0.2,0-0.2,0c-0.1,0-0.2,0-0.3,0c-0.3,0-0.5-0.1-0.8-0.1C20.2,18.3,20.2,17,20.2,15.8z"/>
<path class="st24" d="M32,41.6c-0.9-0.1-1.7-0.3-2.6-0.3c-0.7,0-1-0.4-1.2-0.9c0-0.1,0-0.2,0-0.3c0,0,0.1-0.1,0.1-0.1l0,0
	c2.4,0.6,4.7,1.4,7.2,1.1c0,0.6-0.3,0.9-0.9,0.8C33.7,41.8,32.8,41.7,32,41.6z"/>
<path class="st23" d="M17.5,44c0.1-0.2,0.2-0.4,0.3-0.6c0.8-0.6,1.6-1,2.6-0.5c0.3,0.1,0.5,0.4,0.8,0.6c-0.2,0.2-0.4,0.5-0.6,0.7
	c-0.1,0.1-0.3,0.1-0.4,0.2c0.1,0.1,0.1,0.2,0.2,0.2c-0.7,0-1.3,0-2,0C17.8,44.7,17.5,44.5,17.5,44z"/>
<path class="st25" d="M38.1,27.7c-1-0.2-1.9-0.2-2.7-0.5c-0.4-0.1-0.8-0.5-0.8-0.9c-0.2-0.8-0.2-1.6-0.3-2.4c0.1,0,0.1,0,0.2-0.1
	c0.4,0.3,0.8,0.6,1,1c0.2,0.4,0,0.9,0,1.4C36.9,26.5,37.3,26.7,38.1,27.7z"/>
<path class="st25" d="M29.1,45.6c0.5-0.7,0.8-1.5,1.4-2.1c0.3-0.3,0.8-0.6,1.2-0.5c0.8,0.1,1.5,0.4,2.4,0.7c-0.9,0.8-1.8,1-2.7,0
	C31.2,45.1,30,45.2,29.1,45.6z"/>
<path class="st9" d="M19,48.5c-0.1-0.1-0.2-0.2-0.2-0.3c2.1,0.4,4.3,0.6,6.4,0.2c1.5-0.2,3-0.6,4.4-0.9c-0.7,0.2-1.4,0.6-2.1,0.7
	c-2.1,0.5-4.3,0.6-6.5,0.5C20.4,48.7,19.7,48.6,19,48.5z"/>
<path class="st9" d="M40.6,36c0.1,0,0.1,0.1,0.2,0.1c0,0,0,0.1,0,0.1c-0.3,0.7-0.5,1.4-0.8,2.1c-0.1,0.2-0.3,0.4-0.4,0.6
	C40,38,40.3,37,40.6,36z"/>
<path class="st9" d="M32.4,46.3c-0.1,0.1-0.3,0.3-0.4,0.4c-0.8,0.3-1.4,0.9-2.3,0.9C30.5,47.1,31.5,46.7,32.4,46.3z"/>
<path class="st9" d="M39.6,39c-0.2,0.4-0.5,0.8-0.7,1.2C39.1,39.9,39.4,39.5,39.6,39z"/>
<path class="st9" d="M36.4,43.3c-0.3,0.3-0.7,0.6-1,0.9C35.7,43.9,36,43.6,36.4,43.3z"/>
<path class="st9" d="M33.7,45.4c-0.2,0.2-0.5,0.3-0.7,0.5C33.3,45.7,33.5,45.6,33.7,45.4z"/>
<path class="st9" d="M38.4,41c-0.2,0.2-0.3,0.4-0.5,0.6C38.1,41.5,38.2,41.3,38.4,41z"/>
<path class="st9" d="M34.7,44.7c-0.2,0.1-0.3,0.2-0.5,0.4C34.4,44.9,34.6,44.8,34.7,44.7z"/>
<path class="st9" d="M37.8,41.8c-0.1,0.2-0.3,0.3-0.4,0.5C37.5,42.1,37.6,42,37.8,41.8z"/>
<path class="st9" d="M35.4,44.2c-0.2,0.1-0.3,0.2-0.5,0.4C35,44.4,35.2,44.3,35.4,44.2z"/>
<path class="st9" d="M34.2,45c-0.1,0.1-0.2,0.2-0.3,0.3C34,45.2,34.1,45.1,34.2,45z"/>
<path class="st9" d="M33,45.9c-0.1,0.1-0.2,0.2-0.4,0.2C32.7,46.1,32.9,46,33,45.9z"/>
<path class="st9" d="M38.6,40.7c-0.1,0.1-0.2,0.2-0.2,0.4C38.5,40.9,38.5,40.8,38.6,40.7z"/>
<path class="st23" d="M24.7,44.4c0.2,0,0.3-0.1,0.5-0.1C25,44.4,24.9,44.4,24.7,44.4z"/>
<path class="st9" d="M38.9,40.3c0,0.1-0.1,0.1-0.1,0.2C38.8,40.4,38.8,40.4,38.9,40.3z"/>
<path class="st9" d="M32.6,46.2c-0.1,0-0.2,0.1-0.2,0.1C32.5,46.2,32.5,46.2,32.6,46.2z"/>
<path class="st9" d="M37.9,41.7c0,0-0.1,0.1-0.1,0.1C37.8,41.7,37.8,41.7,37.9,41.7z"/>
<path class="st9" d="M37.4,42.3c0,0-0.1,0.1-0.1,0.1C37.3,42.4,37.3,42.3,37.4,42.3z"/>
<path class="st9" d="M37.1,42.6c0,0-0.1,0.1-0.1,0.1C37.1,42.6,37.1,42.6,37.1,42.6z"/>
<path class="st9" d="M36.9,42.8c0,0-0.1,0.1-0.1,0.1C36.8,42.9,36.8,42.8,36.9,42.8z"/>
<path class="st9" d="M36.6,43c0,0-0.1,0.1-0.1,0.1C36.5,43.1,36.6,43.1,36.6,43z"/>
<path class="st9" d="M36.5,43.2c0,0-0.1,0.1-0.1,0.1C36.4,43.2,36.5,43.2,36.5,43.2z"/>
<path class="st9" d="M34.9,44.5c0,0-0.1,0.1-0.1,0.1C34.8,44.6,34.8,44.6,34.9,44.5z"/>
<path class="st9" d="M33.9,45.3c0,0-0.1,0.1-0.1,0.1C33.8,45.4,33.8,45.3,33.9,45.3z"/>
<path class="st9" d="M38.7,40.5c0,0-0.1,0.1-0.1,0.1C38.7,40.6,38.7,40.6,38.7,40.5z"/>
<path class="st9" d="M39.8,48.3c0.2,0.1,0.4,0.1,0.5,0.2c-0.9,0.5-1.8,0.6-2.8,0.2c-2.7-1.2-5.3-0.8-7.9,0.2c-0.1,0-0.2,0.1-0.4,0.1
	c0.6-0.3,1.2-0.7,1.9-0.8c1-0.2,2-0.4,3-0.4c1.1,0,2.3,0.2,3.4,0.7c0.7,0.3,1.4,0.4,2.1,0.1C39.7,48.5,39.7,48.4,39.8,48.3z"/>
<path class="st9" d="M27,51.2c-0.3,0.8-0.3,1.6-0.1,2.4C26.3,52.8,26.4,51.7,27,51.2z"/>
<path class="st9" d="M27.1,53.9c0.1,0,0.2,0.1,0.2,0.1l0,0c0,0,0.1,0.1,0.1,0.1l0,0c0.2,0.2,0.3,0.4,0.5,0.6
	C27.5,54.7,27.2,54.4,27.1,53.9z"/>
<path class="st9" d="M29.3,48.9c-0.3,0.2-0.5,0.3-0.8,0.5C28.8,49.2,29,49.1,29.3,48.9z"/>
<path class="st9" d="M27.9,49.9c-0.1,0.2-0.3,0.3-0.4,0.5C27.6,50.2,27.8,50.1,27.9,49.9z"/>
<path class="st9" d="M28.8,55.3c0.2,0.1,0.3,0.2,0.5,0.3C29.1,55.4,28.9,55.4,28.8,55.3z"/>
<path class="st9" d="M26.9,53.5c0.1,0.1,0.2,0.3,0.2,0.4C27,53.8,27,53.7,26.9,53.5z"/>
<path class="st9" d="M28.1,49.7c-0.1,0.1-0.2,0.2-0.3,0.3C28,49.8,28.1,49.8,28.1,49.7z"/>
<path class="st9" d="M28.5,49.4c-0.1,0.1-0.2,0.2-0.4,0.3C28.3,49.6,28.4,49.5,28.5,49.4z"/>
<path class="st9" d="M27.5,50.4c-0.1,0.1-0.1,0.2-0.2,0.3C27.3,50.6,27.4,50.5,27.5,50.4z"/>
<path class="st9" d="M27.1,50.9c0,0.1-0.1,0.2-0.1,0.2C27,51.1,27.1,51,27.1,50.9z"/>
<path class="st9" d="M27.3,50.7c0,0.1-0.1,0.2-0.1,0.2C27.2,50.8,27.2,50.8,27.3,50.7z"/>
<path class="st9" d="M28.1,54.9c0.1,0,0.2,0.1,0.2,0.1C28.3,55,28.2,54.9,28.1,54.9z"/>
<path class="st9" d="M28.5,55.1c0.1,0,0.2,0.1,0.2,0.1C28.7,55.2,28.6,55.2,28.5,55.1z"/>
<path class="st9" d="M30.2,56.4c-0.1,0-0.2,0.1-0.3,0.1C30,56.5,30.1,56.5,30.2,56.4z"/>
<path class="st9" d="M28.4,55c0,0,0.1,0.1,0.1,0.1C28.5,55.1,28.4,55.1,28.4,55z"/>
<path class="st9" d="M29.9,56.5c0,0-0.1,0.1-0.1,0.1c0,0,0-0.1,0-0.1C29.8,56.5,29.8,56.5,29.9,56.5z"/>
<path class="st9" d="M28,54.8c0,0,0.1,0.1,0.1,0.1C28.1,54.9,28,54.8,28,54.8z"/>
<path class="st15" d="M20.5,22.9c1,0.3,2.1,0.4,3.1,0.9c1.9,0.9,2.5,2.6,2.6,4.6c-0.2-0.2-0.5-0.4-0.5-0.6c-0.3-1.5-1.5-1.7-2.7-1.7
	c-0.4,0-0.7,0-1.1,0c-0.1-0.6-0.1-1.2-0.2-2c-0.5-0.3-0.7-0.3-1,0.1c0.5,0.4,0.7,1.1,0.3,2.1c-0.3,0.1-0.6,0.2-0.8,0.3
	c-0.2,0.1-0.5,0.1-0.6,0c-0.1-0.1-0.1-0.4-0.1-0.6c0-0.3,0-0.6,0-0.9c-0.9,0.4-1.1,1.2-0.6,1.9c0.1,0.1,0.2,0.3,0.3,0.4
	c0.1,0.1,0,0.3,0.1,0.4c-0.1-0.1-0.3-0.1-0.4-0.2c-0.2-0.2-0.3-0.4-0.6-0.5c-0.4-0.1-0.8-0.2-1.2-0.2c-0.3-0.3-0.7-0.6-1-0.8
	c-0.1,0-0.2,0-0.3,0.1c0,0,0,0.2,0.1,0.3c0.4,0.2,0.8,0.3,1.2,0.4c0.2,0.3,0.4,0.5,0.5,0.7c-0.5-0.1-1-0.2-1.5-0.2
	c-0.3-0.4-0.7-0.8-1-1.3c0-0.1,0.2-0.2,0.4-0.5c-0.4,0-0.6,0-0.9,0c0,1.1,0.4,1.8,1.5,1.8c0.1,0.2,0.2,0.5,0.3,0.7
	c-0.1,0.1-0.2,0.3-0.3,0.5c-0.1,0.4-0.3,0.8,0.3,1c-0.1,0.2-0.2,0.3-0.4,0.5c-1,0.4-1.9,0.8-2.9,1.2c-0.1,0-0.2-0.1-0.2-0.1
	c-0.3-1.2-0.4-2.5,0.1-3.6c0.5-1.1,1.3-2.1,2-3.1c0.2-0.4,0.6-0.7,0.8-1C17.5,22.9,19,22.9,20.5,22.9z M18.3,24.8
	c0.9,0.3,1.5,0.1,1.9-0.7c0.1-0.1,0-0.3,0.1-0.4c-0.2,0-0.4-0.1-0.5,0c-0.3,0.2-0.5,0.5-0.7,0.8c-0.3-0.4-0.7-0.7-1.1-1.2
	c-0.1,0.7-0.3,1.3-0.3,1.8c0,0.5,0.3,0.9,0.5,1.5C18.9,25.9,18.5,25.4,18.3,24.8z M16.1,24.8c-0.2,0.1-0.4,0.2-0.4,0.3
	c0,0.2,0.1,0.4,0.2,0.5c0.4,0.2,0.8,0.4,1.2,0.6c0.1,0.1,0.3,0,0.4,0c0-0.2,0-0.4-0.1-0.5C17,25.4,16.5,25.1,16.1,24.8z M16.1,27.9
	c-0.6-0.2-1.2-0.2-1.7,0c0,0,0,0.4,0.1,0.5C15,28.7,15.7,28.5,16.1,27.9z M19.8,25.8c0.1,0.2,0.2,0.3,0.2,0.5
	c0.1-0.1,0.4-0.2,0.4-0.3c0.2-0.3,0.3-0.6,0.4-1c0-0.1-0.1-0.3-0.2-0.4c0,0-0.3,0-0.3,0.1C20.2,25.1,20,25.5,19.8,25.8z M15.8,29.8
	c-0.4-0.3-0.6-0.6-0.9-0.8c0,0-0.2,0.2-0.4,0.3c0.3,0.3,0.5,0.6,0.8,0.8C15.4,30.1,15.6,29.9,15.8,29.8z M22.7,24.5
	c-0.2,0.2-0.4,0.3-0.5,0.4c0.2,0.2,0.5,0.4,0.7,0.5c0.1,0,0.2-0.2,0.3-0.3C23,24.9,22.9,24.7,22.7,24.5z M14.5,27.5
	c0-0.1,0-0.1,0-0.2c-0.2,0-0.4-0.1-0.6,0c-0.3,0.2-0.7,0.4-0.4,1C13.8,28,14.1,27.7,14.5,27.5z M16.9,24c-0.2,0.2-0.3,0.3-0.4,0.4
	c0.2,0.1,0.3,0.3,0.5,0.4c0,0,0.3-0.3,0.3-0.3C17.3,24.4,17.1,24.2,16.9,24z"/>
<path class="st4" d="M16.1,23.4c-0.3,0.3-0.6,0.7-0.8,1c-0.7,1-1.5,2-2,3.1c-0.5,1.1-0.4,2.4-0.1,3.6c0,0.1,0.1,0.1,0.2,0.1
	c-0.5,0.3-1,0.6-1.5,0.9c-0.9,0.7-2,1.3-2.5,2.4c-0.1,0.1-0.1,0.1-0.2,0.2c-0.5-1.4-0.7-2.9-0.3-4.4c0.6-0.1,1.1-0.2,1.7-0.3
	c0,0,0-0.1,0-0.1c-0.3-0.1-0.6-0.1-0.8-0.2c0,0,0-0.1,0-0.1c0.8-0.3,1.7-0.5,2.5-0.8c0,0,0-0.1,0-0.1c-0.8-0.1-1.6-0.2-2.3-0.3
	c0-0.1,0-0.1,0-0.2c1-0.4,2-0.8,3-1.2c0,0,0-0.1,0-0.1c-0.6-0.1-1.2-0.1-1.7-0.2c0-0.1,0-0.1,0-0.2c0.5-0.2,1-0.5,1.6-0.7
	c0,0,0-0.1,0-0.1c-0.2-0.1-0.5-0.1-0.6-0.1c0.2-0.3,0.3-0.5,0.4-0.8c0,0,0,0,0,0c0.1,0,0.1-0.1,0.2-0.1C13.7,24,14.8,23.5,16.1,23.4
	z"/>
<path class="st26" d="M20.2,15.8c0,1.2,0,2.5,0,3.7c-0.4,0.1-0.7,0.2-1.1,0.2c-0.7-1.6-1.5-3.2-2.1-4.8c-0.3-0.7-0.4-1.5,0.3-2
	c0.6-0.5,1.3-0.2,1.9,0.1c0.3,0.1,0.6,0.3,0.9,0.4c0,0.7,0,1.5,0.1,2.2C20.2,15.7,20.2,15.7,20.2,15.8z"/>
<path class="st27" d="M12.4,24.8c-0.1,0.3-0.3,0.5-0.4,0.8c0.1,0,0.3,0.1,0.6,0.1c0,0,0,0.1,0,0.1c-0.5,0.2-1,0.5-1.6,0.7
	c0,0.1,0,0.1,0,0.2c0.6,0.1,1.2,0.1,1.7,0.2c0,0,0,0.1,0,0.1c-1,0.4-2,0.8-3,1.2c0,0.1,0,0.1,0,0.2c0.8,0.1,1.6,0.2,2.3,0.3
	c0,0,0,0.1,0,0.1c-0.8,0.3-1.7,0.5-2.5,0.8c0,0,0,0.1,0,0.1c0.3,0.1,0.6,0.1,0.8,0.2c0,0,0,0.1,0,0.1c-0.6,0.1-1.1,0.2-1.7,0.3
	C9,27.9,10.1,26,12.4,24.8z"/>
<path class="st25" d="M20.7,20.4c-0.5,0.7-1.1,1.4-1.7,2.1c-0.2,0.2-0.7,0.3-1,0.2c-0.8-0.3-1.5-0.7-2.3-1c0-0.1,0-0.1,0-0.2
	c0.5-0.1,1-0.4,1.4-0.3c0.4,0.1,0.8,0.4,1.3,0.7C18.8,20.8,19.8,20.7,20.7,20.4L20.7,20.4z"/>
<path class="st25" d="M15.6,46.2c-1.2-0.3-1.8-0.9-1.7-1.9c-0.6,0-1,0-1.5-0.1c-0.4-0.1-0.9-0.4-1.3-0.7c0.9-0.1,1.8-0.2,2.7-0.2
	c0.3,0,0.7,0.3,0.8,0.6C15.1,44.6,15.3,45.3,15.6,46.2z"/>
<path class="st25" d="M6.9,36.7c-0.6-1.1-0.4-2,0.7-2.6c-1.2-0.5-1.1-1.6-1.2-2.5c0.6,0.6,1.3,1.3,1.8,2c0.2,0.3,0.2,0.8,0,1.1
	C7.8,35.4,7.4,36,6.9,36.7z"/>
<path class="st27" d="M12.6,24.7c-0.1,0-0.1,0.1-0.2,0.1C12.5,24.8,12.5,24.7,12.6,24.7z"/>
<path class="st0" d="M21,19.7c0.1,0,0.2,0,0.3,0C21.2,19.6,21.1,19.6,21,19.7z"/>
<path class="st25" d="M20.7,20.4C20.8,20.4,20.8,20.4,20.7,20.4C20.8,20.4,20.8,20.4,20.7,20.4C20.8,20.4,20.8,20.4,20.7,20.4
	C20.7,20.4,20.7,20.4,20.7,20.4z"/>
<path class="st2" d="M27.4,54c0-0.2-0.1-0.4-0.1-0.5c-0.4-1.2-0.1-2.3,0.9-3c2.5-1.8,5.3-2.6,8.3-1.6c2.4,0.8,2.4,3,1.5,4.6
	c-0.6,1.1-2.1,1.4-3.4,0.7c-1-0.5-1.9-1.2-2.8-1.7c-0.5-0.3-1-0.5-1.5-0.7c-1.2-0.4-2,0.3-2.2,1.5c0,0.3,0,0.6,0,1
	c-0.2,0-0.4-0.1-0.6-0.1c0,0,0,0,0,0C27.5,54.1,27.4,54.1,27.4,54L27.4,54z M36.2,53.5c0.9-0.9,1.2-2.4,0.6-3.3
	c-0.8-1.2-3.3-1.5-4.4-0.7c-0.4,0.3-0.4,0.6,0,0.9c0.3,0.2,0.6,0.4,0.9,0.6C34.2,51.8,35.2,52.6,36.2,53.5z"/>
<path class="st27" d="M36.6,57.1c0.5-0.1,0.9-0.1,1.5-0.2c-0.2,0.4-0.3,0.7-0.4,1c0,0-0.1,0-0.1,0c0-0.2-0.1-0.4-0.1-0.7
	c-0.1,0-0.1,0-0.2-0.1c-0.1,0.2-0.2,0.4-0.3,0.6c-0.2,0-0.4,0.1-0.6,0.1c-0.2,0-0.6,0.1-0.6,0c-0.1-0.2-0.2-0.6,0-0.7
	C35.9,57,36.3,57,36.6,57.1C36.6,57,36.7,57.1,36.6,57.1z"/>
<path class="st28" d="M33.9,57.4c-0.1,0-0.2,0-0.2,0c-0.1-0.1-0.3-0.3-0.4-0.4c0,0,0,0,0,0c0.2,0,0.3,0,0.5,0c0,0,0,0,0,0
	c0,0,0.1,0.1,0.1,0.1C33.9,57.2,33.9,57.3,33.9,57.4z"/>
<path class="st28" d="M33.5,57.4c-0.1,0.1-0.2,0.1-0.3,0.2c-0.1-0.1-0.2-0.3-0.3-0.4c0.1,0,0.1-0.1,0.2-0.1
	C33.3,57.2,33.4,57.3,33.5,57.4z"/>
<path class="st27" d="M33.5,57.4c-0.1-0.1-0.3-0.2-0.4-0.4c0,0,0.1,0,0.1,0C33.4,57.2,33.5,57.3,33.5,57.4
	C33.6,57.4,33.6,57.4,33.5,57.4L33.5,57.4z"/>
<path class="st27" d="M33.8,57c-0.2,0-0.3,0-0.5,0C33.4,57,33.6,57,33.8,57z"/>
<path class="st27" d="M33.9,57.1c0,0-0.1-0.1-0.1-0.1C33.8,57.1,33.8,57.1,33.9,57.1z"/>
<path class="st23" d="M21.8,10.4C21,9.6,21,9,21.9,8.3c0.8-0.6,1.7-0.9,2.6-1c2.3-0.5,4.5-0.5,6.7,0.4c0.3,0.1,0.6,0.3,0.9,0.4
	c1.3,0.8,1.2,1.8,0,2.6c-0.3-0.7-0.9-1-1.6-1.2c-2.1-0.5-4.1-0.5-6.2-0.2C23.4,9.5,22.5,9.5,21.8,10.4z"/>
<path class="st18" d="M21.8,10.4c0.6-0.9,1.6-0.9,2.5-1.1c2.1-0.3,4.1-0.3,6.2,0.2c0.7,0.2,1.3,0.5,1.6,1.2c-1,0.8-2.3,0.9-3.5,1.1
	c-1.7,0.3-3.4,0.1-5.1-0.4C22.9,11.2,22.4,10.7,21.8,10.4z"/>
<path class="st26" d="M33,57.9C33,57.9,33,57.9,33,57.9C33,57.9,33,57.9,33,57.9C33,57.9,33,57.9,33,57.9z"/>
<path class="st18" d="M28.1,40.1c0,0.1,0,0.2,0,0.3c-0.4,0-0.8,0-1.3,0c0.1-0.5,0.2-1,0.2-1.5c0-0.2-0.3-0.5-0.4-0.5
	c-0.9,0-1.7,1.3-1.4,2.2c-0.5,0-0.9,0-1.4,0c0,0.1,0,0.1,0,0.2c1.7,0.4,3.4,0.8,5.4,1.2c-0.5,0.1-0.8,0.2-1.2,0.3
	c-1-0.3-2-0.5-3.1-0.3c-0.5,0.1-0.8,0.3-0.8,0.9c-1.2-0.3-2.4-0.6-3.5-1.1c-1.5-0.6-2.7-1.6-3.7-3c-0.1-0.1-0.1-0.3-0.2-0.5
	c0.2,0.1,0.4,0.3,0.6,0.4c0.4,0.2,0.7,0.3,1-0.1c0.4-0.5,0.2-1.3-0.3-1.9c-0.5-0.5-0.7-0.6-1.5-0.2c0.2-0.7-0.4-0.8-0.8-0.9
	c0-0.3,0-0.7,0-1c0.5-0.2,1.1-0.2,1.4-0.9c-0.4-0.3-0.9-0.6-1.3-0.9c0.1-0.5,0.3-0.9,0.4-1.4c0.7,0.4,1.1,0.4,1.6-0.2
	c0.6-0.6,0.9-1.4,0.7-2.2c0.3-0.1,0.6-0.2,0.9-0.3c-0.3,0.4-0.6,0.9-0.2,1.4c-0.5,0.5-1,1-1.3,1.6c-0.4,0.6,0,1.2,0.7,1.2
	c1.2,0,2.1-0.6,2.9-1.5c0.4,0.3,0.7,0.7,1.1,1c0.5,0.4,1,0.6,1.7,0.4c-0.3,0.7-0.6,1.3-0.9,2c-0.1-0.1-0.2-0.1-0.2-0.1
	c-1.5-1.5-3.3-1.5-5.1-0.9c-0.8,0.2-1.1,1-0.6,1.5c0.2,0.3,0.6,0.5,1,0.6c1.7,0.5,3.3,0.4,4.9-0.4c0,0.1,0.1,0.1,0.1,0.2
	c0.2,0.3,0.4,0.7,0.7,0.8c0.4,0.1,0.8-0.2,1-0.6c0.4-0.6,0.7-1.3,1.2-1.8c0.5-0.6,0.7-1.2,0.4-1.9c0.2-0.1,0.4-0.1,0.6-0.2
	c0.8,0.5,1.6,0.6,2.4,0.5c1-0.1,1.4-0.9,0.8-1.7c-0.1-0.2-0.3-0.3-0.5-0.4c-0.7-0.3-1.5-0.5-2.3-0.8c-0.1-0.2-0.3-0.3-0.4-0.5
	c-0.2-0.2-0.4-0.3-0.6-0.5c0.7,0.2,1.3,0.3,2,0.5c0.2,0,0.4,0.1,0.6,0.2c0,0,0.1,0.1,0.1,0.1c0,0,0.1,0.1,0.1,0.1
	c1.8,0.7,3.7,1.5,4.9,3.1c0.1,0.1,0.1,0.2,0.2,0.4c-0.4,0.1-0.9,0.1-1.4,0.2c0.5,0.3,1,0.6,1.5,0.9c0,0.1,0,0.1,0,0.2
	c-0.8,0.2-1.6,0.5-2.4,0.7c0,0,0,0.1,0,0.1c0.9,0.3,1.8,0.5,2.7,0.8c0,0.1,0,0.1,0,0.2c-1.2,0.3-2.5,0.5-3.7,0.8c0,0,0,0.1,0,0.1
	c0.9,0.3,1.8,0.6,2.7,0.8c0,0,0,0.1,0,0.1c-0.3,0.1-0.6,0.1-0.9,0.2c-0.2-0.1-0.5-0.2-0.7-0.3c-1.2-0.7-2.4-0.5-3.5,0.2
	c-0.7,0.4-0.6,1.1-0.9,1.7c0,0,0,0,0,0C28.2,40,28.2,40,28.1,40.1z M30.9,36c0-1.2-1.2-2.7-2.7-2.9c-0.2,0-0.5,0.2-0.6,0.4
	c-0.5,0.7-0.4,1.6,0.2,2.4c0.5,0.7,1.7,1.2,2.4,1C30.6,36.7,31,36.5,30.9,36z M22.4,39.9c0,0,0-0.1,0-0.1c0.3,0,0.5,0,0.8,0
	c0.5-0.1,0.9-0.4,0.9-0.9c0-0.7-0.2-1-0.9-1.2c-1.1-0.2-2.2-0.1-3.1,0.4c-0.3,0.1-0.5,0.5-0.7,0.8c0.3,0.2,0.5,0.5,0.8,0.6
	C20.9,39.6,21.7,39.7,22.4,39.9z M25.5,38.3c0.6-0.2,1.1-0.3,1.6-0.6c0.2-0.1,0.5-0.5,0.5-0.8c-0.1-0.3-0.4-0.6-0.7-0.8
	c-0.8-0.4-1.4,0.2-1.9,0.7c-0.3,0.3-0.5,0.7-0.3,1C24.8,38.1,25.2,38.1,25.5,38.3z"/>
<path class="st19" d="M29.8,29.6c0,0-0.1-0.1-0.1-0.1C29.7,29.6,29.7,29.6,29.8,29.6z"/>
<path class="st24" d="M14.1,40.3c-0.2,0.1-0.4,0.2-0.6,0.4c-0.5,0.4-0.9,0.3-1.1-0.3c-0.2-0.6-0.2-1.3-0.3-2c0,0,0,0,0,0
	c0.3,0.6,0.7,0.7,1.3,0.5c0.9-0.3,1.9-0.6,2.8-0.9c0.1,0,0.1,0,0.2,0c0,0,0,0.1,0.1,0.1c0,0.1,0,0.1,0.1,0.2c0,0.1,0.1,0.2,0.1,0.3
	c-0.7,0.4-1.4,0.9-2.2,1.3C14.3,39.9,14.2,40.1,14.1,40.3z"/>
<path class="st23" d="M16.5,38c0,0,0-0.1-0.1-0.1c0-0.2,0-0.3,0-0.5c0-0.1,0-0.2,0-0.3c0-0.1,0.1-0.3,0.1-0.4l0,0
	c0.7-0.4,1-0.3,1.5,0.2c0.5,0.6,0.7,1.3,0.3,1.9c-0.3,0.4-0.6,0.3-1,0.1c-0.2-0.1-0.4-0.3-0.6-0.4c0,0-0.1,0-0.1,0
	c0-0.1-0.1-0.2-0.1-0.3C16.6,38.1,16.5,38.1,16.5,38z"/>
<path class="st17" d="M16.3,31.6c-0.1,0.5-0.3,0.9-0.4,1.4c-0.5,0-1.1,0-1.6,0.1c-0.5,0.1-0.9,0.3-0.9,0.9c0,0.6,0.5,0.8,1,0.8
	c0.4,0.1,0.9,0,1.4,0c0,0.3,0,0.7,0,1c-1.1-0.1-2.2-0.2-3.3-0.3c-0.4,0-0.6,0.2-0.6,0.6c0,0.5,0,0.9,0,1.4c-0.7,0-1.5,0-2.4,0
	c0.3-0.3,0.5-0.4,0.7-0.6c0,0,0-0.1-0.1-0.1c-0.8-0.1-1.1-0.7-0.8-1.6c0.1-0.2,0-0.4,0.1-0.5c0.5-1.1,1.6-1.7,2.5-2.4
	c0.5-0.3,1-0.6,1.5-0.9c1-0.4,1.9-0.8,2.9-1.2C16.3,30.6,16.3,31.1,16.3,31.6z"/>
<path class="st22" d="M11.9,37.5c0-0.5,0-0.9,0-1.4c0-0.4,0.2-0.6,0.6-0.6c1.1,0.1,2.2,0.2,3.3,0.3c0.4,0.2,1,0.2,0.8,0.9
	c0,0,0,0,0,0c0,0.1-0.1,0.2-0.1,0.3c-0.7-0.5-1.5-0.7-2.4-0.6c-1.1,0-1.8,0.5-2,1.6c0,0-0.1,0-0.1,0C12,37.8,11.9,37.7,11.9,37.5z"
	/>
<path class="st24" d="M12,38c0,0,0.1,0,0.1,0c0,0.1,0,0.2,0,0.2c0,0,0,0,0,0C12.1,38.2,12,38.1,12,38z"/>
<path class="st24" d="M26.8,28.8c0.2,0.2,0.4,0.3,0.6,0.5c0.2,0.1,0.3,0.3,0.4,0.5c-1.3,0.5-1.5,1.4-0.5,2.4
	c-0.2,0.1-0.4,0.1-0.6,0.2c-0.6-1-0.8-1.1-1.6-0.6c-0.2-0.9-0.4-1.8-0.6-2.7c-0.6-1-1.2-2.1-1.8-3.1c0.1,0,0.2,0,0.3-0.1
	c1.2,0.1,2.3,0.3,2.7,1.7c0.1,0.2,0.3,0.4,0.5,0.6C26.4,28.5,26.6,28.7,26.8,28.8z"/>
<path class="st23" d="M25.2,40.7c-0.3-0.9,0.6-2.2,1.4-2.2c0.1,0,0.4,0.3,0.4,0.5c0,0.5-0.1,1-0.2,1.5C26.2,41,26,41.1,25.2,40.7z"
	/>
<path class="st17" d="M28.1,40.1c0,0,0.1-0.1,0.1-0.1C28.2,40,28.2,40,28.1,40.1z"/>
<path class="st3" d="M27.4,54c0,0,0.1,0.1,0.1,0.1C27.5,54.1,27.4,54.1,27.4,54z"/>
<path class="st21" d="M23,26c-0.1,0-0.2,0-0.3,0.1c0.6,1,1.2,2.1,1.8,3.1c-0.2-0.1-0.4-0.1-0.6-0.2c-1.1-0.5-2.2-0.4-2.7,0.2
	c-0.2,0.3-0.5,0.4-0.8,0.5c-0.4,0.2-0.7,0.4-1.1,0.6c-0.3-0.5,0-1,0.2-1.4c0.1-0.2,0.2-0.4,0.3-0.5c0.7-0.8,1.4-1.6,2.1-2.4
	C22.2,26,22.6,26,23,26z"/>
<path class="st14" d="M21.9,26c-0.7,0.8-1.4,1.6-2.1,2.4c-0.4,0-0.7,0.1-1.1,0.1c0.1-0.3,0.1-0.4,0.1-0.6c-0.1,0-0.1-0.1-0.2-0.1
	c-0.2,0.4-0.4,0.7-0.6,1c-0.3-0.2-0.7-0.5-1-0.7c-0.1,0-0.1,0.1-0.2,0.1c0,0.4,0,0.7,0,1.1c-0.1,0.1-0.2,0.2-0.2,0.3
	c-0.6-0.2-0.4-0.6-0.3-1c0-0.2,0.2-0.4,0.3-0.5c-0.1-0.3-0.2-0.5-0.3-0.7l0,0c0.5,0.1,1,0.2,1.5,0.2c-0.2-0.2-0.4-0.5-0.5-0.7
	c0,0,0,0,0,0c0.4,0.1,0.8,0.1,1.2,0.2c0.2,0.1,0.4,0.3,0.6,0.5c0.1,0.1,0.3,0.1,0.4,0.2c0-0.1,0-0.3-0.1-0.4
	c-0.1-0.1-0.2-0.3-0.3-0.4c-0.5-0.6-0.3-1.4,0.6-1.9c0,0.3,0,0.6,0,0.9c0,0.2,0,0.5,0.1,0.6c0.1,0.1,0.4,0,0.6,0
	c0.3-0.1,0.5-0.2,0.8-0.3c0.3-1,0.2-1.7-0.3-2.1c0.3-0.4,0.5-0.4,1-0.1C21.7,24.8,21.8,25.4,21.9,26z"/>
<path class="st23" d="M16.6,29.7c0.1-0.1,0.2-0.2,0.2-0.3c0.5-0.4,1.1-0.5,1.7-0.2c0.2,0.9-0.2,1.6-0.7,2.2
	c-0.5,0.5-0.9,0.5-1.6,0.2c0-0.5,0-1,0-1.5C16.4,30,16.5,29.8,16.6,29.7z"/>
<path class="st14" d="M18.3,24.8c0.2,0.6,0.5,1.1-0.2,1.7c-0.2-0.5-0.5-1-0.5-1.5c0-0.5,0.2-1,0.3-1.8c0.4,0.4,0.7,0.8,1.1,1.2
	c0.2-0.3,0.5-0.5,0.7-0.8c0.1-0.1,0.3,0,0.5,0c0,0.1,0,0.3-0.1,0.4C19.9,24.9,19.2,25,18.3,24.8z"/>
<path class="st14" d="M16.1,24.8c0.5,0.3,0.9,0.6,1.4,0.9c0.1,0.1,0.1,0.3,0.1,0.5c-0.2,0-0.3,0.1-0.4,0c-0.4-0.2-0.8-0.4-1.2-0.6
	c-0.1-0.1-0.2-0.3-0.2-0.5C15.6,25,15.9,24.9,16.1,24.8z"/>
<path class="st14" d="M16.2,27.4c-1.2,0-1.5-0.7-1.5-1.8c0.2,0,0.5,0,0.9,0c-0.2,0.3-0.3,0.4-0.4,0.5C15.6,26.6,15.9,27,16.2,27.4
	C16.2,27.4,16.2,27.4,16.2,27.4z"/>
<path class="st14" d="M16.1,27.9c-0.4,0.6-1.2,0.8-1.6,0.5c-0.1-0.1-0.2-0.5-0.1-0.5C15,27.7,15.5,27.7,16.1,27.9z"/>
<path class="st14" d="M19.8,25.8c0.2-0.4,0.4-0.7,0.6-1c0-0.1,0.3-0.1,0.3-0.1c0.1,0.1,0.2,0.3,0.2,0.4c-0.1,0.3-0.2,0.7-0.4,1
	c-0.1,0.1-0.3,0.2-0.4,0.3C20,26.2,19.9,26,19.8,25.8z"/>
<path class="st14" d="M15.8,29.8c-0.3,0.2-0.5,0.4-0.5,0.3c-0.3-0.3-0.5-0.5-0.8-0.8c0.1-0.1,0.4-0.4,0.4-0.3
	C15.2,29.2,15.5,29.4,15.8,29.8z"/>
<path class="st26" d="M17.2,26.9c-0.4-0.1-0.8-0.3-1.2-0.4c-0.1,0-0.1-0.2-0.1-0.3c0.1-0.1,0.2-0.1,0.3-0.1
	C16.6,26.4,16.9,26.6,17.2,26.9C17.2,26.9,17.2,26.9,17.2,26.9z"/>
<path class="st14" d="M22.7,24.5c0.2,0.2,0.4,0.4,0.6,0.5c-0.1,0.1-0.3,0.3-0.3,0.3c-0.3-0.1-0.5-0.3-0.7-0.5
	C22.3,24.8,22.4,24.7,22.7,24.5z"/>
<path class="st14" d="M14.5,27.5c-0.3,0.2-0.6,0.5-1,0.7c-0.2-0.6,0.2-0.8,0.4-1c0.1-0.1,0.4,0,0.6,0C14.5,27.3,14.5,27.4,14.5,27.5
	z"/>
<path class="st14" d="M16.9,24c0.2,0.2,0.4,0.4,0.4,0.5c0,0.1-0.3,0.4-0.3,0.3c-0.2-0.1-0.4-0.3-0.5-0.4
	C16.6,24.3,16.7,24.2,16.9,24z"/>
<path class="st29" d="M36.2,53.5c-1-0.8-2-1.7-3-2.5c-0.3-0.2-0.6-0.4-0.9-0.6c-0.4-0.3-0.3-0.6,0-0.9c1.2-0.9,3.6-0.5,4.4,0.7
	C37.4,51,37.1,52.6,36.2,53.5z"/>
<path class="st23" d="M25.1,31.8c0.7-0.5,1-0.4,1.6,0.6c0.3,0.7,0.1,1.3-0.4,1.9c-0.5,0.5-0.8,1.2-1.2,1.8c-0.2,0.4-0.6,0.7-1,0.6
	c-0.3-0.1-0.4-0.5-0.7-0.8c0,0-0.1-0.1-0.1-0.2c-1.6,0.8-3.2,0.9-4.9,0.4c-0.4-0.1-0.7-0.3-1-0.6C17,35,17.3,34.2,18.1,34
	c1.8-0.6,3.6-0.6,5.1,0.9c0,0,0.1,0.1,0.2,0.1c0.3-0.7,0.6-1.3,0.9-2C24.6,32.6,24.9,32.2,25.1,31.8z"/>
<path class="st22" d="M25.1,31.8c-0.3,0.4-0.6,0.8-0.9,1.2c-0.6,0.2-1.2,0-1.7-0.4c-0.4-0.3-0.8-0.7-1.1-1c0.3-0.4,0.4-0.9,0.1-1.4
	c-0.3-0.5-0.7-0.6-1.3-0.6c0.3-0.1,0.6-0.2,0.8-0.5c0.5-0.7,1.6-0.7,2.7-0.2c0.2,0.1,0.4,0.1,0.6,0.2C24.7,30,24.9,30.9,25.1,31.8z"
	/>
<path class="st23" d="M30.9,36c0.1,0.5-0.2,0.8-0.7,0.9c-0.7,0.2-1.9-0.3-2.4-1c-0.6-0.8-0.7-1.7-0.2-2.4c0.1-0.2,0.4-0.4,0.6-0.4
	C29.7,33.3,30.9,34.7,30.9,36z"/>
<path class="st23" d="M27.3,32.2c-1-1-0.8-1.9,0.5-2.4c0.8,0.3,1.5,0.5,2.3,0.8c0.2,0.1,0.3,0.2,0.5,0.4c0.6,0.8,0.3,1.6-0.8,1.7
	C28.9,32.7,28.1,32.7,27.3,32.2z"/>
<path class="st23" d="M20.4,29.8c0.5-0.1,1,0.1,1.3,0.6c0.3,0.5,0.2,0.9-0.1,1.4c-0.7,0.9-1.7,1.4-2.9,1.5c-0.7,0-1.1-0.5-0.7-1.2
	c0.4-0.6,0.9-1.1,1.3-1.6C19.6,30.2,20,30,20.4,29.8z"/>
<path class="st23" d="M22.4,39.9c-0.7-0.2-1.5-0.3-2.2-0.5c-0.3-0.1-0.5-0.4-0.8-0.6c0.2-0.3,0.4-0.7,0.7-0.8c1-0.5,2.1-0.6,3.1-0.4
	c0.7,0.1,0.9,0.5,0.9,1.2c0,0.6-0.4,0.8-0.9,0.9c-0.3,0-0.5,0-0.8,0C22.4,39.8,22.4,39.9,22.4,39.9z"/>
<path class="st23" d="M15.7,34.8c-0.5,0-0.9,0-1.4,0c-0.5-0.1-1-0.3-1-0.8c0-0.6,0.4-0.8,0.9-0.9c0.5-0.1,1.1,0,1.6-0.1
	c0.4,0.3,0.9,0.6,1.3,0.9C16.8,34.6,16.2,34.6,15.7,34.8z"/>
<path class="st23" d="M25.5,38.3c-0.3-0.2-0.7-0.2-0.9-0.4c-0.2-0.4,0-0.7,0.3-1c0.6-0.5,1.1-1,1.9-0.7c0.3,0.1,0.6,0.5,0.7,0.8
	c0.1,0.2-0.2,0.6-0.5,0.8C26.6,38,26.1,38.1,25.5,38.3z"/>
<path class="st15" d="M18.6,29.2c-0.6-0.3-1.2-0.2-1.7,0.2c0-0.4,0-0.7,0-1.1c0.1,0,0.1-0.1,0.2-0.1c0.3,0.2,0.6,0.4,1,0.7
	c0.2-0.3,0.4-0.6,0.6-1c0.1,0,0.1,0.1,0.2,0.1c0,0.2-0.1,0.3-0.1,0.6c0.4,0,0.8-0.1,1.1-0.1c-0.1,0.2-0.2,0.4-0.3,0.5
	C19.2,29,18.9,29.1,18.6,29.2z"/>
<path class="st21" d="M12.1,38.3c0-0.1,0-0.2,0-0.2c0.2-1.1,0.9-1.6,2-1.6c0.9,0,1.6,0.1,2.4,0.6c0,0,0,0.1,0,0.1c0,0.1,0,0.2,0,0.3
	c-0.1,0.2-0.1,0.3-0.2,0.5c-0.9,0.3-1.9,0.6-2.8,0.9C12.8,39,12.4,38.8,12.1,38.3z"/>
<path class="st22" d="M16.2,37.9c0.1-0.2,0.1-0.3,0.2-0.5c0,0.2,0,0.3,0,0.5C16.4,37.9,16.3,37.9,16.2,37.9z"/>
<path class="st17" d="M16.5,38c0,0.1,0,0.1,0.1,0.2C16.6,38.1,16.5,38.1,16.5,38z"/>
<path class="st18" d="M16.5,37.2c0,0,0-0.1,0-0.1c0-0.1,0.1-0.2,0.1-0.3C16.6,36.9,16.5,37,16.5,37.2z"/>
</svg>
