<?xml version="1.0" encoding="utf-8"?>
<!-- Generator: Adobe Illustrator 24.1.2, SVG Export Plug-In . SVG Version: 6.00 Build 0)  -->
<svg version="1.1" id="Layer_1" xmlns="http://www.w3.org/2000/svg" xmlns:xlink="http://www.w3.org/1999/xlink" x="0px" y="0px"
	 weight="64" height="64" viewBox="0 0 64 64" style="enable-background:new 0 0 64 64;" xml:space="preserve">
<style type="text/css">
	.st0{fill:#0C2B2D;}
	.st1{fill:#09292C;}
	.st2{fill:#0C2A2C;}
	.st3{fill:#193033;}
	.st4{fill:#183032;}
	.st5{fill:#152F31;}
	.st6{fill:#142E30;}
	.st7{fill:#44B984;}
	.st8{fill:#FCFCFC;}
	.st9{fill:#FAFAFA;}
	.st10{fill:#F3F2F2;}
	.st11{fill:#F7F7F7;}
	.st12{fill:#FEFEFE;}
	.st13{fill:#FABA48;}
</style>
<path class="st0" d="M22.9,47.8c-0.2-0.3-0.5-0.5-0.7-0.8c-0.1-0.1-0.1-0.2-0.2-0.3c-0.2-0.3-0.4-0.7-0.6-1c0-0.1-0.1-0.2-0.1-0.2
	c-0.1-0.4-0.3-0.7-0.4-1.1c0-0.1-0.1-0.3-0.1-0.4c-0.1-0.4-0.2-0.8-0.3-1.3c0-0.2-0.1-0.4-0.1-0.5c0-0.5-0.1-0.9-0.1-1.4
	c0-0.2,0-0.4,0-0.5c0-0.5,0-1.1,0-1.6c0.1-0.5,0.4-0.7,0.8-0.8c0.5,0,1.1,0,1.6,0c0.2,0,0.4,0,0.5,0c0.5,0,0.9,0.1,1.4,0.1
	c0.2,0,0.4,0.1,0.5,0.1c0.4,0.1,0.8,0.2,1.3,0.3c0.1,0,0.3,0.1,0.4,0.1c0.4,0.1,0.7,0.3,1.1,0.4c0.1,0,0.2,0.1,0.2,0.1
	c0.3,0.2,0.7,0.4,1,0.6c0.1,0.1,0.2,0.1,0.3,0.2c0.3,0.2,0.5,0.5,0.8,0.7c0.1,0.1,0.3,0.3,0.4,0.4c0.2,0.3,0.4,0.5,0.6,0.9
	c0-0.6,0-1.1,0-1.5c0-0.2,0-0.4,0-0.5c0-0.5,0-1.1,0-1.6c0-0.2,0-0.4,0-0.5c0-0.2,0-0.5,0-0.7c-0.4,0-0.8,0-1.1,0
	c-0.2,0-0.4,0-0.5,0c-0.4-0.1-0.8-0.1-1.2-0.2c-0.2,0-0.5-0.1-0.7-0.1c-0.4-0.1-0.8-0.2-1.1-0.3c-0.1,0-0.3-0.1-0.4-0.1
	c-0.4-0.1-0.7-0.3-1.1-0.4c-0.1,0-0.2-0.1-0.2-0.1c-0.3-0.2-0.7-0.4-1-0.6c-0.1-0.1-0.2-0.1-0.3-0.2c-0.3-0.3-0.6-0.6-0.9-0.9
	c-0.1-0.1-0.1-0.2-0.2-0.3c-0.2-0.3-0.4-0.6-0.6-0.9c-0.1-0.1-0.2-0.3-0.2-0.4c-0.2-0.4-0.3-0.7-0.5-1.1c0-0.1-0.1-0.2-0.1-0.3
	c-0.1-0.4-0.2-0.8-0.3-1.2c0-0.1-0.1-0.3-0.1-0.4c-0.1-0.5-0.1-0.9-0.2-1.4c0-0.2,0-0.3-0.1-0.5c0-0.5,0-1.1,0-1.6
	c0-0.2,0-0.4,0-0.5c0.1-0.7,0.5-1,1.1-1c0.2,0,0.4,0,0.5,0c0.5,0,1,0,1.5,0c0.2,0,0.4,0,0.5,0.1c0.5,0.1,0.9,0.1,1.4,0.2
	c0.2,0,0.4,0.1,0.5,0.1c0.4,0.1,0.8,0.2,1.2,0.3c0.1,0,0.2,0.1,0.3,0.1c0.4,0.2,0.8,0.4,1.2,0.5c0.1,0.1,0.2,0.1,0.3,0.2
	c0.3,0.2,0.5,0.4,0.8,0.6c0.1,0.1,0.2,0.2,0.4,0.3c0.5,0.5,0.9,1,1.4,1.6c0-0.5,0-1,0-1.5c0-0.5-0.1-0.8-0.5-1
	c-0.1-0.1-0.2-0.2-0.3-0.3c-0.3-0.3-0.5-0.6-0.8-0.8c-0.1-0.1-0.1-0.2-0.2-0.3c-0.2-0.3-0.4-0.6-0.6-0.8c-0.1-0.2-0.2-0.3-0.3-0.5
	c-0.2-0.3-0.3-0.5-0.5-0.8c-0.1-0.1-0.1-0.2-0.2-0.3c-0.2-0.4-0.3-0.8-0.5-1.2c0-0.1-0.1-0.3-0.1-0.4c-0.1-0.4-0.2-0.8-0.3-1.3
	c0-0.2,0-0.4,0-0.5c0-0.6,0.1-1.1,0.1-1.7c0-0.2,0.1-0.4,0.1-0.6c0.4-1,0.9-1.9,1.3-2.9c0.6-0.8,1.2-1.5,1.8-2.3
	c0.2-0.2,0.4-0.4,0.6-0.6c0.4-0.2,0.8-0.5,1.1-0.7c0.3,0.1,0.6,0.3,0.9,0.4c0.1,0.1,0.3,0.2,0.4,0.4c0.2,0.2,0.4,0.5,0.7,0.7
	c0.1,0.1,0.3,0.3,0.4,0.4c0.2,0.2,0.4,0.5,0.6,0.7c0.1,0.1,0.2,0.2,0.3,0.3c0.2,0.3,0.4,0.6,0.6,0.9c0.1,0.2,0.2,0.3,0.3,0.5
	c0.2,0.4,0.3,0.7,0.5,1.1c0,0.1,0.1,0.2,0.1,0.3c0.1,0.4,0.2,0.8,0.3,1.2c0,0.2,0.1,0.4,0.1,0.5c0,0.5,0,1,0.1,1.5
	c0,0.2,0,0.4,0,0.5c-0.2,0.7-0.4,1.5-0.6,2.2c-0.1,0.3-0.3,0.6-0.4,0.9c-0.8,1.4-1.8,2.6-3,3.7c-0.2,0.2-0.1,0.7-0.2,1
	c0,0.2,0,0.4,0,0.5c0,0.2,0,0.4,0,0.5c0.6-0.6,1.1-1.3,1.8-1.8c0.9-0.6,1.9-1,2.8-1.5c0.2-0.1,0.5-0.1,0.7-0.2
	c0.6-0.1,1.3-0.2,1.9-0.3c0.2,0,0.4,0,0.6-0.1c0.5,0,1.1,0,1.6,0c0.2,0,0.3,0,0.5,0c0.3,0.2,0.6,0.3,0.9,0.5c0,0.1,0.1,0.2,0.1,0.3
	c0,0.5,0,1.1,0,1.6c0,0.2,0,0.4,0,0.5c-0.1,0.6-0.1,1.2-0.2,1.8c0,0.2-0.1,0.4-0.1,0.6c-0.3,0.8-0.6,1.6-0.9,2.4
	c-0.3,0.4-0.5,0.8-0.8,1.3c-0.5,0.5-1,1-1.6,1.6c-0.4,0.3-0.8,0.5-1.3,0.8c-0.8,0.3-1.6,0.6-2.4,0.9c-0.2,0-0.4,0.1-0.6,0.1
	c-0.6,0.1-1.2,0.1-1.8,0.2c-0.2,0-0.4,0-0.5,0c-0.3,0-0.5,0-0.8,0c0,0.3,0,0.6,0,0.8c0,0.2,0,0.4,0,0.5c0,0.5,0,1.1,0,1.6
	c0,0.2,0,0.4,0,0.5c0,0.4,0,0.9,0,1.5c0.9-1.5,2.2-2.4,3.6-3.1c0.3-0.1,0.6-0.2,0.8-0.3c0.7-0.2,1.4-0.3,2.1-0.5
	c0.2,0,0.3,0,0.5-0.1c0.6,0,1.1-0.1,1.7-0.1c0.2,0,0.4,0,0.5,0c0.4,0,0.8,0.1,1.2,0.1c0.1,0.1,0.2,0.2,0.3,0.3
	c0,0.4,0.1,0.8,0.1,1.2c0,0.2,0,0.4,0,0.5c0,0.6-0.1,1.1-0.1,1.7c0,0.2-0.1,0.4-0.1,0.6c-0.2,0.7-0.3,1.3-0.5,2
	c-0.1,0.3-0.2,0.6-0.3,0.8c-0.9,1.9-2.2,3.3-4.1,4.1c-0.3,0.1-0.6,0.2-0.9,0.3c-0.7,0.2-1.4,0.3-2,0.5c-0.2,0-0.4,0.1-0.6,0.1
	c-0.6,0-1.1,0.1-1.7,0.1c-0.2,0-0.4,0-0.6,0c0,0.2,0,0.4,0,0.7c0,0.5,0,1.1,0,1.6c0,0.2,0,0.4,0,0.5c0,0.2,0,0.5,0,0.7
	c-0.2,0-0.5,0-0.7,0c-0.2,0-0.4,0-0.5,0c-0.1,0-0.3,0-0.4,0c0-0.3,0-0.6,0-0.8c0-0.2,0-0.4,0-0.5c0-0.5,0-1.1,0-1.6
	c-0.1-0.2,0.3-0.6-0.3-0.5c-0.5,0-1,0-1.5-0.1c-0.2,0-0.4,0-0.5,0c-0.5-0.1-0.9-0.1-1.4-0.2C27.3,50,27.2,50,27,50
	c-0.4-0.1-0.8-0.2-1.1-0.4c-0.1,0-0.2-0.1-0.2-0.1c-0.4-0.2-0.8-0.4-1.3-0.6c-0.1-0.1-0.2-0.1-0.3-0.2c-0.2-0.2-0.5-0.4-0.7-0.5
	C23.2,48,23.1,47.9,22.9,47.8z M21.8,39.5c0.1,1,0.1,1.9,0.3,2.8c0.3,1.8,1,3.5,2.5,4.6c1.8,1.4,4,1.7,6.2,1.8
	c0.3,0,0.3-0.2,0.3-0.4c-0.1-0.9-0.1-1.9-0.3-2.8c-0.3-1.6-1-3.1-2.3-4.2C26.5,39.8,24.3,39.5,21.8,39.5z M42.2,39.5
	c-2,0-3.9,0.2-5.5,1.2c-0.7,0.4-1.4,1-2,1.6c-1.4,1.8-1.6,3.9-1.7,6.1c0,0.3,0.2,0.3,0.4,0.3c0.9-0.1,1.9-0.1,2.8-0.3
	c1.6-0.3,3.1-0.9,4.1-2.2C41.8,44.2,42.1,41.9,42.2,39.5z M42.1,26.1c-2.8,0.1-5.5,0.4-7.3,2.7c-1.5,1.9-1.7,4.1-1.8,6.4
	C39.3,35.3,42.3,32.2,42.1,26.1z M31,35.2c0.2-6.1-2.9-9.3-9.1-9.1C21.7,32.2,24.6,35.4,31,35.2z M32,11.9c-1.3,1.3-2.4,2.7-3,4.4
	c-0.3,0.9-0.5,1.9-0.3,2.9c0.3,2,1.3,3.5,2.6,5c0.3,0.3,1.2,0.3,1.4,0c0.7-1,1.5-2,2.1-3.2c0.5-1,0.7-2.2,0.5-3.3
	C35,15.3,33.6,13.5,32,11.9z"/>
<path class="st1" d="M10,33.5c0-0.5,0-1.1,0-1.6c0-0.2,0-0.4,0-0.5c0-0.5,0-1.1,0-1.6c0-0.2,0-0.4,0-0.5c0-0.5,0-1.1,0-1.6
	c0-0.2,0-0.4,0-0.5c0-0.5,0-1.1,0-1.6c0-0.1,0-0.3,0-0.4c-0.2,0-0.3,0-0.4,0C9.1,25.1,8.7,25,8.2,25c-0.1,0-0.2-0.1-0.2-0.1
	c-0.3-0.2-0.6-0.5-0.8-0.7C7.1,24,7,23.9,6.9,23.7c-0.1-0.4-0.2-0.8-0.2-1.1c0-0.2,0-0.4,0-0.5c0-0.5,0-1.1,0-1.6c0-0.2,0-0.4,0-0.5
	c0-0.5,0-1.1,0-1.6c0-0.2,0-0.4,0-0.5c0-0.5,0-1.1,0-1.6c0-0.2,0-0.4,0-0.5c0-0.5,0-1.1,0-1.6c0-0.2,0-0.4,0-0.5c0.3-1,1-1.7,2-2
	c0.2,0,0.4,0,0.5,0c0.4,0.1,0.8,0.2,1.1,0.2c0.2,0.1,0.3,0.2,0.5,0.3c0.1,0,0.2,0,0.2,0c0.6-0.4,1.2-0.6,1.9-0.6
	c0.1,0,0.3,0.1,0.4,0.1c0.3,0.2,0.6,0.3,1,0.5c0.1-0.1,0.3-0.2,0.5-0.4c0.2-0.1,0.5-0.2,0.7-0.2c0.5,0,0.9,0.1,1.4,0.1
	c0.1,0.1,0.2,0.1,0.3,0.2c0.2,0.2,0.5,0.4,0.7,0.6c0.1,0.2,0.2,0.3,0.3,0.5c0.1,0.4,0.2,0.8,0.2,1.1c0,0.2,0,0.4,0,0.5
	c0,0.5,0,1.1,0,1.6c0,0.2,0,0.4,0,0.5c0,0.5,0,1.1,0,1.6c0,0.2,0,0.4,0,0.5c0,0.5,0,1.1,0,1.6c0,0.2,0,0.4,0,0.5c0,0.5,0,1.1,0,1.6
	c0,0.2,0,0.4,0,0.5c-0.3,1-1,1.7-2,2c-0.2,0-0.4,0-0.5,0c-0.3,0-0.5,0-0.8,0c0,0.3,0,0.6,0,0.8c0,0.2,0,0.4,0,0.5c0,0.5,0,1.1,0,1.6
	c0,0.2,0,0.4,0,0.5c0,0.5,0,1.1,0,1.6c0,0.2,0,0.4,0,0.5c0,0.5,0,1.1,0,1.6c0,0.2,0,0.4,0,0.5c0,0.5,0,1.1,0,1.6c0,0.2,0,0.4,0,0.5
	c0,0.5,0,1.1,0,1.6c0,0.2,0,0.4,0,0.5c0,0.5,0,1.1,0,1.6c0,0.2,0,0.4,0,0.5c0,0.5,0,1.1,0,1.6c0,0.2,0,0.4,0,0.5c0,0.5,0,1.1,0,1.6
	c0,0.2,0,0.4,0,0.5c0,0.5,0,1.1,0,1.6c0,0.2,0,0.4,0,0.5c0,0.5,0,1.1,0,1.6c0,0.2,0,0.4,0,0.5c0,0.5,0,1.1,0,1.6c0,0.2,0,0.4,0,0.5
	c-0.2,1.4-1,2.3-2.4,2.4c-0.2,0-0.4,0-0.5,0c-0.4-0.1-0.7-0.3-1.1-0.4c-0.1-0.1-0.2-0.2-0.3-0.3c-0.2-0.3-0.4-0.5-0.6-0.8
	c-0.1-0.1-0.1-0.3-0.2-0.4c0-0.5,0-1-0.1-1.5c0-0.2,0-0.4,0-0.5c0-0.5,0-1.1,0-1.6c0-0.2,0-0.4,0-0.5c0-0.5,0-1.1,0-1.6
	c0-0.2,0-0.4,0-0.5c0-0.5,0-1.1,0-1.6c0-0.2,0-0.4,0-0.5c0-0.5,0-1.1,0-1.6c0-0.2,0-0.4,0-0.5c0-0.5,0-1.1,0-1.6c0-0.2,0-0.4,0-0.5
	c0-0.5,0-1.1,0-1.6c0-0.2,0-0.4,0-0.5c0-0.5,0-1.1,0-1.6C10,33.8,10,33.6,10,33.5z M11.7,36.9c0,4.1,0,8.2,0,12.4
	c0,0.2-0.1,0.4,0,0.5c0.2,0.3,0.4,0.6,0.6,0.7c0.2,0.1,0.6-0.1,0.8-0.3c0.2-0.2,0.2-0.5,0.2-0.8c0-4.8,0-9.7,0-14.5
	c0-3.5,0-6.9,0-10.4c0-0.8,0.3-1.1,1.1-1.1c0.4,0,0.8,0,1.2,0c0.8,0,1.1-0.3,1.1-1.1c0-2.7,0-5.3,0-8c0-0.7-0.3-1.1-0.9-1.1
	c-0.5,0-0.8,0.4-0.8,1.1c0,1.5,0,3.1,0,4.6c0,0.7-0.3,1-0.9,1c-0.5,0-0.8-0.4-0.8-1.1c0-1.5,0-3.1,0-4.6c0-0.7-0.3-1.1-0.8-1.1
	c-0.5,0-0.9,0.4-0.9,1c0,1.5,0,3.1,0,4.6c0,0.7-0.3,1.1-0.8,1.1c-0.5,0-0.9-0.4-0.9-1.1c0-1.6,0-3.1,0-4.7c0-0.6-0.3-1-0.9-1
	c-0.5,0-0.8,0.4-0.8,1c0,2.7,0,5.5,0,8.2c0,0.6,0.3,0.9,1,0.9c0.4,0,0.8,0,1.3,0c0.9,0,1.2,0.3,1.2,1.2
	C11.7,28.7,11.7,32.8,11.7,36.9z"/>
<path class="st2" d="M54,27.8c0,0.5,0,1.1,0,1.6c0,0.2,0,0.4,0,0.5c0,0.5,0,1.1,0,1.6c0,0.2,0,0.4,0,0.5c0,0.5,0,1.1,0,1.6
	c0,0.2,0,0.4,0,0.5c0,0.5,0,1.1,0,1.6c0,0.2,0,0.4,0,0.5c0,0.5,0,1.1,0,1.6c0,0.2,0,0.4,0,0.5c0,0.5,0,1.1,0,1.6c0,0.2,0,0.4,0,0.5
	c0,0.5,0,1.1,0,1.6c0,0.2,0,0.4,0,0.5c0,0.5,0,1.1,0,1.6c0,0.2,0,0.4,0,0.5c0,0.5,0,1.1,0,1.6c0,0.2,0,0.4,0,0.5c0,0.5,0,1.1,0,1.6
	c0,0.2,0,0.4,0,0.5c-0.1,0.6-0.1,1.1-0.2,1.7c-0.3,0.6-0.8,1.1-1.4,1.4c-0.5,0-1.1,0.1-1.6,0.1c-0.1-0.1-0.3-0.1-0.4-0.2
	c-0.3-0.2-0.5-0.4-0.8-0.6c-0.1-0.1-0.2-0.2-0.3-0.3c-0.1-0.4-0.3-0.7-0.4-1.1c0-0.2,0-0.4,0-0.5c0-0.5,0-1.1,0-1.6
	c0-0.2,0-0.4,0-0.5c0-0.5,0-1.1,0-1.6c0-0.2,0-0.4,0-0.5c0-0.5,0-1.1,0-1.6c0-0.2,0-0.4,0-0.5c0-0.5,0-1.1,0-1.6c0-0.2,0-0.4,0-0.5
	c0-0.5,0-1.1,0-1.6c0-0.2,0-0.4,0-0.5c0-0.5,0-1.1,0-1.6c0-0.2,0-0.4,0-0.5c0-0.5,0-1.1,0-1.6c0-0.2,0-0.4,0-0.5c0-0.5,0-1.1,0-1.6
	c0-0.2,0-0.4,0-0.5c0-0.5,0-1.1,0-1.6c0-0.2,0-0.4,0-0.5c0-0.5,0-1.1,0-1.6c0-0.2,0-0.4,0-0.5c0-0.5,0-1.1,0-1.6c0-0.2,0-0.4,0-0.5
	c-0.3-0.3-0.6-0.6-0.9-0.9c-0.1-0.1-0.1-0.1-0.2-0.2c-0.2-0.3-0.5-0.6-0.7-0.8c-0.1-0.1-0.2-0.2-0.2-0.3c-0.2-0.3-0.4-0.7-0.6-1
	c0-0.1-0.1-0.2-0.1-0.3c-0.1-0.4-0.3-0.8-0.4-1.2c0-0.2-0.1-0.3-0.1-0.5c0-0.5-0.1-0.9-0.1-1.4c0-0.2,0-0.4,0-0.5
	c0-0.6,0.1-1.1,0.1-1.7c0.1-0.2,0.1-0.5,0.2-0.7c0.4-1.2,0.9-2.2,1.7-3.2c0.2-0.2,0.5-0.5,0.7-0.7c0.8-0.6,1.7-1.1,2.7-1.2
	c0.2,0,0.4,0,0.5,0c0.4,0,0.8,0.1,1.2,0.1c0.1,0,0.2,0.1,0.4,0.1c0.4,0.2,0.8,0.4,1.2,0.6c0.1,0.1,0.1,0.1,0.2,0.2
	c0.3,0.3,0.6,0.5,0.8,0.8c0.1,0.1,0.2,0.2,0.2,0.3c0.2,0.3,0.4,0.6,0.6,0.9c0.1,0.1,0.2,0.3,0.2,0.4c0.2,0.4,0.3,0.8,0.5,1.2
	c0,0.1,0.1,0.2,0.1,0.4c0.1,0.4,0.2,0.7,0.2,1.1c0,0.2,0.1,0.4,0.1,0.5c0,0.5,0,1,0,1.5c0,0.2,0,0.4,0,0.5c-0.1,0.7-0.3,1.3-0.4,2
	c-0.1,0.3-0.2,0.6-0.3,0.8c-0.6,1.2-1.3,2.2-2.5,3C54,26.1,54,26.4,54,26.6c0,0.2,0,0.4,0,0.6C54,27.4,54,27.6,54,27.8z M50.6,37.6
	c0,4,0,7.9,0,11.9c0,0.6,0.3,1,0.8,1c0.5,0,0.8-0.4,0.8-1c0-0.2,0-0.4,0-0.6c0-7.7,0-15.4,0-23c0-0.5,0.2-0.8,0.6-1.1
	c0.5-0.4,1-0.8,1.4-1.3c0.8-1,1.2-2.2,1.3-3.4c0.2-2.2-0.3-4.2-1.9-5.8c-0.7-0.7-1.6-1.1-2.6-1c-1.3,0.2-2.2,0.9-2.8,2
	c-1,1.7-1.3,3.6-0.9,5.5c0.4,1.7,1.1,3.2,2.8,4.1c0.4,0.2,0.4,0.6,0.4,1C50.6,29.7,50.6,33.7,50.6,37.6z"/>
<path class="st3" d="M28.9,6.7c0.2,0,0.3,0,0.5,0c0,0.2,0.1,0.4,0.1,0.6c0,0.2,0,0.4,0,0.5c0,0.2,0,0.3,0,0.5
	c-0.2,0-0.4,0.1-0.7,0.1c-0.2,0-0.4,0.1-0.6,0.1c-0.1-0.1-0.2-0.2-0.3-0.3c-0.1-0.2-0.1-0.4-0.1-0.5c0-0.1,0-0.3-0.1-0.4
	c-0.2-0.5,0.3-0.4,0.5-0.5C28.5,6.7,28.7,6.7,28.9,6.7z"/>
<path class="st3" d="M36,55.8c0,0.1,0.1,0.3,0.1,0.4c0,0.2,0,0.4,0.1,0.7c-0.3,0.1-0.6,0.1-0.9,0.2c-0.2,0-0.4,0.1-0.6,0.1
	c-0.1-0.4-0.2-0.7-0.2-1.1c0-0.1-0.1-0.3-0.1-0.4c0.1-0.1,0.2-0.2,0.3-0.3c0.2,0,0.4,0,0.6,0c0.2,0,0.4-0.1,0.7-0.1
	C36,55.4,36,55.6,36,55.8z"/>
<path class="st4" d="M28.4,57c-0.2,0-0.4-0.1-0.6-0.2c0-0.2,0-0.3,0.1-0.5c0-0.2,0.1-0.4,0.1-0.6c0.1-0.2,0-0.6,0.5-0.6
	c0.1,0,0.3,0.1,0.4,0.1c0.3,0.1,0.8-0.2,0.8,0.4c0,0.2,0,0.4,0,0.6c0,0.2-0.1,0.4-0.1,0.7c-0.1,0-0.3,0-0.5,0
	C28.8,57.1,28.6,57.1,28.4,57z"/>
<path class="st3" d="M36.1,7.6c-0.1,0.3-0.1,0.6-0.2,0.9c-0.2,0-0.4,0-0.7-0.1c-0.2,0-0.4,0-0.5,0c-0.1,0-0.2-0.1-0.3-0.1
	c0-0.3,0-0.6,0-0.8c0-0.2,0.1-0.4,0.1-0.6c0.1-0.1,0.2-0.1,0.2-0.2c0.2,0,0.4,0.1,0.5,0.1c0.3,0.1,0.6,0.2,1,0.2
	C36.2,7.2,36.2,7.4,36.1,7.6z"/>
<path class="st4" d="M21.6,54.2c0.1-0.2,0.2-0.4,0.3-0.6c0.1-0.1,0.2-0.1,0.3-0.1c0.4,0.2,0.8,0.3,1.1,0.5c0,0.1,0,0.1,0,0.2
	c-0.2,0.5-0.4,1-0.6,1.5c-0.2-0.1-0.5-0.1-0.7-0.2c-0.1-0.1-0.2-0.1-0.4-0.2c-0.2-0.1-0.3-0.2-0.5-0.3
	C21.4,54.7,21.5,54.4,21.6,54.2z"/>
<path class="st4" d="M42.3,9.8c-0.2,0.2-0.3,0.4-0.5,0.6c-0.1,0-0.2-0.1-0.2-0.1c-0.4-0.2-0.7-0.3-1.1-0.5c0.1-0.2,0.1-0.4,0.2-0.6
	c0.1-0.3,0.3-0.6,0.4-0.9c0.1,0,0.3,0.1,0.4,0.1c0.1,0,0.2,0.1,0.3,0.1c0.3,0.2,0.6,0.3,0.9,0.5C42.6,9.2,42.4,9.5,42.3,9.8z"/>
<path class="st4" d="M26.2,7.3c0.1,0.3,0.2,0.7,0.2,1c0,0.1,0.1,0.3,0.1,0.4c-0.1,0.1-0.2,0.1-0.2,0.2C26,9,25.8,9.1,25.6,9.1
	c-0.2,0-0.4,0.1-0.6,0.1c-0.1-0.2-0.1-0.3-0.2-0.5c-0.1-0.2-0.1-0.4-0.2-0.5c0-0.2-0.1-0.3-0.1-0.6c0.4-0.1,0.8-0.3,1.2-0.4
	C25.8,7.3,26,7.3,26.2,7.3z"/>
<path class="st4" d="M21.5,9.3c0-0.1-0.1-0.2-0.1-0.4c0.4-0.2,0.8-0.4,1.2-0.6c0.2,0,0.3,0,0.5,0.1c0.1,0.4,0.3,0.7,0.4,1.1
	c0,0.1,0,0.2,0.1,0.3c-0.1,0.1-0.2,0.1-0.4,0.2c-0.3,0.1-0.6,0.3-1,0.4c-0.2-0.3-0.4-0.6-0.6-0.9C21.5,9.4,21.5,9.3,21.5,9.3z"/>
<path class="st3" d="M38.8,7.4c0.2,0.2,0.7,0,0.7,0.5c-0.1,0.2-0.1,0.5-0.2,0.7c-0.2,0.2,0,0.7-0.5,0.6c-0.2-0.1-0.4-0.1-0.5-0.2
	c-0.2-0.2-0.7,0.1-0.7-0.4c0.1-0.2,0.1-0.5,0.2-0.7c0.1-0.2,0.1-0.4,0.2-0.6c0.2,0,0.3,0,0.5,0C38.5,7.3,38.6,7.3,38.8,7.4z"/>
<path class="st3" d="M26.5,55.2c-0.1,0.4-0.2,0.9-0.4,1.3c-0.3,0-0.5-0.1-0.8-0.1c-0.1,0-0.3-0.1-0.4-0.1c-0.1-0.1-0.3-0.1-0.4-0.2
	c0.1-0.3,0.1-0.6,0.2-0.9c0.1-0.2,0.2-0.5,0.2-0.7c0,0,0,0,0,0c0.1,0,0.3,0,0.4,0.1c0.4,0.1,0.7,0.2,1.1,0.3
	C26.4,55,26.5,55.1,26.5,55.2z"/>
<path class="st4" d="M39.1,54.8c0,0.1,0.1,0.2,0.1,0.3c0.1,0.3,0.2,0.6,0.3,1c-0.5,0.2-1.1,0.3-1.6,0.4c0-0.1-0.1-0.1-0.1-0.2
	c-0.1-0.4-0.2-0.8-0.3-1.3c0.1-0.1,0.3-0.2,0.4-0.4c0.3-0.1,0.5-0.1,0.7-0.2C39,54.4,39.1,54.6,39.1,54.8z"/>
<path class="st4" d="M40.5,54.2c0.2-0.2,0.4-0.3,0.6-0.5c0.3-0.1,0.6-0.2,0.8-0.3c0.1,0.2,0.2,0.3,0.3,0.5c0.1,0.1,0.1,0.3,0.2,0.4
	c0.1,0.2,0.1,0.4,0.2,0.6c-0.5,0.2-1.1,0.4-1.6,0.6c0-0.1-0.1-0.1-0.1-0.2C40.8,55,40.7,54.6,40.5,54.2z"/>
<path class="st5" d="M18.4,53.1c0.2-0.3,0.4-0.7,0.7-1c0.1-0.1,0.3-0.1,0.4-0.1c0.3,0.2,0.6,0.4,0.9,0.5c0,0.1,0.1,0.1,0.1,0.2
	c-0.3,0.5-0.5,0.9-0.8,1.4c-0.1,0-0.3-0.1-0.4-0.1c-0.1,0-0.1-0.1-0.2-0.1C18.9,53.6,18.7,53.4,18.4,53.1z"/>
<path class="st5" d="M44.1,54c-0.2-0.3-0.4-0.6-0.5-1c0-0.1-0.1-0.2-0.1-0.2c0.1-0.1,0.1-0.2,0.2-0.3c0.2-0.2,0.5-0.3,0.8-0.5
	c0.2,0,0.3,0,0.5,0c0.2,0.3,0.4,0.5,0.5,0.8c0.1,0.1,0.1,0.2,0.2,0.3c-0.3,0.2-0.6,0.5-0.8,0.7C44.5,53.9,44.3,54,44.1,54z"/>
<path class="st5" d="M43.4,11.2c0.1-0.3,0.2-0.6,0.4-0.8c0.2-0.2,0.4-0.4,0.6-0.7c0.1,0.1,0.2,0.1,0.3,0.2c0.3,0.2,0.6,0.4,0.9,0.6
	c0,0.1-0.1,0.3-0.1,0.4c-0.2,0.3-0.4,0.6-0.6,0.9c-0.1,0.1-0.2,0.1-0.3,0.2c-0.1-0.1-0.2-0.1-0.3-0.2C44,11.5,43.7,11.3,43.4,11.2z"
	/>
<path class="st5" d="M18.5,10.7c0-0.1,0-0.3,0.1-0.4c0.3-0.2,0.6-0.4,1-0.6c0.1,0,0.3,0,0.4,0.1c0.1,0.1,0.2,0.3,0.3,0.5
	c0.1,0.1,0.2,0.3,0.2,0.4c0,0.1,0.1,0.2,0.1,0.4c-0.5,0.3-0.9,0.5-1.4,0.7c-0.1-0.1-0.1-0.2-0.2-0.3C18.8,11.3,18.6,11,18.5,10.7z"
	/>
<path class="st6" d="M31.2,6.5c0.5,0,1,0,1.6,0c0,0,0.1,0.1,0.1,0.1c0,0.5,0,1,0,1.6c0,0,0,0,0,0c-0.5,0-1,0-1.6,0
	c0,0-0.1-0.1-0.1-0.1C31.2,7.6,31.2,7.1,31.2,6.5L31.2,6.5z"/>
<path class="st6" d="M32.3,55.5c0.2,0,0.3,0,0.5,0.1c0,0.4,0,0.8,0,1.2c0,0.3-0.1,0.5-0.4,0.4c-0.4,0-0.8,0-1.3,0c0-0.2,0-0.3,0-0.5
	c0-0.4,0-0.7,0.1-1.2C31.6,55.5,31.9,55.5,32.3,55.5z"/>
<path class="st7" d="M21.8,39.5c2.5,0,4.7,0.3,6.6,1.8c1.3,1.1,2,2.5,2.3,4.2c0.2,0.9,0.2,1.8,0.3,2.8c0,0.2,0,0.4-0.3,0.4
	c-2.2-0.1-4.3-0.4-6.2-1.8c-1.5-1.2-2.2-2.8-2.5-4.6C21.9,41.4,21.9,40.5,21.8,39.5z"/>
<path class="st7" d="M42.2,39.5c0,2.4-0.3,4.7-1.9,6.6c-1.1,1.3-2.5,1.9-4.1,2.2c-0.9,0.2-1.8,0.2-2.8,0.3c-0.2,0-0.4,0-0.4-0.3
	c0.1-2.2,0.3-4.3,1.7-6.1c0.5-0.7,1.2-1.2,2-1.6C38.3,39.7,40.2,39.5,42.2,39.5z"/>
<path class="st7" d="M42.1,26.1c0.2,6.2-2.8,9.3-9.1,9.2c0-2.3,0.3-4.6,1.8-6.4C36.6,26.5,39.3,26.2,42.1,26.1z"/>
<path class="st7" d="M31,35.2c-6.4,0.1-9.3-3.1-9.1-9.1C28.1,26,31.1,29.1,31,35.2z"/>
<path class="st7" d="M32,11.9c1.6,1.7,3,3.4,3.3,5.7c0.2,1.2,0,2.3-0.5,3.3c-0.6,1.1-1.4,2.1-2.1,3.2c-0.2,0.3-1.2,0.3-1.4,0
	c-1.3-1.4-2.3-3-2.6-5c-0.2-1,0-2,0.3-2.9C29.6,14.5,30.7,13.2,32,11.9z"/>
<path class="st8" d="M28,22.4c0.2,0.3,0.3,0.5,0.5,0.8c-0.1,0.2-0.3,0.4-0.4,0.6c-0.4,0.5-0.8,0.9-1.2,1.3c-0.4-0.1-0.8-0.2-1.2-0.3
	c0.1-0.2,0.1-0.4,0.2-0.5c0.4-0.4,0.8-0.8,1.2-1.2C27.4,22.8,27.7,22.6,28,22.4z"/>
<path class="st9" d="M28.7,23.6c0.2,0.3,0.4,0.6,0.6,0.8c-0.4,0.4-0.7,0.9-1.1,1.3c-0.4-0.2-0.8-0.4-1.2-0.5
	C27.7,24.7,28.2,24.2,28.7,23.6z"/>
<path class="st10" d="M30.7,25.9c0.4,0.2,0.5,0.5,0.5,1c0,0.5,0,1,0,1.5c-0.5-0.6-0.9-1.1-1.4-1.6C30.1,26.5,30.4,26.2,30.7,25.9z"
	/>
<path class="st11" d="M29.6,24.8c0.3,0.3,0.5,0.6,0.8,0.8c-0.3,0.3-0.6,0.6-0.9,0.9c-0.3-0.2-0.5-0.4-0.8-0.6
	C28.9,25.6,29.3,25.2,29.6,24.8z"/>
<path class="st11" d="M31.1,40.3c0,0.5,0,0.9,0,1.5c-0.2-0.4-0.4-0.6-0.6-0.9C30.7,40.8,30.9,40.6,31.1,40.3z"/>
<path class="st12" d="M33.7,37c-0.3,0.3-0.6,0.6-0.8,0.8c0-0.3,0-0.5,0-0.8C33.1,37,33.4,37,33.7,37z"/>
<path class="st13" d="M11.7,36.9c0-4.1,0-8.2,0-12.3c0-0.9-0.3-1.2-1.2-1.2c-0.4,0-0.8,0-1.3,0c-0.6,0-1-0.3-1-0.9
	c0-2.7,0-5.5,0-8.2c0-0.6,0.3-1,0.8-1c0.5,0,0.9,0.4,0.9,1c0,1.6,0,3.1,0,4.7c0,0.7,0.3,1.1,0.9,1.1c0.5,0,0.8-0.4,0.8-1.1
	c0-1.5,0-3.1,0-4.6c0-0.7,0.3-1,0.9-1c0.5,0,0.8,0.4,0.8,1.1c0,1.5,0,3.1,0,4.6c0,0.7,0.3,1,0.8,1.1c0.5,0,0.8-0.4,0.9-1
	c0-1.5,0-3.1,0-4.6c0-0.7,0.3-1.1,0.8-1.1c0.5,0,0.9,0.4,0.9,1.1c0,2.7,0,5.3,0,8c0,0.8-0.3,1.1-1.1,1.1c-0.4,0-0.8,0-1.2,0
	c-0.8,0-1.1,0.3-1.1,1.1c0,3.5,0,6.9,0,10.4c0,4.8,0,9.7,0,14.5c0,0.3,0,0.6-0.2,0.8c-0.2,0.2-0.6,0.3-0.8,0.3
	c-0.3-0.1-0.5-0.4-0.6-0.7c-0.1-0.1,0-0.3,0-0.5C11.7,45.1,11.7,41,11.7,36.9z"/>
<path class="st9" d="M18.5,10.7c0.2,0.3,0.4,0.6,0.5,0.8c-0.4,0.3-0.7,0.6-1.1,1c-0.2-0.2-0.5-0.4-0.7-0.6
	C17.6,11.5,18,11.1,18.5,10.7z"/>
<path class="st13" d="M50.6,37.6c0-3.9,0-7.9,0-11.8c0-0.4,0-0.8-0.4-1c-1.7-0.9-2.4-2.3-2.8-4.1c-0.4-1.9-0.1-3.8,0.9-5.5
	c0.6-1.1,1.5-1.8,2.8-2c1-0.1,1.9,0.2,2.6,1c1.6,1.6,2.1,3.6,1.9,5.8c-0.1,1.2-0.5,2.4-1.3,3.4c-0.4,0.5-0.9,0.9-1.4,1.3
	c-0.4,0.3-0.6,0.6-0.6,1.1c0,7.7,0,15.4,0,23c0,0.2,0,0.4,0,0.6c0,0.6-0.3,1-0.8,1c-0.5,0-0.8-0.4-0.8-1
	C50.6,45.5,50.6,41.6,50.6,37.6z"/>
</svg>
